<svg width="22" height="23" viewBox="0 0 22 23" fill="none" xmlns="http://www.w3.org/2000/svg">
<path fill-rule="evenodd" clip-rule="evenodd" d="M17.8653 11.1718C17.3375 11.307 16.7948 11.3752 16.25 11.375H16.2338V11.7276C16.2338 13.2047 16.4661 14.6818 16.952 16.1005L17.5549 17.9091H1.90613V17.8896L2.50738 16.081C2.9784 14.6709 3.22141 13.1947 3.22725 11.7081V8.13147C3.22725 7.21659 3.42225 6.32284 3.79113 5.50547C4.16 4.67022 4.68488 3.93084 5.36575 3.32797C6.04663 2.70722 6.8445 2.23922 7.69925 1.96784C8.5735 1.67534 9.48675 1.57784 10.3805 1.67534L10.5755 1.70459C10.8711 1.1755 11.2392 0.690344 11.6691 0.263219C11.2973 0.163349 10.9188 0.0900388 10.5365 0.0438438C9.40875 -0.0731562 8.2615 0.0438438 7.17275 0.412719C6.084 0.762094 5.09275 1.34547 4.2575 2.12384C3.41723 2.88138 2.74804 3.80928 2.2945 4.84572C1.83917 5.88167 1.60081 6.99989 1.59413 8.13147V11.7065C1.59202 13.0151 1.38194 14.3151 0.97175 15.5577L0 18.4323L0.778375 19.5016H6.474C6.474 20.3563 6.82338 21.1916 7.42625 21.7961C8.0275 22.3973 8.86438 22.7483 9.72075 22.7483C10.5771 22.7483 11.4108 22.399 12.0136 21.7961C12.6165 21.1932 12.9675 20.3563 12.9675 19.5016H18.6631L19.4399 18.4323L18.4876 15.5561C18.0756 14.3077 17.8655 13.0016 17.8653 11.687V11.1718ZM9.72075 21.1575C9.93465 21.1557 10.1461 21.1118 10.343 21.0281C10.5399 20.9444 10.7183 20.8227 10.868 20.67C11.0213 20.5221 11.142 20.3438 11.2223 20.1465C11.3027 19.9492 11.3408 19.7373 11.3344 19.5243H8.08763C8.08763 19.9517 8.2615 20.3612 8.5735 20.6716C8.72336 20.8241 8.90184 20.9455 9.09871 21.0288C9.29558 21.1122 9.50696 21.1559 9.72075 21.1575Z" fill="#FF9B9D"/>
<path d="M16.25 9.75C16.8902 9.75 17.5241 9.6239 18.1156 9.37891C18.707 9.13392 19.2445 8.77483 19.6971 8.32215C20.1498 7.86946 20.5089 7.33204 20.7539 6.74058C20.9989 6.14912 21.125 5.51519 21.125 4.875C21.125 4.23481 20.9989 3.60088 20.7539 3.00942C20.5089 2.41796 20.1498 1.88054 19.6971 1.42785C19.2445 0.975169 18.707 0.616079 18.1156 0.371087C17.5241 0.126096 16.8902 -9.53963e-09 16.25 0C14.9571 1.92662e-08 13.7171 0.513615 12.8029 1.42785C11.8886 2.34209 11.375 3.58207 11.375 4.875C11.375 6.16793 11.8886 7.40791 12.8029 8.32215C13.7171 9.23639 14.9571 9.75 16.25 9.75Z" fill="#FFCCCD"/>
</svg>
