<svg width="34" height="34" viewBox="0 0 34 34" fill="none" xmlns="http://www.w3.org/2000/svg">
<path d="M17.8413 32.9485L17.8243 32.9513L17.7237 33.0009L17.6953 33.0065L17.6755 33.0009L17.5749 32.9499C17.5598 32.9461 17.5485 32.9489 17.5409 32.9584L17.5353 32.9725L17.5112 33.5789L17.5183 33.6072L17.5324 33.6256L17.6798 33.7305L17.701 33.7361L17.718 33.7305L17.8653 33.6256L17.8823 33.603L17.888 33.5789L17.8639 32.974C17.8601 32.9588 17.8526 32.9503 17.8413 32.9485ZM18.2153 32.7884L18.1954 32.7912L17.9348 32.923L17.9206 32.9371L17.9163 32.9527L17.9418 33.5619L17.9489 33.5789L17.9603 33.5902L18.245 33.7205C18.2629 33.7253 18.2766 33.7215 18.2861 33.7092L18.2918 33.6894L18.2436 32.8195C18.2389 32.8016 18.2294 32.7912 18.2153 32.7884ZM17.2023 32.7912C17.1961 32.7874 17.1886 32.7862 17.1815 32.7878C17.1744 32.7894 17.1681 32.7936 17.1641 32.7997L17.1556 32.8195L17.1074 33.6894C17.1084 33.7064 17.1164 33.7177 17.1315 33.7234L17.1528 33.7205L17.4375 33.5888L17.4517 33.5775L17.4559 33.5619L17.4814 32.9527L17.4772 32.9357L17.463 32.9215L17.2023 32.7912Z" fill="#FFCCCD"/>
<path d="M23.3747 15.5833C24.7284 15.5832 26.0588 15.9358 27.2348 16.6064C28.4108 17.2769 29.3918 18.2423 30.0811 19.4073C30.7704 20.5724 31.1443 21.8969 31.166 23.2505C31.1876 24.604 30.8562 25.9398 30.2045 27.1263L30.7513 28.9836C30.8236 29.229 30.8284 29.4894 30.7652 29.7374C30.7021 29.9853 30.5732 30.2117 30.3923 30.3926C30.2114 30.5735 29.985 30.7023 29.7371 30.7655C29.4891 30.8287 29.2288 30.8239 28.9833 30.7516L27.1275 30.2048C26.0862 30.7766 24.9279 31.1027 23.7412 31.1582C22.5545 31.2137 21.3708 30.9971 20.2807 30.5249C19.1905 30.0528 18.2228 29.3377 17.4514 28.4342C16.68 27.5307 16.1255 26.4627 15.8302 25.312C15.5348 24.1613 15.5065 22.9584 15.7474 21.795C15.9883 20.6317 16.492 19.5389 17.22 18.6001C17.9481 17.6614 18.8811 16.9015 19.9478 16.3786C21.0146 15.8557 22.1867 15.5837 23.3747 15.5833ZM15.5831 4.25C18.4021 4.25039 21.1416 5.18463 23.3735 6.90674C25.6054 8.62885 27.204 11.0418 27.9194 13.7686C25.7753 12.7523 23.3526 12.4829 21.0377 13.0035C18.7227 13.524 16.6485 14.8045 15.1458 16.6408C13.6431 18.4772 12.7984 20.7636 12.7462 23.1359C12.6939 25.5081 13.4373 27.8295 14.8577 29.7302C12.8076 29.6162 10.8158 29.0061 9.05364 27.9523L5.29948 29.0573C5.05324 29.1299 4.79197 29.1348 4.54317 29.0715C4.29438 29.0081 4.06726 28.8789 3.88572 28.6973C3.70418 28.5158 3.57495 28.2887 3.51161 28.0399C3.44827 27.7911 3.45318 27.5298 3.52581 27.2836L4.63081 23.5294C3.47684 21.594 2.85642 19.3873 2.83274 17.134C2.80905 14.8808 3.38295 12.6615 4.49598 10.7022C5.60901 8.74295 7.22141 7.11364 9.16898 5.98024C11.1165 4.84683 13.3297 4.24982 15.5831 4.25Z" fill="#FFCCCD"/>
</svg>
