<svg width="30" height="32" viewBox="0 0 30 32" fill="none" xmlns="http://www.w3.org/2000/svg">
<path d="M15.8707 31.1847L15.8546 31.1876L15.7504 31.2389L15.7211 31.2448L15.7006 31.2389L15.5964 31.1876C15.5808 31.1827 15.569 31.1851 15.5612 31.1949L15.5553 31.2096L15.5304 31.8375L15.5377 31.8668L15.5524 31.8859L15.705 31.9944L15.727 32.0003L15.7446 31.9944L15.8971 31.8859L15.9147 31.8624L15.9206 31.8375L15.8957 31.2111C15.8918 31.1954 15.8834 31.1866 15.8707 31.1847ZM16.2595 31.0189L16.2404 31.0218L15.969 31.1583L15.9543 31.1729L15.9499 31.1891L15.9764 31.8199L15.9837 31.8375L15.9954 31.8477L16.2903 31.9842C16.3089 31.9891 16.3231 31.9851 16.3328 31.9724L16.3387 31.9519L16.2888 31.0512C16.2839 31.0336 16.2742 31.0228 16.2595 31.0189ZM15.2106 31.0218C15.2041 31.0179 15.1964 31.0166 15.189 31.0183C15.1816 31.0199 15.1752 31.0243 15.171 31.0306L15.1622 31.0512L15.1123 31.9519C15.1133 31.9695 15.1216 31.9812 15.1372 31.9871L15.1592 31.9842L15.4541 31.8477L15.4688 31.836L15.4746 31.8199L15.4996 31.1891L15.4952 31.1715L15.4805 31.1568L15.2106 31.0218Z" fill="#FFCCCD"/>
<path d="M14.9999 0C23.102 0 29.6697 6.56767 29.6697 14.6698C29.6697 22.7719 23.102 29.3396 14.9999 29.3396C6.89775 29.3396 0.330078 22.7719 0.330078 14.6698C0.330078 6.56767 6.89775 0 14.9999 0ZM14.9999 5.86792C14.6108 5.86792 14.2377 6.02247 13.9626 6.29759C13.6874 6.5727 13.5329 6.94583 13.5329 7.3349V14.6698C13.533 15.0588 13.6876 15.4319 13.9627 15.7069L18.3637 20.1079C18.6403 20.3751 19.0109 20.523 19.3955 20.5196C19.7802 20.5163 20.1481 20.362 20.4201 20.09C20.6921 19.818 20.8464 19.4501 20.8497 19.0655C20.8531 18.6808 20.7052 18.3103 20.438 18.0336L16.4669 14.0625V7.3349C16.4669 6.94583 16.3123 6.5727 16.0372 6.29759C15.7621 6.02247 15.3889 5.86792 14.9999 5.86792Z" fill="#FFCCCD"/>
</svg>
