<svg width="15" height="18" viewBox="0 0 15 18" fill="none" xmlns="http://www.w3.org/2000/svg">
<path d="M7.94813 16.8525L7.93989 16.854L7.88666 16.8802L7.87167 16.8832L7.86117 16.8802L7.80794 16.854C7.79995 16.8515 7.79395 16.8527 7.78995 16.8577L7.78695 16.8652L7.77421 17.1861L7.77796 17.2011L7.78545 17.2108L7.86342 17.2663L7.87466 17.2693L7.88366 17.2663L7.96163 17.2108L7.97062 17.1988L7.97362 17.1861L7.96088 16.866C7.95888 16.858 7.95463 16.8535 7.94813 16.8525ZM8.1468 16.7678L8.13705 16.7693L7.99836 16.839L7.99086 16.8465L7.98862 16.8547L8.00211 17.1771L8.00586 17.1861L8.01186 17.1913L8.16254 17.2611C8.17204 17.2636 8.17929 17.2616 8.18428 17.2551L8.18728 17.2446L8.16179 16.7843C8.15929 16.7753 8.1543 16.7698 8.1468 16.7678ZM7.61078 16.7693C7.60747 16.7673 7.60352 16.7666 7.59975 16.7674C7.59598 16.7683 7.59268 16.7705 7.59053 16.7738L7.58604 16.7843L7.56055 17.2446C7.56105 17.2536 7.5653 17.2596 7.57329 17.2626L7.58454 17.2611L7.73522 17.1913L7.74272 17.1853L7.74572 17.1771L7.75846 16.8547L7.75621 16.8457L7.74872 16.8382L7.61078 16.7693Z" fill="#FDFDFD"/>
<path d="M7.5027 0.916016C11.6432 0.916016 14.9995 4.27235 14.9995 8.41285C14.9995 12.5534 11.6432 15.9097 7.5027 15.9097C3.36219 15.9097 0.00585938 12.5534 0.00585938 8.41285C0.00585938 4.27235 3.36219 0.916016 7.5027 0.916016ZM7.5027 3.91475C7.30387 3.91475 7.11318 3.99373 6.97259 4.13433C6.832 4.27492 6.75301 4.46561 6.75301 4.66443V8.41285C6.75305 8.61166 6.83207 8.80232 6.97267 8.94288L9.22172 11.1919C9.36311 11.3285 9.55248 11.4041 9.74905 11.4023C9.94561 11.4006 10.1336 11.3218 10.2726 11.1828C10.4116 11.0438 10.4905 10.8558 10.4922 10.6592C10.4939 10.4626 10.4183 10.2733 10.2818 10.1319L8.25238 8.10248V4.66443C8.25238 4.46561 8.1734 4.27492 8.0328 4.13433C7.89221 3.99373 7.70152 3.91475 7.5027 3.91475Z" fill="#FDFDFD"/>
</svg>
