<svg width="28" height="34" viewBox="0 0 28 34" fill="none" xmlns="http://www.w3.org/2000/svg">
<path fill-rule="evenodd" clip-rule="evenodd" d="M17.6359 0H9.45951L4.37891 4.6358L12.3504 11.9094H14.745L22.7165 4.6358L17.6359 0Z" fill="#B8B8B8"/>
<path fill-rule="evenodd" clip-rule="evenodd" d="M13.5483 12.361C10.8534 12.361 8.26882 13.3379 6.36322 15.0766C4.45762 16.8154 3.38707 19.1737 3.38707 21.6326C3.38707 24.0916 4.45762 26.4499 6.36322 28.1887C8.26882 29.9274 10.8534 30.9042 13.5483 30.9042C16.2432 30.9042 18.8277 29.9274 20.7333 28.1887C22.6389 26.4499 23.7095 24.0916 23.7095 21.6326C23.7095 19.1737 22.6389 16.8154 20.7333 15.0766C18.8277 13.3379 16.2432 12.361 13.5483 12.361ZM0 21.6326C0 18.354 1.4274 15.2096 3.9682 12.8913C6.509 10.5729 9.95505 9.27051 13.5483 9.27051C17.1415 9.27051 20.5876 10.5729 23.1284 12.8913C25.6692 15.2096 27.0966 18.354 27.0966 21.6326C27.0966 24.9113 25.6692 28.0556 23.1284 30.374C20.5876 32.6923 17.1415 33.9948 13.5483 33.9948C9.95505 33.9948 6.509 32.6923 3.9682 30.374C1.4274 28.0556 0 24.9113 0 21.6326Z" fill="#DDDDDD"/>
</svg>
