<svg width="45" height="46" viewBox="0 0 45 46" fill="none" xmlns="http://www.w3.org/2000/svg">
<path d="M22.5 0.5C10.0736 0.5 0 10.5736 0 23C0 35.4264 10.0736 45.5 22.5 45.5C34.9264 45.5 45 35.4264 45 23C45 10.5736 34.9264 0.5 22.5 0.5ZM27.4796 13.3814C30.1532 13.3396 32.571 14.7931 33.7172 17.271C34.7775 20.5469 33.8902 23.8795 32.0203 26.391C30.7861 28.0941 29.3111 29.5629 27.803 30.8462C26.4156 32.1377 23.3102 34.6934 22.4872 34.7644C21.7598 34.6253 20.9432 33.8014 20.3657 33.3781C17.1207 30.9113 13.6282 27.9127 11.857 24.6328C10.3719 21.4839 10.3692 17.5879 12.6805 15.1737C15.6774 12.472 20.1951 13.0008 22.4872 15.8234C23.1027 15.0249 23.8599 14.396 24.7582 13.9384C25.6687 13.5751 26.5884 13.3953 27.4796 13.3814Z" fill="#FF9B9D"/>
</svg>
