<svg width="31" height="37" viewBox="0 0 31 37" fill="none" xmlns="http://www.w3.org/2000/svg">
<path fill-rule="evenodd" clip-rule="evenodd" d="M14.6956 2.05582L7.88214 3.83252L4.75244 9.17022L13.1273 14.0807L15.1228 13.5604L20.0333 5.18552L14.6956 2.05582Z" fill="#FF9B9D"/>
<path fill-rule="evenodd" clip-rule="evenodd" d="M14.2329 14.2344C11.9872 14.82 10.0661 16.2737 8.89225 18.2758C7.71838 20.2778 7.3879 22.6641 7.9735 24.9098C8.5591 27.1555 10.0128 29.0766 12.0148 30.2505C14.0169 31.4243 16.4032 31.7548 18.6489 31.1692C20.8946 30.5836 22.8157 29.1299 23.9895 27.1279C25.1634 25.1259 25.4939 22.7395 24.9083 20.4938C24.3227 18.2481 22.869 16.327 20.867 15.1532C18.8649 13.9793 16.4786 13.6488 14.2329 14.2344ZM5.15103 25.6458C4.37023 22.6516 4.81088 19.4698 6.37603 16.8004C7.94119 14.131 10.5026 12.1928 13.4969 11.412C16.4912 10.6312 19.6729 11.0718 22.3423 12.637C25.0117 14.2021 26.95 16.7636 27.7308 19.7578C28.5116 22.7521 28.0709 25.9339 26.5058 28.6032C24.9406 31.2726 22.3792 33.2109 19.3849 33.9917C16.3906 34.7725 13.2088 34.3318 10.5395 32.7667C7.87011 31.2015 5.93183 28.6401 5.15103 25.6458Z" fill="#FFCCCD"/>
</svg>
