<svg width="22" height="22" viewBox="0 0 22 22" fill="none" xmlns="http://www.w3.org/2000/svg">
<path fill-rule="evenodd" clip-rule="evenodd" d="M11.6024 20.6198L11.5912 20.6219L11.5189 20.6575L11.4986 20.6616L11.4843 20.6575L11.4121 20.6219C11.4012 20.6185 11.3931 20.6202 11.3876 20.627L11.3836 20.6371L11.3663 21.0728L11.3714 21.0931L11.3815 21.1064L11.4874 21.1817L11.5027 21.1858L11.5149 21.1817L11.6207 21.1064L11.6329 21.0901L11.637 21.0728L11.6197 20.6382C11.617 20.6273 11.6112 20.6212 11.6024 20.6198ZM11.8721 20.5048L11.8589 20.5069L11.6706 20.6015L11.6604 20.6117L11.6574 20.6229L11.6757 21.0606L11.6808 21.0728L11.6889 21.0799L11.8935 21.1746C11.9064 21.178 11.9163 21.1753 11.923 21.1664L11.9271 21.1522L11.8925 20.5272C11.8891 20.515 11.8823 20.5075 11.8721 20.5048ZM11.1444 20.5069C11.1399 20.5041 11.1345 20.5033 11.1294 20.5044C11.1243 20.5055 11.1198 20.5086 11.1169 20.513L11.1108 20.5272L11.0762 21.1522C11.0769 21.1644 11.0826 21.1725 11.0935 21.1766L11.1087 21.1746L11.3133 21.0799L11.3235 21.0718L11.3276 21.0606L11.3449 20.6229L11.3418 20.6107L11.3317 20.6005L11.1444 20.5069Z" fill="#8C8C8C"/>
<path fill-rule="evenodd" clip-rule="evenodd" d="M3.87393 0C3.06406 0 2.28736 0.32172 1.7147 0.894384C1.14203 1.46705 0.820313 2.24375 0.820312 3.05362V13.2323C0.820313 13.7723 1.03479 14.2901 1.41657 14.6718C1.79834 15.0536 2.31614 15.2681 2.85606 15.2681V3.05362C2.85606 2.78366 2.9633 2.52476 3.15419 2.33387C3.34507 2.14299 3.60397 2.03575 3.87393 2.03575H18.1241C18.1241 1.49583 17.9097 0.978032 17.5279 0.596256C17.1461 0.21448 16.6283 0 16.0884 0H3.87393ZM3.87393 5.08936C3.87393 4.54945 4.08841 4.03165 4.47019 3.64987C4.85196 3.2681 5.36976 3.05362 5.90968 3.05362H19.142C19.6819 3.05362 20.1997 3.2681 20.5815 3.64987C20.9633 4.03165 21.1778 4.54945 21.1778 5.08936V16.6249C21.1778 17.1648 20.9633 17.6826 20.5815 18.0644C20.1997 18.4462 19.6819 18.6607 19.142 18.6607H5.90968C5.36976 18.6607 4.85196 18.4462 4.47019 18.0644C4.08841 17.6826 3.87393 17.1648 3.87393 16.6249V5.08936ZM19.142 5.08936H5.90968V13.0776L9.82645 9.16085C9.9446 9.04267 10.0849 8.94892 10.2393 8.88496C10.3937 8.821 10.5591 8.78808 10.7262 8.78808C10.8934 8.78808 11.0588 8.821 11.2132 8.88496C11.3676 8.94892 11.5079 9.04267 11.626 9.16085L14.925 12.4588L15.8248 11.56C15.9429 11.4418 16.0832 11.348 16.2376 11.2841C16.392 11.2201 16.5575 11.1872 16.7246 11.1872C16.8917 11.1872 17.0572 11.2201 17.2116 11.2841C17.3659 11.348 17.5062 11.4418 17.6244 11.56L19.142 13.0776V5.08936ZM17.1063 8.14298C17.1063 8.54792 16.9454 8.93627 16.6591 9.2226C16.3727 9.50893 15.9844 9.66979 15.5795 9.66979C15.1745 9.66979 14.7862 9.50893 14.4998 9.2226C14.2135 8.93627 14.0527 8.54792 14.0527 8.14298C14.0527 7.73805 14.2135 7.3497 14.4998 7.06336C14.7862 6.77703 15.1745 6.61617 15.5795 6.61617C15.9844 6.61617 16.3727 6.77703 16.6591 7.06336C16.9454 7.3497 17.1063 7.73805 17.1063 8.14298Z" fill="#8C8C8C"/>
</svg>
