<svg width="26" height="26" viewBox="0 0 26 26" fill="none" xmlns="http://www.w3.org/2000/svg">
<g clip-path="url(#clip0_128_8451)">
<path d="M13 0C16.4478 0 19.7544 1.36964 22.1924 3.80761C24.6304 6.24558 26 9.55219 26 13C26 16.4478 24.6304 19.7544 22.1924 22.1924C19.7544 24.6304 16.4478 26 13 26C9.55219 26 6.24558 24.6304 3.80761 22.1924C1.36964 19.7544 0 16.4478 0 13C0 9.55219 1.36964 6.24558 3.80761 3.80761C6.24558 1.36964 9.55219 0 13 0ZM14.7257 7.007C14.7257 6.57602 14.5545 6.1627 14.2498 5.85795C13.9451 5.55321 13.5317 5.382 13.1007 5.382C12.6698 5.382 12.2564 5.55321 11.9517 5.85795C11.647 6.1627 11.4757 6.57602 11.4757 7.007V11.4757H7.007C6.57602 11.4757 6.1627 11.647 5.85795 11.9517C5.55321 12.2564 5.382 12.6698 5.382 13.1007C5.382 13.5317 5.55321 13.9451 5.85795 14.2498C6.1627 14.5545 6.57602 14.7257 7.007 14.7257H11.4757V19.1945C11.4757 19.6255 11.647 20.0388 11.9517 20.3435C12.2564 20.6483 12.6698 20.8195 13.1007 20.8195C13.5317 20.8195 13.9451 20.6483 14.2498 20.3435C14.5545 20.0388 14.7257 19.6255 14.7257 19.1945V14.7257H19.1945C19.6255 14.7257 20.0388 14.5545 20.3435 14.2498C20.6483 13.9451 20.8195 13.5317 20.8195 13.1007C20.8195 12.6698 20.6483 12.2564 20.3435 11.9517C20.0388 11.647 19.6255 11.4757 19.1945 11.4757H14.7257V7.007Z" fill="#FFCCCD"/>
</g>
<defs>
<clipPath id="clip0_128_8451">
<rect width="26" height="26" fill="white"/>
</clipPath>
</defs>
</svg>
