<svg width="16" height="16" viewBox="0 0 16 16" fill="none" xmlns="http://www.w3.org/2000/svg">
<path d="M8 1.5C4.41 1.5 1.5 4.41 1.5 8C1.5 11.59 4.41 14.5 8 14.5C8.85373 14.501 9.69926 14.3334 10.488 14.0066C11.2767 13.6799 11.9931 13.2005 12.596 12.596C12.6843 12.5012 12.7324 12.3759 12.7301 12.2463C12.7278 12.1168 12.6754 11.9932 12.5837 11.9016C12.4921 11.81 12.3685 11.7575 12.239 11.7552C12.1095 11.7529 11.9841 11.801 11.8893 11.8893C11.2498 12.5288 10.4623 13.0007 9.59683 13.2632C8.73131 13.5257 7.81442 13.5708 6.92736 13.3943C6.0403 13.2178 5.21045 12.8253 4.5113 12.2515C3.81216 11.6778 3.26531 10.9404 2.91918 10.1048C2.57306 9.26923 2.43834 8.36117 2.52696 7.46108C2.61558 6.56099 2.92481 5.69664 3.42725 4.9446C3.9297 4.19255 4.60985 3.57602 5.40747 3.14962C6.20509 2.72321 7.09556 2.50008 8 2.5C9.704 2.5 10.948 3.27867 12.112 4.38867L10.8333 5.66667C10.8333 5.94267 11.0573 6.16667 11.3333 6.16667H14C14.1326 6.16667 14.2598 6.11399 14.3536 6.02022C14.4473 5.92645 14.5 5.79927 14.5 5.66667V3C14.5 2.86739 14.4473 2.74021 14.3536 2.64645C14.2598 2.55268 14.1326 2.5 14 2.5L12.82 3.68C11.5533 2.47 10.0633 1.5 8 1.5Z" fill="#8C8C8C"/>
</svg>
