<svg width="16" height="20" viewBox="0 0 16 20" fill="none" xmlns="http://www.w3.org/2000/svg">
<path fill-rule="evenodd" clip-rule="evenodd" d="M10.1945 0H5.8054L3.07812 2.72727L7.35722 7.00636H8.64267L12.9218 2.72727L10.1945 0Z" fill="#6B5BD7"/>
<path fill-rule="evenodd" clip-rule="evenodd" d="M8.00002 7.27277C6.55339 7.27277 5.166 7.84745 4.14308 8.87037C3.12015 9.8933 2.54548 11.2807 2.54548 12.7273C2.54548 14.174 3.12015 15.5613 4.14308 16.5843C5.166 17.6072 6.55339 18.1819 8.00002 18.1819C9.44666 18.1819 10.834 17.6072 11.857 16.5843C12.8799 15.5613 13.4546 14.174 13.4546 12.7273C13.4546 11.2807 12.8799 9.8933 11.857 8.87037C10.834 7.84745 9.44666 7.27277 8.00002 7.27277ZM0.727295 12.7273C0.727295 10.7985 1.49353 8.94862 2.85743 7.58472C4.22133 6.22082 6.07118 5.45459 8.00002 5.45459C9.92887 5.45459 11.7787 6.22082 13.1426 7.58472C14.5065 8.94862 15.2727 10.7985 15.2727 12.7273C15.2727 14.6562 14.5065 16.506 13.1426 17.8699C11.7787 19.2338 9.92887 20 8.00002 20C6.07118 20 4.22133 19.2338 2.85743 17.8699C1.49353 16.506 0.727295 14.6562 0.727295 12.7273Z" fill="#C2C3EF"/>
</svg>
