<svg width="14" height="20" viewBox="0 0 14 20" fill="none" xmlns="http://www.w3.org/2000/svg">
<path fill-rule="evenodd" clip-rule="evenodd" d="M9.07183 0H4.86605L2.25269 2.61337L6.35306 6.71374H7.58482L11.6852 2.61337L9.07183 0Z" fill="#FF9B9D"/>
<path fill-rule="evenodd" clip-rule="evenodd" d="M6.96898 6.96881C5.58276 6.96881 4.25332 7.51948 3.27312 8.49968C2.29292 9.47988 1.74224 10.8093 1.74224 12.1955C1.74224 13.5818 2.29292 14.9112 3.27312 15.8914C4.25332 16.8716 5.58276 17.4223 6.96898 17.4223C8.35519 17.4223 9.68463 16.8716 10.6648 15.8914C11.645 14.9112 12.1957 13.5818 12.1957 12.1955C12.1957 10.8093 11.645 9.47988 10.6648 8.49968C9.68463 7.51948 8.35519 6.96881 6.96898 6.96881ZM0 12.1955C0 10.3473 0.734229 8.57466 2.04117 7.26773C3.3481 5.96079 5.12069 5.22656 6.96898 5.22656C8.81726 5.22656 10.5898 5.96079 11.8968 7.26773C13.2037 8.57466 13.938 10.3473 13.938 12.1955C13.938 14.0438 13.2037 15.8164 11.8968 17.1233C10.5898 18.4303 8.81726 19.1645 6.96898 19.1645C5.12069 19.1645 3.3481 18.4303 2.04117 17.1233C0.734229 15.8164 0 14.0438 0 12.1955Z" fill="#FFCCCD"/>
</svg>
