<svg width="34" height="34" viewBox="0 0 34 34" fill="none" xmlns="http://www.w3.org/2000/svg">
<path d="M13.7842 17.459C13.7842 18.0683 13.5422 18.6527 13.1113 19.0835C12.6805 19.5144 12.0962 19.7564 11.4868 19.7564C10.8775 19.7564 10.2932 19.5144 9.86234 19.0835C9.4315 18.6527 9.18945 18.0683 9.18945 17.459C9.18945 16.8497 9.4315 16.2654 9.86234 15.8345C10.2932 15.4037 10.8775 15.1616 11.4868 15.1616C12.0962 15.1616 12.6805 15.4037 13.1113 15.8345C13.5422 16.2654 13.7842 16.8497 13.7842 17.459Z" stroke="#8C8C8C" stroke-width="1.5"/>
<path d="M18.378 12.4048L13.7832 15.6211M18.378 22.5133L13.7832 19.297" stroke="#8C8C8C" stroke-width="1.5" stroke-linecap="round"/>
<path d="M22.9737 23.4328C22.9737 24.0421 22.7316 24.6264 22.3008 25.0573C21.87 25.4881 21.2856 25.7302 20.6763 25.7302C20.067 25.7302 19.4826 25.4881 19.0518 25.0573C18.621 24.6264 18.3789 24.0421 18.3789 23.4328C18.3789 22.8235 18.621 22.2391 19.0518 21.8083C19.4826 21.3774 20.067 21.1354 20.6763 21.1354C21.2856 21.1354 21.87 21.3774 22.3008 21.8083C22.7316 22.2391 22.9737 22.8235 22.9737 23.4328ZM22.9737 11.4864C22.9737 12.0957 22.7316 12.68 22.3008 13.1109C21.87 13.5417 21.2856 13.7837 20.6763 13.7837C20.067 13.7837 19.4826 13.5417 19.0518 13.1109C18.621 12.68 18.3789 12.0957 18.3789 11.4864C18.3789 10.8771 18.621 10.2927 19.0518 9.86186C19.4826 9.43101 20.067 9.18896 20.6763 9.18896C21.2856 9.18896 21.87 9.43101 22.3008 9.86186C22.7316 10.2927 22.9737 10.8771 22.9737 11.4864Z" stroke="#8C8C8C" stroke-width="1.5"/>
<circle cx="17" cy="17" r="16.5" stroke="#B8B8B8"/>
</svg>
