<svg width="16" height="19" viewBox="0 0 16 19" fill="none" xmlns="http://www.w3.org/2000/svg">
<path d="M5.78424 9.45901C5.78424 10.0683 5.54219 10.6527 5.11135 11.0835C4.6805 11.5144 4.09615 11.7564 3.48684 11.7564C2.87754 11.7564 2.29319 11.5144 1.86234 11.0835C1.4315 10.6527 1.18945 10.0683 1.18945 9.45901C1.18945 8.84971 1.4315 8.26536 1.86234 7.83451C2.29319 7.40367 2.87754 7.16162 3.48684 7.16162C4.09615 7.16162 4.6805 7.40367 5.11135 7.83451C5.54219 8.26536 5.78424 8.84971 5.78424 9.45901Z" stroke="#8C8C8C" stroke-width="1.5"/>
<path d="M10.378 4.40479L5.7832 7.62113M10.378 14.5133L5.7832 11.297" stroke="#8C8C8C" stroke-width="1.5" stroke-linecap="round"/>
<path d="M14.9737 15.4328C14.9737 16.0421 14.7316 16.6264 14.3008 17.0573C13.87 17.4881 13.2856 17.7302 12.6763 17.7302C12.067 17.7302 11.4826 17.4881 11.0518 17.0573C10.621 16.6264 10.3789 16.0421 10.3789 15.4328C10.3789 14.8235 10.621 14.2391 11.0518 13.8083C11.4826 13.3774 12.067 13.1354 12.6763 13.1354C13.2856 13.1354 13.87 13.3774 14.3008 13.8083C14.7316 14.2391 14.9737 14.8235 14.9737 15.4328ZM14.9737 3.48636C14.9737 4.09566 14.7316 4.68001 14.3008 5.11086C13.87 5.5417 13.2856 5.78375 12.6763 5.78375C12.067 5.78375 11.4826 5.5417 11.0518 5.11086C10.621 4.68001 10.3789 4.09566 10.3789 3.48636C10.3789 2.87705 10.621 2.2927 11.0518 1.86186C11.4826 1.43101 12.067 1.18896 12.6763 1.18896C13.2856 1.18896 13.87 1.43101 14.3008 1.86186C14.7316 2.2927 14.9737 2.87705 14.9737 3.48636Z" stroke="#8C8C8C" stroke-width="1.5"/>
</svg>
