<svg width="15" height="18" viewBox="0 0 15 18" fill="none" xmlns="http://www.w3.org/2000/svg">
<path d="M7.94789 16.853L7.93964 16.8545L7.88641 16.8807L7.87142 16.8837L7.86093 16.8807L7.8077 16.8545C7.7997 16.852 7.7937 16.8532 7.78971 16.8582L7.78671 16.8657L7.77396 17.1866L7.77771 17.2016L7.78521 17.2113L7.86317 17.2668L7.87442 17.2698L7.88342 17.2668L7.96138 17.2113L7.97038 17.1993L7.97338 17.1866L7.96063 16.8665C7.95863 16.8585 7.95439 16.854 7.94789 16.853ZM8.14655 16.7682L8.13681 16.7697L7.99812 16.8395L7.99062 16.847L7.98837 16.8552L8.00187 17.1776L8.00561 17.1866L8.01161 17.1918L8.1623 17.2615C8.17179 17.264 8.17904 17.262 8.18404 17.2555L8.18704 17.245L8.16155 16.7847C8.15905 16.7757 8.15405 16.7702 8.14655 16.7682ZM7.61053 16.7697C7.60723 16.7677 7.60328 16.7671 7.59951 16.7679C7.59574 16.7688 7.59243 16.771 7.59029 16.7742L7.58579 16.7847L7.5603 17.245C7.5608 17.254 7.56505 17.26 7.57305 17.263L7.58429 17.2615L7.73498 17.1918L7.74248 17.1858L7.74547 17.1776L7.75822 16.8552L7.75597 16.8462L7.74847 16.8387L7.61053 16.7697Z" fill="#FDFDFD"/>
<path d="M7.50318 0.916016C11.6437 0.916016 15 4.27235 15 8.41285C15 12.5534 11.6437 15.9097 7.50318 15.9097C3.36268 15.9097 0.00634766 12.5534 0.00634766 8.41285C0.00634766 4.27235 3.36268 0.916016 7.50318 0.916016ZM7.50318 3.91475C7.30436 3.91475 7.11367 3.99373 6.97308 4.13433C6.83248 4.27492 6.7535 4.46561 6.7535 4.66443V8.41285C6.75354 8.61166 6.83255 8.80232 6.97316 8.94288L9.22221 11.1919C9.3636 11.3285 9.55297 11.4041 9.74954 11.4023C9.9461 11.4006 10.1341 11.3218 10.2731 11.1828C10.4121 11.0438 10.491 10.8558 10.4927 10.6592C10.4944 10.4626 10.4188 10.2733 10.2823 10.1319L8.25287 8.10248V4.66443C8.25287 4.46561 8.17388 4.27492 8.03329 4.13433C7.8927 3.99373 7.70201 3.91475 7.50318 3.91475Z" fill="#FDFDFD"/>
</svg>
