<svg width="26" height="33" viewBox="0 0 26 33" fill="none" xmlns="http://www.w3.org/2000/svg">
<path d="M20.1153 7.09578C20.1153 10.9167 17.0973 14.0142 13.3743 14.0142C9.65136 14.0142 6.6333 10.9167 6.6333 7.09578C6.6333 3.27485 9.65136 0.177368 13.3743 0.177368C17.0973 0.177368 20.1153 3.27485 20.1153 7.09578Z" fill="url(#paint0_linear_22_2558)"/>
<path d="M19.9381 7.09581C19.9381 3.36848 16.9951 0.35479 13.3745 0.35479C9.7538 0.35479 6.81085 3.36848 6.81085 7.09581C6.81085 10.8231 9.7538 13.8368 13.3745 13.8368C16.9951 13.8368 19.9381 10.8231 19.9381 7.09581ZM20.2929 7.09581C20.2929 11.0103 17.1997 14.1916 13.3745 14.1916C9.54922 14.1916 6.45605 11.0103 6.45605 7.09581C6.45605 3.18127 9.54922 0 13.3745 0C17.1997 0 20.2929 3.18127 20.2929 7.09581Z" fill="url(#paint1_linear_22_2558)"/>
<path d="M25.7919 28.3794C25.7919 35.3334 20.2323 31.3001 13.3742 31.3001C6.51612 31.3001 0.956543 35.3334 0.956543 28.3794C0.956543 21.4254 6.51612 15.7881 13.3742 15.7881C20.2323 15.7881 25.7919 21.4254 25.7919 28.3794Z" fill="url(#paint2_linear_22_2558)"/>
<path d="M25.4371 28.3794C25.4371 21.6167 20.0317 16.143 13.3742 16.1429C6.7167 16.1429 1.31134 21.6167 1.31133 28.3794C1.31133 30.0877 1.65587 31.0153 2.17717 31.5129C2.69472 32.0069 3.4747 32.1611 4.57166 32.0932C5.66772 32.0254 6.97201 31.7454 8.47748 31.4723C9.96801 31.202 11.6268 30.9453 13.3742 30.9453C15.1216 30.9453 16.7804 31.202 18.2709 31.4723C19.7764 31.7454 21.0807 32.0254 22.1768 32.0932C23.2736 32.1611 24.0534 32.0068 24.5709 31.5129C25.0922 31.0153 25.4371 30.0877 25.4371 28.3794ZM25.7877 28.6974C25.6204 35.1049 20.2981 31.4215 13.6947 31.3029L13.3742 31.3001C6.51612 31.3001 0.956543 35.3333 0.956543 28.3794C0.956546 21.4254 6.51612 15.7881 13.3742 15.7881L13.6947 15.7923C20.4047 15.9647 25.7919 21.5341 25.7919 28.3794L25.7877 28.6974Z" fill="#C2C3EF"/>
<defs>
<linearGradient id="paint0_linear_22_2558" x1="0.454034" y1="-6.16451" x2="20.6533" y2="14.5712" gradientUnits="userSpaceOnUse">
<stop offset="0.248464" stop-color="#DFDFF8"/>
<stop offset="0.316916" stop-color="white"/>
<stop offset="0.545627" stop-color="#D1D1F4"/>
<stop offset="1" stop-color="#6B5BD7"/>
</linearGradient>
<linearGradient id="paint1_linear_22_2558" x1="0.114175" y1="-6.50449" x2="20.831" y2="14.7765" gradientUnits="userSpaceOnUse">
<stop offset="0.248464" stop-color="#DFDFF8"/>
<stop offset="0.316916" stop-color="white"/>
<stop offset="0.545627" stop-color="#D1D1F4"/>
<stop offset="1" stop-color="#6B5BD7"/>
</linearGradient>
<linearGradient id="paint2_linear_22_2558" x1="4.14137" y1="-1.09103" x2="1.19107" y2="43.6214" gradientUnits="userSpaceOnUse">
<stop offset="0.248464" stop-color="#DFDFF8"/>
<stop offset="0.316916" stop-color="white"/>
<stop offset="0.545627" stop-color="#D1D1F4"/>
<stop offset="1" stop-color="#6B5BD7"/>
</linearGradient>
</defs>
</svg>
