<svg width="26" height="26" viewBox="0 0 26 26" fill="none" xmlns="http://www.w3.org/2000/svg">
<path d="M0 23.0286V9.65714C0 9.18666 0.115375 8.74095 0.346125 8.32C0.576875 7.89905 0.894833 7.55238 1.3 7.28L11.05 0.594286C11.6187 0.198095 12.2687 0 13 0C13.7312 0 14.3812 0.198095 14.95 0.594286L24.7 7.28C25.1062 7.55238 25.4247 7.89905 25.6555 8.32C25.8862 8.74095 26.0011 9.18666 26 9.65714V23.0286C26 23.8457 25.6815 24.5455 25.0445 25.1279C24.4075 25.7103 23.6427 26.001 22.75 26H17.875C17.4146 26 17.0289 25.8574 16.718 25.5721C16.4071 25.2869 16.2511 24.9342 16.25 24.5143V17.0857C16.25 16.6648 16.094 16.3122 15.782 16.0279C15.47 15.7436 15.0843 15.601 14.625 15.6H11.375C10.9146 15.6 10.5289 15.7426 10.218 16.0279C9.90708 16.3131 9.75108 16.6657 9.75 17.0857V24.5143C9.75 24.9352 9.594 25.2883 9.282 25.5736C8.97 25.8589 8.58433 26.001 8.125 26H3.25C2.35625 26 1.59142 25.7093 0.955499 25.1279C0.319583 24.5465 0.00108333 23.8467 0 23.0286Z" fill="#FFCCCD"/>
</svg>
