<svg width="30" height="33" viewBox="0 0 30 33" fill="none" xmlns="http://www.w3.org/2000/svg">
<path d="M0 5.49923C0 4.32355 0.953071 3.37048 2.12874 3.37048H26.9641C28.1397 3.37048 29.0928 4.32355 29.0928 5.49923V30.3346C29.0928 31.5102 28.1397 32.4633 26.9641 32.4633H2.12874C0.95307 32.4633 0 31.5102 0 30.3346V5.49923Z" fill="url(#paint0_linear_22_2579)"/>
<path d="M26.9641 32.1085V32.4633H2.12874V32.1085H26.9641ZM28.738 30.3346V5.49923C28.738 4.5195 27.9438 3.72527 26.9641 3.72527H2.12874C1.14902 3.72527 0.35479 4.5195 0.35479 5.49923V30.3346C0.35479 31.3143 1.14902 32.1085 2.12874 32.1085V32.4633L2.01926 32.4605C0.894466 32.4035 0 31.4735 0 30.3346V5.49923C0 4.36027 0.894466 3.43024 2.01926 3.37326L2.12874 3.37048H26.9641C28.1397 3.37048 29.0928 4.32355 29.0928 5.49923V30.3346C29.0928 31.5102 28.1397 32.4633 26.9641 32.4633V32.1085C27.9438 32.1085 28.738 31.3143 28.738 30.3346Z" fill="#C2C3EF"/>
<path d="M20.5776 7.62797L20.5776 1.24175C20.5776 0.849856 20.8953 0.532166 21.2872 0.532166C21.6791 0.532165 21.9968 0.849856 21.9968 1.24175L21.9968 7.62797C21.9968 8.01986 21.6791 8.33756 21.2872 8.33756C20.8953 8.33756 20.5776 8.01987 20.5776 7.62797Z" fill="url(#paint1_linear_22_2579)"/>
<path d="M7.0957 7.62797L7.0957 1.24175C7.0957 0.849856 7.41339 0.532166 7.80528 0.532166C8.19717 0.532165 8.51486 0.849856 8.51486 1.24175L8.51487 7.62797C8.51487 8.01986 8.19718 8.33756 7.80528 8.33756C7.41339 8.33756 7.0957 8.01987 7.0957 7.62797Z" fill="url(#paint2_linear_22_2579)"/>
<path d="M14.5463 26.0771L13.466 25.0818C9.62891 21.5604 7.0957 19.2303 7.0957 16.3876C7.0957 14.0576 8.89875 12.2403 11.1935 12.2403C12.4899 12.2403 13.7342 12.8511 14.5463 13.8087C15.3584 12.8511 16.6027 12.2403 17.8991 12.2403C20.1939 12.2403 21.9969 14.0576 21.9969 16.3876C21.9969 19.2303 19.4637 21.5604 15.6266 25.0818L14.5463 26.0771Z" fill="#FDFDFD"/>
<defs>
<linearGradient id="paint0_linear_22_2579" x1="1.48291" y1="-22.0609" x2="29.0928" y2="38.3173" gradientUnits="userSpaceOnUse">
<stop offset="0.255819" stop-color="#DFDFF8"/>
<stop offset="0.33845" stop-color="white"/>
<stop offset="0.577281" stop-color="#D1D1F4"/>
<stop offset="1" stop-color="#6B5BD7"/>
</linearGradient>
<linearGradient id="paint1_linear_22_2579" x1="8.69216" y1="8.33755" x2="27.3187" y2="0.709561" gradientUnits="userSpaceOnUse">
<stop offset="0.248464" stop-color="#DFDFF8"/>
<stop offset="0.316916" stop-color="white"/>
<stop offset="0.50848" stop-color="#D1D1F4"/>
<stop offset="1" stop-color="#6B5BD7"/>
</linearGradient>
<linearGradient id="paint2_linear_22_2579" x1="-4.78978" y1="8.33755" x2="13.8367" y2="0.709561" gradientUnits="userSpaceOnUse">
<stop offset="0.248464" stop-color="#DFDFF8"/>
<stop offset="0.316916" stop-color="white"/>
<stop offset="0.50848" stop-color="#D1D1F4"/>
<stop offset="1" stop-color="#6B5BD7"/>
</linearGradient>
</defs>
</svg>
