<svg width="29" height="29" viewBox="0 0 29 29" fill="none" xmlns="http://www.w3.org/2000/svg">
<path d="M19.425 0.875H10.325C7.81984 0.878703 5.41835 1.87551 3.64693 3.64693C1.87551 5.41835 0.878703 7.81984 0.875 10.325V19.425C0.875 21.9313 1.87062 24.3349 3.64284 26.1072C5.41506 27.8794 7.8187 28.875 10.325 28.875H19.425C21.9313 28.875 24.3349 27.8794 26.1072 26.1072C27.8794 24.3349 28.875 21.9313 28.875 19.425V10.325C28.8713 7.81984 27.8745 5.41835 26.1031 3.64693C24.3317 1.87551 21.9302 0.878703 19.425 0.875ZM9.331 22.547C8.95166 22.547 8.58083 22.4345 8.26542 22.2238C7.95 22.013 7.70417 21.7135 7.559 21.363C7.41383 21.0125 7.37585 20.6269 7.44985 20.2548C7.52386 19.8828 7.70653 19.541 7.97477 19.2728C8.24301 19.0045 8.58476 18.8219 8.95682 18.7479C9.32887 18.6738 9.71452 18.7118 10.065 18.857C10.4155 19.0022 10.715 19.248 10.9258 19.5634C11.1365 19.8788 11.249 20.2497 11.249 20.629C11.2509 20.8814 11.2025 21.1316 11.1068 21.3652C11.0111 21.5987 10.8699 21.8109 10.6914 21.9894C10.5129 22.1679 10.3007 22.3091 10.0672 22.4048C9.83364 22.5005 9.5834 22.5489 9.331 22.547ZM9.331 16.793C8.95166 16.793 8.58083 16.6805 8.26542 16.4698C7.95 16.259 7.70417 15.9595 7.559 15.609C7.41383 15.2585 7.37585 14.8729 7.44985 14.5008C7.52386 14.1288 7.70653 13.787 7.97477 13.5188C8.24301 13.2505 8.58476 13.0679 8.95682 12.9939C9.32887 12.9198 9.71452 12.9578 10.065 13.103C10.4155 13.2482 10.715 13.494 10.9258 13.8094C11.1365 14.1248 11.249 14.4957 11.249 14.875C11.2604 15.1332 11.2191 15.391 11.1277 15.6327C11.0362 15.8745 10.8965 16.0951 10.7171 16.2811C10.5376 16.4671 10.3222 16.6146 10.0839 16.7146C9.84561 16.8147 9.58944 16.8652 9.331 16.863V16.793ZM9.331 11.039C8.95166 11.039 8.58083 10.9265 8.26542 10.7158C7.95 10.505 7.70417 10.2055 7.559 9.85499C7.41383 9.50452 7.37585 9.11887 7.44985 8.74682C7.52386 8.37476 7.70653 8.03301 7.97477 7.76477C8.24301 7.49653 8.58476 7.31386 8.95682 7.23985C9.32887 7.16585 9.71452 7.20383 10.065 7.349C10.4155 7.49417 10.715 7.74 10.9258 8.05542C11.1365 8.37083 11.249 8.74166 11.249 9.121C11.2509 9.37339 11.2025 9.62364 11.1068 9.85719C11.0111 10.0907 10.8699 10.3029 10.6914 10.4814C10.5129 10.6599 10.3007 10.8011 10.0672 10.8968C9.83364 10.9925 9.5834 11.0409 9.331 11.039ZM20.741 21.679H14.413C14.1345 21.679 13.8675 21.5684 13.6705 21.3715C13.4736 21.1745 13.363 20.9075 13.363 20.629C13.363 20.3505 13.4736 20.0835 13.6705 19.8865C13.8675 19.6896 14.1345 19.579 14.413 19.579H20.741C21.0195 19.579 21.2865 19.6896 21.4835 19.8865C21.6804 20.0835 21.791 20.3505 21.791 20.629C21.791 20.9075 21.6804 21.1745 21.4835 21.3715C21.2865 21.5684 21.0195 21.679 20.741 21.679ZM20.741 15.925H14.413C14.1345 15.925 13.8675 15.8144 13.6705 15.6175C13.4736 15.4205 13.363 15.1535 13.363 14.875C13.363 14.5965 13.4736 14.3295 13.6705 14.1325C13.8675 13.9356 14.1345 13.825 14.413 13.825H20.741C21.0195 13.825 21.2865 13.9356 21.4835 14.1325C21.6804 14.3295 21.791 14.5965 21.791 14.875C21.791 15.1535 21.6804 15.4205 21.4835 15.6175C21.2865 15.8144 21.0195 15.925 20.741 15.925ZM20.741 10.171H14.413C14.1345 10.171 13.8675 10.0604 13.6705 9.86346C13.4736 9.66655 13.363 9.39948 13.363 9.121C13.363 8.84252 13.4736 8.57545 13.6705 8.37854C13.8675 8.18162 14.1345 8.071 14.413 8.071H20.741C21.0195 8.071 21.2865 8.18162 21.4835 8.37854C21.6804 8.57545 21.791 8.84252 21.791 9.121C21.791 9.39948 21.6804 9.66655 21.4835 9.86346C21.2865 10.0604 21.0195 10.171 20.741 10.171Z" fill="#FF9B9D"/>
</svg>
