<svg width="22" height="29" viewBox="0 0 22 29" fill="none" xmlns="http://www.w3.org/2000/svg">
<path d="M16.6012 6.24922C16.6012 9.61427 13.9861 12.3422 10.7601 12.3422C7.53411 12.3422 4.91895 9.61427 4.91895 6.24922C4.91895 2.88416 7.53411 0.15625 10.7601 0.15625C13.9861 0.15625 16.6012 2.88416 16.6012 6.24922Z" fill="url(#paint0_linear_128_4886)"/>
<path d="M16.4474 6.2492C16.4474 2.96658 13.8973 0.31246 10.76 0.31246C7.62265 0.31246 5.07257 2.96658 5.07257 6.2492C5.07257 9.53182 7.62265 12.1859 10.76 12.1859C13.8973 12.1859 16.4474 9.53182 16.4474 6.2492ZM16.7549 6.2492C16.7549 9.69668 14.0746 12.4984 10.76 12.4984C7.44539 12.4984 4.76514 9.69668 4.76514 6.2492C4.76514 2.80171 7.44539 0 10.76 0C14.0746 0 16.7549 2.80171 16.7549 6.2492Z" fill="url(#paint1_linear_128_4886)"/>
<path d="M21.52 24.9933C21.52 31.1175 16.7026 27.5655 10.76 27.5655C4.81742 27.5655 0 31.1175 0 24.9933C0 18.869 4.81742 13.9043 10.76 13.9043C16.7026 13.9043 21.52 18.869 21.52 24.9933Z" fill="#FFCCCD"/>
<path d="M21.2126 24.9932C21.2126 19.0375 16.5288 14.2168 10.76 14.2168C4.99122 14.2168 0.307431 19.0374 0.307429 24.9932C0.307429 26.4978 0.605969 27.3146 1.05769 27.7529C1.50614 28.1879 2.182 28.3238 3.13253 28.264C4.08227 28.2042 5.21245 27.9577 6.51695 27.7172C7.8085 27.4791 9.2459 27.2531 10.76 27.2531C12.2741 27.2531 13.7115 27.4791 15.0031 27.7172C16.3076 27.9577 17.4377 28.2042 18.3875 28.264C19.3379 28.3238 20.0136 28.1878 20.462 27.7529C20.9137 27.3146 21.2126 26.4978 21.2126 24.9932ZM21.5164 25.2733C21.3714 30.9163 16.7596 27.6724 11.0377 27.568L10.76 27.5655C4.81742 27.5655 0 31.1175 0 24.9932C2.69561e-06 18.869 4.81742 13.9043 10.76 13.9043L11.0377 13.908C16.8519 14.0598 21.52 18.9647 21.52 24.9932L21.5164 25.2733Z" fill="#FFCCCD"/>
<defs>
<linearGradient id="paint0_linear_128_4886" x1="-0.435436" y1="-5.42897" x2="17.359" y2="12.5439" gradientUnits="userSpaceOnUse">
<stop offset="0.248464" stop-color="#FFEDEE"/>
<stop offset="0.316916" stop-color="white"/>
<stop offset="1" stop-color="#FF9B9D"/>
</linearGradient>
<linearGradient id="paint1_linear_128_4886" x1="-0.730149" y1="-5.72843" x2="17.5205" y2="12.7173" gradientUnits="userSpaceOnUse">
<stop offset="0.248464" stop-color="#FFEDEE"/>
<stop offset="0.316916" stop-color="white"/>
<stop offset="1" stop-color="#FF9B9D"/>
</linearGradient>
</defs>
</svg>
