<svg width="29" height="33" viewBox="0 0 29 33" fill="none" xmlns="http://www.w3.org/2000/svg">
<path d="M0 28.8429V12.3857C0 11.8067 0.128687 11.2581 0.386062 10.74C0.643437 10.2219 0.998083 9.79524 1.45 9.46L12.325 1.23143C12.9594 0.74381 13.6844 0.5 14.5 0.5C15.3156 0.5 16.0406 0.74381 16.675 1.23143L27.55 9.46C28.0031 9.79524 28.3584 10.2219 28.6157 10.74C28.8731 11.2581 29.0012 11.8067 29 12.3857V28.8429C29 29.8486 28.6447 30.7098 27.9342 31.4266C27.2237 32.1434 26.3707 32.5012 25.375 32.5H19.9375C19.424 32.5 18.9938 32.3245 18.647 31.9734C18.3002 31.6223 18.1262 31.1883 18.125 30.6714V21.5286C18.125 21.0105 17.951 20.5765 17.603 20.2266C17.255 19.8768 16.8248 19.7012 16.3125 19.7H12.6875C12.174 19.7 11.7438 19.8755 11.397 20.2266C11.0502 20.5777 10.8762 21.0117 10.875 21.5286V30.6714C10.875 31.1895 10.701 31.6241 10.353 31.9752C10.005 32.3263 9.57483 32.5012 9.0625 32.5H3.625C2.62812 32.5 1.77504 32.1422 1.06575 31.4266C0.356458 30.711 0.00120833 29.8498 0 28.8429Z" fill="url(#paint0_linear_22_2554)"/>
<path d="M10.5213 30.6713V21.5277C10.5228 20.9197 10.7314 20.3931 11.1475 19.9719C11.5641 19.5501 12.0855 19.3406 12.6875 19.3406V19.7001C12.174 19.7001 11.7436 19.8754 11.3969 20.2265C11.0501 20.5775 10.8762 21.0116 10.875 21.5284V30.6713L10.8729 30.7676C10.8525 31.2434 10.6793 31.6459 10.3531 31.9751L10.2868 32.039C9.95095 32.3475 9.54282 32.5011 9.0625 32.5H3.625V32.1404H9.06319C9.4866 32.1415 9.82549 32.0006 10.1038 31.7198C10.382 31.4391 10.5213 31.0978 10.5213 30.6713ZM18.125 21.5284C18.125 21.0428 17.9721 20.631 17.6663 20.2932L17.6031 20.2265C17.2551 19.8766 16.8248 19.7014 16.3125 19.7001H12.6875V19.3406H16.3132C16.9135 19.342 17.4345 19.5513 17.8518 19.9709C18.27 20.3913 18.4786 20.9188 18.4787 21.5284V30.6706L18.4804 30.7493C18.4975 31.1386 18.6363 31.4553 18.8966 31.7187C19.1735 31.9991 19.5124 32.1404 19.9375 32.1404V32.5L19.8422 32.4979C19.3705 32.4773 18.972 32.3025 18.6468 31.9733C18.3001 31.6222 18.1262 31.1882 18.125 30.6713V21.5284ZM28.6463 28.8427V12.3848C28.6474 11.8625 28.5323 11.3697 28.2999 10.902C28.0674 10.4339 27.7487 10.0517 27.3419 9.7507L27.3388 9.74859L16.4638 1.52001L16.4617 1.51826C15.8904 1.07913 15.2407 0.859551 14.5 0.859551C13.7592 0.859551 13.1096 1.07913 12.5383 1.51826L12.5362 1.52001L1.66123 9.74859L1.65846 9.75035C1.25275 10.0513 0.934458 10.4337 0.701791 10.902C0.469323 11.37 0.353658 11.8633 0.353658 12.3859V28.8423L0.357457 29.0116C0.39556 29.8485 0.711927 30.5631 1.31482 31.1713C1.95805 31.8203 2.7217 32.1404 3.625 32.1404V32.5L3.43988 32.4958C2.5833 32.4567 1.83689 32.1435 1.2005 31.5565L1.06581 31.4266C0.356519 30.711 0.00120833 29.8496 0 28.8427V12.3859C0 11.843 0.112946 11.3267 0.339153 10.8374L0.386123 10.7402C0.643483 10.2221 0.997982 9.7952 1.44986 9.45997L12.3249 1.23139C12.9592 0.743771 13.6844 0.5 14.5 0.5L14.652 0.502809C15.4059 0.531398 16.0804 0.774267 16.6751 1.23139L27.5501 9.45997C28.0032 9.7952 28.3582 10.2221 28.6156 10.7402C28.8729 11.2582 29.0012 11.8069 29 12.3859V28.8427L28.9958 29.0298C28.9542 29.9557 28.6002 30.7546 27.9342 31.4266C27.2237 32.1434 26.3706 32.5012 25.375 32.5H19.9375V32.1404H25.3753C26.277 32.1415 27.0406 31.8216 27.6852 31.1713C28.3296 30.5212 28.6463 29.7513 28.6463 28.8427Z" fill="#C2C3EF"/>
<defs>
<linearGradient id="paint0_linear_22_2554" x1="-1.79269" y1="-19.2105" x2="31.0422" y2="29.9433" gradientUnits="userSpaceOnUse">
<stop offset="0.29023" stop-color="#DFDFF8"/>
<stop offset="0.351814" stop-color="white"/>
<stop offset="0.587105" stop-color="#D1D1F4"/>
<stop offset="1" stop-color="#6B5BD7"/>
</linearGradient>
</defs>
</svg>
