<svg width="32" height="31" viewBox="0 0 32 31" fill="none" xmlns="http://www.w3.org/2000/svg">
<path d="M0 28.0532V9.38568C0 7.96806 1.14907 6.81885 2.56653 6.81885H13.2719C13.6262 6.81885 13.9135 7.10615 13.9135 7.46056C13.9135 7.81496 13.6262 8.10226 13.2719 8.10226H2.56653C1.8578 8.10226 1.28326 8.67687 1.28326 9.38568V28.0532C1.28335 28.7619 1.85785 29.3366 2.56653 29.3366H21.2318C21.9404 29.3365 22.515 28.7619 22.5151 28.0532V19.543C22.5151 19.1887 22.8024 18.9013 23.1567 18.9013C23.5109 18.9014 23.7983 19.1887 23.7983 19.543V28.0532C23.7983 29.4707 22.6491 30.6199 21.2318 30.62H2.56653C1.14912 30.62 8.33326e-05 29.4707 0 28.0532Z" fill="#FFCCCD"/>
<path d="M7.52688 22.0652L8.30257 16.7524C8.34985 16.4052 8.50832 16.0823 8.75623 15.8333L23.7858 0.800076C23.9803 0.602933 24.2225 0.459285 24.4889 0.383029C24.7554 0.306773 25.037 0.300491 25.3065 0.364792C26.6863 0.745776 27.9369 1.49304 28.9256 2.52717C29.958 3.5215 30.7009 4.7771 31.075 6.16007C31.1394 6.42932 31.1331 6.71061 31.0568 6.97673C30.9804 7.24284 30.8366 7.48477 30.6393 7.6791L15.5931 22.6932C15.3435 22.9402 15.02 23.0989 14.6717 23.1451L9.35429 23.9199C9.10311 23.9565 8.84683 23.9335 8.60623 23.8527C8.36563 23.7718 8.14749 23.6355 7.9695 23.4547C7.79151 23.2739 7.65867 23.0538 7.58177 22.8122C7.50487 22.5705 7.48606 22.3142 7.52688 22.0639M20.9424 3.65942L27.7959 10.5053L20.9424 3.65942Z" fill="#FFCCCD"/>
<path d="M24.4008 0.074526C24.6803 -0.00547082 24.9737 -0.0211192 25.2592 0.0278392L25.3811 0.0525926L25.392 0.0554127C26.8233 0.450634 28.1209 1.225 29.1481 2.29607L29.3462 2.49315C30.2529 3.42767 30.9251 4.56373 31.3074 5.80791L31.3848 6.07613L31.387 6.08553C31.4642 6.40855 31.4569 6.74608 31.3654 7.06532C31.274 7.38388 31.1016 7.67319 30.8656 7.906L15.8199 22.9203L15.8189 22.9213C15.5205 23.2166 15.1338 23.4064 14.7177 23.4624L14.718 23.4627L9.40074 24.2373C9.09973 24.2811 8.79243 24.2536 8.50409 24.1568C8.21577 24.0599 7.95425 23.8966 7.7409 23.6799C7.52754 23.4632 7.36848 23.1991 7.27628 22.9094C7.18408 22.6197 7.16125 22.3124 7.21017 22.0123C7.21041 22.0108 7.21116 22.0094 7.21142 22.0079L7.98464 16.7091C8.04127 16.2933 8.23143 15.9057 8.52915 15.6068L23.5574 0.574607C23.7907 0.338161 24.0813 0.16596 24.4008 0.074526ZM8.98343 16.0596C8.78535 16.2585 8.65859 16.5171 8.62063 16.7956L8.62001 16.7987L7.84428 22.1116C7.84408 22.113 7.84387 22.1144 7.84366 22.1157C7.811 22.3161 7.82595 22.5213 7.88752 22.7148C7.94911 22.9083 8.05569 23.0848 8.19831 23.2296C8.3409 23.3744 8.51556 23.4838 8.70836 23.5486C8.90118 23.6134 9.10668 23.6318 9.30801 23.6025L14.6256 22.8276L14.6297 22.827C14.9086 22.79 15.1677 22.6628 15.3675 22.4651L27.3473 10.5104L20.9348 4.10526L8.98343 16.0596ZM25.2276 0.675814C25.013 0.625471 24.789 0.630835 24.5772 0.691481C24.3638 0.752568 24.1699 0.867685 24.0142 1.0255L21.3884 3.65155L27.8016 10.0574L30.4126 7.45198L30.4142 7.45041C30.5722 7.29483 30.6874 7.10125 30.7485 6.88829C30.8091 6.67696 30.8144 6.45366 30.7641 6.23969C30.4048 4.91451 29.6925 3.71126 28.703 2.75823C28.6998 2.75521 28.6969 2.75198 28.6939 2.74883C27.7468 1.75819 26.549 1.04192 25.2276 0.675814Z" fill="#FFCCCD"/>
</svg>
