<svg width="26" height="28" viewBox="0 0 26 28" fill="none" xmlns="http://www.w3.org/2000/svg">
<path d="M0 4.35543C0 3.3245 0.835699 2.48877 1.86659 2.48877H23.6434C24.6743 2.48877 25.51 3.3245 25.51 4.35543V26.1332C25.51 27.1641 24.6743 27.9998 23.6434 27.9998H1.86659C0.835698 27.9998 0 27.1641 0 26.1332V4.35543Z" fill="#FFCCCD"/>
<path d="M23.6434 27.6887V27.9998H1.86659V27.6887H23.6434ZM25.1989 26.1332V4.35543C25.1989 3.49632 24.5025 2.79988 23.6434 2.79988H1.86659C1.00751 2.79988 0.311098 3.49632 0.311098 4.35543V26.1332C0.311098 26.9923 1.00751 27.6887 1.86659 27.6887V27.9998L1.77058 27.9974C0.784311 27.9474 0 27.1319 0 26.1332V4.35543C0 3.3567 0.784311 2.54117 1.77058 2.4912L1.86659 2.48877H23.6434C24.6743 2.48877 25.51 3.3245 25.51 4.35543V26.1332C25.51 27.1641 24.6743 27.9998 23.6434 27.9998V27.6887C24.5025 27.6887 25.1989 26.9923 25.1989 26.1332Z" fill="#FFCCCD"/>
<path d="M18.0437 6.22221L18.0437 0.622221C18.0437 0.278578 18.3223 -1.19029e-08 18.6659 -2.65858e-08C19.0095 -4.12687e-08 19.2881 0.278578 19.2881 0.622221L19.2881 6.22221C19.2881 6.56585 19.0095 6.84443 18.6659 6.84443C18.3223 6.84443 18.0437 6.56585 18.0437 6.22221Z" fill="#FFCCCD"/>
<path d="M6.22192 6.22221L6.22192 0.622221C6.22192 0.278578 6.50049 -1.19029e-08 6.84412 -2.65858e-08C7.18775 -4.12687e-08 7.46631 0.278578 7.46631 0.622221L7.46631 6.22221C7.46631 6.56585 7.18775 6.84443 6.84412 6.84443C6.50049 6.84443 6.22192 6.56585 6.22192 6.22221Z" fill="#FFCCCD"/>
<path d="M12.755 22.3999L11.8077 21.5271C8.44316 18.4392 6.22192 16.3961 6.22192 13.9033C6.22192 11.8601 7.80292 10.2666 9.8151 10.2666C10.9519 10.2666 12.0429 10.8022 12.755 11.6419C13.4671 10.8022 14.5581 10.2666 15.6948 10.2666C17.707 10.2666 19.288 11.8601 19.288 13.9033C19.288 16.3961 17.0668 18.4392 13.7023 21.5271L12.755 22.3999Z" fill="#FDFDFD"/>
</svg>
