<svg width="36" height="35" viewBox="0 0 36 35" fill="none" xmlns="http://www.w3.org/2000/svg">
<path d="M0.306641 31.1977V10.5558C0.306641 8.98823 1.5774 7.71747 3.14496 7.71747H14.984C15.3759 7.71747 15.6936 8.03516 15.6936 8.42705C15.6936 8.81894 15.3759 9.13663 14.984 9.13663H3.14496C2.36118 9.13663 1.7258 9.77201 1.7258 10.5558V31.1977C1.72589 31.9814 2.36124 32.6169 3.14496 32.6169H23.7869C24.5706 32.6168 25.206 31.9814 25.2061 31.1977V21.7875C25.2062 21.3957 25.5238 21.0779 25.9157 21.0779C26.3074 21.078 26.6251 21.3957 26.6252 21.7875V31.1977C26.6251 32.7652 25.3543 34.036 23.7869 34.0361H3.14496C1.57746 34.0361 0.306733 32.7652 0.306641 31.1977Z" fill="url(#paint0_linear_22_2614)"/>
<path d="M8.63066 24.5764L9.48851 18.7017C9.5408 18.3177 9.71604 17.9606 9.99021 17.6854L26.6114 1.06207C26.8266 0.844078 27.0944 0.685236 27.389 0.600914C27.6837 0.516593 27.9951 0.509647 28.2932 0.580749C29.8191 1.00203 31.2022 1.82833 32.2955 2.97184C33.4373 4.07134 34.2588 5.45974 34.6726 6.98899C34.7438 7.28672 34.7368 7.59776 34.6524 7.89202C34.568 8.18628 34.4089 8.45379 34.1907 8.66868L17.5511 25.2708C17.2751 25.5439 16.9173 25.7194 16.5321 25.7705L10.6516 26.6273C10.3738 26.6677 10.0904 26.6423 9.82432 26.5529C9.55825 26.4635 9.31701 26.3128 9.12016 26.1129C8.92332 25.913 8.77642 25.6695 8.69137 25.4023C8.60633 25.1351 8.58553 24.8517 8.63066 24.5749M23.4669 4.22385L31.0462 11.7938L23.4669 4.22385Z" fill="url(#paint1_linear_22_2614)"/>
<path d="M27.2913 0.259777C27.6004 0.171319 27.9249 0.154015 28.2406 0.208152L28.3754 0.235523L28.3875 0.238642C29.9704 0.675665 31.4054 1.53194 32.5414 2.71628L32.7604 2.93422C33.7632 3.96758 34.5065 5.2238 34.9293 6.59958L35.0149 6.89616L35.0173 6.90655C35.1027 7.26374 35.0947 7.63697 34.9934 7.98998C34.8924 8.34223 34.7017 8.66214 34.4408 8.91957L17.8017 25.522L17.8007 25.523C17.4707 25.8496 17.043 26.0594 16.5828 26.1214L16.5831 26.1217L10.7028 26.9782C10.3699 27.0267 10.03 26.9963 9.71116 26.8892C9.39231 26.782 9.10309 26.6014 8.86714 26.3618C8.63119 26.1222 8.45529 25.8302 8.35332 25.5098C8.25136 25.1895 8.22611 24.8497 8.28021 24.5179C8.28048 24.5163 8.28131 24.5147 8.2816 24.513L9.1367 18.6538C9.19933 18.194 9.40962 17.7654 9.73887 17.4349L26.3586 0.812751C26.6166 0.551296 26.938 0.360881 27.2913 0.259777ZM10.2413 17.9355C10.0222 18.1555 9.88202 18.4414 9.84004 18.7494L9.83935 18.7529L8.98148 24.6277C8.98126 24.6292 8.98102 24.6307 8.98079 24.6322C8.94467 24.8538 8.9612 25.0807 9.02929 25.2947C9.09741 25.5087 9.21527 25.7038 9.373 25.8639C9.53069 26.024 9.72385 26.145 9.93706 26.2166C10.1503 26.2883 10.3776 26.3087 10.6002 26.2762L16.4809 25.4194L16.4854 25.4187C16.7939 25.3778 17.0804 25.2372 17.3014 25.0185L30.5499 11.7995L23.4582 4.71683L10.2413 17.9355ZM28.2056 0.924662C27.9684 0.868994 27.7207 0.874926 27.4864 0.941986C27.2504 1.00953 27.036 1.13683 26.8637 1.31133L23.9599 4.21514L31.0523 11.2985L33.9398 8.41753L33.9415 8.4158C34.1163 8.24376 34.2437 8.0297 34.3112 7.79422C34.3783 7.56054 34.3841 7.31362 34.3286 7.07702C33.9312 5.61168 33.1435 4.28117 32.0491 3.22734C32.0456 3.22399 32.0424 3.22042 32.039 3.21694C30.9917 2.12152 29.667 1.3295 28.2056 0.924662Z" fill="#C2C3EF"/>
<defs>
<linearGradient id="paint0_linear_22_2614" x1="-10.3959" y1="-2.98511" x2="25.9155" y2="35.2716" gradientUnits="userSpaceOnUse">
<stop offset="0.112778" stop-color="#DFDFF8"/>
<stop offset="0.250265" stop-color="white"/>
<stop offset="0.415707" stop-color="#D1D1F4"/>
<stop offset="0.952105" stop-color="#6B5BD7"/>
</linearGradient>
<linearGradient id="paint1_linear_22_2614" x1="36.6726" y1="-20.5779" x2="4.74145" y2="29.6249" gradientUnits="userSpaceOnUse">
<stop offset="0.276508" stop-color="#DFDFF8"/>
<stop offset="0.295114" stop-color="white"/>
<stop offset="0.490991" stop-color="#D1D1F4"/>
<stop offset="1" stop-color="#6B5BD7"/>
</linearGradient>
</defs>
</svg>
