<svg width="69" height="46" viewBox="0 0 69 46" fill="none" xmlns="http://www.w3.org/2000/svg">
<path d="M13.2128 31.868C13.0928 31.868 13.0088 31.856 12.9608 31.832C12.6968 31.808 12.4928 31.724 12.3488 31.58C12.2288 31.436 12.1688 31.28 12.1688 31.112C12.1688 30.92 12.2648 30.764 12.4568 30.644C12.6488 30.5 12.9248 30.428 13.2848 30.428C14.7728 30.428 16.0448 30.008 17.1008 29.168C18.1808 28.328 18.9368 27.416 19.3688 26.432C19.5608 26.048 19.6568 25.64 19.6568 25.208C19.6568 24.704 19.4648 24.308 19.0808 24.02C18.7208 23.708 18.1808 23.552 17.4608 23.552C16.8848 23.552 16.2008 23.66 15.4088 23.876C13.1288 24.5 11.0768 25.688 9.25275 27.44C7.45275 29.168 6.13275 31.148 5.29275 33.38C4.57275 35.156 4.21275 36.812 4.21275 38.348C4.21275 40.124 4.70475 41.504 5.68875 42.488C6.67275 43.472 8.01675 43.964 9.72075 43.964C11.7848 43.964 14.1488 43.22 16.8128 41.732L17.0648 41.516L17.2088 41.444C17.3528 41.396 17.4728 41.396 17.5688 41.444C17.6888 41.468 17.7488 41.552 17.7488 41.696C17.7488 41.864 17.6648 42.056 17.4968 42.272C17.3288 42.464 17.1728 42.608 17.0288 42.704C15.9728 43.616 14.7488 44.336 13.3568 44.864C11.9888 45.392 10.6328 45.656 9.28875 45.656C7.75275 45.656 6.39675 45.296 5.22075 44.576C4.06875 43.88 3.24075 42.8 2.73675 41.336C2.40075 40.424 2.23275 39.416 2.23275 38.312C2.23275 36.2 2.83275 34.076 4.03275 31.94C5.25675 29.804 6.85275 27.956 8.82075 26.396C10.7888 24.812 12.8408 23.756 14.9768 23.228C15.9608 22.988 16.8608 22.868 17.6768 22.868C18.7808 22.868 19.6208 23.096 20.1968 23.552C20.7728 23.984 21.0608 24.572 21.0608 25.316C21.0608 25.844 20.9168 26.42 20.6288 27.044C20.1008 28.076 19.2368 29.048 18.0368 29.96C16.8608 30.872 15.4808 31.484 13.8968 31.796C13.6568 31.844 13.4288 31.868 13.2128 31.868ZM31.2732 40.688C31.6572 40.112 31.9692 39.596 32.2092 39.14C32.7612 38.18 33.1452 37.292 33.3612 36.476C33.6012 35.66 33.8412 34.52 34.0812 33.056C33.7212 32.288 32.9292 31.904 31.7052 31.904C31.3932 31.904 31.1652 31.916 31.0212 31.94C29.8692 32.084 28.6452 32.852 27.3492 34.244C26.5332 35.132 25.8612 36.248 25.3332 37.592C24.8292 38.912 24.6012 40.184 24.6492 41.408C24.6732 42.08 24.8892 42.62 25.2972 43.028C25.7292 43.436 26.2332 43.64 26.8092 43.64C27.4572 43.688 28.0332 43.592 28.5372 43.352C29.0652 43.088 29.5812 42.68 30.0852 42.128C30.4932 41.72 30.8892 41.24 31.2732 40.688ZM26.8812 44.936C25.7292 44.936 24.8532 44.636 24.2532 44.036C23.4612 43.244 23.0652 42.176 23.0652 40.832C23.0652 39.296 23.5452 37.568 24.5052 35.648C24.9132 34.808 25.4292 34.052 26.0532 33.38C26.6772 32.684 27.3252 32.132 27.9972 31.724C28.5972 31.268 29.2572 30.92 29.9772 30.68C30.7212 30.416 31.4292 30.284 32.1012 30.284C33.1332 30.284 33.9372 30.584 34.5132 31.184L35.0892 28.916C35.1372 28.652 35.2452 28.46 35.4132 28.34C35.5812 28.196 35.7732 28.124 35.9892 28.124C36.2532 28.124 36.4812 28.22 36.6732 28.412C36.8652 28.604 36.9132 28.844 36.8172 29.132C36.4812 30.356 36.0972 32.084 35.6652 34.316C35.3292 36.14 35.1612 38.048 35.1612 40.04C35.1612 41 35.3412 41.84 35.7012 42.56C36.0852 43.256 36.7212 43.604 37.6092 43.604C38.0652 43.604 38.4852 43.484 38.8692 43.244C39.2532 43.004 39.5412 42.692 39.7332 42.308C39.8532 42.02 40.0812 41.876 40.4172 41.876C40.5852 41.876 40.7172 41.936 40.8132 42.056C40.9332 42.152 40.9932 42.296 40.9932 42.488C40.9932 42.728 40.9092 43.004 40.7412 43.316C40.5252 43.796 40.1412 44.156 39.5892 44.396C39.0372 44.66 38.4372 44.792 37.7892 44.792C37.3092 44.792 36.9132 44.744 36.6012 44.648C35.6412 44.408 34.9092 43.844 34.4052 42.956C33.9012 42.068 33.6612 40.88 33.6852 39.392C32.7972 40.904 31.9692 42.092 31.2012 42.956C30.4332 43.82 29.5572 44.396 28.5732 44.684C27.9492 44.852 27.3852 44.936 26.8812 44.936ZM51.5871 28.988C52.2831 29.396 52.8111 29.936 53.1711 30.608C53.2191 30.68 53.2431 30.788 53.2431 30.932C53.2431 31.148 53.1591 31.34 52.9911 31.508C52.8231 31.652 52.6431 31.724 52.4511 31.724C52.2111 31.724 51.9951 31.58 51.8031 31.292C51.3951 30.476 50.6871 29.996 49.6791 29.852C49.6071 29.828 49.4631 29.816 49.2471 29.816C48.8631 29.816 48.3351 29.9 47.6631 30.068C47.0631 30.356 46.5831 30.788 46.2231 31.364C45.9831 31.82 45.8631 32.288 45.8631 32.768C45.8631 33.368 46.0791 33.884 46.5111 34.316C46.8951 34.7 47.5791 35 48.5631 35.216C48.6831 35.288 48.8151 35.324 48.9591 35.324C48.9591 35.348 48.9831 35.36 49.0311 35.36L49.2471 35.396L49.4991 35.468C50.2431 35.732 50.8791 36.032 51.4071 36.368C51.9351 36.68 52.3671 37.088 52.7031 37.592C53.2311 38.504 53.4951 39.416 53.4951 40.328C53.4951 40.52 53.4711 40.784 53.4231 41.12C53.2551 42.32 52.6431 43.328 51.5871 44.144C50.5311 44.984 49.3431 45.404 48.0231 45.404L47.5191 45.368C46.5591 45.32 45.6831 45.032 44.8911 44.504C44.0991 44 43.4751 43.352 43.0191 42.56C42.5871 41.768 42.3951 40.928 42.4431 40.04C42.4671 39.8 42.5631 39.62 42.7311 39.5C42.8991 39.38 43.0911 39.32 43.3071 39.32C43.5231 39.32 43.7031 39.38 43.8471 39.5C43.9911 39.62 44.0511 39.8 44.0271 40.04C43.9791 40.688 44.1111 41.312 44.4231 41.912C44.7351 42.512 45.1911 43.004 45.7911 43.388C46.4151 43.772 47.1831 43.964 48.0951 43.964C48.6231 43.964 49.1391 43.892 49.6431 43.748C50.3151 43.388 50.8671 42.92 51.2991 42.344C51.7551 41.744 51.9831 41.072 51.9831 40.328C51.9831 39.56 51.7551 38.876 51.2991 38.276C50.9631 37.796 50.5671 37.46 50.1111 37.268C49.6551 37.052 48.9951 36.824 48.1311 36.584C47.4351 36.392 46.8711 36.212 46.4391 36.044C46.0071 35.852 45.6351 35.588 45.3231 35.252C44.6271 34.556 44.2791 33.752 44.2791 32.84C44.2791 32.024 44.5311 31.256 45.0351 30.536C45.5631 29.792 46.2351 29.24 47.0511 28.88C47.8911 28.52 48.6591 28.34 49.3551 28.34C50.1711 28.34 50.9151 28.556 51.5871 28.988ZM67.3081 31.544C67.5241 31.544 67.7041 31.616 67.8481 31.76C67.9921 31.88 68.0641 32.048 68.0641 32.264C68.0641 32.456 67.9921 32.624 67.8481 32.768C67.7041 32.912 67.5241 32.984 67.3081 32.984H62.4481C61.8961 37.616 61.5481 40.652 61.4041 42.092C61.3561 42.524 61.5121 42.956 61.8721 43.388C62.2321 43.796 62.6521 44 63.1321 44C63.5641 44 63.9721 43.808 64.3561 43.424C64.5721 43.208 64.7761 43.1 64.9681 43.1C65.1121 43.1 65.2321 43.148 65.3281 43.244C65.5201 43.364 65.6161 43.556 65.6161 43.82C65.6161 43.988 65.5561 44.12 65.4361 44.216C64.9561 44.648 64.5481 44.948 64.2121 45.116C63.8761 45.284 63.5281 45.368 63.1681 45.368C62.9281 45.368 62.6641 45.332 62.3761 45.26C61.5841 45.116 60.9481 44.696 60.4681 44C60.0121 43.328 59.8201 42.644 59.8921 41.948C60.0121 40.7 60.2041 39.008 60.4681 36.872L60.9001 32.984H56.2201C56.0041 32.984 55.8121 32.912 55.6441 32.768C55.5001 32.624 55.4281 32.456 55.4281 32.264C55.4281 32.048 55.5001 31.88 55.6441 31.76C55.8121 31.616 56.0041 31.544 56.2201 31.544H61.0441L61.4761 28.016L61.5841 27.188C61.6081 27.02 61.6921 26.876 61.8361 26.756C61.9801 26.612 62.1481 26.54 62.3401 26.54C62.5801 26.54 62.7601 26.624 62.8801 26.792C63.0241 26.936 63.0841 27.128 63.0601 27.368L62.5921 31.544H67.3081Z" fill="#FFCCCD"/>
<path opacity="0.8" fill-rule="evenodd" clip-rule="evenodd" d="M34 1.25C34.1989 1.25 34.3897 1.32902 34.5303 1.46967C34.671 1.61032 34.75 1.80109 34.75 2V4C34.75 4.19891 34.671 4.38968 34.5303 4.53033C34.3897 4.67098 34.1989 4.75 34 4.75C33.8011 4.75 33.6103 4.67098 33.4697 4.53033C33.329 4.38968 33.25 4.19891 33.25 4V2C33.25 1.80109 33.329 1.61032 33.4697 1.46967C33.6103 1.32902 33.8011 1.25 34 1.25ZM23.25 12C23.25 11.8011 23.329 11.6103 23.4697 11.4697C23.6103 11.329 23.8011 11.25 24 11.25H26C26.1989 11.25 26.3897 11.329 26.5303 11.4697C26.671 11.6103 26.75 11.8011 26.75 12C26.75 12.1989 26.671 12.3897 26.5303 12.5303C26.3897 12.671 26.1989 12.75 26 12.75H24C23.8011 12.75 23.6103 12.671 23.4697 12.5303C23.329 12.3897 23.25 12.1989 23.25 12ZM41.25 12C41.25 11.8011 41.329 11.6103 41.4697 11.4697C41.6103 11.329 41.8011 11.25 42 11.25H44C44.1989 11.25 44.3897 11.329 44.5303 11.4697C44.671 11.6103 44.75 11.8011 44.75 12C44.75 12.1989 44.671 12.3897 44.5303 12.5303C44.3897 12.671 44.1989 12.75 44 12.75H42C41.8011 12.75 41.6103 12.671 41.4697 12.5303C41.329 12.3897 41.25 12.1989 41.25 12ZM34 19.25C34.1989 19.25 34.3897 19.329 34.5303 19.4697C34.671 19.6103 34.75 19.8011 34.75 20V22C34.75 22.1989 34.671 22.3897 34.5303 22.5303C34.3897 22.671 34.1989 22.75 34 22.75C33.8011 22.75 33.6103 22.671 33.4697 22.5303C33.329 22.3897 33.25 22.1989 33.25 22V20C33.25 19.8011 33.329 19.6103 33.4697 19.4697C33.6103 19.329 33.8011 19.25 34 19.25Z" fill="#FFCCCD"/>
<path opacity="0.5" d="M27.4693 5.46983C27.61 5.32938 27.8006 5.25049 27.9993 5.25049C28.1981 5.25049 28.3887 5.32938 28.5293 5.46983L28.8733 5.81283C29.0099 5.95434 29.0854 6.14383 29.0836 6.34048C29.0818 6.53713 29.0028 6.7252 28.8637 6.86419C28.7246 7.00318 28.5364 7.08197 28.3398 7.08359C28.1431 7.0852 27.9537 7.00952 27.8123 6.87283L27.4693 6.52983C27.3289 6.3892 27.25 6.19858 27.25 5.99983C27.25 5.80108 27.3289 5.61045 27.4693 5.46983ZM40.5293 5.46983C40.6698 5.61045 40.7487 5.80108 40.7487 5.99983C40.7487 6.19858 40.6698 6.3892 40.5293 6.52983L40.1863 6.87383C40.0448 7.01038 39.8553 7.08589 39.6587 7.08409C39.462 7.08229 39.274 7.00332 39.135 6.8642C38.996 6.72508 38.9172 6.53693 38.9156 6.34028C38.914 6.14363 38.9897 5.95422 39.1263 5.81283L39.4693 5.46983C39.61 5.32938 39.8006 5.25049 39.9993 5.25049C40.1981 5.25049 40.3887 5.32938 40.5293 5.46983ZM28.8723 17.1268C29.0128 17.2675 29.0917 17.4581 29.0917 17.6568C29.0917 17.8556 29.0128 18.0462 28.8723 18.1868L28.5293 18.5298C28.3872 18.6623 28.1991 18.7344 28.0048 18.731C27.8105 18.7276 27.6251 18.6489 27.4877 18.5114C27.3503 18.374 27.2716 18.1887 27.2682 17.9944C27.2647 17.8 27.3369 17.612 27.4693 17.4698L27.8123 17.1268C27.953 16.9864 28.1436 16.9075 28.3423 16.9075C28.5411 16.9075 28.7317 16.9864 28.8723 17.1268ZM39.1263 17.1268C39.267 16.9864 39.4576 16.9075 39.6563 16.9075C39.8551 16.9075 40.0457 16.9864 40.1863 17.1268L40.5293 17.4698C40.603 17.5385 40.6621 17.6213 40.7031 17.7133C40.7441 17.8053 40.7662 17.9046 40.7679 18.0053C40.7697 18.106 40.7512 18.206 40.7135 18.2994C40.6757 18.3928 40.6196 18.4776 40.5484 18.5489C40.4772 18.6201 40.3923 18.6762 40.2989 18.714C40.2055 18.7517 40.1055 18.7702 40.0048 18.7684C39.9041 18.7666 39.8048 18.7446 39.7128 18.7036C39.6208 18.6626 39.538 18.6035 39.4693 18.5298L39.1263 18.1868C38.9859 18.0462 38.907 17.8556 38.907 17.6568C38.907 17.4581 38.9859 17.2675 39.1263 17.1268Z" fill="#FFCCCD"/>
<path d="M29 11.06C29 13.602 31.01 14.957 32.48 16.17C33 16.597 33.5 17 34 17C34.5 17 35 16.597 35.52 16.17C36.99 14.957 39 13.602 39 11.06C39 8.518 36.25 6.714 34 9.158C31.75 6.714 29 8.518 29 11.06Z" fill="#FFCCCD"/>
</svg>
