<svg width="78" height="48" viewBox="0 0 78 48" fill="none" xmlns="http://www.w3.org/2000/svg">
<path d="M5.74233 33.508C5.28633 33.316 4.74633 32.908 4.12233 32.284C3.42633 31.468 3.07833 30.616 3.07833 29.728C3.07833 28.768 3.47433 27.916 4.26633 27.172C5.08233 26.404 6.27033 25.876 7.83033 25.588L8.94633 25.408L8.83833 24.904C8.81433 24.832 8.80233 24.712 8.80233 24.544C8.80233 24.208 8.87433 23.956 9.01833 23.788C9.18633 23.596 9.39033 23.5 9.63033 23.5C9.87033 23.5 10.0863 23.596 10.2783 23.788C10.4703 23.98 10.6023 24.244 10.6743 24.58L10.8183 25.264C12.9063 25.192 14.8023 25.468 16.5063 26.092C18.2343 26.716 19.7103 27.688 20.9343 29.008C21.6783 29.8 22.3023 30.832 22.8063 32.104C23.3343 33.376 23.6463 34.672 23.7423 35.992C23.7663 36.28 23.7783 36.688 23.7783 37.216C23.7783 39.808 23.1183 42.028 21.7983 43.876C21.1263 44.788 20.2023 45.496 19.0263 46C17.8503 46.528 16.5303 46.792 15.0663 46.792C14.0583 46.792 13.0623 46.672 12.0783 46.432C11.8623 46.408 11.6103 46.312 11.3223 46.144C11.0583 46 10.9383 45.808 10.9623 45.568C11.0103 45.184 11.2383 44.992 11.6463 44.992C11.8143 44.992 12.1623 45.052 12.6903 45.172C13.4583 45.316 14.1783 45.388 14.8503 45.388C17.1063 45.388 18.8343 44.644 20.0343 43.156C21.2343 41.668 21.8343 39.784 21.8343 37.504C21.8343 37 21.8223 36.616 21.7983 36.352C21.5823 33.808 20.8383 31.768 19.5663 30.232C18.4143 28.864 17.1423 27.88 15.7503 27.28C14.3823 26.68 12.7983 26.392 10.9983 26.416C11.2623 28.216 11.3943 29.92 11.3943 31.528C11.3943 34.408 11.0223 37.24 10.2783 40.024C9.41433 43.144 8.26233 45.724 6.82233 47.764C6.70233 47.86 6.58233 47.908 6.46233 47.908C6.34233 47.908 6.23433 47.86 6.13833 47.764C6.06633 47.668 6.03033 47.56 6.03033 47.44C6.03033 47.296 6.07833 47.164 6.17433 47.044C6.77433 46.036 7.33833 44.812 7.86633 43.372C8.39433 41.932 8.79033 40.66 9.05433 39.556C9.55833 37.324 9.81033 35.044 9.81033 32.716C9.81033 30.7 9.60633 28.636 9.19833 26.524C8.71833 26.572 8.33433 26.62 8.04633 26.668C6.91833 26.836 6.04233 27.22 5.41833 27.82C4.81833 28.42 4.51833 29.08 4.51833 29.8C4.51833 30.376 4.71033 30.892 5.09433 31.348C5.55033 31.828 6.12633 32.248 6.82233 32.608C7.01433 32.704 7.11033 32.848 7.11033 33.04C7.11033 33.184 7.02633 33.328 6.85833 33.472C6.71433 33.592 6.53433 33.652 6.31833 33.652C6.12633 33.652 5.93433 33.604 5.74233 33.508ZM34.701 42.688C35.085 42.112 35.397 41.596 35.637 41.14C36.189 40.18 36.573 39.292 36.789 38.476C37.029 37.66 37.269 36.52 37.509 35.056C37.149 34.288 36.357 33.904 35.133 33.904C34.821 33.904 34.593 33.916 34.449 33.94C33.297 34.084 32.073 34.852 30.777 36.244C29.961 37.132 29.289 38.248 28.761 39.592C28.257 40.912 28.029 42.184 28.077 43.408C28.101 44.08 28.317 44.62 28.725 45.028C29.157 45.436 29.661 45.64 30.237 45.64C30.885 45.688 31.461 45.592 31.965 45.352C32.493 45.088 33.009 44.68 33.513 44.128C33.921 43.72 34.317 43.24 34.701 42.688ZM30.309 46.936C29.157 46.936 28.281 46.636 27.681 46.036C26.889 45.244 26.493 44.176 26.493 42.832C26.493 41.296 26.973 39.568 27.933 37.648C28.341 36.808 28.857 36.052 29.481 35.38C30.105 34.684 30.753 34.132 31.425 33.724C32.025 33.268 32.685 32.92 33.405 32.68C34.149 32.416 34.857 32.284 35.529 32.284C36.561 32.284 37.365 32.584 37.941 33.184L38.517 30.916C38.565 30.652 38.673 30.46 38.841 30.34C39.009 30.196 39.201 30.124 39.417 30.124C39.681 30.124 39.909 30.22 40.101 30.412C40.293 30.604 40.341 30.844 40.245 31.132C39.909 32.356 39.525 34.084 39.093 36.316C38.757 38.14 38.589 40.048 38.589 42.04C38.589 43 38.769 43.84 39.129 44.56C39.513 45.256 40.149 45.604 41.037 45.604C41.493 45.604 41.913 45.484 42.297 45.244C42.681 45.004 42.969 44.692 43.161 44.308C43.281 44.02 43.509 43.876 43.845 43.876C44.013 43.876 44.145 43.936 44.241 44.056C44.361 44.152 44.421 44.296 44.421 44.488C44.421 44.728 44.337 45.004 44.169 45.316C43.953 45.796 43.569 46.156 43.017 46.396C42.465 46.66 41.865 46.792 41.217 46.792C40.737 46.792 40.341 46.744 40.029 46.648C39.069 46.408 38.337 45.844 37.833 44.956C37.329 44.068 37.089 42.88 37.113 41.392C36.225 42.904 35.397 44.092 34.629 44.956C33.861 45.82 32.985 46.396 32.001 46.684C31.377 46.852 30.813 46.936 30.309 46.936ZM56.7788 33.544C56.9948 33.544 57.1748 33.616 57.3188 33.76C57.4628 33.88 57.5348 34.048 57.5348 34.264C57.5348 34.456 57.4628 34.624 57.3188 34.768C57.1748 34.912 56.9948 34.984 56.7788 34.984H51.9188C51.3668 39.616 51.0188 42.652 50.8748 44.092C50.8268 44.524 50.9828 44.956 51.3428 45.388C51.7028 45.796 52.1228 46 52.6028 46C53.0348 46 53.4428 45.808 53.8268 45.424C54.0428 45.208 54.2468 45.1 54.4388 45.1C54.5828 45.1 54.7028 45.148 54.7988 45.244C54.9908 45.364 55.0868 45.556 55.0868 45.82C55.0868 45.988 55.0268 46.12 54.9068 46.216C54.4268 46.648 54.0188 46.948 53.6828 47.116C53.3468 47.284 52.9988 47.368 52.6388 47.368C52.3988 47.368 52.1348 47.332 51.8468 47.26C51.0548 47.116 50.4188 46.696 49.9388 46C49.4828 45.328 49.2908 44.644 49.3628 43.948C49.4828 42.7 49.6748 41.008 49.9388 38.872L50.3708 34.984H45.6908C45.4748 34.984 45.2828 34.912 45.1148 34.768C44.9708 34.624 44.8988 34.456 44.8988 34.264C44.8988 34.048 44.9708 33.88 45.1148 33.76C45.2828 33.616 45.4748 33.544 45.6908 33.544H50.5148L50.9468 30.016L51.0548 29.188C51.0788 29.02 51.1628 28.876 51.3068 28.756C51.4508 28.612 51.6188 28.54 51.8108 28.54C52.0508 28.54 52.2308 28.624 52.3508 28.792C52.4948 28.936 52.5548 29.128 52.5308 29.368L52.0628 33.544H56.7788ZM69.702 32.536C69.246 32.656 68.862 32.8 68.55 32.968C66.774 33.976 65.298 35.464 64.122 37.432C65.442 37.336 66.618 37.192 67.65 37C68.682 36.784 69.63 36.436 70.494 35.956C71.838 35.188 72.51 34.408 72.51 33.616C72.51 33.496 72.462 33.292 72.366 33.004C72.174 32.572 71.718 32.356 70.998 32.356C70.614 32.356 70.182 32.416 69.702 32.536ZM62.178 38.836L59.298 38.728C59.058 38.704 58.866 38.62 58.722 38.476C58.578 38.332 58.506 38.164 58.506 37.972C58.506 37.78 58.566 37.624 58.686 37.504C58.83 37.36 59.01 37.288 59.226 37.288C59.562 37.288 60.114 37.312 60.882 37.36C61.65 37.408 62.238 37.432 62.646 37.432C63.39 35.872 64.326 34.528 65.454 33.4C66.198 32.728 67.026 32.176 67.938 31.744C68.874 31.312 69.798 31.096 70.71 31.096C71.574 31.096 72.306 31.312 72.906 31.744C73.506 32.176 73.806 32.836 73.806 33.724C73.806 34.444 73.614 35.068 73.23 35.596C72.942 35.956 72.534 36.292 72.006 36.604C71.478 36.916 71.142 37.108 70.998 37.18C69.918 37.732 68.802 38.128 67.65 38.368C66.522 38.584 65.202 38.74 63.69 38.836C63.21 40.276 62.97 41.488 62.97 42.472C62.97 42.832 63.006 43.156 63.078 43.444C63.318 44.692 64.302 45.508 66.03 45.892C66.39 45.964 66.75 46 67.11 46C68.382 46 69.582 45.628 70.71 44.884C71.862 44.14 72.966 43.18 74.022 42.004C74.142 41.86 74.31 41.788 74.526 41.788C74.742 41.788 74.898 41.86 74.994 42.004C75.162 42.172 75.246 42.352 75.246 42.544C75.246 42.712 75.174 42.892 75.03 43.084C73.47 44.884 71.79 46.132 69.99 46.828C68.958 47.212 67.974 47.404 67.038 47.404C65.958 47.404 64.95 47.176 64.014 46.72C63.198 46.36 62.574 45.82 62.142 45.1C61.71 44.356 61.494 43.516 61.494 42.58C61.494 41.404 61.722 40.156 62.178 38.836Z" fill="#FFCCCD"/>
<path opacity="0.8" fill-rule="evenodd" clip-rule="evenodd" d="M39 1.25C39.1989 1.25 39.3897 1.32902 39.5303 1.46967C39.671 1.61032 39.75 1.80109 39.75 2V4C39.75 4.19891 39.671 4.38968 39.5303 4.53033C39.3897 4.67098 39.1989 4.75 39 4.75C38.8011 4.75 38.6103 4.67098 38.4697 4.53033C38.329 4.38968 38.25 4.19891 38.25 4V2C38.25 1.80109 38.329 1.61032 38.4697 1.46967C38.6103 1.32902 38.8011 1.25 39 1.25ZM28.25 12C28.25 11.8011 28.329 11.6103 28.4697 11.4697C28.6103 11.329 28.8011 11.25 29 11.25H31C31.1989 11.25 31.3897 11.329 31.5303 11.4697C31.671 11.6103 31.75 11.8011 31.75 12C31.75 12.1989 31.671 12.3897 31.5303 12.5303C31.3897 12.671 31.1989 12.75 31 12.75H29C28.8011 12.75 28.6103 12.671 28.4697 12.5303C28.329 12.3897 28.25 12.1989 28.25 12ZM46.25 12C46.25 11.8011 46.329 11.6103 46.4697 11.4697C46.6103 11.329 46.8011 11.25 47 11.25H49C49.1989 11.25 49.3897 11.329 49.5303 11.4697C49.671 11.6103 49.75 11.8011 49.75 12C49.75 12.1989 49.671 12.3897 49.5303 12.5303C49.3897 12.671 49.1989 12.75 49 12.75H47C46.8011 12.75 46.6103 12.671 46.4697 12.5303C46.329 12.3897 46.25 12.1989 46.25 12ZM39 19.25C39.1989 19.25 39.3897 19.329 39.5303 19.4697C39.671 19.6103 39.75 19.8011 39.75 20V22C39.75 22.1989 39.671 22.3897 39.5303 22.5303C39.3897 22.671 39.1989 22.75 39 22.75C38.8011 22.75 38.6103 22.671 38.4697 22.5303C38.329 22.3897 38.25 22.1989 38.25 22V20C38.25 19.8011 38.329 19.6103 38.4697 19.4697C38.6103 19.329 38.8011 19.25 39 19.25Z" fill="#FFCCCD"/>
<path opacity="0.5" d="M32.4693 5.46983C32.61 5.32938 32.8006 5.25049 32.9993 5.25049C33.1981 5.25049 33.3887 5.32938 33.5293 5.46983L33.8733 5.81283C34.0099 5.95434 34.0854 6.14383 34.0836 6.34048C34.0818 6.53713 34.0028 6.7252 33.8637 6.86419C33.7246 7.00318 33.5364 7.08197 33.3398 7.08359C33.1431 7.0852 32.9537 7.00952 32.8123 6.87283L32.4693 6.52983C32.3289 6.3892 32.25 6.19858 32.25 5.99983C32.25 5.80108 32.3289 5.61045 32.4693 5.46983ZM45.5293 5.46983C45.6698 5.61045 45.7487 5.80108 45.7487 5.99983C45.7487 6.19858 45.6698 6.3892 45.5293 6.52983L45.1863 6.87383C45.0448 7.01038 44.8553 7.08589 44.6587 7.08409C44.462 7.08229 44.274 7.00332 44.135 6.8642C43.996 6.72508 43.9172 6.53693 43.9156 6.34028C43.914 6.14363 43.9897 5.95422 44.1263 5.81283L44.4693 5.46983C44.61 5.32938 44.8006 5.25049 44.9993 5.25049C45.1981 5.25049 45.3887 5.32938 45.5293 5.46983ZM33.8723 17.1268C34.0128 17.2675 34.0917 17.4581 34.0917 17.6568C34.0917 17.8556 34.0128 18.0462 33.8723 18.1868L33.5293 18.5298C33.3872 18.6623 33.1991 18.7344 33.0048 18.731C32.8105 18.7276 32.6251 18.6489 32.4877 18.5114C32.3503 18.374 32.2716 18.1887 32.2682 17.9944C32.2647 17.8 32.3369 17.612 32.4693 17.4698L32.8123 17.1268C32.953 16.9864 33.1436 16.9075 33.3423 16.9075C33.5411 16.9075 33.7317 16.9864 33.8723 17.1268ZM44.1263 17.1268C44.267 16.9864 44.4576 16.9075 44.6563 16.9075C44.8551 16.9075 45.0457 16.9864 45.1863 17.1268L45.5293 17.4698C45.603 17.5385 45.6621 17.6213 45.7031 17.7133C45.7441 17.8053 45.7662 17.9046 45.7679 18.0053C45.7697 18.106 45.7512 18.206 45.7135 18.2994C45.6757 18.3928 45.6196 18.4776 45.5484 18.5489C45.4772 18.6201 45.3923 18.6762 45.2989 18.714C45.2055 18.7517 45.1055 18.7702 45.0048 18.7684C44.9041 18.7666 44.8048 18.7446 44.7128 18.7036C44.6208 18.6626 44.538 18.6035 44.4693 18.5298L44.1263 18.1868C43.9859 18.0462 43.907 17.8556 43.907 17.6568C43.907 17.4581 43.9859 17.2675 44.1263 17.1268Z" fill="#FFCCCD"/>
<path d="M34 11.06C34 13.602 36.01 14.957 37.48 16.17C38 16.597 38.5 17 39 17C39.5 17 40 16.597 40.52 16.17C41.99 14.957 44 13.602 44 11.06C44 8.518 41.25 6.714 39 9.158C36.75 6.714 34 8.518 34 11.06Z" fill="#FFCCCD"/>
</svg>
