<svg width="105" height="102" viewBox="0 0 105 102" fill="none" xmlns="http://www.w3.org/2000/svg">
<g opacity="0.5">
<path fill-rule="evenodd" clip-rule="evenodd" d="M52.0472 0C23.3015 0 0 22.7096 0 50.7249C0 78.7403 23.3015 101.45 52.0472 101.45C80.7928 101.45 104.094 78.7403 104.094 50.7249C104.094 22.7096 80.7928 0 52.0472 0ZM33.8307 38.0437C33.8307 35.7123 34.3018 33.4036 35.2173 31.2497C36.1328 29.0957 37.4746 27.1385 39.1661 25.4899C40.8577 23.8413 42.8659 22.5336 45.076 21.6414C47.2861 20.7492 49.6549 20.29 52.0472 20.29C54.4394 20.29 56.8082 20.7492 59.0183 21.6414C61.2284 22.5336 63.2366 23.8413 64.9282 25.4899C66.6197 27.1385 67.9616 29.0957 68.877 31.2497C69.7925 33.4036 70.2637 35.7123 70.2637 38.0437C70.2637 42.7523 68.3444 47.268 64.9282 50.5975C61.5119 53.927 56.8785 55.7974 52.0472 55.7974C47.2158 55.7974 42.5824 53.927 39.1661 50.5975C35.7499 47.268 33.8307 42.7523 33.8307 38.0437ZM84.6183 76.0063C80.7209 80.7812 75.7677 84.637 70.128 87.286C64.4883 89.935 58.3077 91.3088 52.0472 91.3049C45.7867 91.3088 39.6061 89.935 33.9663 87.286C28.3266 84.637 23.3734 80.7812 19.476 76.0063C27.9129 70.1069 39.4257 65.9424 52.0472 65.9424C64.6686 65.9424 76.1814 70.1069 84.6183 76.0063Z" fill="#DDDDDD"/>
</g>
</svg>
