<svg width="542" height="150" viewBox="0 0 542 150" fill="none" xmlns="http://www.w3.org/2000/svg">
<rect x="6.00195" y="145.338" width="13" height="6" transform="rotate(-89.9214 6.00195 145.338)" fill="#525252"/>
<rect x="24.002" y="145.363" width="13" height="6" transform="rotate(-89.9214 24.002 145.363)" fill="#525252"/>
<rect x="42.002" y="145.388" width="13" height="6" transform="rotate(-89.9214 42.002 145.388)" fill="#525252"/>
<rect x="60.002" y="145.412" width="13" height="6" transform="rotate(-89.9214 60.002 145.412)" fill="#525252"/>
<rect x="78.002" y="145.438" width="13" height="6" transform="rotate(-89.9214 78.002 145.438)" fill="#525252"/>
<rect x="96.002" y="145.462" width="13" height="6" transform="rotate(-89.9214 96.002 145.462)" fill="#525252"/>
<rect x="114.002" y="145.486" width="13" height="6" transform="rotate(-89.9214 114.002 145.486)" fill="#525252"/>
<rect x="132.002" y="145.512" width="13" height="6" transform="rotate(-89.9214 132.002 145.512)" fill="#525252"/>
<rect x="150.002" y="145.536" width="13" height="6" transform="rotate(-89.9214 150.002 145.536)" fill="#525252"/>
<rect x="168.002" y="145.561" width="13" height="6" transform="rotate(-89.9214 168.002 145.561)" fill="#525252"/>
<rect x="186.002" y="145.585" width="13" height="6" transform="rotate(-89.9214 186.002 145.585)" fill="#525252"/>
<rect x="204.002" y="145.61" width="13" height="6" transform="rotate(-89.9214 204.002 145.61)" fill="#525252"/>
<rect x="222.002" y="145.635" width="13" height="6" transform="rotate(-89.9214 222.002 145.635)" fill="#525252"/>
<rect x="240.002" y="145.659" width="13" height="6" transform="rotate(-89.9214 240.002 145.659)" fill="#525252"/>
<rect x="258.002" y="145.685" width="13" height="6" transform="rotate(-89.9214 258.002 145.685)" fill="#525252"/>
<rect x="276.002" y="145.709" width="13" height="6" transform="rotate(-89.9214 276.002 145.709)" fill="#525252"/>
<rect x="294.002" y="145.733" width="13" height="6" transform="rotate(-89.9214 294.002 145.733)" fill="#525252"/>
<rect x="312.002" y="145.759" width="13" height="6" transform="rotate(-89.9214 312.002 145.759)" fill="#525252"/>
<rect x="330.002" y="145.783" width="13" height="6" transform="rotate(-89.9214 330.002 145.783)" fill="#525252"/>
<rect x="348.002" y="145.808" width="13" height="6" transform="rotate(-89.9214 348.002 145.808)" fill="#525252"/>
<rect x="366.002" y="145.832" width="13" height="6" transform="rotate(-89.9214 366.002 145.832)" fill="#525252"/>
<rect x="384.002" y="145.857" width="13" height="6" transform="rotate(-89.9214 384.002 145.857)" fill="#525252"/>
<rect x="402.002" y="145.882" width="13" height="6" transform="rotate(-89.9214 402.002 145.882)" fill="#525252"/>
<rect x="420.002" y="145.906" width="13" height="6" transform="rotate(-89.9214 420.002 145.906)" fill="#525252"/>
<rect x="438.002" y="145.932" width="13" height="6" transform="rotate(-89.9214 438.002 145.932)" fill="#525252"/>
<rect x="456.002" y="145.956" width="13" height="6" transform="rotate(-89.9214 456.002 145.956)" fill="#525252"/>
<rect x="474.002" y="145.98" width="13" height="6" transform="rotate(-89.9214 474.002 145.98)" fill="#525252"/>
<rect x="492.002" y="146.006" width="13" height="6" transform="rotate(-89.9214 492.002 146.006)" fill="#525252"/>
<rect x="510.002" y="146.03" width="13" height="6" transform="rotate(-89.9214 510.002 146.03)" fill="#525252"/>
<rect x="528.002" y="146.055" width="13" height="6" transform="rotate(-89.9214 528.002 146.055)" fill="#525252"/>
<rect x="6.17969" y="16.3379" width="13" height="6" transform="rotate(-89.9214 6.17969 16.3379)" fill="#525252"/>
<rect x="24.1797" y="16.3633" width="13" height="6" transform="rotate(-89.9214 24.1797 16.3633)" fill="#525252"/>
<rect x="42.1797" y="16.3877" width="13" height="6" transform="rotate(-89.9214 42.1797 16.3877)" fill="#525252"/>
<rect x="60.1797" y="16.4121" width="13" height="6" transform="rotate(-89.9214 60.1797 16.4121)" fill="#525252"/>
<rect x="78.1797" y="16.4375" width="13" height="6" transform="rotate(-89.9214 78.1797 16.4375)" fill="#525252"/>
<rect x="96.1797" y="16.4619" width="13" height="6" transform="rotate(-89.9214 96.1797 16.4619)" fill="#525252"/>
<rect x="114.18" y="16.4863" width="13" height="6" transform="rotate(-89.9214 114.18 16.4863)" fill="#525252"/>
<rect x="132.18" y="16.5117" width="13" height="6" transform="rotate(-89.9214 132.18 16.5117)" fill="#525252"/>
<rect x="150.18" y="16.5361" width="13" height="6" transform="rotate(-89.9214 150.18 16.5361)" fill="#525252"/>
<rect x="168.18" y="16.5605" width="13" height="6" transform="rotate(-89.9214 168.18 16.5605)" fill="#525252"/>
<rect x="186.18" y="16.585" width="13" height="6" transform="rotate(-89.9214 186.18 16.585)" fill="#525252"/>
<rect x="204.18" y="16.6104" width="13" height="6" transform="rotate(-89.9214 204.18 16.6104)" fill="#525252"/>
<rect x="222.18" y="16.6348" width="13" height="6" transform="rotate(-89.9214 222.18 16.6348)" fill="#525252"/>
<rect x="240.18" y="16.6592" width="13" height="6" transform="rotate(-89.9214 240.18 16.6592)" fill="#525252"/>
<rect x="258.18" y="16.6846" width="13" height="6" transform="rotate(-89.9214 258.18 16.6846)" fill="#525252"/>
<rect x="276.18" y="16.709" width="13" height="6" transform="rotate(-89.9214 276.18 16.709)" fill="#525252"/>
<rect x="294.18" y="16.7334" width="13" height="6" transform="rotate(-89.9214 294.18 16.7334)" fill="#525252"/>
<rect x="312.18" y="16.7588" width="13" height="6" transform="rotate(-89.9214 312.18 16.7588)" fill="#525252"/>
<rect x="330.18" y="16.7832" width="13" height="6" transform="rotate(-89.9214 330.18 16.7832)" fill="#525252"/>
<rect x="348.18" y="16.8076" width="13" height="6" transform="rotate(-89.9214 348.18 16.8076)" fill="#525252"/>
<rect x="366.18" y="16.832" width="13" height="6" transform="rotate(-89.9214 366.18 16.832)" fill="#525252"/>
<rect x="384.18" y="16.8574" width="13" height="6" transform="rotate(-89.9214 384.18 16.8574)" fill="#525252"/>
<rect x="402.18" y="16.8818" width="13" height="6" transform="rotate(-89.9214 402.18 16.8818)" fill="#525252"/>
<rect x="420.18" y="16.9062" width="13" height="6" transform="rotate(-89.9214 420.18 16.9062)" fill="#525252"/>
<rect x="438.18" y="16.9316" width="13" height="6" transform="rotate(-89.9214 438.18 16.9316)" fill="#525252"/>
<rect x="456.18" y="16.9561" width="13" height="6" transform="rotate(-89.9214 456.18 16.9561)" fill="#525252"/>
<rect x="474.18" y="16.9805" width="13" height="6" transform="rotate(-89.9214 474.18 16.9805)" fill="#525252"/>
<rect x="492.18" y="17.0049" width="13" height="6" transform="rotate(-89.9214 492.18 17.0049)" fill="#525252"/>
<rect x="510.18" y="17.0303" width="13" height="6" transform="rotate(-89.9214 510.18 17.0303)" fill="#525252"/>
<rect x="528.18" y="17.0547" width="13" height="6" transform="rotate(-89.9214 528.18 17.0547)" fill="#525252"/>
<path d="M541.204 0.742188L541 149.742L0 149L0.204102 0L541.204 0.742188ZM27.4727 123.872L180.356 124.082L180.492 25.7354L27.6074 25.5254L27.4727 123.872ZM204.82 123.784L357.704 123.994L357.84 25.6475L204.955 25.4375L204.82 123.784ZM381.473 123.784L534.356 123.994L534.492 25.6475L381.607 25.4375L381.473 123.784Z" fill="#292929"/>
<rect x="5.99805" y="145" width="13" height="6" transform="rotate(-89.9214 5.99805 145)" fill="#525252"/>
<rect x="23.998" y="145.025" width="13" height="6" transform="rotate(-89.9214 23.998 145.025)" fill="#525252"/>
<rect x="41.998" y="145.05" width="13" height="6" transform="rotate(-89.9214 41.998 145.05)" fill="#525252"/>
<rect x="59.998" y="145.074" width="13" height="6" transform="rotate(-89.9214 59.998 145.074)" fill="#525252"/>
<rect x="77.998" y="145.1" width="13" height="6" transform="rotate(-89.9214 77.998 145.1)" fill="#525252"/>
<rect x="95.998" y="145.124" width="13" height="6" transform="rotate(-89.9214 95.998 145.124)" fill="#525252"/>
<rect x="113.998" y="145.148" width="13" height="6" transform="rotate(-89.9214 113.998 145.148)" fill="#525252"/>
<rect x="131.998" y="145.174" width="13" height="6" transform="rotate(-89.9214 131.998 145.174)" fill="#525252"/>
<rect x="149.998" y="145.198" width="13" height="6" transform="rotate(-89.9214 149.998 145.198)" fill="#525252"/>
<rect x="167.998" y="145.223" width="13" height="6" transform="rotate(-89.9214 167.998 145.223)" fill="#525252"/>
<rect x="185.998" y="145.247" width="13" height="6" transform="rotate(-89.9214 185.998 145.247)" fill="#525252"/>
<rect x="203.998" y="145.272" width="13" height="6" transform="rotate(-89.9214 203.998 145.272)" fill="#525252"/>
<rect x="221.998" y="145.297" width="13" height="6" transform="rotate(-89.9214 221.998 145.297)" fill="#525252"/>
<rect x="239.998" y="145.321" width="13" height="6" transform="rotate(-89.9214 239.998 145.321)" fill="#525252"/>
<rect x="257.998" y="145.347" width="13" height="6" transform="rotate(-89.9214 257.998 145.347)" fill="#525252"/>
<rect x="275.998" y="145.371" width="13" height="6" transform="rotate(-89.9214 275.998 145.371)" fill="#525252"/>
<rect x="293.998" y="145.396" width="13" height="6" transform="rotate(-89.9214 293.998 145.396)" fill="#525252"/>
<rect x="311.998" y="145.421" width="13" height="6" transform="rotate(-89.9214 311.998 145.421)" fill="#525252"/>
<rect x="329.998" y="145.445" width="13" height="6" transform="rotate(-89.9214 329.998 145.445)" fill="#525252"/>
<rect x="347.998" y="145.47" width="13" height="6" transform="rotate(-89.9214 347.998 145.47)" fill="#525252"/>
<rect x="365.998" y="145.494" width="13" height="6" transform="rotate(-89.9214 365.998 145.494)" fill="#525252"/>
<rect x="383.998" y="145.52" width="13" height="6" transform="rotate(-89.9214 383.998 145.52)" fill="#525252"/>
<rect x="401.998" y="145.544" width="13" height="6" transform="rotate(-89.9214 401.998 145.544)" fill="#525252"/>
<rect x="419.998" y="145.568" width="13" height="6" transform="rotate(-89.9214 419.998 145.568)" fill="#525252"/>
<rect x="437.998" y="145.594" width="13" height="6" transform="rotate(-89.9214 437.998 145.594)" fill="#525252"/>
<rect x="455.998" y="145.618" width="13" height="6" transform="rotate(-89.9214 455.998 145.618)" fill="#525252"/>
<rect x="473.998" y="145.643" width="13" height="6" transform="rotate(-89.9214 473.998 145.643)" fill="#525252"/>
<rect x="491.998" y="145.667" width="13" height="6" transform="rotate(-89.9214 491.998 145.667)" fill="#525252"/>
<rect x="509.998" y="145.692" width="13" height="6" transform="rotate(-89.9214 509.998 145.692)" fill="#525252"/>
<rect x="528" y="145.717" width="13" height="6" transform="rotate(-89.9214 528 145.717)" fill="#525252"/>
<rect x="6.17578" y="16" width="13" height="6" transform="rotate(-89.9214 6.17578 16)" fill="#525252"/>
<rect x="24.1758" y="16.0254" width="13" height="6" transform="rotate(-89.9214 24.1758 16.0254)" fill="#525252"/>
<rect x="42.1758" y="16.0498" width="13" height="6" transform="rotate(-89.9214 42.1758 16.0498)" fill="#525252"/>
<rect x="60.1758" y="16.0742" width="13" height="6" transform="rotate(-89.9214 60.1758 16.0742)" fill="#525252"/>
<rect x="78.1758" y="16.0996" width="13" height="6" transform="rotate(-89.9214 78.1758 16.0996)" fill="#525252"/>
<rect x="96.1758" y="16.124" width="13" height="6" transform="rotate(-89.9214 96.1758 16.124)" fill="#525252"/>
<rect x="114.176" y="16.1484" width="13" height="6" transform="rotate(-89.9214 114.176 16.1484)" fill="#525252"/>
<rect x="132.176" y="16.1738" width="13" height="6" transform="rotate(-89.9214 132.176 16.1738)" fill="#525252"/>
<rect x="150.176" y="16.1982" width="13" height="6" transform="rotate(-89.9214 150.176 16.1982)" fill="#525252"/>
<rect x="168.176" y="16.2227" width="13" height="6" transform="rotate(-89.9214 168.176 16.2227)" fill="#525252"/>
<rect x="186.176" y="16.2471" width="13" height="6" transform="rotate(-89.9214 186.176 16.2471)" fill="#525252"/>
<rect x="204.176" y="16.2725" width="13" height="6" transform="rotate(-89.9214 204.176 16.2725)" fill="#525252"/>
<rect x="222.176" y="16.2969" width="13" height="6" transform="rotate(-89.9214 222.176 16.2969)" fill="#525252"/>
<rect x="240.176" y="16.3213" width="13" height="6" transform="rotate(-89.9214 240.176 16.3213)" fill="#525252"/>
<rect x="258.176" y="16.3467" width="13" height="6" transform="rotate(-89.9214 258.176 16.3467)" fill="#525252"/>
<rect x="276.176" y="16.3711" width="13" height="6" transform="rotate(-89.9214 276.176 16.3711)" fill="#525252"/>
<rect x="294.176" y="16.3955" width="13" height="6" transform="rotate(-89.9214 294.176 16.3955)" fill="#525252"/>
<rect x="312.176" y="16.4209" width="13" height="6" transform="rotate(-89.9214 312.176 16.4209)" fill="#525252"/>
<rect x="330.176" y="16.4453" width="13" height="6" transform="rotate(-89.9214 330.176 16.4453)" fill="#525252"/>
<rect x="348.176" y="16.4697" width="13" height="6" transform="rotate(-89.9214 348.176 16.4697)" fill="#525252"/>
<rect x="366.176" y="16.4941" width="13" height="6" transform="rotate(-89.9214 366.176 16.4941)" fill="#525252"/>
<rect x="384.176" y="16.5195" width="13" height="6" transform="rotate(-89.9214 384.176 16.5195)" fill="#525252"/>
<rect x="402.176" y="16.5439" width="13" height="6" transform="rotate(-89.9214 402.176 16.5439)" fill="#525252"/>
<rect x="420.176" y="16.5684" width="13" height="6" transform="rotate(-89.9214 420.176 16.5684)" fill="#525252"/>
<rect x="438.176" y="16.5938" width="13" height="6" transform="rotate(-89.9214 438.176 16.5938)" fill="#525252"/>
<rect x="456.176" y="16.6182" width="13" height="6" transform="rotate(-89.9214 456.176 16.6182)" fill="#525252"/>
<rect x="474.176" y="16.6426" width="13" height="6" transform="rotate(-89.9214 474.176 16.6426)" fill="#525252"/>
<rect x="492.176" y="16.667" width="13" height="6" transform="rotate(-89.9214 492.176 16.667)" fill="#525252"/>
<rect x="510.176" y="16.6924" width="13" height="6" transform="rotate(-89.9214 510.176 16.6924)" fill="#525252"/>
<rect x="528.178" y="16.7168" width="13" height="6" transform="rotate(-89.9214 528.178 16.7168)" fill="#525252"/>
</svg>
