<svg width="117" height="55" viewBox="0 0 117 55" fill="none" xmlns="http://www.w3.org/2000/svg">
<path d="M17.3285 25.12C17.7845 25.672 18.0125 26.368 18.0125 27.208C18.0125 27.496 18.0005 27.7 17.9765 27.82C17.8085 28.78 17.4125 29.632 16.7885 30.376C16.1645 31.096 15.1445 31.744 13.7285 32.32C13.5125 32.368 13.2485 32.428 12.9365 32.5C12.6485 32.572 12.4205 32.62 12.2525 32.644C11.9645 32.644 11.7245 32.584 11.5325 32.464C11.3645 32.32 11.2805 32.152 11.2805 31.96C11.2805 31.792 11.3645 31.636 11.5325 31.492C11.7005 31.324 11.9285 31.228 12.2165 31.204C13.6085 30.868 14.6525 30.388 15.3485 29.764C16.0685 29.116 16.5125 28.396 16.6805 27.604L16.7165 27.28C16.7165 26.728 16.5845 26.272 16.3205 25.912C15.6725 25.072 14.7125 24.652 13.4405 24.652C11.8565 24.652 10.3685 25.18 8.97652 26.236C7.60852 27.292 6.48052 28.72 5.59252 30.52C4.70452 32.296 4.16452 34.228 3.97252 36.316C3.94852 36.58 3.93652 36.952 3.93652 37.432C3.93652 39.04 4.23652 40.516 4.83652 41.86C5.43652 43.18 6.24052 44.236 7.24852 45.028C8.28052 45.796 9.42052 46.18 10.6685 46.18C11.0285 46.18 11.3645 46.144 11.6765 46.072C12.7565 45.88 13.7045 45.388 14.5205 44.596C15.3605 43.78 16.1165 42.544 16.7885 40.888C15.7805 40.84 14.8085 40.528 13.8725 39.952C13.5125 39.688 13.3325 39.412 13.3325 39.124C13.3325 38.956 13.3805 38.824 13.4765 38.728C13.5965 38.608 13.7405 38.548 13.9085 38.548C14.0525 38.548 14.1965 38.584 14.3405 38.656C14.4125 38.704 14.4965 38.752 14.5925 38.8C14.6885 38.848 14.7605 38.884 14.8085 38.908C15.8165 39.436 16.7525 39.7 17.6165 39.7C18.0485 39.7 18.4565 39.652 18.8405 39.556C19.2485 39.46 19.6925 39.304 20.1725 39.088C20.6765 38.872 21.0725 38.632 21.3605 38.368C21.4805 38.248 21.6125 38.188 21.7565 38.188C21.8765 38.188 21.9725 38.236 22.0445 38.332C22.0925 38.38 22.1165 38.44 22.1165 38.512C22.1165 38.704 22.0325 38.908 21.8645 39.124C21.5045 39.484 21.0245 39.82 20.4245 40.132C19.8245 40.42 19.2845 40.6 18.8045 40.672L18.5525 40.708C17.7125 43.108 16.6085 44.836 15.2405 45.892C13.8725 46.924 12.2045 47.44 10.2365 47.44C8.60452 47.44 7.16452 46.996 5.91652 46.108C4.66852 45.22 3.69652 44.008 3.00052 42.472C2.32852 40.912 1.99252 39.184 1.99252 37.288C1.99252 36.688 2.02852 36.1 2.10052 35.524C2.31652 33.34 2.96452 31.336 4.04452 29.512C5.12452 27.688 6.48052 26.248 8.11252 25.192C9.74452 24.112 11.4725 23.572 13.2965 23.572C14.1845 23.572 14.9525 23.692 15.6005 23.932C16.2725 24.148 16.8485 24.544 17.3285 25.12ZM33.4236 42.688C33.8076 42.112 34.1196 41.596 34.3596 41.14C34.9116 40.18 35.2956 39.292 35.5116 38.476C35.7516 37.66 35.9916 36.52 36.2316 35.056C35.8716 34.288 35.0796 33.904 33.8556 33.904C33.5436 33.904 33.3156 33.916 33.1716 33.94C32.0196 34.084 30.7956 34.852 29.4996 36.244C28.6836 37.132 28.0116 38.248 27.4836 39.592C26.9796 40.912 26.7516 42.184 26.7996 43.408C26.8236 44.08 27.0396 44.62 27.4476 45.028C27.8796 45.436 28.3836 45.64 28.9596 45.64C29.6076 45.688 30.1836 45.592 30.6876 45.352C31.2156 45.088 31.7316 44.68 32.2356 44.128C32.6436 43.72 33.0396 43.24 33.4236 42.688ZM29.0316 46.936C27.8796 46.936 27.0036 46.636 26.4036 46.036C25.6116 45.244 25.2156 44.176 25.2156 42.832C25.2156 41.296 25.6956 39.568 26.6556 37.648C27.0636 36.808 27.5796 36.052 28.2036 35.38C28.8276 34.684 29.4756 34.132 30.1476 33.724C30.7476 33.268 31.4076 32.92 32.1276 32.68C32.8716 32.416 33.5796 32.284 34.2516 32.284C35.2836 32.284 36.0876 32.584 36.6636 33.184L37.2396 30.916C37.2876 30.652 37.3956 30.46 37.5636 30.34C37.7316 30.196 37.9236 30.124 38.1396 30.124C38.4036 30.124 38.6316 30.22 38.8236 30.412C39.0156 30.604 39.0636 30.844 38.9676 31.132C38.6316 32.356 38.2476 34.084 37.8156 36.316C37.4796 38.14 37.3116 40.048 37.3116 42.04C37.3116 43 37.4916 43.84 37.8516 44.56C38.2356 45.256 38.8716 45.604 39.7596 45.604C40.2156 45.604 40.6356 45.484 41.0196 45.244C41.4036 45.004 41.6916 44.692 41.8836 44.308C42.0036 44.02 42.2316 43.876 42.5676 43.876C42.7356 43.876 42.8676 43.936 42.9636 44.056C43.0836 44.152 43.1436 44.296 43.1436 44.488C43.1436 44.728 43.0596 45.004 42.8916 45.316C42.6756 45.796 42.2916 46.156 41.7396 46.396C41.1876 46.66 40.5876 46.792 39.9396 46.792C39.4596 46.792 39.0636 46.744 38.7516 46.648C37.7916 46.408 37.0596 45.844 36.5556 44.956C36.0516 44.068 35.8116 42.88 35.8356 41.392C34.9476 42.904 34.1196 44.092 33.3516 44.956C32.5836 45.82 31.7076 46.396 30.7236 46.684C30.0996 46.852 29.5356 46.936 29.0316 46.936ZM48.3015 24.148C48.3255 23.932 48.4095 23.764 48.5535 23.644C48.6975 23.524 48.8535 23.464 49.0215 23.464C49.2375 23.464 49.4175 23.536 49.5615 23.68C49.7055 23.8 49.7655 23.98 49.7415 24.22C49.6215 25.18 49.1295 28.744 48.2655 34.912L47.4375 40.744C47.2935 41.656 47.2215 42.376 47.2215 42.904C47.2215 43.6 47.3295 44.2 47.5455 44.704C47.6175 44.896 47.7375 45.052 47.9055 45.172C48.0735 45.292 48.2655 45.376 48.4815 45.424L48.6615 45.46C49.0455 45.46 49.3335 45.328 49.5255 45.064C49.6695 44.824 49.8495 44.704 50.0655 44.704C50.2575 44.704 50.4255 44.788 50.5695 44.956C50.7375 45.1 50.8215 45.28 50.8215 45.496C50.8215 45.616 50.7855 45.748 50.7135 45.892C50.4975 46.228 50.2095 46.48 49.8495 46.648C49.5135 46.84 49.1415 46.936 48.7335 46.936C48.3015 46.936 47.8695 46.84 47.4375 46.648C46.9575 46.36 46.5735 45.964 46.2855 45.46C45.9975 44.956 45.8295 44.416 45.7815 43.84C45.7575 43.648 45.7455 43.372 45.7455 43.012C45.7455 42.1 45.8535 41.02 46.0695 39.772C47.1495 32.332 47.8935 27.124 48.3015 24.148ZM58.5671 24.148C58.5911 23.932 58.6751 23.764 58.8191 23.644C58.9631 23.524 59.1191 23.464 59.2871 23.464C59.5031 23.464 59.6831 23.536 59.8271 23.68C59.9711 23.8 60.0311 23.98 60.0071 24.22C59.8871 25.18 59.3951 28.744 58.5311 34.912L57.7031 40.744C57.5591 41.656 57.4871 42.376 57.4871 42.904C57.4871 43.6 57.5951 44.2 57.8111 44.704C57.8831 44.896 58.0031 45.052 58.1711 45.172C58.3391 45.292 58.5311 45.376 58.7471 45.424L58.9271 45.46C59.3111 45.46 59.5991 45.328 59.7911 45.064C59.9351 44.824 60.1151 44.704 60.3311 44.704C60.5231 44.704 60.6911 44.788 60.8351 44.956C61.0031 45.1 61.0871 45.28 61.0871 45.496C61.0871 45.616 61.0511 45.748 60.9791 45.892C60.7631 46.228 60.4751 46.48 60.1151 46.648C59.7791 46.84 59.4071 46.936 58.9991 46.936C58.5671 46.936 58.1351 46.84 57.7031 46.648C57.2231 46.36 56.8391 45.964 56.5511 45.46C56.2631 44.956 56.0951 44.416 56.0471 43.84C56.0231 43.648 56.0111 43.372 56.0111 43.012C56.0111 42.1 56.1191 41.02 56.3351 39.772C57.4151 32.332 58.1591 27.124 58.5671 24.148ZM75.4207 32.536C74.9647 32.656 74.5807 32.8 74.2687 32.968C72.4927 33.976 71.0167 35.464 69.8407 37.432C71.1607 37.336 72.3367 37.192 73.3687 37C74.4007 36.784 75.3487 36.436 76.2127 35.956C77.5567 35.188 78.2287 34.408 78.2287 33.616C78.2287 33.496 78.1807 33.292 78.0847 33.004C77.8927 32.572 77.4367 32.356 76.7167 32.356C76.3327 32.356 75.9007 32.416 75.4207 32.536ZM67.8967 38.836L65.0167 38.728C64.7767 38.704 64.5847 38.62 64.4407 38.476C64.2967 38.332 64.2247 38.164 64.2247 37.972C64.2247 37.78 64.2847 37.624 64.4047 37.504C64.5487 37.36 64.7287 37.288 64.9447 37.288C65.2807 37.288 65.8327 37.312 66.6007 37.36C67.3687 37.408 67.9567 37.432 68.3647 37.432C69.1087 35.872 70.0447 34.528 71.1727 33.4C71.9167 32.728 72.7447 32.176 73.6567 31.744C74.5927 31.312 75.5167 31.096 76.4287 31.096C77.2927 31.096 78.0247 31.312 78.6247 31.744C79.2247 32.176 79.5247 32.836 79.5247 33.724C79.5247 34.444 79.3327 35.068 78.9487 35.596C78.6607 35.956 78.2527 36.292 77.7247 36.604C77.1967 36.916 76.8607 37.108 76.7167 37.18C75.6367 37.732 74.5207 38.128 73.3687 38.368C72.2407 38.584 70.9207 38.74 69.4087 38.836C68.9287 40.276 68.6887 41.488 68.6887 42.472C68.6887 42.832 68.7247 43.156 68.7967 43.444C69.0367 44.692 70.0207 45.508 71.7487 45.892C72.1087 45.964 72.4687 46 72.8287 46C74.1007 46 75.3007 45.628 76.4287 44.884C77.5807 44.14 78.6847 43.18 79.7407 42.004C79.8607 41.86 80.0287 41.788 80.2447 41.788C80.4607 41.788 80.6167 41.86 80.7127 42.004C80.8807 42.172 80.9647 42.352 80.9647 42.544C80.9647 42.712 80.8927 42.892 80.7487 43.084C79.1887 44.884 77.5087 46.132 75.7087 46.828C74.6767 47.212 73.6927 47.404 72.7567 47.404C71.6767 47.404 70.6687 47.176 69.7327 46.72C68.9167 46.36 68.2927 45.82 67.8607 45.1C67.4287 44.356 67.2127 43.516 67.2127 42.58C67.2127 41.404 67.4407 40.156 67.8967 38.836ZM96.2644 32.968C97.1764 33.496 97.9084 34.348 98.4604 35.524C98.5324 35.668 98.5684 35.812 98.5684 35.956C98.5684 36.268 98.4124 36.472 98.1004 36.568C97.9564 36.64 97.8244 36.676 97.7044 36.676C97.3924 36.676 97.1764 36.532 97.0564 36.244C96.6244 35.332 96.0724 34.696 95.4004 34.336C94.7284 33.952 94.0204 33.76 93.2764 33.76C92.9164 33.76 92.4484 33.832 91.8724 33.976C90.9124 34.264 90.1684 34.744 89.6404 35.416C89.1364 36.064 88.7644 36.664 88.5244 37.216C88.5004 37.312 88.4644 37.456 88.4164 37.648C88.3924 37.84 88.3804 37.984 88.3804 38.08L87.3724 47.224C87.3484 47.416 87.2644 47.572 87.1204 47.692C86.9764 47.836 86.7844 47.908 86.5444 47.908H86.4724C86.0404 47.884 85.8244 47.608 85.8244 47.08V46.972L87.6604 29.512C87.6844 29.296 87.7684 29.116 87.9124 28.972C88.0804 28.828 88.2604 28.756 88.4524 28.756C88.6924 28.756 88.8844 28.852 89.0284 29.044C89.1964 29.212 89.2684 29.428 89.2444 29.692L88.7764 34.156C89.5684 33.316 90.4444 32.752 91.4044 32.464C92.0524 32.272 92.7124 32.176 93.3844 32.176C94.4164 32.176 95.3764 32.44 96.2644 32.968ZM113.047 29.584C113.071 29.392 113.155 29.248 113.299 29.152C113.443 29.032 113.599 28.972 113.767 28.972C114.007 28.972 114.211 29.056 114.379 29.224C114.547 29.392 114.607 29.608 114.559 29.872L114.199 32.212L113.911 34.156C112.711 42.724 111.931 47.632 111.571 48.88C111.211 50.152 110.707 51.22 110.059 52.084C109.435 52.948 108.559 53.584 107.431 53.992C106.711 54.232 106.027 54.352 105.379 54.352C104.539 54.352 103.759 54.184 103.039 53.848C102.319 53.536 101.743 53.056 101.311 52.408C101.191 52.216 101.131 52.048 101.131 51.904C101.131 51.688 101.203 51.496 101.347 51.328C101.515 51.184 101.695 51.112 101.887 51.112C102.151 51.112 102.367 51.232 102.535 51.472C103.207 52.384 104.143 52.84 105.343 52.84C106.351 52.84 107.251 52.54 108.043 51.94C108.763 51.388 109.291 50.644 109.627 49.708C109.987 48.796 110.287 47.668 110.527 46.324L111.535 39.592C111.055 40.48 110.395 41.152 109.555 41.608C108.907 42.016 108.067 42.22 107.035 42.22C106.219 42.22 105.487 42.064 104.839 41.752C104.383 41.536 104.023 41.2 103.759 40.744C103.519 40.288 103.399 39.796 103.399 39.268C103.399 38.428 103.531 37.216 103.795 35.632L103.903 34.804C103.999 34.204 104.059 33.796 104.083 33.58C104.299 32.332 104.407 31.54 104.407 31.204C104.407 30.916 104.371 30.724 104.299 30.628C104.227 30.508 104.155 30.436 104.083 30.412C103.891 30.292 103.795 30.088 103.795 29.8C103.795 29.656 103.831 29.536 103.903 29.44C104.047 29.224 104.263 29.116 104.551 29.116C104.695 29.116 104.839 29.152 104.983 29.224C105.247 29.392 105.451 29.584 105.595 29.8C105.859 30.232 105.943 30.796 105.847 31.492C105.607 33.292 105.487 34.216 105.487 34.264C105.223 36.184 105.031 37.636 104.911 38.62C104.863 39.124 104.923 39.544 105.091 39.88C105.259 40.192 105.571 40.42 106.027 40.564C106.435 40.684 106.771 40.744 107.035 40.744C107.803 40.744 108.511 40.504 109.159 40.024C109.831 39.544 110.335 39.028 110.671 38.476C111.223 37.588 111.643 36.724 111.931 35.884L112.183 35.128L113.047 29.584Z" fill="#FFCCCD"/>
<path opacity="0.8" fill-rule="evenodd" clip-rule="evenodd" d="M58 1.25C58.1989 1.25 58.3897 1.32902 58.5303 1.46967C58.671 1.61032 58.75 1.80109 58.75 2V4C58.75 4.19891 58.671 4.38968 58.5303 4.53033C58.3897 4.67098 58.1989 4.75 58 4.75C57.8011 4.75 57.6103 4.67098 57.4697 4.53033C57.329 4.38968 57.25 4.19891 57.25 4V2C57.25 1.80109 57.329 1.61032 57.4697 1.46967C57.6103 1.32902 57.8011 1.25 58 1.25ZM47.25 12C47.25 11.8011 47.329 11.6103 47.4697 11.4697C47.6103 11.329 47.8011 11.25 48 11.25H50C50.1989 11.25 50.3897 11.329 50.5303 11.4697C50.671 11.6103 50.75 11.8011 50.75 12C50.75 12.1989 50.671 12.3897 50.5303 12.5303C50.3897 12.671 50.1989 12.75 50 12.75H48C47.8011 12.75 47.6103 12.671 47.4697 12.5303C47.329 12.3897 47.25 12.1989 47.25 12ZM65.25 12C65.25 11.8011 65.329 11.6103 65.4697 11.4697C65.6103 11.329 65.8011 11.25 66 11.25H68C68.1989 11.25 68.3897 11.329 68.5303 11.4697C68.671 11.6103 68.75 11.8011 68.75 12C68.75 12.1989 68.671 12.3897 68.5303 12.5303C68.3897 12.671 68.1989 12.75 68 12.75H66C65.8011 12.75 65.6103 12.671 65.4697 12.5303C65.329 12.3897 65.25 12.1989 65.25 12ZM58 19.25C58.1989 19.25 58.3897 19.329 58.5303 19.4697C58.671 19.6103 58.75 19.8011 58.75 20V22C58.75 22.1989 58.671 22.3897 58.5303 22.5303C58.3897 22.671 58.1989 22.75 58 22.75C57.8011 22.75 57.6103 22.671 57.4697 22.5303C57.329 22.3897 57.25 22.1989 57.25 22V20C57.25 19.8011 57.329 19.6103 57.4697 19.4697C57.6103 19.329 57.8011 19.25 58 19.25Z" fill="#FFCCCD"/>
<path opacity="0.5" d="M51.4693 5.47032C51.61 5.32987 51.8006 5.25098 51.9993 5.25098C52.1981 5.25098 52.3887 5.32987 52.5293 5.47032L52.8733 5.81332C53.0099 5.95483 53.0854 6.14432 53.0836 6.34097C53.0818 6.53762 53.0028 6.72569 52.8637 6.86468C52.7246 7.00367 52.5364 7.08246 52.3398 7.08407C52.1431 7.08569 51.9537 7.01 51.8123 6.87332L51.4693 6.53032C51.3289 6.38969 51.25 6.19907 51.25 6.00032C51.25 5.80157 51.3289 5.61094 51.4693 5.47032ZM64.5293 5.47032C64.6698 5.61094 64.7487 5.80157 64.7487 6.00032C64.7487 6.19907 64.6698 6.38969 64.5293 6.53032L64.1863 6.87432C64.0448 7.01087 63.8553 7.08638 63.6587 7.08458C63.462 7.08278 63.274 7.00381 63.135 6.86469C62.996 6.72557 62.9172 6.53742 62.9156 6.34077C62.914 6.14412 62.9897 5.9547 63.1263 5.81332L63.4693 5.47032C63.61 5.32987 63.8006 5.25098 63.9993 5.25098C64.1981 5.25098 64.3887 5.32987 64.5293 5.47032ZM52.8723 17.1273C53.0128 17.2679 53.0917 17.4586 53.0917 17.6573C53.0917 17.8561 53.0128 18.0467 52.8723 18.1873L52.5293 18.5303C52.3872 18.6628 52.1991 18.7349 52.0048 18.7315C51.8105 18.7281 51.6251 18.6494 51.4877 18.5119C51.3503 18.3745 51.2716 18.1891 51.2682 17.9948C51.2647 17.8005 51.3369 17.6125 51.4693 17.4703L51.8123 17.1273C51.953 16.9869 52.1436 16.908 52.3423 16.908C52.5411 16.908 52.7317 16.9869 52.8723 17.1273ZM63.1263 17.1273C63.267 16.9869 63.4576 16.908 63.6563 16.908C63.8551 16.908 64.0457 16.9869 64.1863 17.1273L64.5293 17.4703C64.603 17.539 64.6621 17.6218 64.7031 17.7138C64.7441 17.8058 64.7662 17.9051 64.7679 18.0058C64.7697 18.1065 64.7512 18.2065 64.7135 18.2999C64.6757 18.3933 64.6196 18.4781 64.5484 18.5494C64.4772 18.6206 64.3923 18.6767 64.2989 18.7144C64.2055 18.7522 64.1055 18.7707 64.0048 18.7689C63.9041 18.7671 63.8048 18.7451 63.7128 18.7041C63.6208 18.6631 63.538 18.604 63.4693 18.5303L63.1263 18.1873C62.9859 18.0467 62.907 17.8561 62.907 17.6573C62.907 17.4586 62.9859 17.2679 63.1263 17.1273Z" fill="#FFCCCD"/>
<path d="M53 11.06C53 13.602 55.01 14.957 56.48 16.17C57 16.597 57.5 17 58 17C58.5 17 59 16.597 59.52 16.17C60.99 14.957 63 13.602 63 11.06C63 8.518 60.25 6.714 58 9.158C55.75 6.714 53 8.518 53 11.06Z" fill="#FFCCCD"/>
</svg>
