<svg width="60" height="21" viewBox="0 0 60 21" fill="none" xmlns="http://www.w3.org/2000/svg">
<path d="M1.82463 8.212C1.63796 8.21733 1.45929 8.18267 1.28862 8.108C1.11262 8.03867 0.995292 7.93733 0.936625 7.804C0.899292 7.71333 0.917958 7.628 0.992625 7.548C1.06196 7.47333 1.16329 7.43067 1.29662 7.42C1.34462 7.41467 1.39262 7.41733 1.44062 7.428C1.48329 7.43867 1.50996 7.46533 1.52062 7.508C1.53129 7.54533 1.53129 7.58267 1.52062 7.62C1.50996 7.65733 1.50196 7.68933 1.49662 7.716C1.50729 7.78 1.54196 7.83867 1.60062 7.892C1.65929 7.94533 1.73929 7.972 1.84063 7.972C1.99529 7.972 2.12063 7.92133 2.21663 7.82C2.31263 7.724 2.38729 7.596 2.44063 7.436C2.49396 7.276 2.53129 7.10267 2.55263 6.916C2.57929 6.72933 2.59529 6.54267 2.60063 6.356C2.60596 6.16933 2.61129 6.004 2.61663 5.86L2.68063 3.02C2.56329 3.02533 2.47263 3.03067 2.40863 3.036C2.34996 3.04133 2.29129 3.05467 2.23263 3.076C2.15263 3.10267 2.10463 3.13467 2.08863 3.172C2.06729 3.204 2.03529 3.21733 1.99263 3.212C1.95529 3.20133 1.93929 3.172 1.94463 3.124L1.96863 2.796C1.97396 2.76933 1.98196 2.748 1.99263 2.732C2.00863 2.716 2.03529 2.708 2.07263 2.708H2.68863C2.73129 1.99867 2.87796 1.48667 3.12863 1.172C3.38463 0.852 3.70729 0.692 4.09663 0.692C4.30996 0.692 4.50196 0.745333 4.67263 0.852C4.84863 0.958666 4.94729 1.08133 4.96863 1.22C4.97929 1.29467 4.94996 1.364 4.88063 1.428C4.81663 1.48667 4.74196 1.52667 4.65663 1.548C4.57663 1.56933 4.51796 1.564 4.48063 1.532C4.45396 1.50533 4.44063 1.47067 4.44063 1.428C4.44063 1.38533 4.44863 1.34533 4.46463 1.308C4.44329 1.23333 4.39263 1.164 4.31263 1.1C4.23796 1.03067 4.14729 0.996 4.04063 0.996C3.87529 0.990667 3.73929 1.036 3.63263 1.132C3.52596 1.228 3.44329 1.356 3.38463 1.516C3.33129 1.67067 3.29129 1.83867 3.26463 2.02C3.23796 2.20133 3.22196 2.37733 3.21663 2.548L3.20863 2.708H4.12863C4.20863 2.708 4.24329 2.73733 4.23263 2.796L4.20863 3.124C4.20329 3.172 4.18196 3.19867 4.14463 3.204C4.10729 3.20933 4.08063 3.19867 4.06463 3.172C4.05929 3.156 4.04596 3.14 4.02463 3.124C4.00329 3.10267 3.96596 3.084 3.91263 3.068C3.84329 3.04667 3.76596 3.03333 3.68063 3.028C3.59529 3.02267 3.43529 3.02 3.20063 3.02L3.09663 6.284C3.08596 6.61467 3.04329 6.924 2.96863 7.212C2.89396 7.50533 2.76596 7.74267 2.58463 7.924C2.40863 8.10533 2.15529 8.20133 1.82463 8.212ZM6.39806 6.556C6.0834 6.556 5.7954 6.47333 5.53406 6.308C5.27806 6.13733 5.08073 5.9 4.94206 5.596C4.8034 5.292 4.75006 4.94267 4.78206 4.548C4.8194 4.15333 4.92606 3.80667 5.10206 3.508C5.2834 3.20933 5.5154 2.97733 5.79806 2.812C6.08073 2.64133 6.39273 2.556 6.73406 2.556C7.04873 2.556 7.33406 2.64133 7.59006 2.812C7.8514 2.97733 8.05406 3.20933 8.19806 3.508C8.3474 3.80667 8.4034 4.15333 8.36606 4.548C8.33406 4.94267 8.22473 5.292 8.03806 5.596C7.85673 5.9 7.62206 6.13733 7.33406 6.308C7.0514 6.47333 6.7394 6.556 6.39806 6.556ZM5.33406 4.548C5.3234 4.85733 5.3634 5.14267 5.45406 5.404C5.55006 5.66 5.68606 5.86533 5.86206 6.02C6.0434 6.16933 6.25406 6.244 6.49406 6.244C6.73406 6.244 6.95006 6.16933 7.14206 6.02C7.33406 5.86533 7.48873 5.66 7.60606 5.404C7.72873 5.14267 7.7954 4.85733 7.80606 4.548C7.82206 4.23867 7.78206 3.95867 7.68606 3.708C7.59006 3.452 7.45406 3.24933 7.27806 3.1C7.10206 2.94533 6.89406 2.868 6.65406 2.868C6.41406 2.868 6.1954 2.94533 5.99806 3.1C5.80606 3.24933 5.6514 3.452 5.53406 3.708C5.41673 3.95867 5.35006 4.23867 5.33406 4.548ZM8.85494 3.148C8.9456 3.08933 9.05494 3.01733 9.18294 2.932C9.31094 2.84133 9.43094 2.75867 9.54294 2.684C9.66027 2.60933 9.7376 2.56667 9.77494 2.556C9.8496 2.52933 9.91627 2.532 9.97494 2.564C10.0336 2.59067 10.0603 2.63867 10.0549 2.708L9.95894 4.628C10.0336 4.22267 10.1536 3.87333 10.3189 3.58C10.4896 3.28667 10.6736 3.05467 10.8709 2.884C11.0683 2.708 11.2416 2.59867 11.3909 2.556C11.4549 2.53467 11.5056 2.53467 11.5429 2.556C11.5856 2.572 11.6283 2.604 11.6709 2.652C11.7563 2.748 11.8016 2.85733 11.8069 2.98C11.8123 3.10267 11.7616 3.172 11.6549 3.188C11.6176 3.19333 11.5803 3.19067 11.5429 3.18C11.5109 3.164 11.4816 3.15067 11.4549 3.14C11.3216 3.12933 11.1696 3.188 10.9989 3.316C10.8283 3.444 10.6629 3.63867 10.5029 3.9C10.3429 4.156 10.2043 4.47333 10.0869 4.852C9.97494 5.22533 9.90827 5.65467 9.88694 6.14C9.8816 6.27867 9.8416 6.37733 9.76694 6.436C9.69227 6.49467 9.56427 6.51333 9.38294 6.492L9.54294 3.172C9.53227 3.16667 9.51627 3.16667 9.49494 3.172C9.4736 3.172 9.4416 3.18533 9.39894 3.212C9.1856 3.324 9.00427 3.30267 8.85494 3.148ZM13.8687 6.172C14.082 6.188 14.2714 6.16133 14.4367 6.092C14.6074 6.02267 14.7514 5.93467 14.8687 5.828C14.986 5.72133 15.0714 5.62533 15.1247 5.54C15.1514 5.492 15.194 5.46267 15.2527 5.452C15.3167 5.44133 15.37 5.45733 15.4127 5.5C15.3967 5.55333 15.3567 5.63867 15.2927 5.756C15.2287 5.868 15.1327 5.98533 15.0047 6.108C14.882 6.23067 14.7247 6.33733 14.5327 6.428C14.3407 6.51333 14.114 6.556 13.8527 6.556C13.5114 6.556 13.2047 6.47867 12.9327 6.324C12.6607 6.16933 12.4474 5.95333 12.2927 5.676C12.1434 5.39333 12.074 5.07333 12.0847 4.716C12.0954 4.37467 12.1674 4.068 12.3007 3.796C12.434 3.524 12.6047 3.29467 12.8127 3.108C13.0207 2.916 13.25 2.772 13.5007 2.676C13.7514 2.57467 13.9967 2.524 14.2367 2.524C14.466 2.524 14.6527 2.56133 14.7967 2.636C14.946 2.70533 15.0634 2.79067 15.1487 2.892C15.234 2.99333 15.2927 3.09467 15.3247 3.196C15.362 3.292 15.3807 3.372 15.3807 3.436C15.3807 3.644 15.314 3.836 15.1807 4.012C15.0527 4.188 14.8794 4.34 14.6607 4.468C14.4474 4.596 14.2074 4.69467 13.9407 4.764C13.674 4.828 13.402 4.86 13.1247 4.86C13.0287 4.86 12.9647 4.83333 12.9327 4.78C12.9007 4.72133 12.8927 4.668 12.9087 4.62C13.106 4.62 13.314 4.59067 13.5327 4.532C13.7567 4.47333 13.9674 4.39333 14.1647 4.292C14.362 4.18533 14.522 4.068 14.6447 3.94C14.7727 3.80667 14.8367 3.67067 14.8367 3.532C14.8367 3.32933 14.7727 3.16667 14.6447 3.044C14.522 2.916 14.3594 2.84933 14.1567 2.844C13.8847 2.83867 13.6394 2.91867 13.4207 3.084C13.2074 3.24933 13.034 3.468 12.9007 3.74C12.7727 4.00667 12.7007 4.29733 12.6847 4.612C12.674 4.884 12.7114 5.13467 12.7967 5.364C12.8874 5.59333 13.0234 5.78 13.2047 5.924C13.386 6.068 13.6074 6.15067 13.8687 6.172ZM17.5818 6.484C17.5285 6.52667 17.4725 6.54267 17.4138 6.532C17.3551 6.52133 17.3205 6.48667 17.3098 6.428C17.1871 5.852 17.0565 5.30267 16.9178 4.78C16.7791 4.25733 16.6058 3.772 16.3978 3.324C16.3871 3.324 16.3711 3.32933 16.3498 3.34C16.3338 3.34533 16.3098 3.36933 16.2778 3.412C16.2351 3.46 16.1738 3.5 16.0938 3.532C16.0191 3.55867 15.9338 3.54533 15.8378 3.492C15.8965 3.412 15.9658 3.316 16.0458 3.204C16.1258 3.092 16.2031 2.99067 16.2778 2.9C16.3525 2.804 16.4058 2.74 16.4378 2.708C16.4965 2.64933 16.5578 2.628 16.6218 2.644C16.6858 2.66 16.7285 2.69733 16.7498 2.756C16.9311 3.204 17.1018 3.71333 17.2618 4.284C17.4218 4.84933 17.5605 5.41467 17.6778 5.98C17.8858 5.804 18.0751 5.588 18.2458 5.332C18.4165 5.07067 18.5578 4.79867 18.6698 4.516C18.7871 4.23333 18.8645 3.96933 18.9018 3.724C18.9445 3.47867 18.9391 3.28133 18.8858 3.132C18.8645 3.116 18.8325 3.10533 18.7898 3.1C18.7525 3.09467 18.7151 3.08133 18.6778 3.06C18.6405 3.03333 18.6218 2.99867 18.6218 2.956C18.6218 2.91333 18.6405 2.868 18.6778 2.82C18.7311 2.74533 18.8031 2.68933 18.8938 2.652C18.9898 2.60933 19.0805 2.59333 19.1658 2.604C19.2511 2.60933 19.3045 2.65467 19.3258 2.74C19.3578 2.868 19.3765 3.02 19.3818 3.196C19.3871 3.372 19.3765 3.53733 19.3498 3.692C19.3071 4.07067 19.1925 4.436 19.0058 4.788C18.8191 5.14 18.5978 5.46267 18.3418 5.756C18.0911 6.044 17.8378 6.28667 17.5818 6.484ZM21.689 6.172C21.9023 6.188 22.0917 6.16133 22.257 6.092C22.4277 6.02267 22.5717 5.93467 22.689 5.828C22.8063 5.72133 22.8917 5.62533 22.945 5.54C22.9717 5.492 23.0143 5.46267 23.073 5.452C23.137 5.44133 23.1903 5.45733 23.233 5.5C23.217 5.55333 23.177 5.63867 23.113 5.756C23.049 5.868 22.953 5.98533 22.825 6.108C22.7023 6.23067 22.545 6.33733 22.353 6.428C22.161 6.51333 21.9343 6.556 21.673 6.556C21.3317 6.556 21.025 6.47867 20.753 6.324C20.481 6.16933 20.2677 5.95333 20.113 5.676C19.9637 5.39333 19.8943 5.07333 19.905 4.716C19.9157 4.37467 19.9877 4.068 20.121 3.796C20.2543 3.524 20.425 3.29467 20.633 3.108C20.841 2.916 21.0703 2.772 21.321 2.676C21.5717 2.57467 21.817 2.524 22.057 2.524C22.2863 2.524 22.473 2.56133 22.617 2.636C22.7663 2.70533 22.8837 2.79067 22.969 2.892C23.0543 2.99333 23.113 3.09467 23.145 3.196C23.1823 3.292 23.201 3.372 23.201 3.436C23.201 3.644 23.1343 3.836 23.001 4.012C22.873 4.188 22.6997 4.34 22.481 4.468C22.2677 4.596 22.0277 4.69467 21.761 4.764C21.4943 4.828 21.2223 4.86 20.945 4.86C20.849 4.86 20.785 4.83333 20.753 4.78C20.721 4.72133 20.713 4.668 20.729 4.62C20.9263 4.62 21.1343 4.59067 21.353 4.532C21.577 4.47333 21.7877 4.39333 21.985 4.292C22.1823 4.18533 22.3423 4.068 22.465 3.94C22.593 3.80667 22.657 3.67067 22.657 3.532C22.657 3.32933 22.593 3.16667 22.465 3.044C22.3423 2.916 22.1797 2.84933 21.977 2.844C21.705 2.83867 21.4597 2.91867 21.241 3.084C21.0277 3.24933 20.8543 3.468 20.721 3.74C20.593 4.00667 20.521 4.29733 20.505 4.612C20.4943 4.884 20.5317 5.13467 20.617 5.364C20.7077 5.59333 20.8437 5.78 21.025 5.924C21.2063 6.068 21.4277 6.15067 21.689 6.172ZM23.7221 3.148C23.8128 3.08933 23.9221 3.01733 24.0501 2.932C24.1781 2.84133 24.2981 2.75867 24.4101 2.684C24.5275 2.60933 24.6048 2.56667 24.6421 2.556C24.7168 2.52933 24.7835 2.532 24.8421 2.564C24.9008 2.59067 24.9275 2.63867 24.9221 2.708L24.8261 4.628C24.9008 4.22267 25.0208 3.87333 25.1861 3.58C25.3568 3.28667 25.5408 3.05467 25.7381 2.884C25.9355 2.708 26.1088 2.59867 26.2581 2.556C26.3221 2.53467 26.3728 2.53467 26.4101 2.556C26.4528 2.572 26.4955 2.604 26.5381 2.652C26.6235 2.748 26.6688 2.85733 26.6741 2.98C26.6795 3.10267 26.6288 3.172 26.5221 3.188C26.4848 3.19333 26.4475 3.19067 26.4101 3.18C26.3781 3.164 26.3488 3.15067 26.3221 3.14C26.1888 3.12933 26.0368 3.188 25.8661 3.316C25.6955 3.444 25.5301 3.63867 25.3701 3.9C25.2101 4.156 25.0715 4.47333 24.9541 4.852C24.8421 5.22533 24.7755 5.65467 24.7541 6.14C24.7488 6.27867 24.7088 6.37733 24.6341 6.436C24.5595 6.49467 24.4315 6.51333 24.2501 6.492L24.4101 3.172C24.3995 3.16667 24.3835 3.16667 24.3621 3.172C24.3408 3.172 24.3088 3.18533 24.2661 3.212C24.0528 3.324 23.8715 3.30267 23.7221 3.148ZM31.2184 6.556C30.9037 6.556 30.6157 6.47333 30.3544 6.308C30.0984 6.13733 29.901 5.9 29.7624 5.596C29.6237 5.292 29.5704 4.94267 29.6024 4.548C29.6397 4.15333 29.7464 3.80667 29.9224 3.508C30.1037 3.20933 30.3357 2.97733 30.6184 2.812C30.901 2.64133 31.213 2.556 31.5544 2.556C31.869 2.556 32.1544 2.64133 32.4104 2.812C32.6717 2.97733 32.8744 3.20933 33.0184 3.508C33.1677 3.80667 33.2237 4.15333 33.1864 4.548C33.1544 4.94267 33.045 5.292 32.8584 5.596C32.677 5.9 32.4424 6.13733 32.1544 6.308C31.8717 6.47333 31.5597 6.556 31.2184 6.556ZM30.1544 4.548C30.1437 4.85733 30.1837 5.14267 30.2744 5.404C30.3704 5.66 30.5064 5.86533 30.6824 6.02C30.8637 6.16933 31.0744 6.244 31.3144 6.244C31.5544 6.244 31.7704 6.16933 31.9624 6.02C32.1544 5.86533 32.309 5.66 32.4264 5.404C32.549 5.14267 32.6157 4.85733 32.6264 4.548C32.6424 4.23867 32.6024 3.95867 32.5064 3.708C32.4104 3.452 32.2744 3.24933 32.0984 3.1C31.9224 2.94533 31.7144 2.868 31.4744 2.868C31.2344 2.868 31.0157 2.94533 30.8184 3.1C30.6264 3.24933 30.4717 3.452 30.3544 3.708C30.237 3.95867 30.1704 4.23867 30.1544 4.548ZM35.0126 6.588C34.8846 6.588 34.7512 6.55867 34.6126 6.5C34.4739 6.44133 34.3592 6.34 34.2686 6.196C34.1832 6.052 34.1486 5.852 34.1646 5.596L34.3006 3.236C34.2952 3.23067 34.2819 3.23067 34.2606 3.236C34.2392 3.236 34.2019 3.24933 34.1486 3.276C33.9352 3.388 33.7592 3.36667 33.6206 3.212C33.7112 3.15333 33.8206 3.08133 33.9486 2.996C34.0766 2.90533 34.1966 2.82267 34.3086 2.748C34.4206 2.67333 34.4952 2.63067 34.5326 2.62C34.6072 2.59333 34.6712 2.596 34.7246 2.628C34.7832 2.65467 34.8099 2.70267 34.8046 2.772L34.6526 5.588C34.6472 5.73733 34.6926 5.86533 34.7886 5.972C34.8846 6.07867 35.0259 6.13467 35.2126 6.14C35.4472 6.14533 35.6899 6.03867 35.9406 5.82C36.1966 5.60133 36.3992 5.25733 36.5486 4.788C36.5752 4.69733 36.5992 4.58 36.6206 4.436C36.6419 4.28667 36.6552 4.156 36.6606 4.044L36.7166 3.036C36.7272 2.86533 36.7672 2.74267 36.8366 2.668C36.9112 2.59333 37.0392 2.56667 37.2206 2.588L37.0926 5.868C37.0872 5.932 37.0952 5.99333 37.1166 6.052C37.1432 6.10533 37.1992 6.132 37.2846 6.132C37.3379 6.132 37.4072 6.108 37.4926 6.06C37.5779 6.012 37.6526 5.94533 37.7166 5.86C37.7432 5.82267 37.7752 5.80933 37.8126 5.82C37.8499 5.83067 37.8632 5.86267 37.8526 5.916C37.8206 6.08133 37.7299 6.236 37.5806 6.38C37.4366 6.51867 37.2659 6.588 37.0686 6.588C36.9086 6.588 36.7886 6.53733 36.7086 6.436C36.6286 6.32933 36.5912 6.212 36.5966 6.084L36.6206 5.22C36.5352 5.46533 36.4099 5.692 36.2446 5.9C36.0846 6.108 35.8979 6.276 35.6846 6.404C35.4766 6.52667 35.2526 6.588 35.0126 6.588ZM38.1831 3.148C38.2737 3.08933 38.3831 3.01733 38.5111 2.932C38.6391 2.84133 38.7591 2.75867 38.8711 2.684C38.9884 2.60933 39.0657 2.56667 39.1031 2.556C39.1777 2.52933 39.2444 2.532 39.3031 2.564C39.3617 2.59067 39.3884 2.63867 39.3831 2.708L39.2871 4.628C39.3617 4.22267 39.4817 3.87333 39.6471 3.58C39.8177 3.28667 40.0017 3.05467 40.1991 2.884C40.3964 2.708 40.5697 2.59867 40.7191 2.556C40.7831 2.53467 40.8337 2.53467 40.8711 2.556C40.9137 2.572 40.9564 2.604 40.9991 2.652C41.0844 2.748 41.1297 2.85733 41.1351 2.98C41.1404 3.10267 41.0897 3.172 40.9831 3.188C40.9457 3.19333 40.9084 3.19067 40.8711 3.18C40.8391 3.164 40.8097 3.15067 40.7831 3.14C40.6497 3.12933 40.4977 3.188 40.3271 3.316C40.1564 3.444 39.9911 3.63867 39.8311 3.9C39.6711 4.156 39.5324 4.47333 39.4151 4.852C39.3031 5.22533 39.2364 5.65467 39.2151 6.14C39.2097 6.27867 39.1697 6.37733 39.0951 6.436C39.0204 6.49467 38.8924 6.51333 38.7111 6.492L38.8711 3.172C38.8604 3.16667 38.8444 3.16667 38.8231 3.172C38.8017 3.172 38.7697 3.18533 38.7271 3.212C38.5137 3.324 38.3324 3.30267 38.1831 3.148ZM44.3193 6.116L44.5673 1.468C44.562 1.46267 44.5486 1.46267 44.5273 1.468C44.5113 1.468 44.4766 1.48133 44.4233 1.508C44.21 1.62 44.034 1.59867 43.8953 1.444C43.9806 1.38533 44.0873 1.31333 44.2153 1.228C44.3433 1.13733 44.4633 1.05467 44.5753 0.98C44.6926 0.905333 44.77 0.862666 44.8073 0.852C44.882 0.825333 44.946 0.825333 44.9993 0.852C45.0526 0.878666 45.0766 0.926666 45.0713 0.996L44.8153 5.9C44.81 5.964 44.818 6.02533 44.8393 6.084C44.866 6.13733 44.922 6.164 45.0073 6.164C45.0606 6.164 45.13 6.14 45.2153 6.092C45.3006 6.044 45.3753 5.97733 45.4393 5.892C45.466 5.85467 45.498 5.844 45.5353 5.86C45.578 5.876 45.594 5.91067 45.5833 5.964C45.546 6.14 45.4526 6.29467 45.3033 6.428C45.1593 6.556 44.9886 6.62 44.7913 6.62C44.6313 6.62 44.5113 6.56933 44.4313 6.468C44.3513 6.36133 44.314 6.244 44.3193 6.116ZM47.7262 6.556C47.4115 6.556 47.1235 6.47333 46.8622 6.308C46.6062 6.13733 46.4089 5.9 46.2702 5.596C46.1315 5.292 46.0782 4.94267 46.1102 4.548C46.1475 4.15333 46.2542 3.80667 46.4302 3.508C46.6115 3.20933 46.8435 2.97733 47.1262 2.812C47.4089 2.64133 47.7209 2.556 48.0622 2.556C48.3769 2.556 48.6622 2.64133 48.9182 2.812C49.1795 2.97733 49.3822 3.20933 49.5262 3.508C49.6755 3.80667 49.7315 4.15333 49.6942 4.548C49.6622 4.94267 49.5529 5.292 49.3662 5.596C49.1849 5.9 48.9502 6.13733 48.6622 6.308C48.3795 6.47333 48.0675 6.556 47.7262 6.556ZM46.6622 4.548C46.6515 4.85733 46.6915 5.14267 46.7822 5.404C46.8782 5.66 47.0142 5.86533 47.1902 6.02C47.3715 6.16933 47.5822 6.244 47.8222 6.244C48.0622 6.244 48.2782 6.16933 48.4702 6.02C48.6622 5.86533 48.8169 5.66 48.9342 5.404C49.0569 5.14267 49.1235 4.85733 49.1342 4.548C49.1502 4.23867 49.1102 3.95867 49.0142 3.708C48.9182 3.452 48.7822 3.24933 48.6062 3.1C48.4302 2.94533 48.2222 2.868 47.9822 2.868C47.7422 2.868 47.5235 2.94533 47.3262 3.1C47.1342 3.24933 46.9795 3.452 46.8622 3.708C46.7449 3.95867 46.6782 4.23867 46.6622 4.548ZM51.8865 6.484C51.8332 6.52667 51.7772 6.54267 51.7185 6.532C51.6598 6.52133 51.6252 6.48667 51.6145 6.428C51.4918 5.852 51.3612 5.30267 51.2225 4.78C51.0838 4.25733 50.9105 3.772 50.7025 3.324C50.6918 3.324 50.6758 3.32933 50.6545 3.34C50.6385 3.34533 50.6145 3.36933 50.5825 3.412C50.5398 3.46 50.4785 3.5 50.3985 3.532C50.3238 3.55867 50.2385 3.54533 50.1425 3.492C50.2012 3.412 50.2705 3.316 50.3505 3.204C50.4305 3.092 50.5078 2.99067 50.5825 2.9C50.6572 2.804 50.7105 2.74 50.7425 2.708C50.8012 2.64933 50.8625 2.628 50.9265 2.644C50.9905 2.66 51.0332 2.69733 51.0545 2.756C51.2358 3.204 51.4065 3.71333 51.5665 4.284C51.7265 4.84933 51.8652 5.41467 51.9825 5.98C52.1905 5.804 52.3798 5.588 52.5505 5.332C52.7212 5.07067 52.8625 4.79867 52.9745 4.516C53.0918 4.23333 53.1692 3.96933 53.2065 3.724C53.2492 3.47867 53.2438 3.28133 53.1905 3.132C53.1692 3.116 53.1372 3.10533 53.0945 3.1C53.0572 3.09467 53.0198 3.08133 52.9825 3.06C52.9452 3.03333 52.9265 2.99867 52.9265 2.956C52.9265 2.91333 52.9452 2.868 52.9825 2.82C53.0358 2.74533 53.1078 2.68933 53.1985 2.652C53.2945 2.60933 53.3852 2.59333 53.4705 2.604C53.5558 2.60933 53.6092 2.65467 53.6305 2.74C53.6625 2.868 53.6812 3.02 53.6865 3.196C53.6918 3.372 53.6812 3.53733 53.6545 3.692C53.6118 4.07067 53.4972 4.436 53.3105 4.788C53.1238 5.14 52.9025 5.46267 52.6465 5.756C52.3958 6.044 52.1425 6.28667 51.8865 6.484ZM55.9937 6.172C56.207 6.188 56.3964 6.16133 56.5617 6.092C56.7324 6.02267 56.8764 5.93467 56.9937 5.828C57.111 5.72133 57.1964 5.62533 57.2497 5.54C57.2764 5.492 57.319 5.46267 57.3777 5.452C57.4417 5.44133 57.495 5.45733 57.5377 5.5C57.5217 5.55333 57.4817 5.63867 57.4177 5.756C57.3537 5.868 57.2577 5.98533 57.1297 6.108C57.007 6.23067 56.8497 6.33733 56.6577 6.428C56.4657 6.51333 56.239 6.556 55.9777 6.556C55.6364 6.556 55.3297 6.47867 55.0577 6.324C54.7857 6.16933 54.5724 5.95333 54.4177 5.676C54.2684 5.39333 54.199 5.07333 54.2097 4.716C54.2204 4.37467 54.2924 4.068 54.4257 3.796C54.559 3.524 54.7297 3.29467 54.9377 3.108C55.1457 2.916 55.375 2.772 55.6257 2.676C55.8764 2.57467 56.1217 2.524 56.3617 2.524C56.591 2.524 56.7777 2.56133 56.9217 2.636C57.071 2.70533 57.1884 2.79067 57.2737 2.892C57.359 2.99333 57.4177 3.09467 57.4497 3.196C57.487 3.292 57.5057 3.372 57.5057 3.436C57.5057 3.644 57.439 3.836 57.3057 4.012C57.1777 4.188 57.0044 4.34 56.7857 4.468C56.5724 4.596 56.3324 4.69467 56.0657 4.764C55.799 4.828 55.527 4.86 55.2497 4.86C55.1537 4.86 55.0897 4.83333 55.0577 4.78C55.0257 4.72133 55.0177 4.668 55.0337 4.62C55.231 4.62 55.439 4.59067 55.6577 4.532C55.8817 4.47333 56.0924 4.39333 56.2897 4.292C56.487 4.18533 56.647 4.068 56.7697 3.94C56.8977 3.80667 56.9617 3.67067 56.9617 3.532C56.9617 3.32933 56.8977 3.16667 56.7697 3.044C56.647 2.916 56.4844 2.84933 56.2817 2.844C56.0097 2.83867 55.7644 2.91867 55.5457 3.084C55.3324 3.24933 55.159 3.468 55.0257 3.74C54.8977 4.00667 54.8257 4.29733 54.8097 4.612C54.799 4.884 54.8364 5.13467 54.9217 5.364C55.0124 5.59333 55.1484 5.78 55.3297 5.924C55.511 6.068 55.7324 6.15067 55.9937 6.172ZM58.5548 6.14C58.5388 6.06533 58.5708 5.996 58.6508 5.932C58.7308 5.86267 58.8295 5.812 58.9468 5.78C59.0641 5.748 59.1628 5.75067 59.2428 5.788C59.3228 5.82 59.3655 5.88933 59.3708 5.996C59.3868 6.24133 59.3521 6.48667 59.2668 6.732C59.1815 6.97733 59.0508 7.20133 58.8748 7.404C58.6988 7.612 58.4748 7.78267 58.2028 7.916C58.1601 7.93733 58.1201 7.932 58.0828 7.9C58.0455 7.868 58.0268 7.83067 58.0268 7.788C58.3521 7.56933 58.5681 7.33467 58.6748 7.084C58.7868 6.83867 58.8215 6.61467 58.7788 6.412C58.7735 6.364 58.7361 6.32133 58.6668 6.284C58.6028 6.24133 58.5655 6.19333 58.5548 6.14ZM12.2165 17.988C12.3658 17.8387 12.5125 17.6387 12.6565 17.388C12.8005 17.132 12.9178 16.8547 13.0085 16.556C13.1045 16.252 13.1552 15.9533 13.1605 15.66C13.1658 15.3667 13.1045 15.1053 12.9765 14.876C13.0085 14.796 13.0672 14.7347 13.1525 14.692C13.2378 14.6493 13.3232 14.6307 13.4085 14.636C13.4938 14.636 13.5472 14.6733 13.5685 14.748C13.7445 15.244 13.9152 15.7533 14.0805 16.276C14.2458 16.7933 14.3952 17.3507 14.5285 17.948C14.6992 17.7507 14.8565 17.524 15.0005 17.268C15.1445 17.0067 15.2618 16.74 15.3525 16.468C15.4485 16.196 15.5098 15.9453 15.5365 15.716C15.5632 15.4813 15.5445 15.292 15.4805 15.148C15.4485 15.132 15.4138 15.1213 15.3765 15.116C15.3445 15.1107 15.3098 15.0947 15.2725 15.068C15.2352 15.0413 15.2165 15.004 15.2165 14.956C15.2218 14.908 15.2432 14.8627 15.2805 14.82C15.3338 14.7507 15.4032 14.6947 15.4885 14.652C15.5792 14.604 15.6672 14.5827 15.7525 14.588C15.8378 14.588 15.8938 14.6227 15.9205 14.692C15.9738 14.8147 16.0058 14.9667 16.0165 15.148C16.0272 15.324 16.0245 15.4893 16.0085 15.644C15.9712 16.0333 15.8698 16.4067 15.7045 16.764C15.5445 17.116 15.3525 17.4387 15.1285 17.732C14.9098 18.02 14.6885 18.268 14.4645 18.476C14.4112 18.524 14.3525 18.54 14.2885 18.524C14.2298 18.5133 14.1952 18.4813 14.1845 18.428C14.0832 17.9693 13.9765 17.5187 13.8645 17.076C13.7578 16.6333 13.6325 16.2333 13.4885 15.876C13.4885 16.2547 13.4165 16.612 13.2725 16.948C13.1338 17.2787 12.9605 17.5773 12.7525 17.844C12.5445 18.1107 12.3365 18.3347 12.1285 18.516C12.0698 18.5693 12.0138 18.588 11.9605 18.572C11.9072 18.5613 11.8752 18.5293 11.8645 18.476C11.7845 18.044 11.6965 17.6547 11.6005 17.308C11.5098 16.956 11.4112 16.62 11.3045 16.3C11.1978 15.9747 11.0778 15.6413 10.9445 15.3C10.9232 15.2947 10.9018 15.308 10.8805 15.34C10.8645 15.372 10.8325 15.4067 10.7845 15.444C10.7472 15.4813 10.6965 15.5053 10.6325 15.516C10.5685 15.5213 10.4885 15.4973 10.3925 15.444C10.4458 15.3747 10.5125 15.292 10.5925 15.196C10.6778 15.0947 10.7578 15.0013 10.8325 14.916C10.9072 14.8307 10.9605 14.7747 10.9925 14.748C11.0512 14.7 11.1072 14.6813 11.1605 14.692C11.2192 14.6973 11.2592 14.7293 11.2805 14.788C11.4138 15.1347 11.5338 15.4707 11.6405 15.796C11.7525 16.1213 11.8565 16.46 11.9525 16.812C12.0485 17.164 12.1365 17.556 12.2165 17.988ZM18.2828 18.172C18.4961 18.188 18.6854 18.1613 18.8508 18.092C19.0214 18.0227 19.1654 17.9347 19.2828 17.828C19.4001 17.7213 19.4854 17.6253 19.5388 17.54C19.5654 17.492 19.6081 17.4627 19.6668 17.452C19.7308 17.4413 19.7841 17.4573 19.8268 17.5C19.8108 17.5533 19.7708 17.6387 19.7068 17.756C19.6428 17.868 19.5468 17.9853 19.4188 18.108C19.2961 18.2307 19.1388 18.3373 18.9468 18.428C18.7548 18.5133 18.5281 18.556 18.2668 18.556C17.9254 18.556 17.6188 18.4787 17.3468 18.324C17.0748 18.1693 16.8614 17.9533 16.7068 17.676C16.5574 17.3933 16.4881 17.0733 16.4988 16.716C16.5094 16.3747 16.5814 16.068 16.7148 15.796C16.8481 15.524 17.0188 15.2947 17.2268 15.108C17.4348 14.916 17.6641 14.772 17.9148 14.676C18.1654 14.5747 18.4108 14.524 18.6508 14.524C18.8801 14.524 19.0668 14.5613 19.2108 14.636C19.3601 14.7053 19.4774 14.7907 19.5628 14.892C19.6481 14.9933 19.7068 15.0947 19.7388 15.196C19.7761 15.292 19.7948 15.372 19.7948 15.436C19.7948 15.644 19.7281 15.836 19.5948 16.012C19.4668 16.188 19.2934 16.34 19.0748 16.468C18.8614 16.596 18.6214 16.6947 18.3548 16.764C18.0881 16.828 17.8161 16.86 17.5388 16.86C17.4428 16.86 17.3788 16.8333 17.3468 16.78C17.3148 16.7213 17.3068 16.668 17.3228 16.62C17.5201 16.62 17.7281 16.5907 17.9468 16.532C18.1708 16.4733 18.3814 16.3933 18.5788 16.292C18.7761 16.1853 18.9361 16.068 19.0588 15.94C19.1868 15.8067 19.2508 15.6707 19.2508 15.532C19.2508 15.3293 19.1868 15.1667 19.0588 15.044C18.9361 14.916 18.7734 14.8493 18.5707 14.844C18.2988 14.8387 18.0534 14.9187 17.8348 15.084C17.6214 15.2493 17.4481 15.468 17.3148 15.74C17.1868 16.0067 17.1148 16.2973 17.0988 16.612C17.0881 16.884 17.1254 17.1347 17.2108 17.364C17.3014 17.5933 17.4374 17.78 17.6188 17.924C17.8001 18.068 18.0214 18.1507 18.2828 18.172ZM21.8519 18.556C21.6439 18.556 21.4305 18.4947 21.2119 18.372C20.9985 18.2493 20.8172 18.068 20.6679 17.828C20.5239 17.5827 20.4519 17.2813 20.4519 16.924C20.4519 16.652 20.4972 16.3773 20.5879 16.1C20.6839 15.8173 20.8199 15.5587 20.9959 15.324C21.1719 15.084 21.3852 14.8947 21.6359 14.756C21.8865 14.612 22.1692 14.5427 22.4839 14.548C22.6439 14.5533 22.7745 14.5853 22.8759 14.644C22.9825 14.6973 23.0599 14.7507 23.1079 14.804C23.1505 14.852 23.1772 14.9027 23.1879 14.956C23.1985 15.004 23.1665 15.0493 23.0919 15.092C23.0332 15.012 22.9479 14.9533 22.8359 14.916C22.7292 14.8787 22.6225 14.86 22.5159 14.86C22.2545 14.86 22.0305 14.9293 21.8439 15.068C21.6572 15.2067 21.5025 15.3827 21.3799 15.596C21.2625 15.804 21.1745 16.0227 21.1159 16.252C21.0625 16.476 21.0359 16.676 21.0359 16.852C21.0359 17.0973 21.0705 17.3213 21.1399 17.524C21.2092 17.7213 21.3132 17.8813 21.4519 18.004C21.5905 18.1213 21.7585 18.18 21.9559 18.18C22.1425 18.18 22.3159 18.1293 22.4759 18.028C22.6359 17.9213 22.7772 17.7853 22.8999 17.62C23.0279 17.4547 23.1292 17.2813 23.2039 17.1C23.2785 16.9133 23.3185 16.7427 23.3239 16.588L23.4359 13.436C23.4305 13.4307 23.4172 13.4307 23.3959 13.436C23.3799 13.436 23.3452 13.4493 23.2919 13.476C23.0785 13.588 22.9025 13.5667 22.7639 13.412C22.8492 13.3533 22.9559 13.2813 23.0839 13.196C23.2119 13.1053 23.3319 13.0227 23.4439 12.948C23.5612 12.8733 23.6385 12.8307 23.6759 12.82C23.7505 12.7933 23.8145 12.7933 23.8679 12.82C23.9212 12.8467 23.9452 12.8947 23.9399 12.964L23.7639 17.868C23.7585 17.932 23.7665 17.9933 23.7879 18.052C23.8145 18.1053 23.8705 18.132 23.9559 18.132C24.0092 18.132 24.0785 18.108 24.1639 18.06C24.2492 18.012 24.3239 17.9453 24.3879 17.86C24.4145 17.8227 24.4465 17.8093 24.4839 17.82C24.5212 17.8307 24.5345 17.8627 24.5239 17.916C24.4919 18.0813 24.4012 18.236 24.2519 18.38C24.1079 18.5187 23.9372 18.588 23.7399 18.588C23.5799 18.588 23.4599 18.5373 23.3799 18.436C23.2999 18.3293 23.2625 18.212 23.2679 18.084L23.2919 17.436C23.2172 17.612 23.1105 17.7853 22.9719 17.956C22.8332 18.1267 22.6705 18.2707 22.4839 18.388C22.2972 18.5 22.0865 18.556 21.8519 18.556ZM26.2816 18.556C26.0736 18.556 25.8602 18.4947 25.6416 18.372C25.4282 18.2493 25.2469 18.068 25.0976 17.828C24.9536 17.5827 24.8816 17.2813 24.8816 16.924C24.8816 16.652 24.9269 16.3773 25.0176 16.1C25.1136 15.8173 25.2496 15.5587 25.4256 15.324C25.6016 15.084 25.8149 14.8947 26.0656 14.756C26.3162 14.612 26.5989 14.5427 26.9136 14.548C27.0736 14.5533 27.2042 14.5853 27.3056 14.644C27.4122 14.6973 27.4896 14.7507 27.5376 14.804C27.5802 14.852 27.6069 14.9027 27.6176 14.956C27.6282 15.004 27.5962 15.0493 27.5216 15.092C27.4629 15.012 27.3776 14.9533 27.2656 14.916C27.1589 14.8787 27.0522 14.86 26.9456 14.86C26.6842 14.86 26.4602 14.9293 26.2736 15.068C26.0869 15.2067 25.9322 15.3827 25.8096 15.596C25.6922 15.804 25.6042 16.0227 25.5456 16.252C25.4922 16.476 25.4656 16.676 25.4656 16.852C25.4656 17.0973 25.5002 17.3213 25.5696 17.524C25.6389 17.7213 25.7429 17.8813 25.8816 18.004C26.0202 18.1213 26.1882 18.18 26.3856 18.18C26.5722 18.18 26.7456 18.1293 26.9056 18.028C27.0656 17.9213 27.2069 17.7853 27.3296 17.62C27.4576 17.4547 27.5589 17.2813 27.6336 17.1C27.7082 16.9133 27.7482 16.7427 27.7536 16.588L27.8656 13.436C27.8602 13.4307 27.8469 13.4307 27.8256 13.436C27.8096 13.436 27.7749 13.4493 27.7216 13.476C27.5082 13.588 27.3322 13.5667 27.1936 13.412C27.2789 13.3533 27.3856 13.2813 27.5136 13.196C27.6416 13.1053 27.7616 13.0227 27.8736 12.948C27.9909 12.8733 28.0682 12.8307 28.1056 12.82C28.1802 12.7933 28.2442 12.7933 28.2976 12.82C28.3509 12.8467 28.3749 12.8947 28.3696 12.964L28.1936 17.868C28.1882 17.932 28.1962 17.9933 28.2176 18.052C28.2442 18.1053 28.3002 18.132 28.3856 18.132C28.4389 18.132 28.5082 18.108 28.5936 18.06C28.6789 18.012 28.7536 17.9453 28.8176 17.86C28.8442 17.8227 28.8762 17.8093 28.9136 17.82C28.9509 17.8307 28.9642 17.8627 28.9536 17.916C28.9216 18.0813 28.8309 18.236 28.6816 18.38C28.5376 18.5187 28.3669 18.588 28.1696 18.588C28.0096 18.588 27.8896 18.5373 27.8096 18.436C27.7296 18.3293 27.6922 18.212 27.6976 18.084L27.7216 17.436C27.6469 17.612 27.5402 17.7853 27.4016 17.956C27.2629 18.1267 27.1002 18.2707 26.9136 18.388C26.7269 18.5 26.5162 18.556 26.2816 18.556ZM29.6633 13.172C29.6473 13.1187 29.6713 13.0813 29.7353 13.06C29.7993 13.0333 29.8819 13.028 29.9833 13.044C30.0846 13.06 30.1833 13.0947 30.2793 13.148C30.3753 13.2013 30.4446 13.276 30.4873 13.372C30.5299 13.4733 30.5139 13.5773 30.4393 13.684C30.3646 13.7853 30.2766 13.8493 30.1753 13.876C30.1273 13.892 30.0553 13.892 29.9593 13.876C29.8686 13.86 29.8179 13.8067 29.8073 13.716C29.8073 13.6733 29.7966 13.6013 29.7753 13.5C29.7539 13.3987 29.7166 13.2893 29.6633 13.172ZM29.7913 18.092L29.9593 15.244C29.9539 15.2387 29.9406 15.2387 29.9193 15.244C29.9033 15.244 29.8686 15.2573 29.8153 15.284C29.6019 15.396 29.4259 15.3747 29.2873 15.22C29.3726 15.1613 29.4793 15.0893 29.6073 15.004C29.7353 14.9133 29.8553 14.8307 29.9673 14.756C30.0846 14.6813 30.1619 14.6387 30.1993 14.628C30.2739 14.6013 30.3379 14.6013 30.3913 14.628C30.4446 14.6547 30.4686 14.7027 30.4633 14.772L30.2873 17.876C30.2819 17.94 30.2899 18.0013 30.3113 18.06C30.3379 18.1133 30.3939 18.14 30.4793 18.14C30.5326 18.14 30.5993 18.116 30.6793 18.068C30.7646 18.02 30.8393 17.9533 30.9033 17.868C30.9299 17.8307 30.9619 17.8173 30.9993 17.828C31.0419 17.8387 31.0579 17.8707 31.0473 17.924C31.0153 18.0893 30.9246 18.244 30.7753 18.388C30.6313 18.5267 30.4606 18.596 30.2633 18.596C30.1033 18.596 29.9833 18.5453 29.9033 18.444C29.8233 18.3373 29.7859 18.22 29.7913 18.092ZM31.9773 18.476L32.1213 15.308C32.0946 15.2813 32.0413 15.2947 31.9613 15.348C31.7533 15.46 31.5746 15.4387 31.4253 15.284C31.5159 15.2253 31.6253 15.1533 31.7533 15.068C31.8813 14.9773 32.0013 14.8947 32.1133 14.82C32.2306 14.7453 32.3079 14.7027 32.3453 14.692C32.4199 14.6653 32.4813 14.668 32.5293 14.7C32.5826 14.7267 32.6066 14.7747 32.6013 14.844L32.5373 15.972C32.6333 15.7373 32.7613 15.516 32.9213 15.308C33.0813 15.1 33.2679 14.932 33.4813 14.804C33.6946 14.6707 33.9293 14.604 34.1853 14.604C34.3026 14.604 34.4279 14.6333 34.5613 14.692C34.6946 14.7453 34.8066 14.8413 34.8973 14.98C34.9879 15.1187 35.0253 15.3187 35.0093 15.58L34.8733 17.82C34.8679 17.9053 34.8759 17.98 34.8973 18.044C34.9239 18.1027 34.9799 18.132 35.0653 18.132C35.1239 18.132 35.1879 18.1053 35.2573 18.052C35.3266 17.9987 35.3799 17.9347 35.4173 17.86C35.4386 17.8227 35.4679 17.8093 35.5052 17.82C35.5479 17.8307 35.5639 17.8627 35.5533 17.916C35.5213 18.0707 35.4413 18.2147 35.3133 18.348C35.1906 18.4813 35.0359 18.548 34.8493 18.548C34.6893 18.548 34.5693 18.4973 34.4893 18.396C34.4093 18.2893 34.3719 18.172 34.3773 18.044L34.5133 15.58C34.5239 15.4253 34.4786 15.3 34.3773 15.204C34.2813 15.108 34.1506 15.0573 33.9853 15.052C33.7239 15.0467 33.4679 15.1533 33.2173 15.372C32.9719 15.5907 32.7693 15.9347 32.6093 16.404C32.5826 16.484 32.5586 16.5747 32.5373 16.676C32.5213 16.7773 32.5106 16.8893 32.5053 17.012L32.4653 18.028C32.4599 18.2093 32.4226 18.3373 32.3533 18.412C32.2893 18.4813 32.1639 18.5027 31.9773 18.476ZM39.1424 17.764C39.1264 18.244 39.0597 18.6733 38.9424 19.052C38.8304 19.4307 38.6464 19.7267 38.3904 19.94C38.1397 20.1587 37.793 20.268 37.3504 20.268C37.0944 20.268 36.8677 20.228 36.6704 20.148C36.473 20.0733 36.3157 19.98 36.1984 19.868C36.081 19.7613 36.009 19.6627 35.9824 19.572C35.961 19.4973 35.977 19.4253 36.0304 19.356C36.0837 19.2867 36.169 19.2333 36.2864 19.196C36.3557 19.1747 36.4197 19.164 36.4784 19.164C36.5424 19.1693 36.585 19.1933 36.6064 19.236C36.633 19.2733 36.641 19.316 36.6304 19.364C36.625 19.4173 36.6144 19.4653 36.5984 19.508C36.6037 19.54 36.633 19.5933 36.6864 19.668C36.745 19.7427 36.833 19.8093 36.9504 19.868C37.0677 19.932 37.2144 19.964 37.3904 19.964C37.6304 19.964 37.8304 19.9027 37.9904 19.78C38.1504 19.6627 38.2757 19.5027 38.3664 19.3C38.4624 19.1027 38.5317 18.8867 38.5744 18.652C38.6224 18.4227 38.649 18.1987 38.6544 17.98L38.6864 17.108C38.649 17.2627 38.5904 17.4253 38.5104 17.596C38.4357 17.7613 38.3397 17.9187 38.2224 18.068C38.1104 18.212 37.9744 18.332 37.8144 18.428C37.6544 18.5187 37.473 18.564 37.2704 18.564C37.041 18.564 36.8277 18.5 36.6304 18.372C36.4384 18.244 36.2837 18.0627 36.1664 17.828C36.049 17.588 35.9904 17.308 35.9904 16.988C35.9904 16.7107 36.0384 16.4307 36.1344 16.148C36.2304 15.8653 36.3664 15.6067 36.5424 15.372C36.7237 15.132 36.937 14.94 37.1824 14.796C37.4277 14.652 37.6997 14.58 37.9984 14.58C38.329 14.58 38.5984 14.6307 38.8064 14.732C39.0144 14.828 39.1584 14.9187 39.2384 15.004L39.1424 17.764ZM36.5024 16.996C36.5024 17.3213 36.5717 17.6013 36.7104 17.836C36.8544 18.0707 37.0677 18.188 37.3504 18.188C37.537 18.188 37.7077 18.132 37.8624 18.02C38.0224 17.9027 38.161 17.7507 38.2784 17.564C38.401 17.3773 38.497 17.1773 38.5664 16.964C38.6357 16.7453 38.6757 16.5347 38.6864 16.332L38.7344 15.396C38.697 15.268 38.609 15.156 38.4704 15.06C38.337 14.9587 38.1664 14.908 37.9584 14.908C37.713 14.908 37.4997 14.9773 37.3184 15.116C37.137 15.2547 36.985 15.4333 36.8624 15.652C36.745 15.8707 36.6544 16.1 36.5904 16.34C36.5317 16.5747 36.5024 16.7933 36.5024 16.996ZM43.2677 15.452C43.2677 15.596 43.3104 15.716 43.3957 15.812C43.4864 15.9027 43.6064 15.9853 43.7557 16.06C43.905 16.1347 44.065 16.2173 44.2357 16.308C44.417 16.3987 44.6037 16.4973 44.7957 16.604C44.9877 16.7053 45.1477 16.8333 45.2757 16.988C45.4037 17.1373 45.4624 17.3293 45.4517 17.564C45.4464 17.772 45.3744 17.9613 45.2357 18.132C45.097 18.2973 44.9157 18.4253 44.6917 18.516C44.473 18.612 44.2304 18.6573 43.9637 18.652C43.6384 18.6467 43.3664 18.5827 43.1477 18.46C42.929 18.3373 42.761 18.1907 42.6437 18.02C42.5317 17.844 42.4704 17.6813 42.4597 17.532C42.449 17.356 42.5584 17.252 42.7877 17.22C42.9584 17.1933 43.0677 17.22 43.1157 17.3C43.1424 17.3373 43.1424 17.38 43.1157 17.428C43.0944 17.476 43.0704 17.5293 43.0437 17.588C43.0544 17.7 43.0944 17.8147 43.1637 17.932C43.233 18.044 43.3344 18.14 43.4677 18.22C43.6064 18.3 43.777 18.3427 43.9797 18.348C44.257 18.3533 44.4837 18.284 44.6597 18.14C44.8357 17.9907 44.9264 17.8147 44.9317 17.612C44.937 17.452 44.8864 17.324 44.7797 17.228C44.6784 17.1267 44.5477 17.0387 44.3877 16.964C44.2277 16.884 44.065 16.8013 43.8997 16.716C43.7397 16.6307 43.5717 16.54 43.3957 16.444C43.225 16.3427 43.0784 16.2173 42.9557 16.068C42.8384 15.9187 42.7824 15.7293 42.7877 15.5C42.793 15.2973 42.8597 15.1213 42.9877 14.972C43.1157 14.8173 43.289 14.6973 43.5077 14.612C43.7264 14.5267 43.969 14.4893 44.2357 14.5C44.5024 14.5107 44.7184 14.5667 44.8837 14.668C45.0544 14.764 45.1824 14.8733 45.2677 14.996C45.353 15.1187 45.3984 15.22 45.4037 15.3C45.409 15.3427 45.3984 15.4013 45.3717 15.476C45.3504 15.5453 45.2784 15.6093 45.1557 15.668C45.0864 15.7 45.0224 15.7133 44.9637 15.708C44.905 15.6973 44.8704 15.6653 44.8597 15.612C44.8544 15.5747 44.857 15.5373 44.8677 15.5C44.8837 15.4573 44.9024 15.4173 44.9237 15.38C44.9344 15.3427 44.9157 15.2787 44.8677 15.188C44.8197 15.0973 44.7397 15.012 44.6277 14.932C44.5157 14.852 44.3664 14.8093 44.1797 14.804C43.897 14.7933 43.6757 14.8547 43.5157 14.988C43.3557 15.116 43.273 15.2707 43.2677 15.452ZM46.5645 17.668L46.6765 15.004C46.5592 15.0093 46.4685 15.0173 46.4045 15.028C46.3458 15.0333 46.2898 15.044 46.2365 15.06C46.1565 15.0867 46.1085 15.1187 46.0925 15.156C46.0712 15.188 46.0392 15.1987 45.9965 15.188C45.9592 15.1773 45.9432 15.1453 45.9485 15.092L45.9805 14.78C45.9912 14.7213 46.0312 14.692 46.1005 14.692H46.6925L46.7245 13.932C46.7298 13.804 46.7672 13.7027 46.8365 13.628C46.9058 13.548 47.0365 13.5133 47.2285 13.524L47.1805 14.692H48.1325C48.2072 14.692 48.2392 14.7213 48.2285 14.78L48.1965 15.092C48.1912 15.1453 48.1698 15.1773 48.1325 15.188C48.1005 15.1987 48.0738 15.188 48.0525 15.156C48.0365 15.1187 47.9885 15.0867 47.9085 15.06C47.8392 15.0333 47.7565 15.0173 47.6605 15.012C47.5698 15.0067 47.4045 15.004 47.1645 15.004L47.0525 17.54C47.0472 17.7373 47.0818 17.8813 47.1565 17.972C47.2365 18.0573 47.3378 18.1053 47.4605 18.116C47.5885 18.1213 47.7112 18.0973 47.8285 18.044C47.9512 17.9907 48.0578 17.9187 48.1485 17.828C48.1805 17.796 48.2178 17.7933 48.2605 17.82C48.3085 17.8467 48.3218 17.8867 48.3005 17.94C48.2312 18.1107 48.1032 18.2573 47.9165 18.38C47.7298 18.5027 47.5298 18.564 47.3165 18.564C47.2152 18.564 47.1032 18.5373 46.9805 18.484C46.8578 18.4307 46.7538 18.34 46.6685 18.212C46.5885 18.0787 46.5538 17.8973 46.5645 17.668ZM50.4528 18.556C50.1381 18.556 49.8501 18.4733 49.5888 18.308C49.3328 18.1373 49.1354 17.9 48.9967 17.596C48.8581 17.292 48.8048 16.9427 48.8368 16.548C48.8741 16.1533 48.9808 15.8067 49.1568 15.508C49.3381 15.2093 49.5701 14.9773 49.8528 14.812C50.1354 14.6413 50.4474 14.556 50.7888 14.556C51.1034 14.556 51.3888 14.6413 51.6448 14.812C51.9061 14.9773 52.1088 15.2093 52.2528 15.508C52.4021 15.8067 52.4581 16.1533 52.4208 16.548C52.3888 16.9427 52.2794 17.292 52.0928 17.596C51.9114 17.9 51.6768 18.1373 51.3888 18.308C51.1061 18.4733 50.7941 18.556 50.4528 18.556ZM49.3888 16.548C49.3781 16.8573 49.4181 17.1427 49.5088 17.404C49.6048 17.66 49.7408 17.8653 49.9168 18.02C50.0981 18.1693 50.3088 18.244 50.5488 18.244C50.7888 18.244 51.0048 18.1693 51.1968 18.02C51.3888 17.8653 51.5434 17.66 51.6608 17.404C51.7834 17.1427 51.8501 16.8573 51.8608 16.548C51.8768 16.2387 51.8368 15.9587 51.7408 15.708C51.6448 15.452 51.5088 15.2493 51.3328 15.1C51.1568 14.9453 50.9488 14.868 50.7088 14.868C50.4688 14.868 50.2501 14.9453 50.0528 15.1C49.8608 15.2493 49.7061 15.452 49.5888 15.708C49.4714 15.9587 49.4048 16.2387 49.3888 16.548ZM52.9096 15.148C53.0003 15.0893 53.1096 15.0173 53.2376 14.932C53.3656 14.8413 53.4856 14.7587 53.5976 14.684C53.715 14.6093 53.7923 14.5667 53.8296 14.556C53.9043 14.5293 53.971 14.532 54.0296 14.564C54.0883 14.5907 54.115 14.6387 54.1096 14.708L54.0136 16.628C54.0883 16.2227 54.2083 15.8733 54.3736 15.58C54.5443 15.2867 54.7283 15.0547 54.9256 14.884C55.123 14.708 55.2963 14.5987 55.4456 14.556C55.5096 14.5347 55.5603 14.5347 55.5976 14.556C55.6403 14.572 55.683 14.604 55.7256 14.652C55.811 14.748 55.8563 14.8573 55.8616 14.98C55.867 15.1027 55.8163 15.172 55.7096 15.188C55.6723 15.1933 55.635 15.1907 55.5976 15.18C55.5656 15.164 55.5363 15.1507 55.5096 15.14C55.3763 15.1293 55.2243 15.188 55.0536 15.316C54.883 15.444 54.7176 15.6387 54.5576 15.9C54.3976 16.156 54.259 16.4733 54.1416 16.852C54.0296 17.2253 53.963 17.6547 53.9416 18.14C53.9363 18.2787 53.8963 18.3773 53.8216 18.436C53.747 18.4947 53.619 18.5133 53.4376 18.492L53.5976 15.172C53.587 15.1667 53.571 15.1667 53.5496 15.172C53.5283 15.172 53.4963 15.1853 53.4536 15.212C53.2403 15.324 53.059 15.3027 52.9096 15.148ZM59.0114 16.036C59.086 15.684 59.0914 15.396 59.0274 15.172C59.006 15.156 58.9714 15.1453 58.9234 15.14C58.8754 15.1347 58.83 15.1213 58.7874 15.1C58.75 15.0733 58.734 15.0333 58.7394 14.98C58.7447 14.9267 58.766 14.8787 58.8034 14.836C58.8567 14.772 58.934 14.7187 59.0354 14.676C59.1367 14.6333 59.23 14.6147 59.3154 14.62C59.406 14.62 59.462 14.66 59.4834 14.74C59.5154 14.8467 59.534 14.9853 59.5394 15.156C59.55 15.3267 59.5527 15.508 59.5474 15.7C59.542 15.8867 59.5287 16.0653 59.5074 16.236C59.454 16.6413 59.3794 17.0413 59.2834 17.436C59.1874 17.8307 59.038 18.2253 58.8354 18.62C58.6114 19.0573 58.35 19.4227 58.0514 19.716C57.7527 20.0093 57.414 20.1693 57.0354 20.196C56.8114 20.212 56.6007 20.172 56.4034 20.076C56.206 19.98 56.0754 19.8493 56.0114 19.684C55.9847 19.6093 55.9874 19.54 56.0194 19.476C56.0567 19.412 56.118 19.356 56.2034 19.308C56.294 19.26 56.382 19.2387 56.4674 19.244C56.5527 19.2493 56.606 19.2813 56.6274 19.34C56.638 19.372 56.6407 19.4067 56.6354 19.444C56.63 19.4813 56.622 19.516 56.6114 19.548C56.622 19.6387 56.67 19.716 56.7554 19.78C56.8407 19.8493 56.9607 19.8787 57.1154 19.868C57.2754 19.8573 57.4274 19.796 57.5714 19.684C57.7207 19.5773 57.8567 19.4413 57.9794 19.276C58.1074 19.116 58.2194 18.9507 58.3154 18.78C58.47 18.508 58.6007 18.2253 58.7074 17.932C58.814 17.6387 58.886 17.3933 58.9234 17.196L58.8914 17.172C58.8327 17.316 58.742 17.4787 58.6194 17.66C58.502 17.836 58.374 18.004 58.2354 18.164C58.0967 18.324 57.966 18.452 57.8434 18.548C57.8007 18.5853 57.75 18.5987 57.6914 18.588C57.6327 18.5773 57.598 18.5533 57.5874 18.516L56.5154 15.324C56.5047 15.324 56.4887 15.3293 56.4674 15.34C56.4514 15.3453 56.4274 15.3693 56.3954 15.412C56.3527 15.46 56.2914 15.5 56.2114 15.532C56.1367 15.5587 56.0514 15.5453 55.9554 15.492C56.014 15.412 56.086 15.316 56.1714 15.204C56.2567 15.092 56.3394 14.9907 56.4194 14.9C56.4994 14.804 56.5554 14.74 56.5874 14.708C56.646 14.6493 56.702 14.6307 56.7554 14.652C56.814 14.668 56.854 14.7053 56.8754 14.764L57.9234 18.076C58.094 17.9 58.2514 17.6973 58.3954 17.468C58.5447 17.2387 58.6727 17.0013 58.7794 16.756C58.8914 16.5053 58.9687 16.2653 59.0114 16.036Z" fill="#FF6669"/>
</svg>
