<svg width="138" height="48" viewBox="0 0 138 48" fill="none" xmlns="http://www.w3.org/2000/svg">
<path d="M6.01786 46.144C7.24186 46.144 8.28586 45.712 9.14986 44.848C8.14186 44.44 7.08586 44.236 5.98186 44.236C5.28586 44.236 4.74586 44.332 4.36186 44.524C3.97786 44.716 3.77386 44.932 3.74986 45.172C3.67786 45.436 3.86986 45.688 4.32586 45.928C4.66186 46.072 5.22586 46.144 6.01786 46.144ZM3.35386 46.612C2.80186 46.276 2.52586 45.832 2.52586 45.28C2.52586 44.704 2.86186 44.224 3.53386 43.84C4.13386 43.504 4.98586 43.336 6.08986 43.336C6.68986 43.336 7.24186 43.384 7.74586 43.48C8.24986 43.576 8.92186 43.756 9.76186 44.02C10.5299 42.796 11.1539 41.164 11.6339 39.124C12.1139 37.06 12.4259 35.044 12.5699 33.076C12.6419 32.164 12.6779 31.168 12.6779 30.088C12.6779 28.456 12.5699 26.608 12.3539 24.544C12.3059 24.232 12.3659 23.932 12.5339 23.644C12.7259 23.356 13.0139 23.212 13.3979 23.212C13.7339 23.212 13.9979 23.32 14.1899 23.536C14.3819 23.752 14.4899 23.968 14.5139 24.184C14.6339 25.144 14.6939 26.332 14.6939 27.748C14.6939 29.284 14.6099 30.892 14.4419 32.572C14.1779 34.852 13.7819 37.084 13.2539 39.268C12.7499 41.452 12.0779 43.144 11.2379 44.344C12.5819 44.872 13.8059 45.256 14.9099 45.496C15.6779 45.664 16.7579 45.748 18.1499 45.748C18.6539 45.748 18.9659 45.736 19.0859 45.712C20.1419 45.616 20.9339 45.508 21.4619 45.388C21.9899 45.268 22.4099 45.124 22.7219 44.956C23.0579 44.788 23.3459 44.668 23.5859 44.596C23.7299 44.548 23.8259 44.524 23.8739 44.524C24.0659 44.524 24.2219 44.584 24.3419 44.704C24.4859 44.824 24.5579 44.968 24.5579 45.136C24.5579 45.352 24.4619 45.58 24.2699 45.82C24.1019 46.06 23.8499 46.264 23.5139 46.432C22.7219 46.888 21.1739 47.116 18.8699 47.116C18.3659 47.116 17.7419 47.08 16.9979 47.008C16.2539 46.936 15.6539 46.852 15.1979 46.756C13.9019 46.516 12.3659 46.036 10.5899 45.316C9.91786 45.964 9.18586 46.432 8.39386 46.72C7.62586 47.008 6.71386 47.152 5.65786 47.152C4.69786 47.152 3.92986 46.972 3.35386 46.612ZM36.8277 46.108C35.6037 46.972 34.2957 47.404 32.9037 47.404C31.7277 47.404 30.6477 47.092 29.6637 46.468C28.7037 45.844 27.9357 44.992 27.3597 43.912C26.8077 42.808 26.5317 41.596 26.5317 40.276C26.5317 38.644 26.9037 37.108 27.6477 35.668C28.3917 34.228 29.3757 33.088 30.5997 32.248C31.8237 31.384 33.1197 30.952 34.4877 30.952C35.6637 30.952 36.7437 31.276 37.7277 31.924C38.7117 32.548 39.4917 33.412 40.0677 34.516C40.6437 35.62 40.9317 36.832 40.9317 38.152C40.9317 39.784 40.5597 41.308 39.8157 42.724C39.0717 44.14 38.0757 45.268 36.8277 46.108ZM28.9437 36.316C28.3677 37.516 28.0797 38.764 28.0797 40.06C28.0797 41.74 28.5357 43.144 29.4477 44.272C30.3837 45.4 31.5717 45.964 33.0117 45.964C34.1157 45.964 35.1597 45.616 36.1437 44.92C37.1277 44.2 37.9077 43.252 38.4837 42.076C39.0837 40.9 39.3837 39.652 39.3837 38.332C39.3837 37.252 39.1677 36.256 38.7357 35.344C38.3277 34.432 37.7397 33.712 36.9717 33.184C36.2037 32.632 35.3277 32.356 34.3437 32.356C33.2637 32.356 32.2437 32.716 31.2837 33.436C30.3237 34.156 29.5437 35.116 28.9437 36.316ZM56.172 32.032C57.012 32.464 57.6 33.076 57.936 33.868C58.008 34.012 57.972 34.18 57.828 34.372C57.708 34.564 57.54 34.672 57.324 34.696C57.108 34.768 56.892 34.756 56.676 34.66C56.484 34.54 56.352 34.372 56.28 34.156C56.04 33.748 55.656 33.424 55.128 33.184C54.6 32.944 54.036 32.824 53.436 32.824C52.548 32.824 51.636 33.112 50.7 33.688C48.876 34.792 47.664 36.304 47.064 38.224C46.872 38.944 46.776 39.652 46.776 40.348C46.776 41.572 47.064 42.568 47.64 43.336C48.12 44.08 48.732 44.692 49.476 45.172C50.244 45.652 51.084 45.892 51.996 45.892C52.788 45.892 53.532 45.736 54.228 45.424C54.924 45.112 55.464 44.668 55.848 44.092C56.04 43.876 56.268 43.768 56.532 43.768C56.772 43.768 56.988 43.84 57.18 43.984C57.372 44.104 57.468 44.272 57.468 44.488C57.468 44.608 57.432 44.74 57.36 44.884C56.88 45.676 56.148 46.288 55.164 46.72C54.18 47.152 53.124 47.368 51.996 47.368C51.612 47.368 51.216 47.332 50.808 47.26C49.632 47.02 48.588 46.552 47.676 45.856C46.764 45.16 46.092 44.32 45.66 43.336C45.228 42.448 45.012 41.44 45.012 40.312C45.012 39.112 45.252 37.96 45.732 36.856C46.26 35.632 46.992 34.612 47.928 33.796C48.864 32.86 49.992 32.176 51.312 31.744C51.96 31.504 52.668 31.384 53.436 31.384C54.444 31.384 55.356 31.6 56.172 32.032ZM67.9353 42.688C68.3193 42.112 68.6313 41.596 68.8713 41.14C69.4233 40.18 69.8073 39.292 70.0233 38.476C70.2633 37.66 70.5033 36.52 70.7433 35.056C70.3833 34.288 69.5913 33.904 68.3673 33.904C68.0553 33.904 67.8273 33.916 67.6833 33.94C66.5313 34.084 65.3073 34.852 64.0113 36.244C63.1953 37.132 62.5233 38.248 61.9953 39.592C61.4913 40.912 61.2633 42.184 61.3113 43.408C61.3353 44.08 61.5513 44.62 61.9593 45.028C62.3913 45.436 62.8953 45.64 63.4713 45.64C64.1193 45.688 64.6953 45.592 65.1993 45.352C65.7273 45.088 66.2433 44.68 66.7473 44.128C67.1553 43.72 67.5513 43.24 67.9353 42.688ZM63.5433 46.936C62.3913 46.936 61.5153 46.636 60.9153 46.036C60.1233 45.244 59.7273 44.176 59.7273 42.832C59.7273 41.296 60.2073 39.568 61.1673 37.648C61.5753 36.808 62.0913 36.052 62.7153 35.38C63.3393 34.684 63.9873 34.132 64.6593 33.724C65.2593 33.268 65.9193 32.92 66.6393 32.68C67.3833 32.416 68.0913 32.284 68.7633 32.284C69.7953 32.284 70.5993 32.584 71.1753 33.184L71.7513 30.916C71.7993 30.652 71.9073 30.46 72.0753 30.34C72.2433 30.196 72.4353 30.124 72.6513 30.124C72.9153 30.124 73.1433 30.22 73.3353 30.412C73.5273 30.604 73.5753 30.844 73.4793 31.132C73.1433 32.356 72.7593 34.084 72.3273 36.316C71.9913 38.14 71.8233 40.048 71.8233 42.04C71.8233 43 72.0033 43.84 72.3633 44.56C72.7473 45.256 73.3833 45.604 74.2713 45.604C74.7273 45.604 75.1473 45.484 75.5313 45.244C75.9153 45.004 76.2033 44.692 76.3953 44.308C76.5153 44.02 76.7433 43.876 77.0793 43.876C77.2473 43.876 77.3793 43.936 77.4753 44.056C77.5953 44.152 77.6553 44.296 77.6553 44.488C77.6553 44.728 77.5713 45.004 77.4033 45.316C77.1873 45.796 76.8033 46.156 76.2513 46.396C75.6993 46.66 75.0993 46.792 74.4513 46.792C73.9713 46.792 73.5753 46.744 73.2633 46.648C72.3033 46.408 71.5713 45.844 71.0673 44.956C70.5633 44.068 70.3233 42.88 70.3473 41.392C69.4593 42.904 68.6313 44.092 67.8633 44.956C67.0953 45.82 66.2193 46.396 65.2353 46.684C64.6113 46.852 64.0473 46.936 63.5433 46.936ZM90.0132 33.544C90.2292 33.544 90.4092 33.616 90.5532 33.76C90.6972 33.88 90.7692 34.048 90.7692 34.264C90.7692 34.456 90.6972 34.624 90.5532 34.768C90.4092 34.912 90.2292 34.984 90.0132 34.984H85.1532C84.6012 39.616 84.2532 42.652 84.1092 44.092C84.0612 44.524 84.2172 44.956 84.5772 45.388C84.9372 45.796 85.3572 46 85.8372 46C86.2692 46 86.6772 45.808 87.0612 45.424C87.2772 45.208 87.4812 45.1 87.6732 45.1C87.8172 45.1 87.9372 45.148 88.0332 45.244C88.2252 45.364 88.3212 45.556 88.3212 45.82C88.3212 45.988 88.2612 46.12 88.1412 46.216C87.6612 46.648 87.2532 46.948 86.9172 47.116C86.5812 47.284 86.2332 47.368 85.8732 47.368C85.6332 47.368 85.3692 47.332 85.0812 47.26C84.2892 47.116 83.6532 46.696 83.1732 46C82.7172 45.328 82.5252 44.644 82.5972 43.948C82.7172 42.7 82.9092 41.008 83.1732 38.872L83.6052 34.984H78.9252C78.7092 34.984 78.5172 34.912 78.3492 34.768C78.2052 34.624 78.1332 34.456 78.1332 34.264C78.1332 34.048 78.2052 33.88 78.3492 33.76C78.5172 33.616 78.7092 33.544 78.9252 33.544H83.7492L84.1812 30.016L84.2892 29.188C84.3132 29.02 84.3972 28.876 84.5412 28.756C84.6852 28.612 84.8532 28.54 85.0452 28.54C85.2852 28.54 85.4652 28.624 85.5852 28.792C85.7292 28.936 85.7892 29.128 85.7652 29.368L85.2972 33.544H90.0132ZM95.8083 29.764C95.8563 29.524 95.9643 29.344 96.1323 29.224C96.3003 29.104 96.4923 29.044 96.7083 29.044C96.9243 29.044 97.1043 29.116 97.2483 29.26C97.3923 29.404 97.4403 29.596 97.3923 29.836L96.6723 34.444L95.5923 41.356C95.4963 42.172 95.4483 42.772 95.4483 43.156C95.4483 43.996 95.5803 44.68 95.8443 45.208C95.9163 45.4 96.0243 45.568 96.1683 45.712C96.3363 45.832 96.5163 45.904 96.7083 45.928L96.8883 45.964C97.2483 45.964 97.5123 45.844 97.6803 45.604C97.8483 45.34 98.0523 45.208 98.2923 45.208C98.5083 45.208 98.7003 45.292 98.8683 45.46C99.0363 45.604 99.1203 45.796 99.1203 46.036C99.1203 46.156 99.0843 46.288 99.0123 46.432C98.7963 46.816 98.4963 47.104 98.1123 47.296C97.7523 47.488 97.3443 47.584 96.8883 47.584C96.4323 47.584 96.0243 47.5 95.6643 47.332C95.1603 47.044 94.7523 46.636 94.4403 46.108C94.1283 45.58 93.9483 45.016 93.9003 44.416C93.8523 43.84 93.8283 43.42 93.8283 43.156C93.8283 42.412 93.9123 41.512 94.0803 40.456L95.5203 31.636L95.8083 29.764ZM96.2763 25.264C96.2763 25 96.3723 24.772 96.5643 24.58C96.7803 24.364 97.0323 24.256 97.3203 24.256C97.5843 24.256 97.8123 24.364 98.0043 24.58C98.2203 24.796 98.3283 25.036 98.3283 25.3C98.3283 25.564 98.2203 25.804 98.0043 26.02C97.8123 26.212 97.5843 26.308 97.3203 26.308C97.0323 26.308 96.7803 26.212 96.5643 26.02C96.3723 25.804 96.2763 25.552 96.2763 25.264ZM113.89 46.108C112.666 46.972 111.358 47.404 109.966 47.404C108.79 47.404 107.71 47.092 106.726 46.468C105.766 45.844 104.998 44.992 104.422 43.912C103.87 42.808 103.594 41.596 103.594 40.276C103.594 38.644 103.966 37.108 104.71 35.668C105.454 34.228 106.438 33.088 107.662 32.248C108.886 31.384 110.182 30.952 111.55 30.952C112.726 30.952 113.806 31.276 114.79 31.924C115.774 32.548 116.554 33.412 117.13 34.516C117.706 35.62 117.994 36.832 117.994 38.152C117.994 39.784 117.622 41.308 116.878 42.724C116.134 44.14 115.138 45.268 113.89 46.108ZM106.006 36.316C105.43 37.516 105.142 38.764 105.142 40.06C105.142 41.74 105.598 43.144 106.51 44.272C107.446 45.4 108.634 45.964 110.074 45.964C111.178 45.964 112.222 45.616 113.206 44.92C114.19 44.2 114.97 43.252 115.546 42.076C116.146 40.9 116.446 39.652 116.446 38.332C116.446 37.252 116.23 36.256 115.798 35.344C115.39 34.432 114.802 33.712 114.034 33.184C113.266 32.632 112.39 32.356 111.406 32.356C110.326 32.356 109.306 32.716 108.346 33.436C107.386 34.156 106.606 35.116 106.006 36.316ZM135.431 35.812C135.431 35.956 135.407 36.22 135.359 36.604C135.359 36.916 135.095 40.204 134.567 46.468C134.495 46.972 134.219 47.224 133.739 47.224C133.499 47.224 133.307 47.128 133.163 46.936C133.019 46.744 132.959 46.516 132.983 46.252L133.091 44.488L133.163 43.948C133.331 42.244 133.535 39.748 133.775 36.46C133.823 35.452 133.451 34.636 132.659 34.012C131.891 33.388 130.907 33.076 129.707 33.076C128.987 33.076 128.303 33.256 127.655 33.616C127.007 33.976 126.467 34.444 126.035 35.02C125.603 35.572 125.351 36.148 125.279 36.748L125.099 38.548C124.715 42.58 124.487 45.1 124.415 46.108C124.343 46.588 124.055 46.828 123.551 46.828C123.287 46.828 123.083 46.756 122.939 46.612C122.819 46.468 122.771 46.264 122.795 46L124.235 29.98C124.259 29.788 124.343 29.632 124.487 29.512C124.631 29.368 124.823 29.296 125.063 29.296C125.591 29.416 125.867 29.74 125.891 30.268L125.603 33.328C126.083 32.824 126.719 32.44 127.511 32.176C128.327 31.888 129.155 31.744 129.995 31.744C130.859 31.744 131.639 31.864 132.335 32.104C133.031 32.344 133.703 32.764 134.351 33.364C135.071 34.012 135.431 34.828 135.431 35.812Z" fill="#FFCCCD"/>
<path opacity="0.8" fill-rule="evenodd" clip-rule="evenodd" d="M69 1.25C69.1989 1.25 69.3897 1.32902 69.5303 1.46967C69.671 1.61032 69.75 1.80109 69.75 2V4C69.75 4.19891 69.671 4.38968 69.5303 4.53033C69.3897 4.67098 69.1989 4.75 69 4.75C68.8011 4.75 68.6103 4.67098 68.4697 4.53033C68.329 4.38968 68.25 4.19891 68.25 4V2C68.25 1.80109 68.329 1.61032 68.4697 1.46967C68.6103 1.32902 68.8011 1.25 69 1.25ZM58.25 12C58.25 11.8011 58.329 11.6103 58.4697 11.4697C58.6103 11.329 58.8011 11.25 59 11.25H61C61.1989 11.25 61.3897 11.329 61.5303 11.4697C61.671 11.6103 61.75 11.8011 61.75 12C61.75 12.1989 61.671 12.3897 61.5303 12.5303C61.3897 12.671 61.1989 12.75 61 12.75H59C58.8011 12.75 58.6103 12.671 58.4697 12.5303C58.329 12.3897 58.25 12.1989 58.25 12ZM76.25 12C76.25 11.8011 76.329 11.6103 76.4697 11.4697C76.6103 11.329 76.8011 11.25 77 11.25H79C79.1989 11.25 79.3897 11.329 79.5303 11.4697C79.671 11.6103 79.75 11.8011 79.75 12C79.75 12.1989 79.671 12.3897 79.5303 12.5303C79.3897 12.671 79.1989 12.75 79 12.75H77C76.8011 12.75 76.6103 12.671 76.4697 12.5303C76.329 12.3897 76.25 12.1989 76.25 12ZM69 19.25C69.1989 19.25 69.3897 19.329 69.5303 19.4697C69.671 19.6103 69.75 19.8011 69.75 20V22C69.75 22.1989 69.671 22.3897 69.5303 22.5303C69.3897 22.671 69.1989 22.75 69 22.75C68.8011 22.75 68.6103 22.671 68.4697 22.5303C68.329 22.3897 68.25 22.1989 68.25 22V20C68.25 19.8011 68.329 19.6103 68.4697 19.4697C68.6103 19.329 68.8011 19.25 69 19.25Z" fill="#FFCCCD"/>
<path opacity="0.5" d="M62.4693 5.47032C62.61 5.32987 62.8006 5.25098 62.9993 5.25098C63.1981 5.25098 63.3887 5.32987 63.5293 5.47032L63.8733 5.81332C64.0099 5.95483 64.0854 6.14432 64.0836 6.34097C64.0818 6.53762 64.0028 6.72569 63.8637 6.86468C63.7246 7.00367 63.5364 7.08246 63.3398 7.08407C63.1431 7.08569 62.9537 7.01 62.8123 6.87332L62.4693 6.53032C62.3289 6.38969 62.25 6.19907 62.25 6.00032C62.25 5.80157 62.3289 5.61094 62.4693 5.47032ZM75.5293 5.47032C75.6698 5.61094 75.7487 5.80157 75.7487 6.00032C75.7487 6.19907 75.6698 6.38969 75.5293 6.53032L75.1863 6.87432C75.0448 7.01087 74.8553 7.08638 74.6587 7.08458C74.462 7.08278 74.274 7.00381 74.135 6.86469C73.996 6.72557 73.9172 6.53742 73.9156 6.34077C73.914 6.14412 73.9897 5.9547 74.1263 5.81332L74.4693 5.47032C74.61 5.32987 74.8006 5.25098 74.9993 5.25098C75.1981 5.25098 75.3887 5.32987 75.5293 5.47032ZM63.8723 17.1273C64.0128 17.2679 64.0917 17.4586 64.0917 17.6573C64.0917 17.8561 64.0128 18.0467 63.8723 18.1873L63.5293 18.5303C63.3872 18.6628 63.1991 18.7349 63.0048 18.7315C62.8105 18.7281 62.6251 18.6494 62.4877 18.5119C62.3503 18.3745 62.2716 18.1891 62.2682 17.9948C62.2647 17.8005 62.3369 17.6125 62.4693 17.4703L62.8123 17.1273C62.953 16.9869 63.1436 16.908 63.3423 16.908C63.5411 16.908 63.7317 16.9869 63.8723 17.1273ZM74.1263 17.1273C74.267 16.9869 74.4576 16.908 74.6563 16.908C74.8551 16.908 75.0457 16.9869 75.1863 17.1273L75.5293 17.4703C75.603 17.539 75.6621 17.6218 75.7031 17.7138C75.7441 17.8058 75.7662 17.9051 75.7679 18.0058C75.7697 18.1065 75.7512 18.2065 75.7135 18.2999C75.6757 18.3933 75.6196 18.4781 75.5484 18.5494C75.4772 18.6206 75.3923 18.6767 75.2989 18.7144C75.2055 18.7522 75.1055 18.7707 75.0048 18.7689C74.9041 18.7671 74.8048 18.7451 74.7128 18.7041C74.6208 18.6631 74.538 18.604 74.4693 18.5303L74.1263 18.1873C73.9859 18.0467 73.907 17.8561 73.907 17.6573C73.907 17.4586 73.9859 17.2679 74.1263 17.1273Z" fill="#FFCCCD"/>
<path d="M64 11.06C64 13.602 66.01 14.957 67.48 16.17C68 16.597 68.5 17 69 17C69.5 17 70 16.597 70.52 16.17C71.99 14.957 74 13.602 74 11.06C74 8.518 71.25 6.714 69 9.158C66.75 6.714 64 8.518 64 11.06Z" fill="#FFCCCD"/>
</svg>
