<svg width="201" height="144" viewBox="0 0 201 144" fill="none" xmlns="http://www.w3.org/2000/svg">
<path d="M62.2938 5.288C59.1738 5.288 56.5738 7.40267 54.4938 11.632C52.4831 15.792 50.8191 21.2347 49.5018 27.96C48.2538 34.616 46.9365 41.5147 45.5498 48.656C44.2325 55.7973 42.2218 62.904 39.5178 69.976C36.8138 76.9787 33.5205 82.3867 29.6378 86.2C32.0645 87.1707 35.6698 88.6267 40.4538 90.568C45.2378 92.5787 49.0511 94.1387 51.8938 95.248C59.7285 98.2987 65.5871 99.824 69.4698 99.824C73.2831 99.824 76.1951 98.6107 78.2058 96.184C78.6911 95.56 79.0725 94.8667 79.3498 94.104C80.4591 94.104 81.0138 94.936 81.0138 96.6C81.0138 99.4427 79.6965 101.696 77.0618 103.36C74.4965 105.093 71.5845 105.96 68.3258 105.96C65.0671 105.96 61.3925 105.301 57.3018 103.984C53.2111 102.736 49.9178 101.557 47.4218 100.448C44.9258 99.3387 40.9738 97.3627 35.5658 94.52C30.2271 91.7467 26.8991 90.048 25.5818 89.424C21.7685 91.92 17.1231 93.168 11.6458 93.168C6.2378 93.168 2.7018 91.6427 1.0378 88.592C0.552464 87.76 0.309797 86.824 0.309797 85.784C0.309797 84.8133 0.968464 83.704 2.2858 82.456C3.60313 81.2773 5.9258 80.688 9.2538 80.688C12.5818 80.688 17.8165 81.9707 24.9578 84.536C30.5045 78.296 34.9418 65.5387 38.2698 46.264C39.5178 38.776 40.9045 31.5307 42.4298 24.528C43.9551 17.456 46.1391 11.7013 48.9818 7.264C51.8938 2.75733 55.5685 0.504001 60.0058 0.504001C61.9471 0.504001 63.4031 0.989335 64.3738 1.96C65.4138 2.93067 65.9338 3.90134 65.9338 4.87201L66.0378 6.328C65.3445 5.63467 64.0965 5.288 62.2938 5.288ZM68.5338 27.544C68.5338 27.8213 68.2218 27.9947 67.5978 28.064C67.0431 28.1333 66.4538 28.0293 65.8298 27.752C65.2058 27.4747 64.8938 27.0933 64.8938 26.608C64.8938 19.536 65.6911 13.8507 67.2858 9.552C68.8805 5.184 70.9951 3 73.6298 3C74.3231 3 74.9125 3.24267 75.3978 3.728C75.8831 4.21333 76.1258 4.872 76.1258 5.704C72.9365 8.89333 70.6831 13.5387 69.3658 19.64C68.8111 22.136 68.5338 24.7707 68.5338 27.544ZM3.2218 86.408C3.2218 87.656 4.12313 88.6267 5.9258 89.32C7.65913 90.0827 9.9818 90.464 12.8938 90.464C15.8058 90.464 18.7178 89.4587 21.6298 87.448C15.5285 84.6747 10.7445 83.288 7.2778 83.288C5.12846 83.288 3.81113 84.0507 3.3258 85.576C3.25646 85.8533 3.2218 86.1307 3.2218 86.408ZM96.0293 63.3242C94.9876 64.6589 94.0111 65.7819 93.0996 66.6934C92.1882 67.6048 91.293 68.3535 90.4141 68.9395C89.5352 69.5254 88.6725 69.9648 87.8262 70.2578C87.0124 70.5508 86.1823 70.7461 85.3359 70.8438C84.3594 72.276 83.2689 73.627 82.0645 74.8965C80.8926 76.1335 79.6393 77.224 78.3047 78.168C77.0026 79.0794 75.6191 79.8118 74.1543 80.3652C72.6895 80.8861 71.2083 81.1465 69.7109 81.1465C68.5065 81.1465 67.3346 80.9512 66.1953 80.5605C65.056 80.1374 64.0469 79.5189 63.168 78.7051C62.2565 77.8587 61.5404 76.8171 61.0195 75.5801C60.4661 74.3105 60.1895 72.8294 60.1895 71.1367C60.1895 68.5 60.6615 65.8958 61.6055 63.3242C62.5495 60.7201 63.8678 58.2949 65.5605 56.0488C67.2533 53.8027 69.2878 51.7845 71.6641 49.9941C74.0404 48.2038 76.6608 46.7715 79.5254 45.6973L79.9648 46.3809C77.4583 48.5618 75.2936 50.8893 73.4707 53.3633C71.6803 55.8372 70.1992 58.3275 69.0273 60.834C67.8555 63.3079 66.9928 65.7168 66.4395 68.0605C65.8535 70.4043 65.5605 72.5365 65.5605 74.457C65.5605 75.0755 65.6257 75.6777 65.7559 76.2637C65.8861 76.8171 66.0977 77.3216 66.3906 77.7773C66.651 78.2005 66.9766 78.5423 67.3672 78.8027C67.7578 79.0632 68.2298 79.1934 68.7832 79.1934C69.4993 79.1934 70.2806 78.9492 71.127 78.4609C72.0059 77.9727 72.901 77.3216 73.8125 76.5078C74.724 75.6615 75.6354 74.6686 76.5469 73.5293C77.4909 72.39 78.4023 71.1693 79.2812 69.8672C77.7188 69.0208 76.5957 67.8164 75.9121 66.2539C75.2285 64.6589 74.8867 62.9336 74.8867 61.0781C74.8867 59.3529 75.196 57.6764 75.8145 56.0488C76.4329 54.3887 77.2305 52.9238 78.207 51.6543C79.1836 50.3848 80.2578 49.3757 81.4297 48.627C82.6016 47.8457 83.7409 47.4551 84.8477 47.4551C85.4336 47.4551 86.0684 47.5853 86.752 47.8457C87.4355 48.1061 88.0703 48.5456 88.6562 49.1641C89.2422 49.7826 89.7305 50.6126 90.1211 51.6543C90.5117 52.696 90.707 53.998 90.707 55.5605C90.707 57.6439 90.3327 59.8574 89.584 62.2012C88.8353 64.5124 87.8099 66.791 86.5078 69.0371C87.0938 68.9069 87.6797 68.6953 88.2656 68.4023C88.8841 68.1094 89.5189 67.7025 90.1699 67.1816C90.8535 66.6608 91.5697 66.0098 92.3184 65.2285C93.0996 64.4147 93.946 63.4382 94.8574 62.2988L96.0293 63.3242ZM76.6934 60.9316C76.6934 62.6895 76.9701 64.2194 77.5234 65.5215C78.1094 66.8236 79.0046 67.8001 80.209 68.4512C81.0879 67.0514 81.9017 65.6029 82.6504 64.1055C83.3991 62.6081 84.0501 61.1432 84.6035 59.7109C85.1569 58.2461 85.5964 56.8626 85.9219 55.5605C86.2474 54.2259 86.4102 53.0378 86.4102 51.9961C86.4102 51.4753 86.3288 51.0521 86.166 50.7266C86.0033 50.401 85.7917 50.1569 85.5312 49.9941C85.3034 49.7988 85.043 49.6686 84.75 49.6035C84.4896 49.5384 84.2617 49.5059 84.0664 49.5059C83.4479 49.5059 82.7155 49.8314 81.8691 50.4824C81.0228 51.1009 80.209 51.9473 79.4277 53.0215C78.679 54.0632 78.028 55.2839 77.4746 56.6836C76.9538 58.0508 76.6934 59.4668 76.6934 60.9316ZM106.137 53.0215C106.234 52.7936 106.283 52.6146 106.283 52.4844C106.283 52.2891 106.218 52.1589 106.088 52.0938C105.99 51.9961 105.86 51.9473 105.697 51.9473C105.372 51.9473 105.079 52.1263 104.818 52.4844L95.1504 64.4473L93.9297 63.4707L104.916 49.8965C105.762 48.8548 106.641 47.9434 107.553 47.1621C108.497 46.3483 109.473 45.9414 110.482 45.9414C111.426 45.9414 112.11 46.2018 112.533 46.7227C112.956 47.2109 113.168 47.7643 113.168 48.3828C113.168 49.0013 113.054 49.7012 112.826 50.4824C112.598 51.2637 112.305 52.0775 111.947 52.9238L104.428 71.5762C103.972 72.7155 103.598 73.7572 103.305 74.7012C103.012 75.6126 102.865 76.4264 102.865 77.1426C102.865 77.6309 102.995 78.0378 103.256 78.3633C103.516 78.6562 103.874 78.8027 104.33 78.8027C104.883 78.8027 105.583 78.526 106.43 77.9727C107.276 77.3867 108.204 76.6055 109.213 75.6289C110.222 74.6523 111.28 73.513 112.387 72.2109C113.526 70.9089 114.665 69.5254 115.805 68.0605C115.251 67.2467 114.844 66.2865 114.584 65.1797C114.324 64.0729 114.193 62.8359 114.193 61.4688C114.193 59.5156 114.535 57.6113 115.219 55.7559C115.902 53.8678 116.781 52.1751 117.855 50.6777C118.962 49.1803 120.183 47.9759 121.518 47.0645C122.885 46.153 124.236 45.6973 125.57 45.6973C126.84 45.6973 127.833 46.1042 128.549 46.918C129.298 47.7318 129.672 48.9688 129.672 50.6289C129.672 51.9635 129.428 53.3958 128.939 54.9258C128.451 56.4557 127.784 58.0182 126.938 59.6133C126.124 61.2083 125.131 62.8197 123.959 64.4473C122.82 66.0749 121.599 67.6374 120.297 69.1348C120.688 69.2324 121.127 69.2812 121.615 69.2812C122.494 69.2812 123.34 69.2161 124.154 69.0859C124.968 68.9232 125.814 68.5977 126.693 68.1094C127.572 67.6211 128.5 66.9212 129.477 66.0098C130.486 65.0658 131.609 63.8288 132.846 62.2988L134.018 63.3242C132.846 64.8542 131.739 66.1074 130.697 67.084C129.656 68.0605 128.63 68.8255 127.621 69.3789C126.645 69.9323 125.668 70.3229 124.691 70.5508C123.715 70.7786 122.706 70.8926 121.664 70.8926C120.655 70.8926 119.792 70.7786 119.076 70.5508C117.676 72.0807 116.212 73.4967 114.682 74.7988C113.184 76.1009 111.703 77.2402 110.238 78.2168C108.773 79.1608 107.357 79.9095 105.99 80.4629C104.656 81.0163 103.435 81.293 102.328 81.293C100.993 81.293 99.9355 80.8698 99.1543 80.0234C98.373 79.1445 97.9824 77.8262 97.9824 76.0684C97.9824 74.929 98.194 73.5781 98.6172 72.0156C99.0078 70.4531 99.5775 68.7767 100.326 66.9863L106.137 53.0215ZM116.098 61.3711C116.098 63.487 116.407 65.1797 117.025 66.4492C118.132 64.8867 119.19 63.3079 120.199 61.7129C121.241 60.0853 122.136 58.5391 122.885 57.0742C123.633 55.5768 124.236 54.1934 124.691 52.9238C125.147 51.6217 125.375 50.515 125.375 49.6035C125.375 49.1803 125.31 48.7897 125.18 48.4316C125.049 48.041 124.724 47.8457 124.203 47.8457C123.617 47.8457 122.852 48.2038 121.908 48.9199C120.997 49.6035 120.102 50.5638 119.223 51.8008C118.376 53.0052 117.644 54.4375 117.025 56.0977C116.407 57.7253 116.098 59.4831 116.098 61.3711ZM139.438 79.0469C140.609 79.0469 141.879 78.7865 143.246 78.2656C144.646 77.7448 146.208 76.8496 147.934 75.5801C149.691 74.3105 151.628 72.6016 153.744 70.4531C155.86 68.2721 158.236 65.5378 160.873 62.25L162.094 63.2266C159.848 66.0911 157.781 68.5326 155.893 70.5508C154.005 72.5365 152.279 74.1966 150.717 75.5312C149.154 76.8333 147.738 77.8587 146.469 78.6074C145.232 79.3236 144.125 79.8607 143.148 80.2188C142.172 80.5768 141.309 80.8047 140.561 80.9023C139.812 80.9674 139.177 81 138.656 81C137.875 81 136.996 80.8861 136.02 80.6582C135.043 80.4303 134.132 80.0234 133.285 79.4375C132.439 78.819 131.739 77.9889 131.186 76.9473C130.6 75.9056 130.307 74.5547 130.307 72.8945C130.307 70.4531 130.714 68.0931 131.527 65.8145C132.309 63.5358 133.35 61.4036 134.652 59.418C135.954 57.3997 137.419 55.5605 139.047 53.9004C140.707 52.2402 142.383 50.8242 144.076 49.6523C145.801 48.4479 147.462 47.5202 149.057 46.8691C150.652 46.2181 152.051 45.8926 153.256 45.8926C154.981 45.8926 156.218 46.4134 156.967 47.4551C157.748 48.4642 158.139 49.7663 158.139 51.3613C158.139 52.8262 157.813 54.2422 157.162 55.6094C156.511 56.9766 155.648 58.2786 154.574 59.5156C153.5 60.7201 152.247 61.8431 150.814 62.8848C149.415 63.8939 147.934 64.7728 146.371 65.5215C144.841 66.2376 143.279 66.8073 141.684 67.2305C140.121 67.6536 138.656 67.8652 137.289 67.8652C136.866 69.1022 136.54 70.2741 136.312 71.3809C136.052 72.4876 135.922 73.513 135.922 74.457C135.922 76.2148 136.264 77.4193 136.947 78.0703C137.631 78.7214 138.461 79.0469 139.438 79.0469ZM151.645 47.8945C150.766 47.8945 149.708 48.4642 148.471 49.6035C147.234 50.7103 145.948 52.1589 144.613 53.9492C143.311 55.7396 142.042 57.7415 140.805 59.9551C139.6 62.1361 138.591 64.3171 137.777 66.498C140.089 66.1074 142.188 65.3262 144.076 64.1543C145.997 62.9499 147.624 61.5664 148.959 60.0039C150.326 58.4089 151.368 56.7324 152.084 54.9746C152.833 53.2168 153.207 51.6055 153.207 50.1406C153.207 49.2617 153.061 48.6758 152.768 48.3828C152.475 48.0573 152.1 47.8945 151.645 47.8945Z" fill="#FF6669"/>
<path d="M157.98 84.3906L157.863 85.4258C157.017 85.6211 156.333 85.7969 155.812 85.9531C155.305 86.1094 155.005 86.3372 154.914 86.6367L147.902 107.848C147.772 108.225 147.525 108.538 147.16 108.785C146.809 109.02 146.438 109.202 146.047 109.332C145.669 109.462 145.37 109.553 145.148 109.605L141.75 90.9727L134.289 107.848C134.12 108.238 133.846 108.551 133.469 108.785C133.091 109.02 132.701 109.195 132.297 109.312C131.893 109.443 131.574 109.54 131.34 109.605L129.836 86.793C129.823 86.4674 129.647 86.2005 129.309 85.9922C128.97 85.7839 128.384 85.5951 127.551 85.4258L127.688 84.3906H135.734L135.598 85.4258C134.439 85.556 133.71 85.7448 133.41 85.9922C133.111 86.2396 132.974 86.5065 133 86.793L134.133 103.18L142.375 84.3906H143.703L147.277 103.18L152.707 86.6367C152.811 86.3372 152.609 86.0964 152.102 85.9141C151.594 85.7318 150.943 85.569 150.148 85.4258L150.285 84.3906H157.98ZM165.91 84.3516C165.91 85.0677 165.669 85.7708 165.188 86.4609C164.706 87.151 164.035 87.4961 163.176 87.4961C162.681 87.4961 162.303 87.3659 162.043 87.1055C161.783 86.832 161.652 86.474 161.652 86.0312C161.652 85.5625 161.763 85.0872 161.984 84.6055C162.206 84.1107 162.525 83.7005 162.941 83.375C163.358 83.0365 163.846 82.8672 164.406 82.8672C164.901 82.8672 165.272 83.0039 165.52 83.2773C165.78 83.5508 165.91 83.9089 165.91 84.3516ZM165.422 107.34C164.198 108.069 163.117 108.661 162.18 109.117C161.255 109.573 160.48 109.801 159.855 109.801C159.413 109.801 159.048 109.592 158.762 109.176C158.488 108.772 158.352 108.219 158.352 107.516C158.352 107.047 158.417 106.37 158.547 105.484C158.677 104.586 158.833 103.596 159.016 102.516C159.211 101.422 159.4 100.341 159.582 99.2734C159.777 98.1927 159.94 97.2292 160.07 96.3828C160.201 95.5365 160.266 94.9245 160.266 94.5469C160.266 93.9479 160.194 93.5833 160.051 93.4531C159.908 93.3099 159.712 93.2383 159.465 93.2383C159.309 93.2383 159.029 93.2904 158.625 93.3945C158.234 93.4987 157.876 93.6029 157.551 93.707L157.258 92.7891C157.987 92.4505 158.742 92.125 159.523 91.8125C160.305 91.5 161.008 91.2396 161.633 91.0312C162.271 90.8229 162.72 90.7188 162.98 90.7188C163.345 90.7188 163.605 90.8424 163.762 91.0898C163.931 91.3372 164.016 91.7604 164.016 92.3594C164.016 92.8151 163.951 93.4987 163.82 94.4102C163.69 95.3216 163.527 96.3372 163.332 97.457C163.137 98.5768 162.935 99.7031 162.727 100.836C162.531 101.956 162.368 102.971 162.238 103.883C162.108 104.781 162.043 105.458 162.043 105.914C162.043 106.682 162.238 107.066 162.629 107.066C163.033 107.066 163.41 107.021 163.762 106.93C164.113 106.826 164.556 106.656 165.09 106.422L165.422 107.34ZM185.812 107.34C184.628 108.043 183.54 108.629 182.551 109.098C181.561 109.566 180.793 109.801 180.246 109.801C179.79 109.801 179.426 109.592 179.152 109.176C178.892 108.772 178.762 108.219 178.762 107.516C178.762 107.242 178.814 106.721 178.918 105.953C179.035 105.185 179.178 104.293 179.348 103.277C179.517 102.262 179.686 101.246 179.855 100.23C180.025 99.2018 180.168 98.2839 180.285 97.4766C180.402 96.6562 180.461 96.0703 180.461 95.7188C180.461 94.8073 180.363 94.1693 180.168 93.8047C179.986 93.4401 179.641 93.2578 179.133 93.2578C178.898 93.2578 178.488 93.4141 177.902 93.7266C177.329 94.0391 176.691 94.5208 175.988 95.1719C175.285 95.8229 174.634 96.6562 174.035 97.6719C173.658 98.2969 173.358 99.0456 173.137 99.918C172.915 100.79 172.694 101.858 172.473 103.121C172.264 104.28 172.128 105.25 172.062 106.031C172.01 106.799 171.997 107.542 172.023 108.258C171.789 108.362 171.444 108.518 170.988 108.727C170.546 108.922 170.103 109.124 169.66 109.332C169.23 109.54 168.905 109.697 168.684 109.801L168 109.137C168.26 107.848 168.521 106.454 168.781 104.957C169.042 103.447 169.27 101.982 169.465 100.562C169.673 99.1432 169.836 97.8932 169.953 96.8125C170.083 95.7318 170.148 94.9635 170.148 94.5078C170.148 93.9089 170.083 93.5443 169.953 93.4141C169.836 93.2708 169.66 93.1992 169.426 93.1992C169.23 93.1992 168.898 93.2643 168.43 93.3945C167.974 93.5247 167.629 93.6289 167.395 93.707L167.082 92.75C167.824 92.4245 168.599 92.112 169.406 91.8125C170.214 91.5 170.936 91.2396 171.574 91.0312C172.212 90.8229 172.648 90.7188 172.883 90.7188C173.247 90.7188 173.475 90.8555 173.566 91.1289C173.658 91.4023 173.703 92.0013 173.703 92.9258C173.703 93.1992 173.684 93.6094 173.645 94.1562C173.605 94.7031 173.566 95.1393 173.527 95.4648C174.947 93.8112 176.353 92.6068 177.746 91.8516C179.139 91.0964 180.422 90.7188 181.594 90.7188C182.414 90.7188 183.039 90.9531 183.469 91.4219C183.911 91.8906 184.133 92.7565 184.133 94.0195C184.133 94.6966 184.042 95.5885 183.859 96.6953C183.69 97.8021 183.488 98.9674 183.254 100.191C183.033 101.402 182.831 102.529 182.648 103.57C182.479 104.599 182.395 105.38 182.395 105.914C182.395 106.357 182.453 106.663 182.57 106.832C182.688 106.988 182.863 107.066 183.098 107.066C183.658 107.066 184.439 106.852 185.441 106.422L185.812 107.34ZM200.715 92.5156C200.22 93.1016 199.712 93.6419 199.191 94.1367C198.671 94.6185 198.306 94.8594 198.098 94.8594C197.85 94.8594 197.577 94.6706 197.277 94.293C196.978 93.9023 196.62 93.5182 196.203 93.1406C195.786 92.75 195.285 92.5547 194.699 92.5547C193.983 92.5547 193.352 92.7891 192.805 93.2578C192.258 93.7266 191.984 94.3385 191.984 95.0938C191.984 95.6016 192.219 96.1029 192.688 96.5977C193.156 97.0794 193.918 97.5742 194.973 98.082C195.676 98.4206 196.366 98.8242 197.043 99.293C197.72 99.7617 198.28 100.328 198.723 100.992C199.165 101.643 199.387 102.431 199.387 103.355C199.387 104.254 199.146 105.094 198.664 105.875C198.182 106.656 197.551 107.34 196.77 107.926C196.001 108.512 195.161 108.967 194.25 109.293C193.339 109.632 192.46 109.801 191.613 109.801C190.702 109.801 189.842 109.645 189.035 109.332C188.228 109.02 187.57 108.642 187.062 108.199C186.568 107.757 186.32 107.353 186.32 106.988C186.32 106.78 186.457 106.448 186.73 105.992C187.004 105.536 187.303 105.12 187.629 104.742C187.967 104.352 188.228 104.156 188.41 104.156C188.553 104.156 188.716 104.339 188.898 104.703C189.094 105.055 189.354 105.471 189.68 105.953C190.018 106.422 190.454 106.839 190.988 107.203C191.535 107.555 192.232 107.73 193.078 107.73C193.977 107.73 194.725 107.438 195.324 106.852C195.936 106.266 196.242 105.543 196.242 104.684C196.242 103.72 195.852 102.913 195.07 102.262C194.289 101.611 193.41 101.051 192.434 100.582C191.053 99.918 190.103 99.2409 189.582 98.5508C189.061 97.8477 188.801 97.0794 188.801 96.2461C188.801 95.1523 189.159 94.1888 189.875 93.3555C190.604 92.5221 191.503 91.8776 192.57 91.4219C193.638 90.9531 194.693 90.7188 195.734 90.7188C196.633 90.7188 197.368 90.849 197.941 91.1094C198.527 91.3568 199.029 91.6302 199.445 91.9297C199.875 92.2161 200.298 92.4115 200.715 92.5156Z" fill="#FF6669"/>
<path d="M72.1665 130.68L68.3865 117.52C68.1999 117.1 67.9432 116.89 67.6165 116.89H51.8665C51.5865 116.89 51.3532 117.077 51.1665 117.45L42.9765 134.81L36.6065 136.14L36.3965 135.44C40.5499 128.44 44.6099 121.37 48.5765 114.23C52.5899 107.09 56.4399 99.88 60.1265 92.6C60.1732 92.46 60.1965 92.2967 60.1965 92.11C60.1965 92.0167 60.1265 91.8767 59.9865 91.69C59.8932 91.5033 59.6832 91.3867 59.3565 91.34L53.0565 90.29V88.4H66.6365C67.0099 90.3133 67.5465 92.74 68.2465 95.68C68.9932 98.5733 69.8099 101.63 70.6965 104.85C71.5832 108.023 72.3999 111.01 73.1465 113.81C73.9399 116.657 74.8032 119.62 75.7365 122.7C76.7165 125.78 77.8365 128.37 79.0965 130.47C79.5632 131.217 80.1932 131.753 80.9865 132.08C81.7799 132.407 82.6432 132.57 83.5765 132.57C84.0899 132.57 84.6032 132.547 85.1165 132.5C85.6299 132.453 86.1199 132.407 86.5865 132.36L86.6565 134.18L79.3765 136.28C78.3499 136.56 77.2999 136.7 76.2265 136.7C75.0599 136.7 74.1965 136.093 73.6365 134.88C73.0765 133.62 72.5865 132.22 72.1665 130.68ZM61.3865 95.96L53.2665 113.04C53.2199 113.087 53.1965 113.203 53.1965 113.39C53.1965 113.53 53.1965 113.623 53.1965 113.67C53.1965 113.997 53.3599 114.16 53.6865 114.16H66.8465C67.1732 114.16 67.3365 113.997 67.3365 113.67C67.3365 113.67 67.3132 113.577 67.2665 113.39C67.2199 113.203 67.1965 113.087 67.1965 113.04L62.2965 95.96C62.2032 95.7733 62.0399 95.68 61.8065 95.68C61.5265 95.68 61.3865 95.7733 61.3865 95.96ZM106.934 128.16H107.704L108.474 129C107.681 130.213 106.747 131.427 105.674 132.64C104.601 133.853 103.411 134.857 102.104 135.65C100.797 136.397 99.3741 136.77 97.8341 136.77C96.6674 136.77 95.6408 136.513 94.7541 136C93.9141 135.44 93.2608 134.46 92.7941 133.06C92.3274 131.613 92.0941 129.56 92.0941 126.9L92.5841 100.44C92.5841 99.2733 92.5608 98.0367 92.5141 96.73C92.5141 95.3767 92.4208 94.28 92.2341 93.44C92.0941 92.6933 91.6741 92.2033 90.9741 91.97C90.2741 91.69 89.4808 91.5267 88.5941 91.48C87.7074 91.4333 86.8908 91.3867 86.1441 91.34V89.73L86.5641 89.38L98.1141 87.98L98.5341 88.47C98.3941 93.37 98.1841 98.27 97.9041 103.17C97.6708 108.07 97.5541 112.97 97.5541 117.87C97.5541 120.157 97.5308 122.327 97.4841 124.38C97.4841 126.433 97.6941 128.113 98.1141 129.42C98.5808 130.68 99.5141 131.357 100.914 131.45C102.081 131.45 103.154 131.1 104.134 130.4C105.114 129.653 106.047 128.907 106.934 128.16ZM127.989 128.16H128.759L129.529 129C128.735 130.213 127.802 131.427 126.729 132.64C125.655 133.853 124.465 134.857 123.159 135.65C121.852 136.397 120.429 136.77 118.889 136.77C117.722 136.77 116.695 136.513 115.809 136C114.969 135.44 114.315 134.46 113.849 133.06C113.382 131.613 113.149 129.56 113.149 126.9L113.639 100.44C113.639 99.2733 113.615 98.0367 113.569 96.73C113.569 95.3767 113.475 94.28 113.289 93.44C113.149 92.6933 112.729 92.2033 112.029 91.97C111.329 91.69 110.535 91.5267 109.649 91.48C108.762 91.4333 107.945 91.3867 107.199 91.34V89.73L107.619 89.38L119.169 87.98L119.589 88.47C119.449 93.37 119.239 98.27 118.959 103.17C118.725 108.07 118.609 112.97 118.609 117.87C118.609 120.157 118.585 122.327 118.539 124.38C118.539 126.433 118.749 128.113 119.169 129.42C119.635 130.68 120.569 131.357 121.969 131.45C123.135 131.45 124.209 131.1 125.189 130.4C126.169 129.653 127.102 128.907 127.989 128.16Z" fill="#FF6669"/>
</svg>
