<svg width="60" height="64" viewBox="0 0 60 64" fill="none" xmlns="http://www.w3.org/2000/svg">
<path fill-rule="evenodd" clip-rule="evenodd" d="M31.5689 61.736L31.5331 61.7418L31.3216 61.8435L31.262 61.8551L31.2203 61.8435L31.0087 61.7389C30.9769 61.7312 30.9531 61.737 30.9372 61.7564L30.9253 61.7854L30.8746 63.0283L30.8895 63.0864L30.9193 63.1242L31.2292 63.3391L31.2739 63.3507L31.3097 63.3391L31.6196 63.1242L31.6553 63.0777L31.6672 63.0283L31.6166 61.7883C31.6086 61.7573 31.5927 61.7399 31.5689 61.736ZM32.3555 61.4079L32.3138 61.4137L31.7656 61.6838L31.7358 61.7128L31.7268 61.7447L31.7805 62.9935L31.7954 63.0283L31.8192 63.0516L32.4181 63.3187C32.4559 63.3284 32.4847 63.3207 32.5045 63.2955L32.5165 63.2548L32.4151 61.4718C32.4052 61.435 32.3853 61.4137 32.3555 61.4079ZM30.225 61.4137C30.2119 61.4059 30.1962 61.4034 30.1812 61.4067C30.1662 61.4099 30.1531 61.4187 30.1446 61.4311L30.1267 61.4718L30.0254 63.2548C30.0274 63.2897 30.0443 63.3129 30.076 63.3245L30.1207 63.3187L30.7197 63.0487L30.7495 63.0254L30.7584 62.9935L30.812 61.7447L30.8031 61.7099L30.7733 61.6809L30.225 61.4137Z" fill="#FFEDEE"/>
<path fill-rule="evenodd" clip-rule="evenodd" d="M29.7974 0.00195312C13.3403 0.00195312 0 13.0034 0 29.0424C0 45.0814 13.3403 58.0829 29.7974 58.0829C46.2545 58.0829 59.5949 45.0814 59.5949 29.0424C59.5949 13.0034 46.2545 0.00195312 29.7974 0.00195312ZM19.3683 21.7823C19.3683 20.4475 19.6381 19.1258 20.1622 17.8926C20.6863 16.6595 21.4545 15.539 22.4229 14.5951C23.3914 13.6513 24.5411 12.9026 25.8064 12.3918C27.0717 11.881 28.4279 11.6181 29.7974 11.6181C31.167 11.6181 32.5232 11.881 33.7885 12.3918C35.0538 12.9026 36.2035 13.6513 37.1719 14.5951C38.1403 15.539 38.9086 16.6595 39.4327 17.8926C39.9568 19.1258 40.2265 20.4475 40.2265 21.7823C40.2265 24.478 39.1278 27.0633 37.1719 28.9694C35.2161 30.8756 32.5634 31.9464 29.7974 31.9464C27.0315 31.9464 24.3788 30.8756 22.4229 28.9694C20.4671 27.0633 19.3683 24.478 19.3683 21.7823ZM48.4447 43.5162C46.2134 46.2499 43.3776 48.4573 40.1488 49.9739C36.9201 51.4905 33.3816 52.277 29.7974 52.2748C26.2132 52.277 22.6748 51.4905 19.446 49.9739C16.2172 48.4573 13.3815 46.2499 11.1502 43.5162C15.9804 40.1388 22.5716 37.7545 29.7974 37.7545C37.0233 37.7545 43.6145 40.1388 48.4447 43.5162Z" fill="#FFEDEE"/>
</svg>
