<svg width="140" height="50" viewBox="0 0 140 50" fill="none" xmlns="http://www.w3.org/2000/svg">
<path d="M16.2442 7.424H15.2202L13.8842 5.32H12.8202V7.424H12.0122V2.168H14.1562C15.0922 2.168 15.9322 2.736 15.9322 3.736C15.9322 4.472 15.4362 5.04 14.7402 5.248L16.2442 7.424ZM14.1402 2.92H12.8202V4.568H14.1002C14.6042 4.568 15.0842 4.256 15.0842 3.712C15.0842 3.176 14.6202 2.92 14.1402 2.92ZM20.4493 7.416H16.8013V2.16H20.3932V2.912H17.6093V4.336H20.2573V5.072H17.6093V6.672H20.4493V7.416ZM25.6786 5.688C25.4306 6.792 24.5346 7.56 23.3906 7.56C21.8466 7.56 21.0066 6.256 21.0066 4.784C21.0066 3.304 21.8386 2.04 23.3906 2.04C24.4626 2.04 25.4306 2.712 25.6706 3.776H24.7906C24.5986 3.176 24.0786 2.76 23.4386 2.76C22.3426 2.76 21.8706 3.832 21.8706 4.808C21.8706 5.76 22.3266 6.848 23.4146 6.848C24.1106 6.848 24.6306 6.36 24.7986 5.712L25.6786 5.688Z" fill="#FF6669"/>
<path d="M1 38.5V49.5H49" stroke="#FF6669" stroke-width="0.5"/>
<path d="M139 12.5L139 1.5L105 1.5" stroke="#FF6669" stroke-width="0.5"/>
<circle cx="139" cy="18.5" r="1" fill="#FF6669"/>
<circle cx="3.5" cy="5" r="3.5" fill="#FF6669"/>
</svg>
