<svg width="185" height="370" viewBox="0 0 185 370" fill="none" xmlns="http://www.w3.org/2000/svg">
<path d="M32.4336 0C32.4336 3.467 35.2439 6.27734 38.7109 6.27734C42.1779 6.27728 44.9883 3.46696 44.9883 0H52.3125C52.3125 3.46688 55.123 6.27716 58.5898 6.27734C61.9485 6.27734 64.6912 3.64011 64.8594 0.323242L64.8682 0H72.1924C72.1924 3.467 75.0027 6.27734 78.4697 6.27734C81.9367 6.27725 84.7471 3.46694 84.7471 0H92.0713C92.0713 3.4669 94.8818 6.27719 98.3486 6.27734C101.707 6.27734 104.45 3.64011 104.618 0.323242L104.627 0H111.948C111.948 3.46685 114.759 6.2771 118.226 6.27734C121.584 6.27734 124.327 3.64011 124.495 0.323242L124.504 0H131.828C131.828 3.467 134.638 6.27734 138.105 6.27734C141.572 6.27731 144.383 3.46698 144.383 0H151.707C151.707 3.46686 154.518 6.27712 157.984 6.27734C161.343 6.27734 164.086 3.64011 164.254 0.323242L164.263 0H168.448C168.448 9.11504 175.305 16.6272 184.142 17.6631V351.666C175.305 352.702 168.448 360.215 168.448 369.33H164.263C164.263 365.863 161.451 363.053 157.984 363.053C154.518 363.053 151.707 365.863 151.707 369.33H144.383C144.383 365.863 141.572 363.053 138.105 363.053C134.638 363.053 131.828 365.863 131.828 369.33H124.504C124.504 365.863 121.693 363.053 118.226 363.053C114.759 363.053 111.948 365.863 111.948 369.33H104.627C104.627 365.863 101.816 363.053 98.3486 363.053C94.8818 363.053 92.0713 365.863 92.0713 369.33H84.7471C84.7471 365.863 81.9367 363.053 78.4697 363.053C75.0027 363.053 72.1924 365.863 72.1924 369.33H64.8682C64.8682 365.863 62.0568 363.053 58.5898 363.053C55.123 363.053 52.3125 365.863 52.3125 369.33H44.9883C44.9883 365.863 42.1779 363.053 38.7109 363.053C35.2439 363.053 32.4336 365.863 32.4336 369.33H19.8779C19.8779 359.507 11.9149 351.543 2.0918 351.543C1.38414 351.543 0.686072 351.586 0 351.666V17.6631C0.686103 17.7435 1.38411 17.7861 2.0918 17.7861C11.9149 17.786 19.8779 9.82311 19.8779 0H32.4336Z" fill="#DDDDDD"/>
<path d="M8.94205 37.8927C8.94205 38.3687 9.11005 38.7747 9.44605 39.1107C9.60471 38.7187 9.68405 38.308 9.68405 37.8787C9.68405 37.608 9.64671 37.398 9.57205 37.2487C9.49738 37.0994 9.41338 37.02 9.32005 37.0107C9.21738 36.9827 9.11938 37.0574 9.02605 37.2347C8.97005 37.3654 8.94205 37.5847 8.94205 37.8927ZM8.76005 36.8567C8.89071 36.642 9.06338 36.5347 9.27805 36.5347C9.50205 36.5347 9.68871 36.6654 9.83805 36.9267C9.96871 37.16 10.034 37.4914 10.034 37.9207C10.034 38.154 10.0154 38.3687 9.97805 38.5647C9.94071 38.7607 9.87071 39.022 9.76805 39.3487C10.244 39.6474 10.8787 39.89 11.672 40.0767C12.4747 40.2634 13.2587 40.3847 14.024 40.4407C14.3787 40.4687 14.766 40.4827 15.186 40.4827C15.8207 40.4827 16.5394 40.4407 17.342 40.3567C17.4634 40.338 17.58 40.3614 17.692 40.4267C17.804 40.5014 17.86 40.6134 17.86 40.7627C17.86 40.8934 17.818 40.996 17.734 41.0707C17.65 41.1454 17.566 41.1874 17.482 41.1967C17.1087 41.2434 16.6467 41.2667 16.096 41.2667C15.4987 41.2667 14.8734 41.234 14.22 41.1687C13.3334 41.066 12.4654 40.912 11.616 40.7067C10.7667 40.5107 10.1087 40.2494 9.64205 39.9227C9.43671 40.4454 9.28738 40.9214 9.19405 41.3507C9.12871 41.6494 9.09605 42.0694 9.09605 42.6107C9.09605 42.8067 9.10071 42.928 9.11005 42.9747C9.14738 43.3854 9.18938 43.6934 9.23605 43.8987C9.28271 44.104 9.33871 44.2674 9.40405 44.3887C9.46938 44.5194 9.51605 44.6314 9.54405 44.7247C9.56271 44.7807 9.57205 44.818 9.57205 44.8367C9.57205 44.9114 9.54871 44.972 9.50205 45.0187C9.45538 45.0747 9.39938 45.1027 9.33405 45.1027C9.25005 45.1027 9.16138 45.0654 9.06805 44.9907C8.97471 44.9254 8.89538 44.8274 8.83005 44.6967C8.65271 44.3887 8.56405 43.7867 8.56405 42.8907C8.56405 42.6947 8.57805 42.452 8.60605 42.1627C8.63405 41.8734 8.66671 41.64 8.70405 41.4627C8.79738 40.9587 8.98405 40.3614 9.26405 39.6707C9.01205 39.4094 8.83005 39.1247 8.71805 38.8167C8.60605 38.518 8.55005 38.1634 8.55005 37.7527C8.55005 37.3794 8.62005 37.0807 8.76005 36.8567ZM8.95605 49.8743C8.62005 49.3983 8.45205 48.8896 8.45205 48.3483C8.45205 47.8909 8.57338 47.4709 8.81605 47.0883C9.05871 46.7149 9.39005 46.4163 9.81005 46.1923C10.2394 45.9776 10.7107 45.8703 11.224 45.8703C11.8587 45.8703 12.456 46.0149 13.016 46.3043C13.576 46.5936 14.0194 46.9763 14.346 47.4523C14.682 47.9283 14.85 48.4323 14.85 48.9643C14.85 49.4216 14.724 49.8416 14.472 50.2243C14.2294 50.6069 13.8934 50.9103 13.464 51.1343C13.0347 51.3583 12.5634 51.4703 12.05 51.4703C11.4154 51.4703 10.8227 51.3256 10.272 51.0363C9.72138 50.7469 9.28271 50.3596 8.95605 49.8743ZM12.764 46.8083C12.2974 46.5843 11.812 46.4723 11.308 46.4723C10.6547 46.4723 10.1087 46.6496 9.67005 47.0043C9.23138 47.3683 9.01205 47.8303 9.01205 48.3903C9.01205 48.8196 9.14738 49.2256 9.41805 49.6083C9.69805 49.9909 10.0667 50.2943 10.524 50.5183C10.9814 50.7516 11.4667 50.8683 11.98 50.8683C12.4 50.8683 12.7874 50.7843 13.142 50.6163C13.4967 50.4576 13.7767 50.2289 13.982 49.9303C14.1967 49.6316 14.304 49.2909 14.304 48.9083C14.304 48.4883 14.164 48.0916 13.884 47.7183C13.604 47.3449 13.2307 47.0416 12.764 46.8083ZM8.50805 54.8351C8.50805 54.7044 8.55005 54.5924 8.63405 54.4991C8.71805 54.4058 8.82538 54.3451 8.95605 54.3171L14.71 53.0011L14.78 53.0011C14.864 53.0011 14.934 53.0198 14.99 53.0571C15.0554 53.0944 15.0927 53.1458 15.102 53.2111L15.102 53.2531C15.102 53.3184 15.0787 53.3791 15.032 53.4351C14.9854 53.5004 14.934 53.5424 14.878 53.5611L9.22205 54.8631L14.934 57.6071C15.0554 57.6631 15.116 57.7564 15.116 57.8871C15.116 57.9711 15.0834 58.0364 15.018 58.0831C14.962 58.1391 14.8874 58.1671 14.794 58.1671C14.766 58.1671 14.724 58.1578 14.668 58.1391L8.84405 55.3251C8.74138 55.2691 8.66205 55.1944 8.60605 55.1011C8.54071 55.0171 8.50805 54.9284 8.50805 54.8351ZM14.234 63.0871C14.1874 62.9098 14.1314 62.7604 14.066 62.6391C13.674 61.9484 13.0954 61.3744 12.33 60.9171C12.3674 61.4304 12.4234 61.8878 12.498 62.2891C12.582 62.6904 12.7174 63.0591 12.904 63.3951C13.2027 63.9178 13.506 64.1791 13.814 64.1791C13.8607 64.1791 13.94 64.1604 14.052 64.1231C14.22 64.0484 14.304 63.8711 14.304 63.5911C14.304 63.4418 14.2807 63.2738 14.234 63.0871ZM11.784 60.1611L11.826 59.0411C11.8354 58.9478 11.868 58.8731 11.924 58.8171C11.98 58.7611 12.0454 58.7331 12.12 58.7331C12.1947 58.7331 12.2554 58.7564 12.302 58.8031C12.358 58.8591 12.386 58.9291 12.386 59.0131C12.386 59.1438 12.3767 59.3584 12.358 59.6571C12.3394 59.9558 12.33 60.1844 12.33 60.3431C12.9367 60.6324 13.4594 60.9964 13.898 61.4351C14.1594 61.7244 14.374 62.0464 14.542 62.4011C14.71 62.7651 14.794 63.1244 14.794 63.4791C14.794 63.8151 14.71 64.0998 14.542 64.3331C14.374 64.5664 14.1174 64.6831 13.772 64.6831C13.492 64.6831 13.2494 64.6084 13.044 64.4591C12.904 64.3471 12.7734 64.1884 12.652 63.9831C12.5307 63.7778 12.456 63.6471 12.428 63.5911C12.2134 63.1711 12.0594 62.7371 11.966 62.2891C11.882 61.8504 11.8214 61.3371 11.784 60.7491C11.224 60.5624 10.7527 60.4691 10.37 60.4691C10.23 60.4691 10.104 60.4831 9.99204 60.5111C9.50671 60.6044 9.18938 60.9871 9.04004 61.6591C9.01204 61.7991 8.99804 61.9391 8.99804 62.0791C8.99804 62.5738 9.14271 63.0404 9.43204 63.4791C9.72138 63.9271 10.0947 64.3564 10.552 64.7671C10.608 64.8138 10.636 64.8791 10.636 64.9631C10.636 65.0471 10.608 65.1078 10.552 65.1451C10.4867 65.2104 10.4167 65.2431 10.342 65.2431C10.2767 65.2431 10.2067 65.2151 10.132 65.1591C9.43204 64.5524 8.94671 63.8991 8.67604 63.1991C8.52671 62.7978 8.45204 62.4151 8.45204 62.0511C8.45204 61.6311 8.54071 61.2391 8.71804 60.8751C8.85804 60.5578 9.06804 60.3151 9.34804 60.1471C9.63738 59.9791 9.96404 59.8951 10.328 59.8951C10.7854 59.8951 11.2707 59.9838 11.784 60.1611ZM17.216 74.0768C17.1507 74.1514 17.076 74.1888 16.992 74.1888C16.9174 74.1888 16.8474 74.1608 16.782 74.1048C16.726 74.0488 16.698 73.9834 16.698 73.9088C16.698 73.8528 16.7214 73.7921 16.768 73.7268C16.8054 73.6801 16.824 73.6288 16.824 73.5728C16.824 73.4794 16.782 73.3908 16.698 73.3068C16.614 73.2228 16.5207 73.1621 16.418 73.1248C16.334 73.0874 16.2314 73.0548 16.11 73.0268C15.998 73.0081 15.9187 72.9941 15.872 72.9848L14.696 72.8308L13.24 72.6488C13.2307 72.8168 13.226 72.9614 13.226 73.0828C13.2354 73.2134 13.24 73.3208 13.24 73.4048L13.24 73.7828C13.24 73.8761 13.2074 73.9461 13.142 73.9928C13.086 74.0488 13.0114 74.0768 12.918 74.0768C12.8247 74.0768 12.7454 74.0488 12.68 73.9928C12.624 73.9461 12.5914 73.8714 12.582 73.7688L12.568 72.5788C12.4094 72.5601 11.6067 72.4574 10.16 72.2708L8.81604 72.0888L8.52204 72.0468C8.12071 72.0001 7.78004 71.9348 7.50004 71.8508C7.22004 71.7668 6.98204 71.6221 6.78604 71.4168C6.59004 71.2114 6.49204 70.9408 6.49204 70.6048C6.49204 70.2314 6.61804 69.9468 6.87004 69.7508C6.91671 69.7134 6.97271 69.6948 7.03804 69.6948C7.12204 69.6948 7.19671 69.7274 7.26204 69.7928C7.32738 69.8674 7.36004 69.9421 7.36004 70.0168C7.36004 70.1101 7.32271 70.1848 7.24804 70.2408C7.12671 70.3248 7.06604 70.4508 7.06604 70.6188C7.06604 70.8148 7.14071 70.9688 7.29004 71.0808C7.43004 71.1928 7.60271 71.2674 7.80804 71.3048C8.03204 71.3701 8.30738 71.4214 8.63404 71.4588L8.91404 71.5008C9.09138 71.5194 9.31538 71.5474 9.58604 71.5848C9.85671 71.6221 10.1414 71.6594 10.44 71.6968C11.6907 71.8741 12.4 71.9674 12.568 71.9768L12.54 70.7308C12.54 70.6281 12.5727 70.5488 12.638 70.4928C12.7034 70.4461 12.7827 70.4228 12.876 70.4228C12.96 70.4228 13.0347 70.4461 13.1 70.4928C13.1654 70.5488 13.198 70.6281 13.198 70.7308L13.226 72.0468C13.5714 72.0841 14.1407 72.1541 14.934 72.2568C15.7274 72.3688 16.2034 72.4481 16.362 72.4948C16.558 72.5321 16.74 72.6021 16.908 72.7048C17.076 72.8074 17.202 72.9381 17.286 73.0968C17.3607 73.2274 17.398 73.3721 17.398 73.5308C17.398 73.7361 17.3374 73.9181 17.216 74.0768ZM15.312 76.4206C15.4054 76.4392 15.4754 76.4812 15.522 76.5466C15.5687 76.6119 15.592 76.6866 15.592 76.7706C15.592 76.8546 15.564 76.9246 15.508 76.9806C15.452 77.0366 15.3774 77.0552 15.284 77.0366L13.492 76.7566L10.804 76.3366C10.4867 76.2992 10.2534 76.2806 10.104 76.2806C9.77738 76.2806 9.51138 76.3319 9.30604 76.4346C9.23138 76.4626 9.16604 76.5046 9.11004 76.5606C9.06338 76.6259 9.03538 76.6959 9.02604 76.7706L9.01204 76.8406C9.01204 76.9806 9.05871 77.0832 9.15204 77.1486C9.25471 77.2139 9.30604 77.2932 9.30604 77.3866C9.30604 77.4706 9.27338 77.5452 9.20804 77.6106C9.15204 77.6759 9.07738 77.7086 8.98404 77.7086C8.93738 77.7086 8.88604 77.6946 8.83004 77.6666C8.68071 77.5826 8.56871 77.4659 8.49404 77.3166C8.41938 77.1766 8.38204 77.0179 8.38204 76.8406C8.38204 76.6632 8.41471 76.5046 8.48004 76.3646C8.59204 76.1686 8.75071 76.0099 8.95604 75.8886C9.16138 75.7672 9.38071 75.6972 9.61404 75.6786C9.83804 75.6599 10.0014 75.6506 10.104 75.6506C10.3934 75.6506 10.7434 75.6832 11.154 75.7486L14.584 76.3086L15.312 76.4206ZM17.062 76.6026C17.1647 76.6026 17.2534 76.6399 17.328 76.7146C17.412 76.7986 17.454 76.8966 17.454 77.0086C17.454 77.1112 17.412 77.1999 17.328 77.2746C17.244 77.3586 17.1507 77.4006 17.048 77.4006C16.9454 77.4006 16.852 77.3586 16.768 77.2746C16.6934 77.1999 16.656 77.1112 16.656 77.0086C16.656 76.8966 16.6934 76.7986 16.768 76.7146C16.852 76.6399 16.95 76.6026 17.062 76.6026ZM17.496 80.5544C17.58 80.5637 17.6454 80.5964 17.692 80.6524C17.7387 80.7084 17.762 80.7691 17.762 80.8344C17.762 80.9184 17.734 80.9884 17.678 81.0444C17.6314 81.1004 17.5614 81.1237 17.468 81.1144C17.0947 81.0677 15.7087 80.8764 13.31 80.5404L11.042 80.2184C10.6874 80.1624 10.4074 80.1344 10.202 80.1344C9.93138 80.1344 9.69804 80.1764 9.50204 80.2604C9.42738 80.2884 9.36671 80.3351 9.32004 80.4004C9.27338 80.4657 9.24071 80.5404 9.22204 80.6244L9.20804 80.6944C9.20804 80.8437 9.25938 80.9557 9.36204 81.0304C9.45538 81.0864 9.50204 81.1564 9.50204 81.2404C9.50204 81.3151 9.46938 81.3804 9.40404 81.4364C9.34804 81.5017 9.27804 81.5344 9.19404 81.5344C9.14738 81.5344 9.09604 81.5204 9.04004 81.4924C8.90938 81.4084 8.81138 81.2964 8.74604 81.1564C8.67138 81.0257 8.63404 80.8811 8.63404 80.7224C8.63404 80.5544 8.67138 80.3864 8.74604 80.2184C8.85804 80.0317 9.01204 79.8824 9.20804 79.7704C9.40404 79.6584 9.61404 79.5931 9.83804 79.5744C9.91271 79.5651 10.02 79.5604 10.16 79.5604C10.5147 79.5604 10.9347 79.6024 11.42 79.6864C14.3134 80.1064 16.3387 80.3957 17.496 80.5544ZM13.408 91.9806C13.184 92.1019 12.946 92.1626 12.694 92.1626C12.6287 92.1626 11.9007 92.0739 10.51 91.8966L10.258 91.8686C10.1554 91.8593 9.95938 91.8359 9.67004 91.7986L8.88604 91.7146C8.81138 91.6959 8.75071 91.6586 8.70404 91.6026C8.65738 91.5466 8.63404 91.4766 8.63404 91.3926C8.63404 91.2899 8.66204 91.2106 8.71804 91.1546C8.76471 91.0986 8.82538 91.0706 8.90004 91.0706L8.97004 91.0846L11.098 91.3506C11.3967 91.3879 11.7234 91.4299 12.078 91.4766C12.4327 91.5233 12.652 91.5466 12.736 91.5466C12.988 91.5466 13.2494 91.3926 13.52 91.0846C13.6414 90.9539 13.7347 90.7906 13.8 90.5946C13.8654 90.3986 13.898 90.1979 13.898 89.9926C13.898 89.5446 13.7814 89.1713 13.548 88.8726C13.324 88.5739 13.0114 88.4013 12.61 88.3546C12.3394 88.2986 11.112 88.1493 8.92804 87.9066C8.75071 87.8786 8.66204 87.7853 8.66204 87.6266L8.66204 87.5566C8.67138 87.4819 8.70404 87.4166 8.76004 87.3606C8.80671 87.3139 8.86738 87.2906 8.94204 87.2906L9.01204 87.3046L12.68 87.7386C12.904 87.7666 13.1094 87.7059 13.296 87.5566C13.4827 87.4073 13.6274 87.2019 13.73 86.9406C13.842 86.6886 13.898 86.4226 13.898 86.1426C13.898 85.7319 13.7767 85.3679 13.534 85.0506C13.2914 84.7426 12.9927 84.5699 12.638 84.5326C12.498 84.4953 11.742 84.3973 10.37 84.2386L8.92804 84.0566C8.75071 84.0286 8.66204 83.9306 8.66204 83.7626C8.66204 83.6599 8.69471 83.5759 8.76004 83.5106C8.82538 83.4546 8.90938 83.4359 9.01204 83.4546L15.592 84.2386C15.6667 84.2573 15.7274 84.2946 15.774 84.3506C15.8207 84.4066 15.844 84.4719 15.844 84.5466L15.844 84.6026C15.816 84.7893 15.6947 84.8826 15.48 84.8826L14.01 84.6866L13.982 84.7706C14.1407 84.9293 14.2714 85.1299 14.374 85.3726C14.4767 85.6246 14.528 85.8813 14.528 86.1426C14.528 86.5626 14.444 86.9359 14.276 87.2626C14.108 87.5986 13.8747 87.8693 13.576 88.0746C13.8654 88.2706 14.094 88.5273 14.262 88.8446C14.4394 89.1713 14.528 89.5259 14.528 89.9086C14.528 90.5246 14.36 91.0426 14.024 91.4626C13.8467 91.6866 13.6414 91.8593 13.408 91.9806ZM16.278 97.6265C16.1754 97.7852 16.0447 97.8645 15.886 97.8645C15.7927 97.8645 15.6994 97.8319 15.606 97.7665C15.4847 97.6732 15.424 97.5519 15.424 97.4025C15.424 97.3185 15.452 97.2345 15.508 97.1505C15.6107 97.0199 15.7087 96.9172 15.802 96.8425C15.9047 96.7679 15.9654 96.7259 15.984 96.7165C16.1427 96.6139 16.236 96.5485 16.264 96.5205C16.4134 96.3992 16.474 96.3152 16.446 96.2685C16.418 96.2405 16.3807 96.2265 16.334 96.2265C16.2967 96.2265 16.222 96.2452 16.11 96.2825L15.774 96.4085C15.6807 96.4459 15.5827 96.4785 15.48 96.5065C15.3867 96.5345 15.2794 96.5485 15.158 96.5485C15.0367 96.5485 14.9294 96.5019 14.836 96.4085C14.7427 96.3245 14.696 96.2265 14.696 96.1145C14.696 95.9839 14.7427 95.8672 14.836 95.7645C14.9294 95.6712 15.0367 95.6245 15.158 95.6245C15.298 95.6245 15.4147 95.6385 15.508 95.6665C15.6107 95.6945 15.7134 95.7319 15.816 95.7785C15.928 95.8345 16.026 95.8765 16.11 95.9045C16.138 95.9139 16.18 95.9279 16.236 95.9465C16.292 95.9652 16.334 95.9745 16.362 95.9745C16.418 95.9745 16.4554 95.9605 16.474 95.9325L16.474 95.9045C16.474 95.8765 16.446 95.8345 16.39 95.7785C16.334 95.7319 16.2874 95.6945 16.25 95.6665C16.1847 95.6105 16.096 95.5452 15.984 95.4705C15.9654 95.4612 15.9047 95.4192 15.802 95.3445C15.7087 95.2699 15.6107 95.1672 15.508 95.0365C15.452 94.9525 15.424 94.8639 15.424 94.7705C15.424 94.6119 15.4847 94.4952 15.606 94.4205C15.7087 94.3645 15.802 94.3365 15.886 94.3365C16.054 94.3365 16.1847 94.4112 16.278 94.5605C16.3434 94.6539 16.3854 94.7425 16.404 94.8265C16.432 94.9105 16.4554 95.0179 16.474 95.1485C16.4834 95.2139 16.5067 95.3212 16.544 95.4705C16.544 95.4892 16.5487 95.5312 16.558 95.5965C16.5767 95.6712 16.614 95.7319 16.67 95.7785C16.6887 95.7972 16.726 95.7972 16.782 95.7785C16.7914 95.7692 16.8054 95.7505 16.824 95.7225L16.936 95.4425C16.9547 95.3865 16.9734 95.2932 16.992 95.1625C17.0107 95.0599 17.034 94.9525 17.062 94.8405C17.09 94.7285 17.1367 94.6212 17.202 94.5185C17.2394 94.4439 17.3 94.3832 17.384 94.3365C17.468 94.2899 17.5567 94.2665 17.65 94.2665C17.7714 94.2665 17.8694 94.3132 17.944 94.4065C18.028 94.5092 18.07 94.6212 18.07 94.7425C18.07 94.8732 18.0374 94.9759 17.972 95.0505C17.8787 95.1719 17.72 95.3072 17.496 95.4565C17.3467 95.5592 17.2534 95.6245 17.216 95.6525L17.02 95.8205C16.992 95.8485 16.978 95.8765 16.978 95.9045C16.978 95.9605 17.006 95.9885 17.062 95.9885C17.1087 95.9885 17.1647 95.9745 17.23 95.9465C17.2954 95.9279 17.3374 95.9139 17.356 95.9045C17.4307 95.8765 17.552 95.8252 17.72 95.7505C17.8974 95.6852 18.084 95.6432 18.28 95.6245C18.4107 95.6152 18.5227 95.6572 18.616 95.7505C18.7187 95.8532 18.77 95.9745 18.77 96.1145C18.77 96.2265 18.7234 96.3245 18.63 96.4085C18.5367 96.5019 18.4294 96.5485 18.308 96.5485C18.112 96.5485 17.9207 96.5065 17.734 96.4225C17.5474 96.3479 17.4214 96.3012 17.356 96.2825C17.3 96.2545 17.2347 96.2312 17.16 96.2125C17.0854 96.2032 17.0387 96.2172 17.02 96.2545C17.0107 96.2639 17.006 96.2779 17.006 96.2965C17.006 96.3525 17.0387 96.4039 17.104 96.4505C17.1694 96.4972 17.2067 96.5252 17.216 96.5345C17.2534 96.5625 17.3467 96.6279 17.496 96.7305C17.72 96.8799 17.8787 97.0152 17.972 97.1365C18.0374 97.2299 18.07 97.3325 18.07 97.4445C18.07 97.6125 18.0047 97.7479 17.874 97.8505C17.8087 97.8879 17.7387 97.9065 17.664 97.9065C17.5707 97.9065 17.4774 97.8832 17.384 97.8365C17.3 97.7899 17.2394 97.7292 17.202 97.6545C17.118 97.5145 17.062 97.3792 17.034 97.2485C17.0154 97.1272 17.0014 97.0525 16.992 97.0245C16.9734 96.9125 16.9547 96.8192 16.936 96.7445L16.824 96.4785C16.8147 96.4599 16.8007 96.4412 16.782 96.4225C16.7634 96.4039 16.7447 96.3945 16.726 96.3945C16.67 96.3945 16.6374 96.4225 16.628 96.4785C16.6 96.5439 16.5767 96.6185 16.558 96.7025C16.5394 96.7959 16.516 96.9032 16.488 97.0245C16.4694 97.1459 16.446 97.2532 16.418 97.3465C16.39 97.4399 16.3434 97.5332 16.278 97.6265ZM12.82 105.414C12.8107 105.591 12.7314 105.68 12.582 105.68C12.5167 105.68 12.456 105.643 12.4 105.568C12.344 105.493 12.316 105.4 12.316 105.288L12.316 102.95L9.71204 102.95C9.61871 102.941 9.54404 102.913 9.48804 102.866C9.44138 102.819 9.41804 102.759 9.41804 102.684C9.41804 102.609 9.46004 102.539 9.54404 102.474C9.63738 102.418 9.74004 102.39 9.85204 102.39L12.316 102.39L12.316 99.8559C12.316 99.7906 12.3394 99.7299 12.386 99.6739C12.442 99.6273 12.5027 99.6039 12.568 99.6039C12.6334 99.6039 12.6894 99.6366 12.736 99.7019C12.792 99.7673 12.82 99.8559 12.82 99.9679L12.82 102.39L15.34 102.39C15.4147 102.39 15.48 102.418 15.536 102.474C15.592 102.53 15.62 102.595 15.62 102.67C15.62 102.745 15.5827 102.81 15.508 102.866C15.4427 102.922 15.3447 102.95 15.214 102.95L12.82 102.95L12.82 105.414ZM16.278 110.902C16.1754 111.061 16.0447 111.14 15.886 111.14C15.7927 111.14 15.6994 111.107 15.606 111.042C15.4847 110.949 15.424 110.827 15.424 110.678C15.424 110.594 15.452 110.51 15.508 110.426C15.6107 110.295 15.7087 110.193 15.802 110.118C15.9047 110.043 15.9654 110.001 15.984 109.992C16.1427 109.889 16.236 109.824 16.264 109.796C16.4134 109.675 16.474 109.591 16.446 109.544C16.418 109.516 16.3807 109.502 16.334 109.502C16.2967 109.502 16.222 109.521 16.11 109.558L15.774 109.684C15.6807 109.721 15.5827 109.754 15.48 109.782C15.3867 109.81 15.2794 109.824 15.158 109.824C15.0367 109.824 14.9294 109.777 14.836 109.684C14.7427 109.6 14.696 109.502 14.696 109.39C14.696 109.259 14.7427 109.143 14.836 109.04C14.9294 108.947 15.0367 108.9 15.158 108.9C15.298 108.9 15.4147 108.914 15.508 108.942C15.6107 108.97 15.7134 109.007 15.816 109.054C15.928 109.11 16.026 109.152 16.11 109.18C16.138 109.189 16.18 109.203 16.236 109.222C16.292 109.241 16.334 109.25 16.362 109.25C16.418 109.25 16.4554 109.236 16.474 109.208L16.474 109.18C16.474 109.152 16.446 109.11 16.39 109.054C16.334 109.007 16.2874 108.97 16.25 108.942C16.1847 108.886 16.096 108.821 15.984 108.746C15.9654 108.737 15.9047 108.695 15.802 108.62C15.7087 108.545 15.6107 108.443 15.508 108.312C15.452 108.228 15.424 108.139 15.424 108.046C15.424 107.887 15.4847 107.771 15.606 107.696C15.7087 107.64 15.802 107.612 15.886 107.612C16.054 107.612 16.1847 107.687 16.278 107.836C16.3434 107.929 16.3854 108.018 16.404 108.102C16.432 108.186 16.4554 108.293 16.474 108.424C16.4834 108.489 16.5067 108.597 16.544 108.746C16.544 108.765 16.5487 108.807 16.558 108.872C16.5767 108.947 16.614 109.007 16.67 109.054C16.6887 109.073 16.726 109.073 16.782 109.054C16.7914 109.045 16.8054 109.026 16.824 108.998L16.936 108.718C16.9547 108.662 16.9734 108.569 16.992 108.438C17.0107 108.335 17.034 108.228 17.062 108.116C17.09 108.004 17.1367 107.897 17.202 107.794C17.2394 107.719 17.3 107.659 17.384 107.612C17.468 107.565 17.5567 107.542 17.65 107.542C17.7714 107.542 17.8694 107.589 17.944 107.682C18.028 107.785 18.07 107.897 18.07 108.018C18.07 108.149 18.0374 108.251 17.972 108.326C17.8787 108.447 17.72 108.583 17.496 108.732C17.3467 108.835 17.2534 108.9 17.216 108.928L17.02 109.096C16.992 109.124 16.978 109.152 16.978 109.18C16.978 109.236 17.006 109.264 17.062 109.264C17.1087 109.264 17.1647 109.25 17.23 109.222C17.2954 109.203 17.3374 109.189 17.356 109.18C17.4307 109.152 17.552 109.101 17.72 109.026C17.8974 108.961 18.084 108.919 18.28 108.9C18.4107 108.891 18.5227 108.933 18.616 109.026C18.7187 109.129 18.77 109.25 18.77 109.39C18.77 109.502 18.7234 109.6 18.63 109.684C18.5367 109.777 18.4294 109.824 18.308 109.824C18.112 109.824 17.9207 109.782 17.734 109.698C17.5474 109.623 17.4214 109.577 17.356 109.558C17.3 109.53 17.2347 109.507 17.16 109.488C17.0854 109.479 17.0387 109.493 17.02 109.53C17.0107 109.539 17.006 109.553 17.006 109.572C17.006 109.628 17.0387 109.679 17.104 109.726C17.1694 109.773 17.2067 109.801 17.216 109.81C17.2534 109.838 17.3467 109.903 17.496 110.006C17.72 110.155 17.8787 110.291 17.972 110.412C18.0374 110.505 18.07 110.608 18.07 110.72C18.07 110.888 18.0047 111.023 17.874 111.126C17.8087 111.163 17.7387 111.182 17.664 111.182C17.5707 111.182 17.4774 111.159 17.384 111.112C17.3 111.065 17.2394 111.005 17.202 110.93C17.118 110.79 17.062 110.655 17.034 110.524C17.0154 110.403 17.0014 110.328 16.992 110.3C16.9734 110.188 16.9547 110.095 16.936 110.02L16.824 109.754C16.8147 109.735 16.8007 109.717 16.782 109.698C16.7634 109.679 16.7447 109.67 16.726 109.67C16.67 109.67 16.6374 109.698 16.628 109.754C16.6 109.819 16.5767 109.894 16.558 109.978C16.5394 110.071 16.516 110.179 16.488 110.3C16.4694 110.421 16.446 110.529 16.418 110.622C16.39 110.715 16.3434 110.809 16.278 110.902ZM12.82 118.689C12.8107 118.867 12.7314 118.955 12.582 118.955C12.5167 118.955 12.456 118.918 12.4 118.843C12.344 118.769 12.316 118.675 12.316 118.563L12.316 116.225L9.71204 116.225C9.61871 116.216 9.54404 116.188 9.48804 116.141C9.44138 116.095 9.41804 116.034 9.41804 115.959C9.41804 115.885 9.46004 115.815 9.54404 115.749C9.63738 115.693 9.74004 115.665 9.85204 115.665L12.316 115.665L12.316 113.131C12.316 113.066 12.3394 113.005 12.386 112.949C12.442 112.903 12.5027 112.879 12.568 112.879C12.6334 112.879 12.6894 112.912 12.736 112.977C12.792 113.043 12.82 113.131 12.82 113.243L12.82 115.665L15.34 115.665C15.4147 115.665 15.48 115.693 15.536 115.749C15.592 115.805 15.62 115.871 15.62 115.945C15.62 116.02 15.5827 116.085 15.508 116.141C15.4427 116.197 15.3447 116.225 15.214 116.225L12.82 116.225L12.82 118.689Z" fill="#FF6669"/>
</svg>
