<svg width="242" height="486" viewBox="0 0 242 486" fill="none" xmlns="http://www.w3.org/2000/svg">
<g filter="url(#filter0_n_24_1910)">
<path d="M42.625 0C42.625 4.55635 46.3187 8.25 50.875 8.25C55.4313 8.25 59.125 4.55635 59.125 0H68.75C68.75 4.55635 72.4437 8.25 77 8.25C81.5563 8.25 85.25 4.55635 85.25 0H94.875C94.875 4.55635 98.5687 8.25 103.125 8.25C107.681 8.25 111.375 4.55635 111.375 0H121C121 4.55635 124.694 8.25 129.25 8.25C133.806 8.25 137.5 4.55635 137.5 0H147.125C147.125 4.55635 150.819 8.25 155.375 8.25C159.931 8.25 163.625 4.55635 163.625 0H173.25C173.25 4.55635 176.944 8.25 181.5 8.25C186.056 8.25 189.75 4.55635 189.75 0H199.375C199.375 4.55635 203.069 8.25 207.625 8.25C212.181 8.25 215.875 4.55635 215.875 0H221.375C221.375 11.9792 230.386 21.8517 242 23.2129V462.161C230.386 463.522 221.375 473.396 221.375 485.375H215.875C215.875 480.819 212.181 477.125 207.625 477.125C203.069 477.125 199.375 480.819 199.375 485.375H189.75C189.75 480.819 186.056 477.125 181.5 477.125C176.944 477.125 173.25 480.819 173.25 485.375H163.625C163.625 480.819 159.931 477.125 155.375 477.125C150.819 477.125 147.125 480.819 147.125 485.375H137.5C137.5 480.819 133.806 477.125 129.25 477.125C124.694 477.125 121 480.819 121 485.375H111.375C111.375 480.819 107.681 477.125 103.125 477.125C98.5687 477.125 94.875 480.819 94.875 485.375H85.25C85.25 480.819 81.5563 477.125 77 477.125C72.4437 477.125 68.75 480.819 68.75 485.375H59.125C59.125 480.819 55.4313 477.125 50.875 477.125C46.3187 477.125 42.625 480.819 42.625 485.375H26.125C26.125 472.465 15.6597 462 2.75 462C1.81959 462 0.90201 462.055 0 462.161V23.2129C0.902046 23.3186 1.81956 23.375 2.75 23.375C15.6597 23.375 26.125 12.9097 26.125 0H42.625Z" fill="#FF9B9D"/>
</g>
<rect x="26.5" y="52.5" width="189" height="380" stroke="white"/>
<path d="M26 109L216 109" stroke="white" stroke-width="1.3"/>
<path d="M26 355L216 355" stroke="white" stroke-width="1.3"/>
<path d="M26 273L216 273" stroke="white" stroke-width="1.3"/>
<path d="M26 301L216 301" stroke="white" stroke-width="1.3"/>
<path d="M25.8528 442.472C25.7888 442.109 25.6715 441.885 25.5008 441.8C25.4048 441.747 25.3568 441.672 25.3568 441.576C25.3568 441.523 25.3835 441.443 25.4368 441.336C25.5115 441.219 25.6341 441.16 25.8048 441.16C25.8688 441.16 25.9115 441.165 25.9328 441.176C26.2315 441.283 26.4235 441.517 26.5088 441.88C26.5941 442.243 26.6368 442.797 26.6368 443.544C26.6368 443.736 26.6101 444.328 26.5568 445.32L26.3488 449.768V450.04C26.3488 450.285 26.3701 450.451 26.4128 450.536C26.4448 450.611 26.5088 450.648 26.6048 450.648C26.7328 450.648 26.8821 450.568 27.0528 450.408C27.2555 450.205 27.5221 449.832 27.8528 449.288C28.1835 448.744 28.4608 448.253 28.6848 447.816C28.9835 447.197 29.2661 446.536 29.5328 445.832C29.6715 445.459 29.7781 445.123 29.8528 444.824C29.9381 444.515 30.0341 444.12 30.1408 443.64L30.2528 442.936C30.3061 442.509 30.3435 442.232 30.3648 442.104C30.3861 441.912 30.4448 441.768 30.5408 441.672C30.6368 441.576 30.7488 441.528 30.8768 441.528C30.9835 441.528 31.0795 441.571 31.1648 441.656C31.2501 441.731 31.2875 441.827 31.2768 441.944L31.2608 442.136L31.1808 442.872C31.1381 443.224 31.0848 443.752 31.0208 444.456C30.8821 446.163 30.8128 447.779 30.8128 449.304C30.8128 450.029 30.8235 450.424 30.8448 450.488C30.8768 450.605 30.9248 450.664 30.9888 450.664C31.0208 450.664 31.0421 450.659 31.0528 450.648C31.1275 450.627 31.2555 450.509 31.4368 450.296C31.6181 450.083 31.7568 449.896 31.8528 449.736C32.1621 449.256 32.4181 448.845 32.6208 448.504C32.8235 448.152 33.0048 447.795 33.1648 447.432C33.5595 446.557 33.8475 445.704 34.0288 444.872C34.2741 443.72 34.3968 442.728 34.3968 441.896C34.3968 441.757 34.4288 441.656 34.4928 441.592C34.5568 441.528 34.6315 441.496 34.7168 441.496C34.8128 441.496 34.8981 441.533 34.9728 441.608C35.0581 441.672 35.1008 441.757 35.1008 441.864C35.0795 443.741 34.5728 445.752 33.5808 447.896C33.3675 448.344 33.0101 448.973 32.5088 449.784C32.1568 450.328 31.8261 450.76 31.5168 451.08C31.3248 451.272 31.1648 451.4 31.0368 451.464C30.9408 451.549 30.8181 451.592 30.6688 451.592C30.4235 451.592 30.2635 451.496 30.1888 451.304C30.0928 451.08 30.0448 450.659 30.0448 450.04C30.0448 449.549 30.0715 448.584 30.1248 447.144C30.1355 446.856 30.1621 446.323 30.2048 445.544L30.2528 444.984C30.0821 445.667 29.8635 446.328 29.5968 446.968C29.3408 447.597 29.0208 448.269 28.6368 448.984C28.1568 449.891 27.6875 450.605 27.2288 451.128C26.9408 451.448 26.6848 451.608 26.4608 451.608C26.3115 451.608 26.1888 451.581 26.0928 451.528C25.9968 451.475 25.9008 451.373 25.8048 451.224C25.6981 451.011 25.6448 450.776 25.6448 450.52C25.7941 447.352 25.8901 444.989 25.9328 443.432C25.9435 443.144 25.9168 442.824 25.8528 442.472ZM41.2232 442.008C40.7539 442.179 40.3592 442.387 40.0392 442.632C40.2525 442.675 40.6045 442.717 41.0952 442.76C41.5965 442.803 42.0072 442.824 42.3272 442.824C43.4045 442.792 43.9432 442.557 43.9432 442.12C43.9432 441.971 43.8472 441.859 43.6552 441.784C43.4739 441.699 43.2339 441.656 42.9352 441.656C42.8285 441.656 42.6579 441.667 42.4232 441.688C42.1032 441.731 41.7032 441.837 41.2232 442.008ZM36.0072 441.576C36.0072 441.491 36.0339 441.405 36.0872 441.32C36.1405 441.256 36.2152 441.224 36.3112 441.224C36.5032 441.224 36.7539 441.341 37.0632 441.576C37.5325 441.907 37.9165 442.147 38.2152 442.296C38.5139 442.445 38.8392 442.541 39.1912 442.584C40.0125 441.997 40.9725 441.603 42.0712 441.4C42.2952 441.368 42.5192 441.352 42.7432 441.352C43.2019 441.352 43.5699 441.421 43.8472 441.56C44.1352 441.688 44.2792 441.88 44.2792 442.136C44.2792 442.477 44.0445 442.744 43.5752 442.936C43.1059 443.117 42.4125 443.208 41.4952 443.208C41.3245 443.208 41.0152 443.197 40.5672 443.176L39.4472 443.112C39.1912 443.261 38.9512 443.485 38.7272 443.784C38.5032 444.083 38.3912 444.408 38.3912 444.76C38.3912 445.379 38.7219 445.837 39.3832 446.136C40.0552 446.424 40.7912 446.568 41.5912 446.568C41.8045 446.568 42.0499 446.536 42.3272 446.472C42.6045 446.408 42.8072 446.349 42.9352 446.296C43.1592 446.211 43.3192 446.168 43.4152 446.168C43.4579 446.168 43.5219 446.179 43.6072 446.2C43.7352 446.253 43.7992 446.317 43.7992 446.392C43.7992 446.456 43.7725 446.52 43.7192 446.584C43.6339 446.669 43.5112 446.749 43.3512 446.824C43.1912 446.888 43.0205 446.92 42.8392 446.92C42.7859 446.92 42.7059 446.909 42.5992 446.888C42.5139 446.867 42.4232 446.856 42.3272 446.856C42.1885 446.856 42.0125 446.867 41.7992 446.888L41.6392 446.904C39.3672 447.021 38.1992 447.869 38.1352 449.448C38.1245 449.757 38.2099 450.051 38.3912 450.328C38.5832 450.605 38.8392 450.829 39.1592 451C39.4899 451.171 39.8525 451.256 40.2472 451.256C40.9192 451.267 41.5219 451.192 42.0552 451.032C42.5885 450.883 43.0152 450.573 43.3352 450.104C43.5592 449.795 43.7619 449.64 43.9432 449.64C44.0179 449.64 44.0872 449.656 44.1512 449.688C44.2472 449.763 44.2952 449.869 44.2952 450.008C44.2952 450.157 44.2365 450.307 44.1192 450.456C43.7139 450.84 43.2285 451.16 42.6632 451.416C42.1085 451.672 41.4045 451.8 40.5512 451.8C39.6125 451.8 38.8339 451.603 38.2152 451.208C37.6072 450.824 37.3032 450.237 37.3032 449.448C37.3032 448.883 37.4365 448.413 37.7032 448.04C37.9699 447.656 38.2792 447.373 38.6312 447.192C38.9832 447 39.2872 446.899 39.5432 446.888V446.824C39.2339 446.803 38.9192 446.717 38.5992 446.568C38.2792 446.419 38.0125 446.211 37.7992 445.944C37.5965 445.667 37.4952 445.341 37.4952 444.968C37.4952 444.531 37.5912 444.168 37.7832 443.88C37.9752 443.592 38.2472 443.304 38.5992 443.016C38.3432 443.005 38.0232 442.936 37.6392 442.808C37.2552 442.669 36.9299 442.515 36.6632 442.344C36.2259 442.077 36.0072 441.821 36.0072 441.576ZM47.2344 445.448C47.0318 445.363 46.7918 445.181 46.5144 444.904C46.2051 444.541 46.0504 444.163 46.0504 443.768C46.0504 443.341 46.2264 442.963 46.5784 442.632C46.9411 442.291 47.4691 442.056 48.1624 441.928L48.6584 441.848L48.6104 441.624C48.5998 441.592 48.5944 441.539 48.5944 441.464C48.5944 441.315 48.6264 441.203 48.6904 441.128C48.7651 441.043 48.8558 441 48.9624 441C49.0691 441 49.1651 441.043 49.2504 441.128C49.3358 441.213 49.3944 441.331 49.4264 441.48L49.4904 441.784C50.4184 441.752 51.2611 441.875 52.0184 442.152C52.7864 442.429 53.4424 442.861 53.9864 443.448C54.3171 443.8 54.5944 444.259 54.8184 444.824C55.0531 445.389 55.1918 445.965 55.2344 446.552C55.2451 446.68 55.2504 446.861 55.2504 447.096C55.2504 448.248 54.9571 449.235 54.3704 450.056C54.0718 450.461 53.6611 450.776 53.1384 451C52.6158 451.235 52.0291 451.352 51.3784 451.352C50.9304 451.352 50.4878 451.299 50.0504 451.192C49.9544 451.181 49.8424 451.139 49.7144 451.064C49.5971 451 49.5438 450.915 49.5544 450.808C49.5758 450.637 49.6771 450.552 49.8584 450.552C49.9331 450.552 50.0878 450.579 50.3224 450.632C50.6638 450.696 50.9838 450.728 51.2824 450.728C52.2851 450.728 53.0531 450.397 53.5864 449.736C54.1198 449.075 54.3864 448.237 54.3864 447.224C54.3864 447 54.3811 446.829 54.3704 446.712C54.2744 445.581 53.9438 444.675 53.3784 443.992C52.8664 443.384 52.3011 442.947 51.6824 442.68C51.0744 442.413 50.3704 442.285 49.5704 442.296C49.6878 443.096 49.7464 443.853 49.7464 444.568C49.7464 445.848 49.5811 447.107 49.2504 448.344C48.8664 449.731 48.3544 450.877 47.7144 451.784C47.6611 451.827 47.6078 451.848 47.5544 451.848C47.5011 451.848 47.4531 451.827 47.4104 451.784C47.3784 451.741 47.3624 451.693 47.3624 451.64C47.3624 451.576 47.3838 451.517 47.4264 451.464C47.6931 451.016 47.9438 450.472 48.1784 449.832C48.4131 449.192 48.5891 448.627 48.7064 448.136C48.9304 447.144 49.0424 446.131 49.0424 445.096C49.0424 444.2 48.9518 443.283 48.7704 442.344C48.5571 442.365 48.3864 442.387 48.2584 442.408C47.7571 442.483 47.3678 442.653 47.0904 442.92C46.8238 443.187 46.6904 443.48 46.6904 443.8C46.6904 444.056 46.7758 444.285 46.9464 444.488C47.1491 444.701 47.4051 444.888 47.7144 445.048C47.7998 445.091 47.8424 445.155 47.8424 445.24C47.8424 445.304 47.8051 445.368 47.7304 445.432C47.6664 445.485 47.5864 445.512 47.4904 445.512C47.4051 445.512 47.3198 445.491 47.2344 445.448ZM57.3849 451.064C57.5023 451.064 57.6196 451.032 57.7369 450.968C57.8649 450.904 57.9716 450.835 58.0569 450.76C58.2489 450.504 58.4036 450.205 58.5209 449.864C58.6383 449.512 58.7503 449.101 58.8569 448.632C58.9209 448.387 59.0649 447.597 59.2889 446.264L59.3849 445.688C59.4596 445.187 59.6303 443.96 59.8969 442.008L59.9929 441.256C60.0249 440.861 60.2063 440.637 60.5369 440.584C60.6756 440.563 60.7823 440.595 60.8569 440.68C60.9316 440.755 60.9583 440.84 60.9369 440.936C60.7876 441.875 60.5796 443.16 60.3129 444.792C60.0569 446.413 59.9023 447.336 59.8489 447.56C59.6569 448.509 59.4329 449.331 59.1769 450.024C59.0169 450.44 58.8036 450.781 58.5369 451.048C58.2809 451.325 57.9876 451.485 57.6569 451.528C57.6143 451.539 57.5503 451.544 57.4649 451.544C57.3583 451.544 57.2783 451.523 57.2249 451.48C57.1716 451.437 57.1449 451.384 57.1449 451.32C57.1449 451.256 57.1663 451.197 57.2089 451.144C57.2623 451.091 57.3209 451.064 57.3849 451.064ZM69.1896 442.28C69.4776 442.237 69.7762 442.136 70.0856 441.976C70.1816 441.933 70.2562 441.869 70.3096 441.784C70.3629 441.688 70.3896 441.587 70.3896 441.48C70.3896 441.363 70.3629 441.267 70.3096 441.192C70.2029 441.032 69.9416 440.952 69.5256 440.952C69.1736 440.952 68.8589 441 68.5816 441.096C68.2509 441.203 67.9736 441.352 67.7496 441.544C67.5256 441.736 67.3122 441.997 67.1096 442.328C67.3762 442.339 67.6909 442.344 68.0536 442.344C68.5229 442.344 68.9016 442.323 69.1896 442.28ZM62.1336 442.824C62.0482 442.739 62.0056 442.643 62.0056 442.536C62.0056 442.429 62.0429 442.339 62.1176 442.264C62.2029 442.179 62.2989 442.141 62.4056 442.152C63.4189 442.259 64.7416 442.312 66.3736 442.312C66.7042 441.693 67.1416 441.24 67.6856 440.952C68.2296 440.653 68.8536 440.504 69.5576 440.504C70.3682 440.504 70.8376 440.787 70.9656 441.352C70.9762 441.395 70.9816 441.459 70.9816 441.544C70.9816 441.736 70.9282 441.923 70.8216 442.104C70.7149 442.275 70.5496 442.413 70.3256 442.52C69.9416 442.701 69.5682 442.819 69.2056 442.872C68.8429 442.915 68.4002 442.936 67.8776 442.936H66.8216C66.6509 443.331 66.4856 443.88 66.3256 444.584C66.1656 445.288 66.0536 445.875 65.9896 446.344C65.8829 447.165 65.8296 448.072 65.8296 449.064C65.8296 449.885 65.8669 450.616 65.9416 451.256C65.9629 451.352 65.9362 451.443 65.8616 451.528C65.7869 451.613 65.6962 451.656 65.5896 451.656C65.5042 451.656 65.4242 451.624 65.3496 451.56C65.2749 451.507 65.2322 451.427 65.2216 451.32C65.1469 450.712 65.1096 450.029 65.1096 449.272C65.1096 447.832 65.2482 446.467 65.5256 445.176C65.6856 444.365 65.8882 443.619 66.1336 442.936H62.4216C62.3149 442.936 62.2189 442.899 62.1336 442.824Z" fill="white"/>
<path d="M175.65 442.68C175.832 442.797 175.922 442.947 175.922 443.128C175.922 443.235 175.885 443.341 175.81 443.448C175.704 443.587 175.565 443.656 175.394 443.656C175.298 443.656 175.202 443.624 175.106 443.56C174.957 443.443 174.84 443.331 174.754 443.224C174.669 443.107 174.621 443.037 174.61 443.016C174.493 442.835 174.418 442.728 174.386 442.696C174.248 442.525 174.152 442.456 174.098 442.488C174.066 442.52 174.05 442.563 174.05 442.616C174.05 442.659 174.072 442.744 174.114 442.872L174.258 443.256C174.301 443.363 174.338 443.475 174.37 443.592C174.402 443.699 174.418 443.821 174.418 443.96C174.418 444.099 174.365 444.221 174.258 444.328C174.162 444.435 174.05 444.488 173.922 444.488C173.773 444.488 173.64 444.435 173.522 444.328C173.416 444.221 173.362 444.099 173.362 443.96C173.362 443.8 173.378 443.667 173.41 443.56C173.442 443.443 173.485 443.325 173.538 443.208C173.602 443.08 173.65 442.968 173.682 442.872C173.693 442.84 173.709 442.792 173.73 442.728C173.752 442.664 173.762 442.616 173.762 442.584C173.762 442.52 173.746 442.477 173.714 442.456H173.682C173.65 442.456 173.602 442.488 173.538 442.552C173.485 442.616 173.442 442.669 173.41 442.712C173.346 442.787 173.272 442.888 173.186 443.016C173.176 443.037 173.128 443.107 173.042 443.224C172.957 443.331 172.84 443.443 172.69 443.56C172.594 443.624 172.493 443.656 172.386 443.656C172.205 443.656 172.072 443.587 171.986 443.448C171.922 443.331 171.89 443.224 171.89 443.128C171.89 442.936 171.976 442.787 172.146 442.68C172.253 442.605 172.354 442.557 172.45 442.536C172.546 442.504 172.669 442.477 172.818 442.456C172.893 442.445 173.016 442.419 173.186 442.376C173.208 442.376 173.256 442.371 173.33 442.36C173.416 442.339 173.485 442.296 173.538 442.232C173.56 442.211 173.56 442.168 173.538 442.104C173.528 442.093 173.506 442.077 173.474 442.056L173.154 441.928C173.09 441.907 172.984 441.885 172.834 441.864C172.717 441.843 172.594 441.816 172.466 441.784C172.338 441.752 172.216 441.699 172.098 441.624C172.013 441.581 171.944 441.512 171.89 441.416C171.837 441.32 171.81 441.219 171.81 441.112C171.81 440.973 171.864 440.861 171.97 440.776C172.088 440.68 172.216 440.632 172.354 440.632C172.504 440.632 172.621 440.669 172.706 440.744C172.845 440.851 173 441.032 173.17 441.288C173.288 441.459 173.362 441.565 173.394 441.608L173.586 441.832C173.618 441.864 173.65 441.88 173.682 441.88C173.746 441.88 173.778 441.848 173.778 441.784C173.778 441.731 173.762 441.667 173.73 441.592C173.709 441.517 173.693 441.469 173.682 441.448C173.65 441.363 173.592 441.224 173.506 441.032C173.432 440.829 173.384 440.616 173.362 440.392C173.352 440.243 173.4 440.115 173.506 440.008C173.624 439.891 173.762 439.832 173.922 439.832C174.05 439.832 174.162 439.885 174.258 439.992C174.365 440.099 174.418 440.221 174.418 440.36C174.418 440.584 174.37 440.803 174.274 441.016C174.189 441.229 174.136 441.373 174.114 441.448C174.082 441.512 174.056 441.587 174.034 441.672C174.024 441.757 174.04 441.811 174.082 441.832C174.093 441.843 174.109 441.848 174.13 441.848C174.194 441.848 174.253 441.811 174.306 441.736C174.36 441.661 174.392 441.619 174.402 441.608C174.434 441.565 174.509 441.459 174.626 441.288C174.797 441.032 174.952 440.851 175.09 440.744C175.197 440.669 175.314 440.632 175.442 440.632C175.634 440.632 175.789 440.707 175.906 440.856C175.949 440.931 175.97 441.011 175.97 441.096C175.97 441.203 175.944 441.309 175.89 441.416C175.837 441.512 175.768 441.581 175.682 441.624C175.522 441.72 175.368 441.784 175.218 441.816C175.08 441.837 174.994 441.853 174.962 441.864C174.834 441.885 174.728 441.907 174.642 441.928L174.338 442.056C174.317 442.067 174.296 442.083 174.274 442.104C174.253 442.125 174.242 442.147 174.242 442.168C174.242 442.232 174.274 442.269 174.338 442.28C174.413 442.312 174.498 442.339 174.594 442.36C174.701 442.381 174.824 442.408 174.962 442.44C175.101 442.461 175.224 442.488 175.33 442.52C175.437 442.552 175.544 442.605 175.65 442.68ZM184.55 446.632C184.753 446.643 184.854 446.733 184.854 446.904C184.854 446.979 184.811 447.048 184.726 447.112C184.641 447.176 184.534 447.208 184.406 447.208H181.734V450.184C181.723 450.291 181.691 450.376 181.638 450.44C181.585 450.493 181.515 450.52 181.43 450.52C181.345 450.52 181.265 450.472 181.19 450.376C181.126 450.269 181.094 450.152 181.094 450.024V447.208H178.198C178.123 447.208 178.054 447.181 177.99 447.128C177.937 447.064 177.91 446.995 177.91 446.92C177.91 446.845 177.947 446.781 178.022 446.728C178.097 446.664 178.198 446.632 178.326 446.632H181.094V443.752C181.094 443.667 181.126 443.592 181.19 443.528C181.254 443.464 181.329 443.432 181.414 443.432C181.499 443.432 181.574 443.475 181.638 443.56C181.702 443.635 181.734 443.747 181.734 443.896V446.632H184.55ZM190.822 442.68C191.003 442.797 191.094 442.947 191.094 443.128C191.094 443.235 191.057 443.341 190.982 443.448C190.875 443.587 190.737 443.656 190.566 443.656C190.47 443.656 190.374 443.624 190.278 443.56C190.129 443.443 190.011 443.331 189.926 443.224C189.841 443.107 189.793 443.037 189.782 443.016C189.665 442.835 189.59 442.728 189.558 442.696C189.419 442.525 189.323 442.456 189.27 442.488C189.238 442.52 189.222 442.563 189.222 442.616C189.222 442.659 189.243 442.744 189.286 442.872L189.43 443.256C189.473 443.363 189.51 443.475 189.542 443.592C189.574 443.699 189.59 443.821 189.59 443.96C189.59 444.099 189.537 444.221 189.43 444.328C189.334 444.435 189.222 444.488 189.094 444.488C188.945 444.488 188.811 444.435 188.694 444.328C188.587 444.221 188.534 444.099 188.534 443.96C188.534 443.8 188.55 443.667 188.582 443.56C188.614 443.443 188.657 443.325 188.71 443.208C188.774 443.08 188.822 442.968 188.854 442.872C188.865 442.84 188.881 442.792 188.902 442.728C188.923 442.664 188.934 442.616 188.934 442.584C188.934 442.52 188.918 442.477 188.886 442.456H188.854C188.822 442.456 188.774 442.488 188.71 442.552C188.657 442.616 188.614 442.669 188.582 442.712C188.518 442.787 188.443 442.888 188.358 443.016C188.347 443.037 188.299 443.107 188.214 443.224C188.129 443.331 188.011 443.443 187.862 443.56C187.766 443.624 187.665 443.656 187.558 443.656C187.377 443.656 187.243 443.587 187.158 443.448C187.094 443.331 187.062 443.224 187.062 443.128C187.062 442.936 187.147 442.787 187.318 442.68C187.425 442.605 187.526 442.557 187.622 442.536C187.718 442.504 187.841 442.477 187.99 442.456C188.065 442.445 188.187 442.419 188.358 442.376C188.379 442.376 188.427 442.371 188.502 442.36C188.587 442.339 188.657 442.296 188.71 442.232C188.731 442.211 188.731 442.168 188.71 442.104C188.699 442.093 188.678 442.077 188.646 442.056L188.326 441.928C188.262 441.907 188.155 441.885 188.006 441.864C187.889 441.843 187.766 441.816 187.638 441.784C187.51 441.752 187.387 441.699 187.27 441.624C187.185 441.581 187.115 441.512 187.062 441.416C187.009 441.32 186.982 441.219 186.982 441.112C186.982 440.973 187.035 440.861 187.142 440.776C187.259 440.68 187.387 440.632 187.526 440.632C187.675 440.632 187.793 440.669 187.878 440.744C188.017 440.851 188.171 441.032 188.342 441.288C188.459 441.459 188.534 441.565 188.566 441.608L188.758 441.832C188.79 441.864 188.822 441.88 188.854 441.88C188.918 441.88 188.95 441.848 188.95 441.784C188.95 441.731 188.934 441.667 188.902 441.592C188.881 441.517 188.865 441.469 188.854 441.448C188.822 441.363 188.763 441.224 188.678 441.032C188.603 440.829 188.555 440.616 188.534 440.392C188.523 440.243 188.571 440.115 188.678 440.008C188.795 439.891 188.934 439.832 189.094 439.832C189.222 439.832 189.334 439.885 189.43 439.992C189.537 440.099 189.59 440.221 189.59 440.36C189.59 440.584 189.542 440.803 189.446 441.016C189.361 441.229 189.307 441.373 189.286 441.448C189.254 441.512 189.227 441.587 189.206 441.672C189.195 441.757 189.211 441.811 189.254 441.832C189.265 441.843 189.281 441.848 189.302 441.848C189.366 441.848 189.425 441.811 189.478 441.736C189.531 441.661 189.563 441.619 189.574 441.608C189.606 441.565 189.681 441.459 189.798 441.288C189.969 441.032 190.123 440.851 190.262 440.744C190.369 440.669 190.486 440.632 190.614 440.632C190.806 440.632 190.961 440.707 191.078 440.856C191.121 440.931 191.142 441.011 191.142 441.096C191.142 441.203 191.115 441.309 191.062 441.416C191.009 441.512 190.939 441.581 190.854 441.624C190.694 441.72 190.539 441.784 190.39 441.816C190.251 441.837 190.166 441.853 190.134 441.864C190.006 441.885 189.899 441.907 189.814 441.928L189.51 442.056C189.489 442.067 189.467 442.083 189.446 442.104C189.425 442.125 189.414 442.147 189.414 442.168C189.414 442.232 189.446 442.269 189.51 442.28C189.585 442.312 189.67 442.339 189.766 442.36C189.873 442.381 189.995 442.408 190.134 442.44C190.273 442.461 190.395 442.488 190.502 442.52C190.609 442.552 190.715 442.605 190.822 442.68ZM199.722 446.632C199.925 446.643 200.026 446.733 200.026 446.904C200.026 446.979 199.983 447.048 199.898 447.112C199.813 447.176 199.706 447.208 199.578 447.208H196.906V450.184C196.895 450.291 196.863 450.376 196.81 450.44C196.757 450.493 196.687 450.52 196.602 450.52C196.517 450.52 196.437 450.472 196.362 450.376C196.298 450.269 196.266 450.152 196.266 450.024V447.208H193.37C193.295 447.208 193.226 447.181 193.162 447.128C193.109 447.064 193.082 446.995 193.082 446.92C193.082 446.845 193.119 446.781 193.194 446.728C193.269 446.664 193.37 446.632 193.498 446.632H196.266V443.752C196.266 443.667 196.298 443.592 196.362 443.528C196.426 443.464 196.501 443.432 196.586 443.432C196.671 443.432 196.746 443.475 196.81 443.56C196.874 443.635 196.906 443.747 196.906 443.896V446.632H199.722ZM205.994 442.68C206.175 442.797 206.266 442.947 206.266 443.128C206.266 443.235 206.229 443.341 206.154 443.448C206.047 443.587 205.909 443.656 205.738 443.656C205.642 443.656 205.546 443.624 205.45 443.56C205.301 443.443 205.183 443.331 205.098 443.224C205.013 443.107 204.965 443.037 204.954 443.016C204.837 442.835 204.762 442.728 204.73 442.696C204.591 442.525 204.495 442.456 204.442 442.488C204.41 442.52 204.394 442.563 204.394 442.616C204.394 442.659 204.415 442.744 204.458 442.872L204.602 443.256C204.645 443.363 204.682 443.475 204.714 443.592C204.746 443.699 204.762 443.821 204.762 443.96C204.762 444.099 204.709 444.221 204.602 444.328C204.506 444.435 204.394 444.488 204.266 444.488C204.117 444.488 203.983 444.435 203.866 444.328C203.759 444.221 203.706 444.099 203.706 443.96C203.706 443.8 203.722 443.667 203.754 443.56C203.786 443.443 203.829 443.325 203.882 443.208C203.946 443.08 203.994 442.968 204.026 442.872C204.037 442.84 204.053 442.792 204.074 442.728C204.095 442.664 204.106 442.616 204.106 442.584C204.106 442.52 204.09 442.477 204.058 442.456H204.026C203.994 442.456 203.946 442.488 203.882 442.552C203.829 442.616 203.786 442.669 203.754 442.712C203.69 442.787 203.615 442.888 203.53 443.016C203.519 443.037 203.471 443.107 203.386 443.224C203.301 443.331 203.183 443.443 203.034 443.56C202.938 443.624 202.837 443.656 202.73 443.656C202.549 443.656 202.415 443.587 202.33 443.448C202.266 443.331 202.234 443.224 202.234 443.128C202.234 442.936 202.319 442.787 202.49 442.68C202.597 442.605 202.698 442.557 202.794 442.536C202.89 442.504 203.013 442.477 203.162 442.456C203.237 442.445 203.359 442.419 203.53 442.376C203.551 442.376 203.599 442.371 203.674 442.36C203.759 442.339 203.829 442.296 203.882 442.232C203.903 442.211 203.903 442.168 203.882 442.104C203.871 442.093 203.85 442.077 203.818 442.056L203.498 441.928C203.434 441.907 203.327 441.885 203.178 441.864C203.061 441.843 202.938 441.816 202.81 441.784C202.682 441.752 202.559 441.699 202.442 441.624C202.357 441.581 202.287 441.512 202.234 441.416C202.181 441.32 202.154 441.219 202.154 441.112C202.154 440.973 202.207 440.861 202.314 440.776C202.431 440.68 202.559 440.632 202.698 440.632C202.847 440.632 202.965 440.669 203.05 440.744C203.189 440.851 203.343 441.032 203.514 441.288C203.631 441.459 203.706 441.565 203.738 441.608L203.93 441.832C203.962 441.864 203.994 441.88 204.026 441.88C204.09 441.88 204.122 441.848 204.122 441.784C204.122 441.731 204.106 441.667 204.074 441.592C204.053 441.517 204.037 441.469 204.026 441.448C203.994 441.363 203.935 441.224 203.85 441.032C203.775 440.829 203.727 440.616 203.706 440.392C203.695 440.243 203.743 440.115 203.85 440.008C203.967 439.891 204.106 439.832 204.266 439.832C204.394 439.832 204.506 439.885 204.602 439.992C204.709 440.099 204.762 440.221 204.762 440.36C204.762 440.584 204.714 440.803 204.618 441.016C204.533 441.229 204.479 441.373 204.458 441.448C204.426 441.512 204.399 441.587 204.378 441.672C204.367 441.757 204.383 441.811 204.426 441.832C204.437 441.843 204.453 441.848 204.474 441.848C204.538 441.848 204.597 441.811 204.65 441.736C204.703 441.661 204.735 441.619 204.746 441.608C204.778 441.565 204.853 441.459 204.97 441.288C205.141 441.032 205.295 440.851 205.434 440.744C205.541 440.669 205.658 440.632 205.786 440.632C205.978 440.632 206.133 440.707 206.25 440.856C206.293 440.931 206.314 441.011 206.314 441.096C206.314 441.203 206.287 441.309 206.234 441.416C206.181 441.512 206.111 441.581 206.026 441.624C205.866 441.72 205.711 441.784 205.562 441.816C205.423 441.837 205.338 441.853 205.306 441.864C205.178 441.885 205.071 441.907 204.986 441.928L204.682 442.056C204.661 442.067 204.639 442.083 204.618 442.104C204.597 442.125 204.586 442.147 204.586 442.168C204.586 442.232 204.618 442.269 204.682 442.28C204.757 442.312 204.842 442.339 204.938 442.36C205.045 442.381 205.167 442.408 205.306 442.44C205.445 442.461 205.567 442.488 205.674 442.52C205.781 442.552 205.887 442.605 205.994 442.68ZM214.894 446.632C215.096 446.643 215.198 446.733 215.198 446.904C215.198 446.979 215.155 447.048 215.07 447.112C214.984 447.176 214.878 447.208 214.75 447.208H212.078V450.184C212.067 450.291 212.035 450.376 211.982 450.44C211.928 450.493 211.859 450.52 211.774 450.52C211.688 450.52 211.608 450.472 211.534 450.376C211.47 450.269 211.438 450.152 211.438 450.024V447.208H208.542C208.467 447.208 208.398 447.181 208.334 447.128C208.28 447.064 208.254 446.995 208.254 446.92C208.254 446.845 208.291 446.781 208.366 446.728C208.44 446.664 208.542 446.632 208.67 446.632H211.438V443.752C211.438 443.667 211.47 443.592 211.534 443.528C211.598 443.464 211.672 443.432 211.758 443.432C211.843 443.432 211.918 443.475 211.982 443.56C212.046 443.635 212.078 443.747 212.078 443.896V446.632H214.894Z" fill="white"/>
<path d="M28.56 41.45C27.48 41.45 26.4 40.87 26.35 39.68H27.35C27.41 40.29 28.03 40.54 28.57 40.54C28.95 40.54 29.6 40.38 29.6 39.89C29.6 38.97 26.52 39.53 26.52 37.83C26.52 36.77 27.57 36.32 28.48 36.32C29.4 36.32 30.5 36.78 30.5 37.84V37.9H29.51V37.86C29.51 37.37 28.85 37.2 28.46 37.2C28.13 37.2 27.56 37.33 27.56 37.76C27.56 38.65 30.67 38.19 30.67 39.84C30.67 40.95 29.52 41.45 28.56 41.45ZM34.1895 41.42C33.6095 41.42 33.0795 41.22 32.6795 40.8V43.35H31.6695V36.54H32.6795V36.96C33.0795 36.55 33.6095 36.35 34.1895 36.35C35.6695 36.35 36.4495 37.53 36.4495 38.89C36.4495 40.24 35.6695 41.42 34.1895 41.42ZM34.0195 37.26C33.0695 37.26 32.6495 38.08 32.6495 38.91C32.6495 39.73 33.0695 40.57 34.0195 40.57C34.9595 40.57 35.3795 39.73 35.3795 38.91C35.3795 38.09 34.9595 37.26 34.0195 37.26ZM41.9808 39.23H38.2408C38.2908 40.01 38.8808 40.56 39.6608 40.56C40.1008 40.56 40.5508 40.35 40.7108 39.91H41.8208C41.5108 40.88 40.6708 41.47 39.6508 41.47C38.1808 41.47 37.1508 40.34 37.1508 38.89C37.1508 37.47 38.1208 36.34 39.5908 36.34C41.1608 36.34 41.9808 37.62 41.9808 39.07C41.9808 39.13 41.9808 39.18 41.9808 39.23ZM40.8908 38.39C40.8008 37.7 40.2908 37.24 39.5808 37.24C38.8708 37.24 38.3608 37.71 38.2508 38.39H40.8908ZM47.3381 39.73C47.0581 40.79 46.1781 41.47 45.0781 41.47C43.6081 41.47 42.6781 40.32 42.6781 38.9C42.6781 37.46 43.5681 36.35 45.0581 36.35C46.1281 36.35 47.1181 36.99 47.3381 38.08H46.2481C46.1181 37.56 45.6181 37.25 45.0981 37.25C44.1781 37.25 43.7481 38.07 43.7481 38.9C43.7481 39.73 44.1681 40.55 45.0981 40.55C45.6181 40.55 46.0981 40.24 46.2381 39.73H47.3381ZM49.3495 35.67H48.3395V34.68H49.3495V35.67ZM49.3495 41.29H48.3395V36.5H49.3495V41.29ZM55.0839 41.28H54.0539C53.9539 41.11 53.9039 40.91 53.8939 40.71C53.4339 41.2 52.7039 41.46 52.0439 41.46C51.2139 41.46 50.3539 40.98 50.3539 40.06C50.3539 39.34 50.9039 38.85 51.5439 38.63C51.7839 38.55 52.0539 38.52 52.3039 38.49C52.6439 38.45 53.8939 38.4 53.8939 37.91C53.8939 37.39 53.1939 37.23 52.7839 37.23C52.2839 37.23 51.5539 37.44 51.6339 38.08H50.6339C50.6239 38.04 50.6239 38 50.6239 37.96C50.6239 36.83 51.8239 36.38 52.7739 36.38C53.7239 36.38 54.9239 36.83 54.9239 37.95V40.5C54.9239 40.75 54.9839 41.06 55.0839 41.28ZM53.8939 39.43V38.94C53.3839 39.27 52.6539 39.17 52.1039 39.36C51.8239 39.46 51.4139 39.67 51.4139 40.02C51.4139 40.43 51.9239 40.57 52.2439 40.57C52.3239 40.57 52.4039 40.57 52.4739 40.56C52.6739 40.53 52.8639 40.48 53.0439 40.4C53.4039 40.25 53.8939 39.88 53.8939 39.43ZM57.2303 41.29H56.2203V34.68H57.2303V41.29ZM63.2459 41.27H62.2359V34.7H63.2459V41.27ZM68.7504 41.3H67.7404V38.52C67.7404 37.92 67.4504 37.35 66.7804 37.35C66.0804 37.35 65.5604 37.96 65.5604 38.65V41.3H64.5504V36.57H65.5604V37.02C65.9504 36.63 66.5004 36.41 67.0504 36.41C68.0504 36.41 68.7504 37.09 68.7504 38.09V41.3ZM73.5427 36.5L71.7327 41.28H70.5627L68.7527 36.5H69.8227L71.1527 40.05L72.4827 36.5H73.5427ZM75.1502 35.67H74.1402V34.68H75.1502V35.67ZM75.1502 41.29H74.1402V36.5H75.1502V41.29ZM78.5147 41.32C77.4747 41.32 76.7347 41.28 76.7347 40.02V37.36H76.1547V36.51H76.7347V35.11H77.7547V36.5H78.6047V37.36H77.7547V39.88C77.7547 40.4 78.0647 40.48 78.5147 40.47V41.32ZM84.039 41.28H83.009C82.909 41.11 82.859 40.91 82.849 40.71C82.389 41.2 81.659 41.46 80.999 41.46C80.169 41.46 79.309 40.98 79.309 40.06C79.309 39.34 79.859 38.85 80.499 38.63C80.739 38.55 81.009 38.52 81.259 38.49C81.599 38.45 82.849 38.4 82.849 37.91C82.849 37.39 82.149 37.23 81.739 37.23C81.239 37.23 80.509 37.44 80.589 38.08H79.589C79.579 38.04 79.579 38 79.579 37.96C79.579 36.83 80.779 36.38 81.729 36.38C82.679 36.38 83.879 36.83 83.879 37.95V40.5C83.879 40.75 83.939 41.06 84.039 41.28ZM82.849 39.43V38.94C82.339 39.27 81.609 39.17 81.059 39.36C80.779 39.46 80.369 39.67 80.369 40.02C80.369 40.43 80.879 40.57 81.199 40.57C81.279 40.57 81.359 40.57 81.429 40.56C81.629 40.53 81.819 40.48 81.999 40.4C82.359 40.25 82.849 39.88 82.849 39.43ZM87.2354 41.32C86.1954 41.32 85.4554 41.28 85.4554 40.02V37.36H84.8754V36.51H85.4554V35.11H86.4754V36.5H87.3254V37.36H86.4754V39.88C86.4754 40.4 86.7854 40.48 87.2354 40.47V41.32ZM89.3397 35.67H88.3297V34.68H89.3397V35.67ZM89.3397 41.29H88.3297V36.5H89.3397V41.29ZM92.7541 41.43C91.2841 41.43 90.3441 40.31 90.3441 38.88C90.3441 37.45 91.2841 36.33 92.7541 36.33C94.2341 36.33 95.1841 37.45 95.1841 38.88C95.1841 40.31 94.2341 41.43 92.7541 41.43ZM92.7541 37.24C91.8441 37.24 91.4141 38.08 91.4141 38.9C91.4141 39.71 91.8441 40.56 92.7541 40.56C93.6641 40.56 94.1041 39.7 94.1041 38.89C94.1041 38.08 93.6641 37.24 92.7541 37.24ZM100.381 41.3H99.3713V38.52C99.3713 37.92 99.0813 37.35 98.4113 37.35C97.7113 37.35 97.1913 37.96 97.1913 38.65V41.3H96.1813V36.57H97.1913V37.02C97.5813 36.63 98.1313 36.41 98.6813 36.41C99.6813 36.41 100.381 37.09 100.381 38.09V41.3Z" fill="white"/>
<path d="M39.1024 72.94C38.897 72.9027 38.8037 72.772 38.8224 72.548C38.841 72.3053 38.9717 72.184 39.2144 72.184H44.9264C45.1504 72.184 45.2624 72.3053 45.2624 72.548C45.2624 72.7907 45.169 72.9213 44.9824 72.94C44.721 72.9587 44.4037 73.0053 44.0304 73.08C43.6757 73.1547 43.377 73.2853 43.1344 73.472C42.8917 73.6587 42.817 73.9387 42.9104 74.312L46.3824 87.528L51.4504 73.164C51.5997 72.6973 51.749 72.3893 51.8984 72.24C52.0664 72.0907 52.3557 72.0627 52.7664 72.156L56.7424 87.556L61.6144 74.368C61.7637 73.976 61.717 73.6867 61.4744 73.5C61.2504 73.3133 60.9424 73.1827 60.5504 73.108C60.177 73.0333 59.8317 72.9773 59.5144 72.94C59.2717 72.9027 59.169 72.772 59.2064 72.548C59.2624 72.3053 59.3837 72.184 59.5704 72.184H64.8624C65.0677 72.184 65.1797 72.296 65.1984 72.52C65.217 72.744 65.1237 72.8747 64.9184 72.912C64.6384 72.968 64.3304 73.0613 63.9944 73.192C63.6584 73.304 63.3877 73.6213 63.1824 74.144L56.9944 90.888C56.5837 91.0747 56.2477 91.0747 55.9864 90.888C55.7437 90.6827 55.5757 90.4027 55.4824 90.048L51.8424 76.02L46.6064 90.944C46.233 91.0747 45.9064 91.056 45.6264 90.888C45.365 90.72 45.1877 90.44 45.0944 90.048L40.9224 74.144C40.7917 73.64 40.577 73.332 40.2784 73.22C39.9984 73.108 39.6064 73.0147 39.1024 72.94ZM70.2611 89.852C71.0078 89.908 71.6704 89.8147 72.2491 89.572C72.8464 89.3293 73.3504 89.0213 73.7611 88.648C74.1718 88.2747 74.4704 87.9387 74.6571 87.64C74.7504 87.472 74.8998 87.3693 75.1051 87.332C75.3291 87.2947 75.5158 87.3507 75.6651 87.5C75.6091 87.6867 75.4691 87.9853 75.2451 88.396C75.0211 88.788 74.6851 89.1987 74.2371 89.628C73.8078 90.0573 73.2571 90.4307 72.5851 90.748C71.9131 91.0467 71.1198 91.196 70.2051 91.196C69.0104 91.196 67.9371 90.9253 66.9851 90.384C66.0331 89.8427 65.2864 89.0867 64.7451 88.116C64.2224 87.1267 63.9798 86.0067 64.0171 84.756C64.0544 83.5613 64.3064 82.488 64.7731 81.536C65.2398 80.584 65.8371 79.7813 66.5651 79.128C67.2931 78.456 68.0958 77.952 68.9731 77.616C69.8504 77.2613 70.7091 77.084 71.5491 77.084C72.3518 77.084 73.0051 77.2147 73.5091 77.476C74.0318 77.7187 74.4424 78.0173 74.7411 78.372C75.0398 78.7267 75.2451 79.0813 75.3571 79.436C75.4878 79.772 75.5531 80.052 75.5531 80.276C75.5531 81.004 75.3198 81.676 74.8531 82.292C74.4051 82.908 73.7984 83.44 73.0331 83.888C72.2864 84.336 71.4464 84.6813 70.5131 84.924C69.5798 85.148 68.6278 85.26 67.6571 85.26C67.3211 85.26 67.0971 85.1667 66.9851 84.98C66.8731 84.7747 66.8451 84.588 66.9011 84.42C67.5918 84.42 68.3198 84.3173 69.0851 84.112C69.8691 83.9067 70.6064 83.6267 71.2971 83.272C71.9878 82.8987 72.5478 82.488 72.9771 82.04C73.4251 81.5733 73.6491 81.0973 73.6491 80.612C73.6491 79.9027 73.4251 79.3333 72.9771 78.904C72.5478 78.456 71.9784 78.2227 71.2691 78.204C70.3171 78.1853 69.4584 78.4653 68.6931 79.044C67.9464 79.6227 67.3398 80.388 66.8731 81.34C66.4251 82.2733 66.1731 83.2907 66.1171 84.392C66.0798 85.344 66.2104 86.2213 66.5091 87.024C66.8264 87.8267 67.3024 88.48 67.9371 88.984C68.5718 89.488 69.3464 89.7773 70.2611 89.852ZM82.753 91.196C82.025 91.196 81.2784 90.9813 80.513 90.552C79.7664 90.1227 79.1317 89.488 78.609 88.648C78.105 87.7893 77.853 86.7347 77.853 85.484C77.853 84.532 78.0117 83.5707 78.329 82.6C78.665 81.6107 79.141 80.7053 79.757 79.884C80.373 79.044 81.1197 78.3813 81.997 77.896C82.8744 77.392 83.8637 77.1493 84.965 77.168C85.525 77.1867 85.9824 77.2987 86.337 77.504C86.7104 77.6907 86.981 77.8773 87.149 78.064C87.2984 78.232 87.3917 78.4093 87.429 78.596C87.4664 78.764 87.3544 78.9227 87.093 79.072C86.8877 78.792 86.589 78.5867 86.197 78.456C85.8237 78.3253 85.4504 78.26 85.077 78.26C84.1624 78.26 83.3784 78.5027 82.725 78.988C82.0717 79.4733 81.5304 80.0893 81.101 80.836C80.6904 81.564 80.3824 82.3293 80.177 83.132C79.9904 83.916 79.897 84.616 79.897 85.232C79.897 86.0907 80.0184 86.8747 80.261 87.584C80.5037 88.2747 80.8677 88.8347 81.353 89.264C81.8384 89.6747 82.4264 89.88 83.117 89.88C83.7704 89.88 84.377 89.7027 84.937 89.348C85.497 88.9747 85.9917 88.4987 86.421 87.92C86.869 87.3413 87.2237 86.7347 87.485 86.1C87.7464 85.4467 87.8864 84.8493 87.905 84.308L88.297 73.276C88.2784 73.2573 88.2317 73.2573 88.157 73.276C88.101 73.276 87.9797 73.3227 87.793 73.416C87.0464 73.808 86.4304 73.7333 85.945 73.192C86.2437 72.9867 86.617 72.7347 87.065 72.436C87.513 72.1187 87.933 71.8293 88.325 71.568C88.7357 71.3067 89.0064 71.1573 89.137 71.12C89.3984 71.0267 89.6224 71.0267 89.809 71.12C89.9957 71.2133 90.0797 71.3813 90.061 71.624L89.445 88.788C89.4264 89.012 89.4544 89.2267 89.529 89.432C89.6224 89.6187 89.8184 89.712 90.117 89.712C90.3037 89.712 90.5464 89.628 90.845 89.46C91.1437 89.292 91.405 89.0587 91.629 88.76C91.7224 88.6293 91.8344 88.5827 91.965 88.62C92.0957 88.6573 92.1424 88.7693 92.105 88.956C91.993 89.5347 91.6757 90.076 91.153 90.58C90.649 91.0653 90.0517 91.308 89.361 91.308C88.801 91.308 88.381 91.1307 88.101 90.776C87.821 90.4027 87.6904 89.992 87.709 89.544L87.793 87.276C87.5317 87.892 87.1584 88.4987 86.673 89.096C86.1877 89.6933 85.6184 90.1973 84.965 90.608C84.3117 91 83.5744 91.196 82.753 91.196ZM98.257 91.196C97.529 91.196 96.7823 90.9813 96.017 90.552C95.2703 90.1227 94.6356 89.488 94.113 88.648C93.609 87.7893 93.357 86.7347 93.357 85.484C93.357 84.532 93.5156 83.5707 93.833 82.6C94.169 81.6107 94.645 80.7053 95.261 79.884C95.877 79.044 96.6236 78.3813 97.501 77.896C98.3783 77.392 99.3676 77.1493 100.469 77.168C101.029 77.1867 101.486 77.2987 101.841 77.504C102.214 77.6907 102.485 77.8773 102.653 78.064C102.802 78.232 102.896 78.4093 102.933 78.596C102.97 78.764 102.858 78.9227 102.597 79.072C102.392 78.792 102.093 78.5867 101.701 78.456C101.328 78.3253 100.954 78.26 100.581 78.26C99.6663 78.26 98.8823 78.5027 98.229 78.988C97.5756 79.4733 97.0343 80.0893 96.605 80.836C96.1943 81.564 95.8863 82.3293 95.681 83.132C95.4943 83.916 95.401 84.616 95.401 85.232C95.401 86.0907 95.5223 86.8747 95.765 87.584C96.0076 88.2747 96.3716 88.8347 96.857 89.264C97.3423 89.6747 97.9303 89.88 98.621 89.88C99.2743 89.88 99.881 89.7027 100.441 89.348C101.001 88.9747 101.496 88.4987 101.925 87.92C102.373 87.3413 102.728 86.7347 102.989 86.1C103.25 85.4467 103.39 84.8493 103.409 84.308L103.801 73.276C103.782 73.2573 103.736 73.2573 103.661 73.276C103.605 73.276 103.484 73.3227 103.297 73.416C102.55 73.808 101.934 73.7333 101.449 73.192C101.748 72.9867 102.121 72.7347 102.569 72.436C103.017 72.1187 103.437 71.8293 103.829 71.568C104.24 71.3067 104.51 71.1573 104.641 71.12C104.902 71.0267 105.126 71.0267 105.313 71.12C105.5 71.2133 105.584 71.3813 105.565 71.624L104.949 88.788C104.93 89.012 104.958 89.2267 105.033 89.432C105.126 89.6187 105.322 89.712 105.621 89.712C105.808 89.712 106.05 89.628 106.349 89.46C106.648 89.292 106.909 89.0587 107.133 88.76C107.226 88.6293 107.338 88.5827 107.469 88.62C107.6 88.6573 107.646 88.7693 107.609 88.956C107.497 89.5347 107.18 90.076 106.657 90.58C106.153 91.0653 105.556 91.308 104.865 91.308C104.305 91.308 103.885 91.1307 103.605 90.776C103.325 90.4027 103.194 89.992 103.213 89.544L103.297 87.276C103.036 87.892 102.662 88.4987 102.177 89.096C101.692 89.6933 101.122 90.1973 100.469 90.608C99.8156 91 99.0783 91.196 98.257 91.196ZM110.093 72.352C110.037 72.1653 110.121 72.0347 110.345 71.96C110.569 71.8667 110.858 71.848 111.213 71.904C111.568 71.96 111.913 72.0813 112.249 72.268C112.585 72.4547 112.828 72.716 112.977 73.052C113.126 73.4067 113.07 73.7707 112.809 74.144C112.548 74.4987 112.24 74.7227 111.885 74.816C111.717 74.872 111.465 74.872 111.129 74.816C110.812 74.76 110.634 74.5733 110.597 74.256C110.597 74.1067 110.56 73.8547 110.485 73.5C110.41 73.1453 110.28 72.7627 110.093 72.352ZM110.541 89.572L111.129 79.604C111.11 79.5853 111.064 79.5853 110.989 79.604C110.933 79.604 110.812 79.6507 110.625 79.744C109.878 80.136 109.262 80.0613 108.777 79.52C109.076 79.3147 109.449 79.0627 109.897 78.764C110.345 78.4467 110.765 78.1573 111.157 77.896C111.568 77.6347 111.838 77.4853 111.969 77.448C112.23 77.3547 112.454 77.3547 112.641 77.448C112.828 77.5413 112.912 77.7093 112.893 77.952L112.277 88.816C112.258 89.04 112.286 89.2547 112.361 89.46C112.454 89.6467 112.65 89.74 112.949 89.74C113.136 89.74 113.369 89.656 113.649 89.488C113.948 89.32 114.209 89.0867 114.433 88.788C114.526 88.6573 114.638 88.6107 114.769 88.648C114.918 88.6853 114.974 88.7973 114.937 88.984C114.825 89.5627 114.508 90.104 113.985 90.608C113.481 91.0933 112.884 91.336 112.193 91.336C111.633 91.336 111.213 91.1587 110.933 90.804C110.653 90.4307 110.522 90.02 110.541 89.572ZM118.192 90.916L118.696 79.828C118.603 79.7347 118.416 79.7813 118.136 79.968C117.408 80.36 116.783 80.2853 116.26 79.744C116.577 79.5387 116.96 79.2867 117.408 78.988C117.856 78.6707 118.276 78.3813 118.668 78.12C119.079 77.8587 119.349 77.7093 119.48 77.672C119.741 77.5787 119.956 77.588 120.124 77.7C120.311 77.7933 120.395 77.9613 120.376 78.204L120.152 82.152C120.488 81.3307 120.936 80.556 121.496 79.828C122.056 79.1 122.709 78.512 123.456 78.064C124.203 77.5973 125.024 77.364 125.92 77.364C126.331 77.364 126.769 77.4667 127.236 77.672C127.703 77.8587 128.095 78.1947 128.412 78.68C128.729 79.1653 128.86 79.8653 128.804 80.78L128.328 88.62C128.309 88.9187 128.337 89.18 128.412 89.404C128.505 89.6093 128.701 89.712 129 89.712C129.205 89.712 129.429 89.6187 129.672 89.432C129.915 89.2453 130.101 89.0213 130.232 88.76C130.307 88.6293 130.409 88.5827 130.54 88.62C130.689 88.6573 130.745 88.7693 130.708 88.956C130.596 89.4973 130.316 90.0013 129.868 90.468C129.439 90.9347 128.897 91.168 128.244 91.168C127.684 91.168 127.264 90.9907 126.984 90.636C126.704 90.2627 126.573 89.852 126.592 89.404L127.068 80.78C127.105 80.2387 126.947 79.8 126.592 79.464C126.256 79.128 125.799 78.9507 125.22 78.932C124.305 78.9133 123.409 79.2867 122.532 80.052C121.673 80.8173 120.964 82.0213 120.404 83.664C120.311 83.944 120.227 84.2613 120.152 84.616C120.096 84.9707 120.059 85.3627 120.04 85.792L119.9 89.348C119.881 89.9827 119.751 90.4307 119.508 90.692C119.284 90.9347 118.845 91.0093 118.192 90.916ZM143.27 88.424C143.214 90.104 142.98 91.6067 142.57 92.932C142.178 94.2573 141.534 95.2933 140.638 96.04C139.76 96.8053 138.547 97.188 136.998 97.188C136.102 97.188 135.308 97.048 134.618 96.768C133.927 96.5067 133.376 96.18 132.966 95.788C132.555 95.4147 132.303 95.0693 132.21 94.752C132.135 94.4907 132.191 94.2387 132.378 93.996C132.564 93.7533 132.863 93.5667 133.274 93.436C133.516 93.3613 133.74 93.324 133.946 93.324C134.17 93.3427 134.319 93.4267 134.394 93.576C134.487 93.7067 134.515 93.856 134.478 94.024C134.459 94.2107 134.422 94.3787 134.366 94.528C134.384 94.64 134.487 94.8267 134.674 95.088C134.879 95.3493 135.187 95.5827 135.598 95.788C136.008 96.012 136.522 96.124 137.138 96.124C137.978 96.124 138.678 95.9093 139.238 95.48C139.798 95.0693 140.236 94.5093 140.554 93.8C140.89 93.1093 141.132 92.3533 141.282 91.532C141.45 90.7293 141.543 89.9453 141.562 89.18L141.674 86.128C141.543 86.6693 141.338 87.2387 141.058 87.836C140.796 88.4147 140.46 88.9653 140.05 89.488C139.658 89.992 139.182 90.412 138.622 90.748C138.062 91.0653 137.427 91.224 136.718 91.224C135.915 91.224 135.168 91 134.478 90.552C133.806 90.104 133.264 89.4693 132.854 88.648C132.443 87.808 132.238 86.828 132.238 85.708C132.238 84.7373 132.406 83.7573 132.742 82.768C133.078 81.7787 133.554 80.8733 134.17 80.052C134.804 79.212 135.551 78.54 136.41 78.036C137.268 77.532 138.22 77.28 139.266 77.28C140.423 77.28 141.366 77.4573 142.094 77.812C142.822 78.148 143.326 78.4653 143.606 78.764L143.27 88.424ZM134.03 85.736C134.03 86.8747 134.272 87.8547 134.758 88.676C135.262 89.4973 136.008 89.908 136.998 89.908C137.651 89.908 138.248 89.712 138.79 89.32C139.35 88.9093 139.835 88.3773 140.246 87.724C140.675 87.0707 141.011 86.3707 141.254 85.624C141.496 84.8587 141.636 84.1213 141.674 83.412L141.842 80.136C141.711 79.688 141.403 79.296 140.918 78.96C140.451 78.6053 139.854 78.428 139.126 78.428C138.267 78.428 137.52 78.6707 136.886 79.156C136.251 79.6413 135.719 80.2667 135.29 81.032C134.879 81.7973 134.562 82.6 134.338 83.44C134.132 84.2613 134.03 85.0267 134.03 85.736ZM154.628 90.916C154.554 90.916 154.479 90.9067 154.404 90.888C154.33 90.8507 154.274 90.776 154.236 90.664C154.199 90.5707 154.199 90.468 154.236 90.356C154.292 90.2253 154.395 90.1507 154.544 90.132C155.142 90.0387 155.664 89.852 156.112 89.572C156.56 89.2733 156.794 88.9187 156.812 88.508L157.568 74.088C157.587 73.864 157.484 73.668 157.26 73.5C157.036 73.3133 156.775 73.164 156.476 73.052C156.196 72.9213 155.944 72.8373 155.72 72.8C155.478 72.744 155.384 72.604 155.44 72.38C155.478 72.2493 155.552 72.1747 155.664 72.156C155.776 72.1373 155.87 72.128 155.944 72.128H163.084C165.007 72.128 166.65 72.548 168.012 73.388C169.394 74.2093 170.439 75.3293 171.148 76.748C171.858 78.148 172.156 79.7253 172.044 81.48C171.951 83.4773 171.475 85.1853 170.616 86.604C169.776 88.004 168.619 89.0773 167.144 89.824C165.688 90.552 163.999 90.916 162.076 90.916H154.628ZM158.688 89.684H162.16C162.926 89.684 163.738 89.544 164.596 89.264C165.474 88.9653 166.304 88.4987 167.088 87.864C167.891 87.2293 168.554 86.3987 169.076 85.372C169.618 84.3267 169.935 83.0667 170.028 81.592C170.122 80.136 169.916 78.7733 169.412 77.504C168.927 76.2347 168.143 75.2173 167.06 74.452C165.996 73.668 164.643 73.276 163 73.276H158.604C158.959 73.2947 159.192 73.4067 159.304 73.612C159.416 73.7987 159.472 74.004 159.472 74.228C159.472 74.452 159.463 74.6387 159.444 74.788L158.688 89.684ZM178.642 91.308C177.858 91.308 177.111 91.0933 176.402 90.664C175.692 90.216 175.114 89.572 174.666 88.732C174.218 87.892 173.994 86.884 173.994 85.708C173.994 84.6627 174.18 83.6453 174.554 82.656C174.946 81.648 175.478 80.7427 176.15 79.94C176.822 79.1373 177.596 78.4933 178.474 78.008C179.37 77.5227 180.331 77.28 181.358 77.28C182.403 77.28 183.271 77.4573 183.962 77.812C184.671 78.148 185.166 78.4653 185.446 78.764L185.11 88.788C185.091 89.012 185.119 89.2267 185.194 89.432C185.287 89.6187 185.483 89.712 185.782 89.712C185.968 89.712 186.202 89.628 186.482 89.46C186.78 89.292 187.042 89.0587 187.266 88.76C187.359 88.6293 187.471 88.5827 187.602 88.62C187.751 88.6573 187.807 88.7693 187.77 88.956C187.658 89.5347 187.34 90.076 186.818 90.58C186.314 91.0653 185.716 91.308 185.026 91.308C184.466 91.308 184.046 91.1307 183.766 90.776C183.486 90.4027 183.355 89.992 183.374 89.544L183.486 86.632C183.28 87.3413 182.954 88.06 182.506 88.788C182.058 89.516 181.507 90.1227 180.854 90.608C180.2 91.0747 179.463 91.308 178.642 91.308ZM176.038 85.736C176.038 86.4267 176.15 87.0987 176.374 87.752C176.598 88.3867 176.934 88.9093 177.382 89.32C177.83 89.7307 178.371 89.936 179.006 89.936C179.584 89.936 180.135 89.7307 180.658 89.32C181.18 88.9093 181.647 88.3773 182.058 87.724C182.487 87.052 182.832 86.3333 183.094 85.568C183.355 84.8027 183.504 84.0653 183.542 83.356L183.654 80.864C183.672 80.5653 183.663 80.3227 183.626 80.136C183.607 79.9493 183.551 79.7813 183.458 79.632C183.252 79.296 182.935 79.0067 182.506 78.764C182.076 78.5213 181.591 78.4 181.05 78.4C180.266 78.4 179.556 78.6333 178.922 79.1C178.306 79.5667 177.783 80.1733 177.354 80.92C176.924 81.6667 176.598 82.4693 176.374 83.328C176.15 84.168 176.038 84.9707 176.038 85.736ZM199.221 82.376C199.483 81.144 199.501 80.136 199.277 79.352C199.203 79.296 199.081 79.2587 198.913 79.24C198.745 79.2213 198.587 79.1747 198.437 79.1C198.307 79.0067 198.251 78.8667 198.269 78.68C198.288 78.4933 198.363 78.3253 198.493 78.176C198.68 77.952 198.951 77.7653 199.305 77.616C199.66 77.4667 199.987 77.4013 200.285 77.42C200.603 77.42 200.799 77.56 200.873 77.84C200.985 78.2133 201.051 78.6987 201.069 79.296C201.107 79.8933 201.116 80.528 201.097 81.2C201.079 81.8533 201.032 82.4787 200.957 83.076C200.771 84.4947 200.509 85.8947 200.173 87.276C199.837 88.6573 199.315 90.0387 198.605 91.42C197.821 92.9507 196.907 94.2293 195.861 95.256C194.816 96.2827 193.631 96.8427 192.305 96.936C191.521 96.992 190.784 96.852 190.093 96.516C189.403 96.18 188.945 95.7227 188.721 95.144C188.628 94.8827 188.637 94.64 188.749 94.416C188.88 94.192 189.095 93.996 189.393 93.828C189.711 93.66 190.019 93.5853 190.317 93.604C190.616 93.6227 190.803 93.7347 190.877 93.94C190.915 94.052 190.924 94.1733 190.905 94.304C190.887 94.4347 190.859 94.556 190.821 94.668C190.859 94.9853 191.027 95.256 191.325 95.48C191.624 95.7227 192.044 95.8253 192.585 95.788C193.145 95.7507 193.677 95.536 194.181 95.144C194.704 94.7707 195.18 94.2947 195.609 93.716C196.057 93.156 196.449 92.5773 196.785 91.98C197.327 91.028 197.784 90.0387 198.157 89.012C198.531 87.9853 198.783 87.1267 198.913 86.436L198.801 86.352C198.596 86.856 198.279 87.4253 197.849 88.06C197.439 88.676 196.991 89.264 196.505 89.824C196.02 90.384 195.563 90.832 195.133 91.168C194.984 91.2987 194.807 91.3453 194.601 91.308C194.396 91.2707 194.275 91.1867 194.237 91.056L190.485 79.884C190.448 79.884 190.392 79.9027 190.317 79.94C190.261 79.9587 190.177 80.0427 190.065 80.192C189.916 80.36 189.701 80.5 189.421 80.612C189.16 80.7053 188.861 80.6587 188.525 80.472C188.731 80.192 188.983 79.856 189.281 79.464C189.58 79.072 189.869 78.7173 190.149 78.4C190.429 78.064 190.625 77.84 190.737 77.728C190.943 77.5227 191.139 77.4573 191.325 77.532C191.531 77.588 191.671 77.7187 191.745 77.924L195.413 89.516C196.011 88.9 196.561 88.1907 197.065 87.388C197.588 86.5853 198.036 85.7547 198.409 84.896C198.801 84.0187 199.072 83.1787 199.221 82.376Z" fill="#FFEDEE"/>
<path fill-rule="evenodd" clip-rule="evenodd" d="M93.451 279H89.9961L87.8492 281.147L91.2176 284.515H92.2295L95.5978 281.147L93.451 279Z" fill="#FAFAFA"/>
<path fill-rule="evenodd" clip-rule="evenodd" d="M91.7248 284.725C90.5861 284.725 89.494 285.178 88.6888 285.983C87.8836 286.788 87.4312 287.88 87.4312 289.019C87.4312 290.158 87.8836 291.25 88.6888 292.055C89.494 292.86 90.5861 293.312 91.7248 293.312C92.8636 293.312 93.9557 292.86 94.7609 292.055C95.5661 291.25 96.0185 290.158 96.0185 289.019C96.0185 287.88 95.5661 286.788 94.7609 285.983C93.9557 285.178 92.8636 284.725 91.7248 284.725ZM86 289.019C86 287.5 86.6032 286.044 87.6768 284.971C88.7504 283.897 90.2065 283.294 91.7248 283.294C93.2432 283.294 94.6993 283.897 95.7729 284.971C96.8465 286.044 97.4497 287.5 97.4497 289.019C97.4497 290.537 96.8465 291.993 95.7729 293.067C94.6993 294.14 93.2432 294.744 91.7248 294.744C90.2065 294.744 88.7504 294.14 87.6768 293.067C86.6032 291.993 86 290.537 86 289.019Z" fill="#FAFAFA"/>
<path fill-rule="evenodd" clip-rule="evenodd" d="M117.537 279H114.082L111.935 281.147L115.304 284.515H116.315L119.684 281.147L117.537 279Z" fill="#FAFAFA"/>
<path fill-rule="evenodd" clip-rule="evenodd" d="M115.811 284.725C114.672 284.725 113.58 285.178 112.775 285.983C111.97 286.788 111.517 287.88 111.517 289.019C111.517 290.158 111.97 291.25 112.775 292.055C113.58 292.86 114.672 293.312 115.811 293.312C116.95 293.312 118.042 292.86 118.847 292.055C119.652 291.25 120.104 290.158 120.104 289.019C120.104 287.88 119.652 286.788 118.847 285.983C118.042 285.178 116.95 284.725 115.811 284.725ZM110.086 289.019C110.086 287.5 110.689 286.044 111.763 284.971C112.836 283.897 114.292 283.294 115.811 283.294C117.329 283.294 118.785 283.897 119.859 284.971C120.932 286.044 121.536 287.5 121.536 289.019C121.536 290.537 120.932 291.993 119.859 293.067C118.785 294.14 117.329 294.744 115.811 294.744C114.292 294.744 112.836 294.14 111.763 293.067C110.689 291.993 110.086 290.537 110.086 289.019Z" fill="#FAFAFA"/>
<path fill-rule="evenodd" clip-rule="evenodd" d="M141.623 279H138.168L136.021 281.147L139.389 284.515H140.401L143.77 281.147L141.623 279Z" fill="#FAFAFA"/>
<path fill-rule="evenodd" clip-rule="evenodd" d="M139.897 284.725C138.758 284.725 137.666 285.178 136.861 285.983C136.055 286.788 135.603 287.88 135.603 289.019C135.603 290.158 136.055 291.25 136.861 292.055C137.666 292.86 138.758 293.312 139.897 293.312C141.035 293.312 142.128 292.86 142.933 292.055C143.738 291.25 144.19 290.158 144.19 289.019C144.19 287.88 143.738 286.788 142.933 285.983C142.128 285.178 141.035 284.725 139.897 284.725ZM134.172 289.019C134.172 287.5 134.775 286.044 135.849 284.971C136.922 283.897 138.378 283.294 139.897 283.294C141.415 283.294 142.871 283.897 143.945 284.971C145.018 286.044 145.622 287.5 145.622 289.019C145.622 290.537 145.018 291.993 143.945 293.067C142.871 294.14 141.415 294.744 139.897 294.744C138.378 294.744 136.922 294.14 135.849 293.067C134.775 291.993 134.172 290.537 134.172 289.019Z" fill="#FAFAFA"/>
<path fill-rule="evenodd" clip-rule="evenodd" d="M165.709 279H162.254L160.107 281.147L163.475 284.515H164.487L167.856 281.147L165.709 279Z" fill="#FAFAFA"/>
<path fill-rule="evenodd" clip-rule="evenodd" d="M163.983 284.725C162.844 284.725 161.752 285.178 160.947 285.983C160.141 286.788 159.689 287.88 159.689 289.019C159.689 290.158 160.141 291.25 160.947 292.055C161.752 292.86 162.844 293.312 163.983 293.312C165.121 293.312 166.213 292.86 167.019 292.055C167.824 291.25 168.276 290.158 168.276 289.019C168.276 287.88 167.824 286.788 167.019 285.983C166.213 285.178 165.121 284.725 163.983 284.725ZM158.258 289.019C158.258 287.5 158.861 286.044 159.935 284.971C161.008 283.897 162.464 283.294 163.983 283.294C165.501 283.294 166.957 283.897 168.031 284.971C169.104 286.044 169.707 287.5 169.707 289.019C169.707 290.537 169.104 291.993 168.031 293.067C166.957 294.14 165.501 294.744 163.983 294.744C162.464 294.744 161.008 294.14 159.935 293.067C158.861 291.993 158.258 290.537 158.258 289.019Z" fill="#FAFAFA"/>
<path fill-rule="evenodd" clip-rule="evenodd" d="M189.795 279H186.34L184.193 281.147L187.561 284.515H188.573L191.942 281.147L189.795 279Z" fill="#FAFAFA"/>
<path fill-rule="evenodd" clip-rule="evenodd" d="M188.069 284.725C186.93 284.725 185.838 285.178 185.033 285.983C184.227 286.788 183.775 287.88 183.775 289.019C183.775 290.158 184.227 291.25 185.033 292.055C185.838 292.86 186.93 293.312 188.069 293.312C189.207 293.312 190.299 292.86 191.105 292.055C191.91 291.25 192.362 290.158 192.362 289.019C192.362 287.88 191.91 286.788 191.105 285.983C190.299 285.178 189.207 284.725 188.069 284.725ZM182.344 289.019C182.344 287.5 182.947 286.044 184.021 284.971C185.094 283.897 186.55 283.294 188.069 283.294C189.587 283.294 191.043 283.897 192.117 284.971C193.19 286.044 193.793 287.5 193.793 289.019C193.793 290.537 193.19 291.993 192.117 293.067C191.043 294.14 189.587 294.744 188.069 294.744C186.55 294.744 185.094 294.14 184.021 293.067C182.947 291.993 182.344 290.537 182.344 289.019Z" fill="#FAFAFA"/>
<path d="M38.0897 377.79V380.28H37.0797V373.71H39.7697C40.9797 373.71 41.9797 374.47 41.9797 375.74C41.9797 377 40.9797 377.79 39.7697 377.79H38.0897ZM39.7097 374.65H38.0897V376.86H39.7097C40.3697 376.86 40.9497 376.45 40.9497 375.74C40.9497 375.04 40.3697 374.65 39.7097 374.65ZM43.8905 380.29H42.8805V373.68H43.8905V380.29ZM49.6249 380.28H48.5949C48.4949 380.11 48.4449 379.91 48.4349 379.71C47.9749 380.2 47.2449 380.46 46.5849 380.46C45.7549 380.46 44.8949 379.98 44.8949 379.06C44.8949 378.34 45.4449 377.85 46.0849 377.63C46.3249 377.55 46.5949 377.52 46.8449 377.49C47.1849 377.45 48.4349 377.4 48.4349 376.91C48.4349 376.39 47.7349 376.23 47.3249 376.23C46.8249 376.23 46.0949 376.44 46.1749 377.08H45.1749C45.1649 377.04 45.1649 377 45.1649 376.96C45.1649 375.83 46.3649 375.38 47.3149 375.38C48.2649 375.38 49.4649 375.83 49.4649 376.95V379.5C49.4649 379.75 49.5249 380.06 49.6249 380.28ZM48.4349 378.43V377.94C47.9249 378.27 47.1949 378.17 46.6449 378.36C46.3649 378.46 45.9549 378.67 45.9549 379.02C45.9549 379.43 46.4649 379.57 46.7849 379.57C46.8649 379.57 46.9449 379.57 47.0149 379.56C47.2149 379.53 47.4049 379.48 47.5849 379.4C47.9449 379.25 48.4349 378.88 48.4349 378.43ZM55.1213 378.73C54.8413 379.79 53.9613 380.47 52.8613 380.47C51.3913 380.47 50.4613 379.32 50.4613 377.9C50.4613 376.46 51.3513 375.35 52.8413 375.35C53.9113 375.35 54.9013 375.99 55.1213 377.08H54.0313C53.9013 376.56 53.4013 376.25 52.8813 376.25C51.9613 376.25 51.5313 377.07 51.5313 377.9C51.5313 378.73 51.9513 379.55 52.8813 379.55C53.4013 379.55 53.8813 379.24 54.0213 378.73H55.1213ZM60.6527 378.23H56.9127C56.9627 379.01 57.5527 379.56 58.3327 379.56C58.7727 379.56 59.2227 379.35 59.3827 378.91H60.4927C60.1827 379.88 59.3427 380.47 58.3227 380.47C56.8527 380.47 55.8227 379.34 55.8227 377.89C55.8227 376.47 56.7927 375.34 58.2627 375.34C59.8327 375.34 60.6527 376.62 60.6527 378.07C60.6527 378.13 60.6527 378.18 60.6527 378.23ZM59.5627 377.39C59.4727 376.7 58.9627 376.24 58.2527 376.24C57.5427 376.24 57.0327 376.71 56.9227 377.39H59.5627Z" fill="#FAFAFA"/>
<path d="M42.6783 289.28H41.3983L39.7283 286.65H38.3983V289.28H37.3883V282.71H40.0683C41.2383 282.71 42.2883 283.42 42.2883 284.67C42.2883 285.59 41.6683 286.3 40.7983 286.56L42.6783 289.28ZM40.0483 283.65H38.3983V285.71H39.9983C40.6283 285.71 41.2283 285.32 41.2283 284.64C41.2283 283.97 40.6483 283.65 40.0483 283.65ZM47.8046 289.28H46.7746C46.6746 289.11 46.6246 288.91 46.6146 288.71C46.1546 289.2 45.4246 289.46 44.7646 289.46C43.9346 289.46 43.0746 288.98 43.0746 288.06C43.0746 287.34 43.6246 286.85 44.2646 286.63C44.5046 286.55 44.7746 286.52 45.0246 286.49C45.3646 286.45 46.6146 286.4 46.6146 285.91C46.6146 285.39 45.9146 285.23 45.5046 285.23C45.0046 285.23 44.2746 285.44 44.3546 286.08H43.3546C43.3446 286.04 43.3446 286 43.3446 285.96C43.3446 284.83 44.5446 284.38 45.4946 284.38C46.4446 284.38 47.6446 284.83 47.6446 285.95V288.5C47.6446 288.75 47.7046 289.06 47.8046 289.28ZM46.6146 287.43V286.94C46.1046 287.27 45.3746 287.17 44.8246 287.36C44.5446 287.46 44.1346 287.67 44.1346 288.02C44.1346 288.43 44.6446 288.57 44.9646 288.57C45.0446 288.57 45.1246 288.57 45.1946 288.56C45.3946 288.53 45.5846 288.48 45.7646 288.4C46.1246 288.25 46.6146 287.88 46.6146 287.43ZM51.001 289.32C49.961 289.32 49.221 289.28 49.221 288.02V285.36H48.641V284.51H49.221V283.11H50.241V284.5H51.091V285.36H50.241V287.88C50.241 288.4 50.551 288.48 51.001 288.47V289.32ZM53.1053 283.67H52.0953V282.68H53.1053V283.67ZM53.1053 289.29H52.0953V284.5H53.1053V289.29ZM58.6098 289.3H57.5998V286.52C57.5998 285.92 57.3098 285.35 56.6398 285.35C55.9398 285.35 55.4198 285.96 55.4198 286.65V289.3H54.4098V284.57H55.4198V285.02C55.8098 284.63 56.3598 284.41 56.9098 284.41C57.9098 284.41 58.6098 285.09 58.6098 286.09V289.3ZM64.3478 289.27C64.3478 290.6 63.3678 291.35 62.1078 291.35C61.1078 291.35 59.9078 290.81 59.8078 289.69H60.8278C60.8678 290.25 61.6278 290.49 62.0978 290.49C62.8178 290.49 63.3578 290.08 63.3578 289.33V288.56C62.9478 288.96 62.4178 289.19 61.8378 289.19C60.4478 289.19 59.6078 288.07 59.6078 286.75C59.6078 285.42 60.4578 284.35 61.8378 284.35C62.4078 284.35 62.9478 284.53 63.3578 284.93V284.52H64.3478V289.27ZM62.0178 285.25C61.1578 285.25 60.6578 285.94 60.6578 286.75C60.6578 287.56 61.1478 288.28 62.0178 288.28C62.8778 288.28 63.3778 287.56 63.3778 286.75C63.3778 285.93 62.8778 285.25 62.0178 285.25Z" fill="#FAFAFA"/>
<path d="M42.2759 319.28H40.9959L39.3259 316.65H37.9959V319.28H36.9859V312.71H39.6659C40.8359 312.71 41.8859 313.42 41.8859 314.67C41.8859 315.59 41.2659 316.3 40.3959 316.56L42.2759 319.28ZM39.6459 313.65H37.9959V315.71H39.5959C40.2259 315.71 40.8259 315.32 40.8259 314.64C40.8259 313.97 40.2459 313.65 39.6459 313.65ZM47.5023 317.23H43.7623C43.8123 318.01 44.4023 318.56 45.1823 318.56C45.6223 318.56 46.0723 318.35 46.2323 317.91H47.3423C47.0323 318.88 46.1923 319.47 45.1723 319.47C43.7023 319.47 42.6723 318.34 42.6723 316.89C42.6723 315.47 43.6423 314.34 45.1123 314.34C46.6823 314.34 47.5023 315.62 47.5023 317.07C47.5023 317.13 47.5023 317.18 47.5023 317.23ZM46.4123 316.39C46.3223 315.7 45.8123 315.24 45.1023 315.24C44.3923 315.24 43.8823 315.71 43.7723 316.39H46.4123ZM52.3943 314.5L50.5843 319.28H49.4143L47.6043 314.5H48.6743L50.0043 318.05L51.3343 314.5H52.3943ZM54.0018 313.67H52.9918V312.68H54.0018V313.67ZM54.0018 319.29H52.9918V314.5H54.0018V319.29ZM59.8363 317.23H56.0963C56.1463 318.01 56.7363 318.56 57.5163 318.56C57.9563 318.56 58.4063 318.35 58.5663 317.91H59.6763C59.3663 318.88 58.5263 319.47 57.5063 319.47C56.0363 319.47 55.0063 318.34 55.0063 316.89C55.0063 315.47 55.9762 314.34 57.4463 314.34C59.0163 314.34 59.8363 315.62 59.8363 317.07C59.8363 317.13 59.8363 317.18 59.8363 317.23ZM58.7463 316.39C58.6563 315.7 58.1463 315.24 57.4363 315.24C56.7263 315.24 56.2163 315.71 56.1063 316.39H58.7463ZM66.9483 314.5L65.5083 319.28H64.4383L63.4983 316.25L62.5483 319.28H61.4783L60.0383 314.5H61.0383L62.0183 317.79L62.9583 314.5H64.0283L64.9683 317.78L65.9483 314.5H66.9483Z" fill="#FAFAFA"/>
<defs>
<filter id="filter0_n_24_1910" x="0" y="0" width="242" height="485.375" filterUnits="userSpaceOnUse" color-interpolation-filters="sRGB">
<feFlood flood-opacity="0" result="BackgroundImageFix"/>
<feBlend mode="normal" in="SourceGraphic" in2="BackgroundImageFix" result="shape"/>
<feTurbulence type="fractalNoise" baseFrequency="0.3571428656578064 0.3571428656578064" stitchTiles="stitch" numOctaves="3" result="noise" seed="2356" />
<feColorMatrix in="noise" type="luminanceToAlpha" result="alphaNoise" />
<feComponentTransfer in="alphaNoise" result="coloredNoise1">
<feFuncA type="discrete" tableValues="0 0 0 0 0 0 0 0 0 0 0 0 0 1 1 1 1 1 1 1 1 1 1 1 1 1 1 1 1 1 1 1 1 1 1 1 1 1 0 0 0 0 0 0 0 0 0 0 0 0 0 0 0 0 0 0 0 0 0 0 0 0 0 0 0 0 0 0 0 0 0 0 0 0 0 0 0 0 0 0 0 0 0 0 0 0 0 0 0 0 0 0 0 0 0 0 0 0 0 0 "/>
</feComponentTransfer>
<feComposite operator="in" in2="shape" in="coloredNoise1" result="noise1Clipped" />
<feFlood flood-color="rgba(255, 204, 205, 0.82)" result="color1Flood" />
<feComposite operator="in" in2="noise1Clipped" in="color1Flood" result="color1" />
<feMerge result="effect1_noise_24_1910">
<feMergeNode in="shape" />
<feMergeNode in="color1" />
</feMerge>
</filter>
</defs>
</svg>
