<svg width="13" height="83" viewBox="0 0 13 83" fill="none" xmlns="http://www.w3.org/2000/svg">
<path d="M2.94205 1.89269C2.94205 2.36869 3.11005 2.77469 3.44605 3.11069C3.60471 2.71869 3.68405 2.30802 3.68405 1.87869C3.68405 1.60802 3.64671 1.39802 3.57205 1.24869C3.49738 1.09935 3.41338 1.02002 3.32005 1.01069C3.21738 0.982686 3.11938 1.05735 3.02605 1.23469C2.97005 1.36535 2.94205 1.58469 2.94205 1.89269ZM2.76005 0.856686C2.89071 0.64202 3.06338 0.534686 3.27805 0.534686C3.50205 0.534686 3.68871 0.665353 3.83805 0.926686C3.96871 1.16002 4.03405 1.49135 4.03405 1.92069C4.03405 2.15402 4.01538 2.36869 3.97805 2.56469C3.94071 2.76069 3.87071 3.02202 3.76805 3.34869C4.24405 3.64735 4.87871 3.89002 5.67205 4.07669C6.47471 4.26335 7.25871 4.38469 8.02405 4.44069C8.37871 4.46869 8.76605 4.48269 9.18605 4.48269C9.82071 4.48269 10.5394 4.44069 11.342 4.35669C11.4634 4.33802 11.58 4.36135 11.692 4.42669C11.804 4.50135 11.86 4.61335 11.86 4.76269C11.86 4.89335 11.818 4.99602 11.734 5.07069C11.65 5.14535 11.566 5.18735 11.482 5.19669C11.1087 5.24335 10.6467 5.26669 10.096 5.26669C9.49871 5.26669 8.87338 5.23402 8.22005 5.16869C7.33338 5.06602 6.46538 4.91202 5.61605 4.70669C4.76671 4.51069 4.10871 4.24935 3.64205 3.92269C3.43671 4.44535 3.28738 4.92135 3.19405 5.35069C3.12871 5.64935 3.09605 6.06935 3.09605 6.61069C3.09605 6.80669 3.10071 6.92802 3.11005 6.97469C3.14738 7.38535 3.18938 7.69335 3.23605 7.89869C3.28271 8.10402 3.33871 8.26735 3.40405 8.38869C3.46938 8.51935 3.51605 8.63135 3.54405 8.72469C3.56271 8.78069 3.57205 8.81802 3.57205 8.83669C3.57205 8.91135 3.54871 8.97202 3.50205 9.01869C3.45538 9.07469 3.39938 9.10269 3.33405 9.10269C3.25005 9.10269 3.16138 9.06535 3.06805 8.99069C2.97471 8.92535 2.89538 8.82735 2.83005 8.69669C2.65271 8.38869 2.56405 7.78669 2.56405 6.89069C2.56405 6.69469 2.57805 6.45202 2.60605 6.16269C2.63405 5.87335 2.66671 5.64002 2.70405 5.46269C2.79738 4.95869 2.98405 4.36135 3.26405 3.67069C3.01205 3.40935 2.83005 3.12469 2.71805 2.81669C2.60605 2.51802 2.55005 2.16335 2.55005 1.75269C2.55005 1.37935 2.62005 1.08069 2.76005 0.856686ZM2.95605 13.8743C2.62005 13.3983 2.45205 12.8896 2.45205 12.3483C2.45205 11.8909 2.57338 11.4709 2.81605 11.0883C3.05871 10.7149 3.39005 10.4163 3.81005 10.1923C4.23938 9.97761 4.71071 9.87028 5.22405 9.87028C5.85871 9.87028 6.45605 10.0149 7.01605 10.3043C7.57605 10.5936 8.01938 10.9763 8.34605 11.4523C8.68205 11.9283 8.85005 12.4323 8.85005 12.9643C8.85005 13.4216 8.72405 13.8416 8.47205 14.2243C8.22938 14.6069 7.89338 14.9103 7.46405 15.1343C7.03471 15.3583 6.56338 15.4703 6.05005 15.4703C5.41538 15.4703 4.82271 15.3256 4.27205 15.0363C3.72138 14.7469 3.28271 14.3596 2.95605 13.8743ZM6.76405 10.8083C6.29738 10.5843 5.81205 10.4723 5.30805 10.4723C4.65471 10.4723 4.10871 10.6496 3.67005 11.0043C3.23138 11.3683 3.01205 11.8303 3.01205 12.3903C3.01205 12.8196 3.14738 13.2256 3.41805 13.6083C3.69805 13.9909 4.06671 14.2943 4.52405 14.5183C4.98138 14.7516 5.46671 14.8683 5.98005 14.8683C6.40005 14.8683 6.78738 14.7843 7.14205 14.6163C7.49671 14.4576 7.77671 14.2289 7.98205 13.9303C8.19671 13.6316 8.30405 13.2909 8.30405 12.9083C8.30405 12.4883 8.16405 12.0916 7.88405 11.7183C7.60405 11.3449 7.23071 11.0416 6.76405 10.8083ZM2.50805 18.8351C2.50805 18.7044 2.55005 18.5924 2.63405 18.4991C2.71805 18.4058 2.82538 18.3451 2.95605 18.3171L8.71005 17.0011L8.78005 17.0011C8.86405 17.0011 8.93405 17.0198 8.99005 17.0571C9.05538 17.0944 9.09271 17.1458 9.10205 17.2111L9.10205 17.2531C9.10205 17.3184 9.07871 17.3791 9.03205 17.4351C8.98538 17.5004 8.93405 17.5424 8.87805 17.5611L3.22205 18.8631L8.93405 21.6071C9.05538 21.6631 9.11605 21.7564 9.11605 21.8871C9.11604 21.9711 9.08338 22.0364 9.01805 22.0831C8.96205 22.1391 8.88738 22.1671 8.79405 22.1671C8.76605 22.1671 8.72405 22.1578 8.66805 22.1391L2.84405 19.3251C2.74138 19.2691 2.66205 19.1944 2.60605 19.1011C2.54071 19.0171 2.50805 18.9284 2.50805 18.8351ZM8.23404 27.0871C8.18738 26.9098 8.13138 26.7604 8.06604 26.6391C7.67405 25.9484 7.09538 25.3744 6.33004 24.9171C6.36738 25.4304 6.42338 25.8878 6.49804 26.2891C6.58204 26.6904 6.71738 27.0591 6.90404 27.3951C7.20271 27.9178 7.50604 28.1791 7.81404 28.1791C7.86071 28.1791 7.94004 28.1604 8.05205 28.1231C8.22004 28.0484 8.30404 27.8711 8.30404 27.5911C8.30404 27.4418 8.28071 27.2738 8.23404 27.0871ZM5.78405 24.1611L5.82604 23.0411C5.83538 22.9478 5.86804 22.8731 5.92404 22.8171C5.98004 22.7611 6.04538 22.7331 6.12004 22.7331C6.19471 22.7331 6.25538 22.7564 6.30205 22.8031C6.35805 22.8591 6.38605 22.9291 6.38605 23.0131C6.38605 23.1438 6.37671 23.3584 6.35804 23.6571C6.33938 23.9558 6.33004 24.1844 6.33004 24.3431C6.93671 24.6324 7.45938 24.9964 7.89805 25.4351C8.15938 25.7244 8.37405 26.0464 8.54205 26.4011C8.71005 26.7651 8.79405 27.1244 8.79405 27.4791C8.79405 27.8151 8.71005 28.0998 8.54205 28.3331C8.37404 28.5664 8.11738 28.6831 7.77204 28.6831C7.49204 28.6831 7.24938 28.6084 7.04404 28.4591C6.90404 28.3471 6.77338 28.1884 6.65204 27.9831C6.53071 27.7778 6.45604 27.6471 6.42804 27.5911C6.21338 27.1711 6.05938 26.7371 5.96604 26.2891C5.88204 25.8504 5.82138 25.3371 5.78405 24.7491C5.22404 24.5624 4.75271 24.4691 4.37004 24.4691C4.23004 24.4691 4.10404 24.4831 3.99204 24.5111C3.50671 24.6044 3.18938 24.9871 3.04004 25.6591C3.01204 25.7991 2.99804 25.9391 2.99804 26.0791C2.99804 26.5738 3.14271 27.0404 3.43204 27.4791C3.72138 27.9271 4.09471 28.3564 4.55204 28.7671C4.60804 28.8138 4.63604 28.8791 4.63604 28.9631C4.63604 29.0471 4.60804 29.1078 4.55204 29.1451C4.48671 29.2104 4.41671 29.2431 4.34204 29.2431C4.27671 29.2431 4.20671 29.2151 4.13204 29.1591C3.43204 28.5524 2.94671 27.8991 2.67604 27.1991C2.52671 26.7978 2.45204 26.4151 2.45204 26.0511C2.45204 25.6311 2.54071 25.2391 2.71804 24.8751C2.85804 24.5578 3.06804 24.3151 3.34804 24.1471C3.63738 23.9791 3.96404 23.8951 4.32804 23.8951C4.78538 23.8951 5.27071 23.9838 5.78405 24.1611ZM11.216 38.0768C11.1507 38.1514 11.076 38.1888 10.992 38.1888C10.9174 38.1888 10.8474 38.1608 10.782 38.1048C10.726 38.0488 10.698 37.9834 10.698 37.9088C10.698 37.8528 10.7214 37.7921 10.768 37.7268C10.8054 37.6801 10.824 37.6288 10.824 37.5728C10.824 37.4794 10.782 37.3908 10.698 37.3068C10.614 37.2228 10.5207 37.1621 10.418 37.1248C10.334 37.0874 10.2314 37.0548 10.11 37.0268C9.99804 37.0081 9.91871 36.9941 9.87204 36.9848L8.69604 36.8308L7.24004 36.6488C7.23071 36.8168 7.22604 36.9614 7.22604 37.0828C7.23538 37.2134 7.24004 37.3208 7.24004 37.4048L7.24004 37.7828C7.24004 37.8761 7.20738 37.9461 7.14204 37.9928C7.08604 38.0488 7.01138 38.0768 6.91804 38.0768C6.82471 38.0768 6.74538 38.0488 6.68004 37.9928C6.62404 37.9461 6.59138 37.8714 6.58204 37.7688L6.56804 36.5788C6.40938 36.5601 5.60671 36.4574 4.16004 36.2708L2.81604 36.0888L2.52204 36.0468C2.12071 36.0001 1.78004 35.9348 1.50004 35.8508C1.22004 35.7668 0.982044 35.6221 0.786044 35.4168C0.590044 35.2114 0.492044 34.9408 0.492044 34.6048C0.492044 34.2314 0.618044 33.9468 0.870044 33.7508C0.916711 33.7134 0.972711 33.6948 1.03804 33.6948C1.12204 33.6948 1.19671 33.7274 1.26204 33.7928C1.32738 33.8674 1.36004 33.9421 1.36004 34.0168C1.36004 34.1101 1.32271 34.1848 1.24804 34.2408C1.12671 34.3248 1.06604 34.4508 1.06604 34.6188C1.06604 34.8148 1.14071 34.9688 1.29004 35.0808C1.43004 35.1928 1.60271 35.2674 1.80804 35.3048C2.03204 35.3701 2.30738 35.4214 2.63404 35.4588L2.91404 35.5008C3.09138 35.5194 3.31538 35.5474 3.58604 35.5848C3.85671 35.6221 4.14138 35.6594 4.44004 35.6968C5.69071 35.8741 6.40004 35.9674 6.56804 35.9768L6.54004 34.7308C6.54004 34.6281 6.57271 34.5488 6.63804 34.4928C6.70338 34.4461 6.78271 34.4228 6.87604 34.4228C6.96004 34.4228 7.03471 34.4461 7.10004 34.4928C7.16538 34.5488 7.19804 34.6281 7.19804 34.7308L7.22604 36.0468C7.57138 36.0841 8.14071 36.1541 8.93404 36.2568C9.72738 36.3688 10.2034 36.4481 10.362 36.4948C10.558 36.5321 10.74 36.6021 10.908 36.7048C11.076 36.8074 11.202 36.9381 11.286 37.0968C11.3607 37.2274 11.398 37.3721 11.398 37.5308C11.398 37.7361 11.3374 37.9181 11.216 38.0768ZM9.31204 40.4206C9.40538 40.4392 9.47538 40.4812 9.52204 40.5466C9.56871 40.6119 9.59204 40.6866 9.59204 40.7706C9.59204 40.8546 9.56404 40.9246 9.50804 40.9806C9.45204 41.0366 9.37738 41.0552 9.28404 41.0366L7.49204 40.7566L4.80404 40.3366C4.48671 40.2992 4.25338 40.2806 4.10404 40.2806C3.77738 40.2806 3.51138 40.3319 3.30604 40.4346C3.23138 40.4626 3.16604 40.5046 3.11004 40.5606C3.06338 40.6259 3.03538 40.6959 3.02604 40.7706L3.01204 40.8406C3.01204 40.9806 3.05871 41.0832 3.15204 41.1486C3.25471 41.2139 3.30604 41.2932 3.30604 41.3866C3.30604 41.4706 3.27338 41.5452 3.20804 41.6106C3.15204 41.6759 3.07738 41.7086 2.98404 41.7086C2.93738 41.7086 2.88604 41.6946 2.83004 41.6666C2.68071 41.5826 2.56871 41.4659 2.49404 41.3166C2.41938 41.1766 2.38204 41.0179 2.38204 40.8406C2.38204 40.6632 2.41471 40.5046 2.48004 40.3646C2.59204 40.1686 2.75071 40.0099 2.95604 39.8886C3.16138 39.7672 3.38071 39.6972 3.61404 39.6786C3.83804 39.6599 4.00138 39.6506 4.10404 39.6506C4.39338 39.6506 4.74338 39.6832 5.15404 39.7486L8.58404 40.3086L9.31204 40.4206ZM11.062 40.6026C11.1647 40.6026 11.2534 40.6399 11.328 40.7146C11.412 40.7986 11.454 40.8966 11.454 41.0086C11.454 41.1112 11.412 41.1999 11.328 41.2746C11.244 41.3586 11.1507 41.4006 11.048 41.4006C10.9454 41.4006 10.852 41.3586 10.768 41.2746C10.6934 41.1999 10.656 41.1112 10.656 41.0086C10.656 40.8966 10.6934 40.7986 10.768 40.7146C10.852 40.6399 10.95 40.6026 11.062 40.6026ZM11.496 44.5544C11.58 44.5637 11.6454 44.5964 11.692 44.6524C11.7387 44.7084 11.762 44.7691 11.762 44.8344C11.762 44.9184 11.734 44.9884 11.678 45.0444C11.6314 45.1004 11.5614 45.1237 11.468 45.1144C11.0947 45.0677 9.70871 44.8764 7.31004 44.5404L5.04204 44.2184C4.68738 44.1624 4.40738 44.1344 4.20204 44.1344C3.93138 44.1344 3.69804 44.1764 3.50204 44.2604C3.42738 44.2884 3.36671 44.3351 3.32004 44.4004C3.27338 44.4657 3.24071 44.5404 3.22204 44.6244L3.20804 44.6944C3.20804 44.8437 3.25938 44.9557 3.36204 45.0304C3.45538 45.0864 3.50204 45.1564 3.50204 45.2404C3.50204 45.3151 3.46938 45.3804 3.40404 45.4364C3.34804 45.5017 3.27804 45.5344 3.19404 45.5344C3.14738 45.5344 3.09604 45.5204 3.04004 45.4924C2.90938 45.4084 2.81138 45.2964 2.74604 45.1564C2.67138 45.0257 2.63404 44.8811 2.63404 44.7224C2.63404 44.5544 2.67138 44.3864 2.74604 44.2184C2.85804 44.0317 3.01204 43.8824 3.20804 43.7704C3.40404 43.6584 3.61404 43.5931 3.83804 43.5744C3.91271 43.5651 4.02004 43.5604 4.16004 43.5604C4.51471 43.5604 4.93471 43.6024 5.42004 43.6864C8.31338 44.1064 10.3387 44.3957 11.496 44.5544ZM7.40804 55.9806C7.18404 56.1019 6.94604 56.1626 6.69404 56.1626C6.62871 56.1626 5.90071 56.0739 4.51004 55.8966L4.25804 55.8686C4.15538 55.8593 3.95938 55.8359 3.67004 55.7986L2.88604 55.7146C2.81138 55.6959 2.75071 55.6586 2.70404 55.6026C2.65738 55.5466 2.63404 55.4766 2.63404 55.3926C2.63404 55.2899 2.66204 55.2106 2.71804 55.1546C2.76471 55.0986 2.82538 55.0706 2.90004 55.0706L2.97004 55.0846L5.09804 55.3506C5.39671 55.3879 5.72338 55.4299 6.07804 55.4766C6.43271 55.5233 6.65204 55.5466 6.73604 55.5466C6.98804 55.5466 7.24938 55.3926 7.52004 55.0846C7.64138 54.9539 7.73471 54.7906 7.80004 54.5946C7.86538 54.3986 7.89804 54.1979 7.89804 53.9926C7.89804 53.5446 7.78138 53.1713 7.54804 52.8726C7.32404 52.5739 7.01138 52.4013 6.61004 52.3546C6.33938 52.2986 5.11204 52.1493 2.92804 51.9066C2.75071 51.8786 2.66204 51.7853 2.66204 51.6266L2.66204 51.5566C2.67138 51.4819 2.70404 51.4166 2.76004 51.3606C2.80671 51.3139 2.86738 51.2906 2.94204 51.2906L3.01204 51.3046L6.68004 51.7386C6.90404 51.7666 7.10938 51.7059 7.29604 51.5566C7.48271 51.4073 7.62738 51.2019 7.73004 50.9406C7.84204 50.6886 7.89804 50.4226 7.89804 50.1426C7.89804 49.7319 7.77671 49.3679 7.53404 49.0506C7.29138 48.7426 6.99271 48.5699 6.63804 48.5326C6.49804 48.4953 5.74204 48.3973 4.37004 48.2386L2.92804 48.0566C2.75071 48.0286 2.66204 47.9306 2.66204 47.7626C2.66204 47.6599 2.69471 47.5759 2.76004 47.5106C2.82538 47.4546 2.90938 47.4359 3.01204 47.4546L9.59204 48.2386C9.66671 48.2573 9.72738 48.2946 9.77404 48.3506C9.82071 48.4066 9.84404 48.4719 9.84404 48.5466L9.84404 48.6026C9.81604 48.7893 9.69471 48.8826 9.48004 48.8826L8.01004 48.6866L7.98204 48.7706C8.14071 48.9293 8.27138 49.1299 8.37404 49.3726C8.47671 49.6246 8.52804 49.8813 8.52804 50.1426C8.52804 50.5626 8.44404 50.9359 8.27604 51.2626C8.10804 51.5986 7.87471 51.8693 7.57604 52.0746C7.86538 52.2706 8.09404 52.5273 8.26204 52.8446C8.43938 53.1713 8.52804 53.5259 8.52804 53.9086C8.52804 54.5246 8.36004 55.0426 8.02404 55.4626C7.84671 55.6866 7.64138 55.8593 7.40804 55.9806ZM10.278 61.6265C10.1754 61.7852 10.0447 61.8645 9.88604 61.8645C9.79271 61.8645 9.69938 61.8319 9.60604 61.7665C9.48471 61.6732 9.42404 61.5519 9.42404 61.4025C9.42404 61.3185 9.45204 61.2345 9.50804 61.1505C9.61071 61.0199 9.70871 60.9172 9.80204 60.8425C9.90471 60.7679 9.96538 60.7259 9.98404 60.7165C10.1427 60.6139 10.236 60.5485 10.264 60.5205C10.4134 60.3992 10.474 60.3152 10.446 60.2685C10.418 60.2405 10.3807 60.2265 10.334 60.2265C10.2967 60.2265 10.222 60.2452 10.11 60.2825L9.77404 60.4085C9.68071 60.4459 9.58271 60.4785 9.48004 60.5065C9.38671 60.5345 9.27938 60.5485 9.15804 60.5485C9.03671 60.5485 8.92938 60.5019 8.83604 60.4085C8.74271 60.3245 8.69604 60.2265 8.69604 60.1145C8.69604 59.9839 8.74271 59.8672 8.83604 59.7645C8.92938 59.6712 9.03671 59.6245 9.15804 59.6245C9.29804 59.6245 9.41471 59.6385 9.50804 59.6665C9.61071 59.6945 9.71338 59.7319 9.81604 59.7785C9.92804 59.8345 10.026 59.8765 10.11 59.9045C10.138 59.9139 10.18 59.9279 10.236 59.9465C10.292 59.9652 10.334 59.9745 10.362 59.9745C10.418 59.9745 10.4554 59.9605 10.474 59.9325L10.474 59.9045C10.474 59.8765 10.446 59.8345 10.39 59.7785C10.334 59.7319 10.2874 59.6945 10.25 59.6665C10.1847 59.6105 10.096 59.5452 9.98404 59.4705C9.96538 59.4612 9.90471 59.4192 9.80204 59.3445C9.70871 59.2699 9.61071 59.1672 9.50804 59.0365C9.45204 58.9525 9.42404 58.8639 9.42404 58.7705C9.42404 58.6119 9.48471 58.4952 9.60604 58.4205C9.70871 58.3645 9.80204 58.3365 9.88604 58.3365C10.054 58.3365 10.1847 58.4112 10.278 58.5605C10.3434 58.6539 10.3854 58.7425 10.404 58.8265C10.432 58.9105 10.4554 59.0179 10.474 59.1485C10.4834 59.2139 10.5067 59.3212 10.544 59.4705C10.544 59.4892 10.5487 59.5312 10.558 59.5965C10.5767 59.6712 10.614 59.7319 10.67 59.7785C10.6887 59.7972 10.726 59.7972 10.782 59.7785C10.7914 59.7692 10.8054 59.7505 10.824 59.7225L10.936 59.4425C10.9547 59.3865 10.9734 59.2932 10.992 59.1625C11.0107 59.0599 11.034 58.9525 11.062 58.8405C11.09 58.7285 11.1367 58.6212 11.202 58.5185C11.2394 58.4439 11.3 58.3832 11.384 58.3365C11.468 58.2899 11.5567 58.2665 11.65 58.2665C11.7714 58.2665 11.8694 58.3132 11.944 58.4065C12.028 58.5092 12.07 58.6212 12.07 58.7425C12.07 58.8732 12.0374 58.9759 11.972 59.0505C11.8787 59.1719 11.72 59.3072 11.496 59.4565C11.3467 59.5592 11.2534 59.6245 11.216 59.6525L11.02 59.8205C10.992 59.8485 10.978 59.8765 10.978 59.9045C10.978 59.9605 11.006 59.9885 11.062 59.9885C11.1087 59.9885 11.1647 59.9745 11.23 59.9465C11.2954 59.9279 11.3374 59.9139 11.356 59.9045C11.4307 59.8765 11.552 59.8252 11.72 59.7505C11.8974 59.6852 12.084 59.6432 12.28 59.6245C12.4107 59.6152 12.5227 59.6572 12.616 59.7505C12.7187 59.8532 12.77 59.9745 12.77 60.1145C12.77 60.2265 12.7234 60.3245 12.63 60.4085C12.5367 60.5019 12.4294 60.5485 12.308 60.5485C12.112 60.5485 11.9207 60.5065 11.734 60.4225C11.5474 60.3479 11.4214 60.3012 11.356 60.2825C11.3 60.2545 11.2347 60.2312 11.16 60.2125C11.0854 60.2032 11.0387 60.2172 11.02 60.2545C11.0107 60.2639 11.006 60.2779 11.006 60.2965C11.006 60.3525 11.0387 60.4039 11.104 60.4505C11.1694 60.4972 11.2067 60.5252 11.216 60.5345C11.2534 60.5625 11.3467 60.6279 11.496 60.7305C11.72 60.8799 11.8787 61.0152 11.972 61.1365C12.0374 61.2299 12.07 61.3325 12.07 61.4445C12.07 61.6125 12.0047 61.7479 11.874 61.8505C11.8087 61.8879 11.7387 61.9065 11.664 61.9065C11.5707 61.9065 11.4774 61.8832 11.384 61.8365C11.3 61.7899 11.2394 61.7292 11.202 61.6545C11.118 61.5145 11.062 61.3792 11.034 61.2485C11.0154 61.1272 11.0014 61.0525 10.992 61.0245C10.9734 60.9125 10.9547 60.8192 10.936 60.7445L10.824 60.4785C10.8147 60.4599 10.8007 60.4412 10.782 60.4225C10.7634 60.4039 10.7447 60.3945 10.726 60.3945C10.67 60.3945 10.6374 60.4225 10.628 60.4785C10.6 60.5439 10.5767 60.6185 10.558 60.7025C10.5394 60.7959 10.516 60.9032 10.488 61.0245C10.4694 61.1459 10.446 61.2532 10.418 61.3465C10.39 61.4399 10.3434 61.5332 10.278 61.6265ZM6.82004 69.4139C6.81071 69.5913 6.73138 69.6799 6.58204 69.6799C6.51671 69.6799 6.45604 69.6426 6.40004 69.5679C6.34404 69.4933 6.31604 69.3999 6.31604 69.2879L6.31604 66.9499L3.71204 66.9499C3.61871 66.9406 3.54404 66.9126 3.48804 66.8659C3.44138 66.8193 3.41804 66.7586 3.41804 66.6839C3.41804 66.6093 3.46004 66.5393 3.54404 66.4739C3.63738 66.4179 3.74004 66.3899 3.85204 66.3899L6.31604 66.3899L6.31604 63.8559C6.31604 63.7906 6.33938 63.7299 6.38604 63.6739C6.44204 63.6273 6.50271 63.6039 6.56804 63.6039C6.63338 63.6039 6.68938 63.6366 6.73604 63.7019C6.79204 63.7673 6.82004 63.8559 6.82004 63.9679L6.82004 66.3899L9.34004 66.3899C9.41471 66.3899 9.48004 66.4179 9.53604 66.4739C9.59204 66.5299 9.62004 66.5953 9.62004 66.6699C9.62004 66.7446 9.58271 66.8099 9.50804 66.8659C9.44271 66.9219 9.34471 66.9499 9.21404 66.9499L6.82004 66.9499L6.82004 69.4139ZM10.278 74.9019C10.1754 75.0606 10.0447 75.1399 9.88604 75.1399C9.79271 75.1399 9.69938 75.1073 9.60604 75.0419C9.48471 74.9486 9.42404 74.8273 9.42404 74.6779C9.42404 74.5939 9.45204 74.5099 9.50804 74.4259C9.61071 74.2953 9.70871 74.1926 9.80204 74.1179C9.90471 74.0433 9.96538 74.0013 9.98404 73.9919C10.1427 73.8893 10.236 73.8239 10.264 73.7959C10.4134 73.6746 10.474 73.5906 10.446 73.5439C10.418 73.5159 10.3807 73.5019 10.334 73.5019C10.2967 73.5019 10.222 73.5206 10.11 73.5579L9.77404 73.6839C9.68071 73.7213 9.58271 73.7539 9.48004 73.7819C9.38671 73.8099 9.27938 73.8239 9.15804 73.8239C9.03671 73.8239 8.92938 73.7773 8.83604 73.6839C8.74271 73.5999 8.69604 73.5019 8.69604 73.3899C8.69604 73.2593 8.74271 73.1426 8.83604 73.0399C8.92938 72.9466 9.03671 72.8999 9.15804 72.8999C9.29804 72.8999 9.41471 72.9139 9.50804 72.9419C9.61071 72.9699 9.71338 73.0073 9.81604 73.0539C9.92804 73.1099 10.026 73.1519 10.11 73.1799C10.138 73.1893 10.18 73.2033 10.236 73.2219C10.292 73.2406 10.334 73.2499 10.362 73.2499C10.418 73.2499 10.4554 73.2359 10.474 73.2079L10.474 73.1799C10.474 73.1519 10.446 73.1099 10.39 73.0539C10.334 73.0073 10.2874 72.9699 10.25 72.9419C10.1847 72.8859 10.096 72.8206 9.98404 72.7459C9.96538 72.7366 9.90471 72.6946 9.80204 72.6199C9.70871 72.5453 9.61071 72.4426 9.50804 72.3119C9.45204 72.2279 9.42404 72.1393 9.42404 72.0459C9.42404 71.8873 9.48471 71.7706 9.60604 71.6959C9.70871 71.6399 9.80204 71.6119 9.88604 71.6119C10.054 71.6119 10.1847 71.6866 10.278 71.8359C10.3434 71.9293 10.3854 72.0179 10.404 72.1019C10.432 72.1859 10.4554 72.2933 10.474 72.4239C10.4834 72.4893 10.5067 72.5966 10.544 72.7459C10.544 72.7646 10.5487 72.8066 10.558 72.8719C10.5767 72.9466 10.614 73.0073 10.67 73.0539C10.6887 73.0726 10.726 73.0726 10.782 73.0539C10.7914 73.0446 10.8054 73.0259 10.824 72.9979L10.936 72.7179C10.9547 72.6619 10.9734 72.5686 10.992 72.4379C11.0107 72.3353 11.034 72.2279 11.062 72.1159C11.09 72.0039 11.1367 71.8966 11.202 71.7939C11.2394 71.7193 11.3 71.6586 11.384 71.6119C11.468 71.5653 11.5567 71.5419 11.65 71.5419C11.7714 71.5419 11.8694 71.5886 11.944 71.6819C12.028 71.7846 12.07 71.8966 12.07 72.0179C12.07 72.1486 12.0374 72.2513 11.972 72.3259C11.8787 72.4473 11.72 72.5826 11.496 72.7319C11.3467 72.8346 11.2534 72.8999 11.216 72.9279L11.02 73.0959C10.992 73.1239 10.978 73.1519 10.978 73.1799C10.978 73.2359 11.006 73.2639 11.062 73.2639C11.1087 73.2639 11.1647 73.2499 11.23 73.2219C11.2954 73.2033 11.3374 73.1893 11.356 73.1799C11.4307 73.1519 11.552 73.1006 11.72 73.0259C11.8974 72.9606 12.084 72.9186 12.28 72.8999C12.4107 72.8906 12.5227 72.9326 12.616 73.0259C12.7187 73.1286 12.77 73.2499 12.77 73.3899C12.77 73.5019 12.7234 73.5999 12.63 73.6839C12.5367 73.7773 12.4294 73.8239 12.308 73.8239C12.112 73.8239 11.9207 73.7819 11.734 73.6979C11.5474 73.6233 11.4214 73.5766 11.356 73.5579C11.3 73.5299 11.2347 73.5066 11.16 73.4879C11.0854 73.4786 11.0387 73.4926 11.02 73.5299C11.0107 73.5393 11.006 73.5533 11.006 73.5719C11.006 73.6279 11.0387 73.6793 11.104 73.7259C11.1694 73.7726 11.2067 73.8006 11.216 73.8099C11.2534 73.8379 11.3467 73.9033 11.496 74.0059C11.72 74.1553 11.8787 74.2906 11.972 74.4119C12.0374 74.5053 12.07 74.6079 12.07 74.7199C12.07 74.8879 12.0047 75.0233 11.874 75.1259C11.8087 75.1633 11.7387 75.1819 11.664 75.1819C11.5707 75.1819 11.4774 75.1586 11.384 75.1119C11.3 75.0653 11.2394 75.0046 11.202 74.9299C11.118 74.7899 11.062 74.6546 11.034 74.5239C11.0154 74.4026 11.0014 74.3279 10.992 74.2999C10.9734 74.1879 10.9547 74.0946 10.936 74.0199L10.824 73.7539C10.8147 73.7353 10.8007 73.7166 10.782 73.6979C10.7634 73.6793 10.7447 73.6699 10.726 73.6699C10.67 73.6699 10.6374 73.6979 10.628 73.7539C10.6 73.8193 10.5767 73.8939 10.558 73.9779C10.5394 74.0713 10.516 74.1786 10.488 74.2999C10.4694 74.4213 10.446 74.5286 10.418 74.6219C10.39 74.7153 10.3434 74.8086 10.278 74.9019ZM6.82004 82.6893C6.81071 82.8666 6.73138 82.9553 6.58204 82.9553C6.51671 82.9553 6.45604 82.918 6.40004 82.8433C6.34404 82.7686 6.31604 82.6753 6.31604 82.5633L6.31604 80.2253L3.71204 80.2253C3.61871 80.216 3.54404 80.188 3.48804 80.1413C3.44138 80.0946 3.41804 80.034 3.41804 79.9593C3.41804 79.8846 3.46004 79.8146 3.54404 79.7493C3.63738 79.6933 3.74004 79.6653 3.85204 79.6653L6.31604 79.6653L6.31604 77.1313C6.31604 77.066 6.33938 77.0053 6.38604 76.9493C6.44204 76.9026 6.50271 76.8793 6.56804 76.8793C6.63338 76.8793 6.68938 76.912 6.73604 76.9773C6.79204 77.0426 6.82004 77.1313 6.82004 77.2433L6.82004 79.6653L9.34004 79.6653C9.41471 79.6653 9.48004 79.6933 9.53604 79.7493C9.59204 79.8053 9.62004 79.8706 9.62004 79.9453C9.62004 80.02 9.58271 80.0853 9.50804 80.1413C9.44271 80.1973 9.34471 80.2253 9.21404 80.2253L6.82004 80.2253L6.82004 82.6893Z" fill="#FF6669"/>
</svg>
