<svg width="40" height="41" viewBox="0 0 40 41" fill="none" xmlns="http://www.w3.org/2000/svg">
<circle cx="20.1113" cy="20.6646" r="19.1388" fill="#FDFDFD" stroke="#DDDDDD" stroke-width="1.5"/>
<path d="M30.2611 21.1499C30.2611 20.2506 30.1881 19.5943 30.0302 18.9138H19.7614V22.9727H25.7889C25.6675 23.9814 25.0112 25.5005 23.5529 26.5212L23.5325 26.6571L26.7793 29.1724L27.0042 29.1948C29.0701 27.2869 30.2611 24.4796 30.2611 21.1499Z" fill="#4285F4"/>
<path d="M19.7614 31.8439C22.7144 31.8439 25.1934 30.8717 27.0042 29.1947L23.5529 26.5211C22.6293 27.1652 21.3897 27.6148 19.7614 27.6148C16.8691 27.6148 14.4143 25.7069 13.5392 23.0698L13.411 23.0807L10.0349 25.6935L9.99072 25.8162C11.7893 29.389 15.4836 31.8439 19.7614 31.8439Z" fill="#34A853"/>
<path d="M13.5392 23.0699C13.3083 22.3893 13.1747 21.6601 13.1747 20.9067C13.1747 20.1532 13.3083 19.4241 13.5271 18.7435L13.521 18.5986L10.1026 15.9438L9.99071 15.997C9.24944 17.4797 8.8241 19.1446 8.8241 20.9067C8.8241 22.6688 9.24944 24.3336 9.99071 25.8163L13.5392 23.0699Z" fill="#FBBC05"/>
<path d="M19.7614 14.1985C21.8151 14.1985 23.2004 15.0856 23.9904 15.827L27.0771 12.8132C25.1814 11.0511 22.7144 9.96948 19.7614 9.96948C15.4836 9.96948 11.7893 12.4243 9.99072 15.9971L13.5271 18.7436C14.4143 16.1065 16.8691 14.1985 19.7614 14.1985Z" fill="#EB4335"/>
</svg>
