<svg width="41" height="41" viewBox="0 0 41 41" fill="none" xmlns="http://www.w3.org/2000/svg">
<circle cx="20.2182" cy="20.6646" r="19.8888" fill="#FFDC00"/>
<path fill-rule="evenodd" clip-rule="evenodd" d="M20.616 28.166C26.1081 28.166 30.5604 25.3246 30.5604 19.6419C30.5604 13.9593 26.1081 11.1179 20.616 11.1179C15.1239 11.1179 10.6716 13.9593 10.6716 19.6419C10.6716 22.7106 11.9701 24.951 14.03 26.3617L14.1578 29.4318C14.1704 29.732 14.265 30.023 14.4314 30.2731C14.5978 30.5233 14.8295 30.7231 15.1014 30.8508C15.3734 30.9785 15.6751 31.0292 15.9739 30.9975C16.2726 30.9657 16.5569 30.8526 16.7959 30.6706L20.0946 28.156C20.268 28.1627 20.4417 28.166 20.616 28.166Z" fill="#2E2403"/>
</svg>
