<svg width="26" height="26" viewBox="0 0 26 26" fill="none" xmlns="http://www.w3.org/2000/svg">
<path d="M8.4817 24.5142V17.083L8.48542 16.9492C8.51981 16.2854 8.7987 15.6809 9.323 15.1999C9.88434 14.6848 10.5975 14.4316 11.375 14.4316V15.6001C10.9146 15.6001 10.5288 15.7425 10.2179 16.0278C9.90697 16.313 9.75111 16.6657 9.75 17.0856V24.5142L9.74814 24.5924C9.72987 24.979 9.57456 25.3061 9.28213 25.5735L9.22268 25.6254C8.92154 25.8761 8.55563 26.0009 8.125 26H3.25V24.8315H8.12809C8.26839 24.8317 8.32653 24.8008 8.3885 24.7442C8.45016 24.6878 8.4817 24.6374 8.4817 24.5142ZM16.25 17.0856C16.25 16.691 16.113 16.3564 15.8388 16.082L15.7821 16.0278C15.4701 15.7435 15.0843 15.6011 14.625 15.6001H11.375V14.4316H14.6281C15.4029 14.4333 16.1132 14.6861 16.6739 15.197C17.2376 15.7107 17.5183 16.3669 17.5183 17.0856V24.5114L17.5198 24.5547C17.527 24.6481 17.5584 24.694 17.613 24.7442C17.6735 24.7996 17.7317 24.8315 17.875 24.8315V26L17.7895 25.9983C17.3667 25.9816 17.0093 25.8395 16.7179 25.5721C16.407 25.2868 16.2511 24.9341 16.25 24.5142V17.0856ZM24.7317 23.0284V9.65471C24.7324 9.36853 24.6643 9.10404 24.5233 8.84678C24.3816 8.58821 24.1939 8.38596 23.9536 8.22485L23.9483 8.22114L23.9427 8.21743L14.1927 1.53171L14.189 1.52914L14.185 1.52629C13.8425 1.28774 13.4627 1.16854 13 1.16854C12.5373 1.16854 12.1575 1.28775 11.815 1.52629L11.811 1.52914L11.8073 1.53171L2.05726 8.21743L2.0523 8.22057L2.04766 8.22399C1.80813 8.38502 1.62038 8.58746 1.47823 8.84678C1.3368 9.10478 1.26829 9.37026 1.26829 9.65728V23.027L1.27046 23.1206C1.2924 23.5814 1.47509 23.9568 1.84887 24.2985C2.24784 24.6633 2.69186 24.8315 3.25 24.8315V26L3.08403 25.9966C2.31606 25.9648 1.64686 25.7104 1.07631 25.2334L0.955554 25.1279C0.319638 24.5465 0.00108333 23.8466 0 23.0284V9.65728C0 9.21621 0.101262 8.7967 0.304068 8.39916L0.346179 8.32014C0.576916 7.89921 0.894743 7.55235 1.29988 7.27998L11.0499 0.594255C11.6186 0.198064 12.2687 0 13 0L13.1362 0.0022823C13.8122 0.0255106 14.4169 0.222842 14.9501 0.594255L24.7001 7.27998C25.1063 7.55235 25.4246 7.89921 25.6554 8.32014C25.8861 8.74107 26.0011 9.18683 26 9.65728V23.0284L25.9963 23.1805C25.9589 23.9328 25.6416 24.5819 25.0444 25.1279C24.4074 25.7103 23.6426 26.001 22.75 26H17.875V24.8315H22.7515C23.307 24.8321 23.7507 24.6646 24.1511 24.2985C24.5514 23.9326 24.7317 23.53 24.7317 23.0284Z" fill="#8C8C8C"/>
</svg>
