<svg width="26" height="34" viewBox="0 0 26 34" fill="none" xmlns="http://www.w3.org/2000/svg">
<path d="M19.4059 8.08234C19.4059 4.63581 16.6882 1.87351 13.3744 1.87351C10.0606 1.87351 7.34299 4.63581 7.34299 8.08234C7.34299 11.5289 10.0606 14.2912 13.3744 14.2912C16.6882 14.2912 19.4059 11.5289 19.4059 8.08234ZM20.825 8.08234C20.825 12.2777 17.5065 15.7103 13.3744 15.7103C9.24231 15.7103 5.92383 12.2777 5.92383 8.08234C5.92383 3.887 9.24231 0.454346 13.3744 0.454346C17.5065 0.454346 20.825 3.887 20.825 8.08234Z" fill="#DDDDDD"/>
<path d="M24.3727 29.3659C24.3727 23.1771 19.43 18.1939 13.3742 18.1939C7.31841 18.1939 2.37571 23.1771 2.3757 29.3659C2.3757 30.984 2.71221 31.5382 2.91239 31.7292C3.09745 31.9059 3.48876 32.0804 4.50583 32.0175C5.51933 31.9548 6.72232 31.6957 8.28726 31.4119C9.79266 31.1388 11.5281 30.8675 13.3742 30.8675C15.2203 30.8676 16.9554 31.1388 18.4608 31.4119C20.0258 31.6957 21.2291 31.9548 22.2426 32.0175C23.2596 32.0804 23.651 31.9059 23.836 31.7292C24.0362 31.5381 24.3727 30.9839 24.3727 29.3659ZM25.7877 29.684C25.6204 36.0914 20.2981 32.408 13.6947 32.2895L13.3742 32.2867C6.51612 32.2867 0.956543 36.3199 0.956543 29.3659C0.956546 22.412 6.51612 16.7747 13.3742 16.7747L13.6947 16.7789C20.4047 16.9513 25.7919 22.5207 25.7919 29.3659L25.7877 29.684Z" fill="#DDDDDD"/>
</svg>
