<svg width="22" height="29" viewBox="0 0 22 29" fill="none" xmlns="http://www.w3.org/2000/svg">
<path d="M15.9852 6.60938C15.9852 3.62309 13.6304 1.22965 10.7591 1.22965C7.88785 1.22965 5.53312 3.62309 5.53312 6.60938C5.53312 9.59568 7.88785 11.9891 10.7591 11.9891C13.6304 11.9891 15.9852 9.59568 15.9852 6.60938ZM17.2148 6.60938C17.2148 10.2445 14.3395 13.2188 10.7591 13.2188C7.17882 13.2188 4.30347 10.2445 4.30347 6.60938C4.30347 2.97427 7.17882 0 10.7591 0C14.3395 0 17.2148 2.97427 17.2148 6.60938Z" fill="#8C8C8C"/>
<path d="M20.2893 25.0509C20.2893 19.6886 16.0066 15.3708 10.7595 15.3708C5.51233 15.3708 1.22966 19.6886 1.22965 25.0509C1.22965 26.4529 1.52122 26.9331 1.69468 27.0987C1.85502 27.2517 2.19407 27.403 3.07533 27.3484C3.95349 27.2941 4.99584 27.0696 6.35181 26.8237C7.65618 26.5871 9.15987 26.352 10.7595 26.352C12.359 26.352 13.8625 26.5871 15.1668 26.8237C16.5229 27.0696 17.5654 27.2941 18.4436 27.3484C19.3248 27.403 19.6639 27.2517 19.8243 27.0987C19.9977 26.9331 20.2893 26.4528 20.2893 25.0509ZM21.5153 25.3265C21.3703 30.8784 16.7588 27.6868 11.0372 27.5841L10.7595 27.5817C4.81718 27.5817 0 31.0763 0 25.0509C2.69547e-06 19.0256 4.81718 14.1411 10.7595 14.1411L11.0372 14.1447C16.8511 14.2941 21.5189 19.1198 21.5189 25.0509L21.5153 25.3265Z" fill="#8C8C8C"/>
</svg>
