<svg width="30" height="30" viewBox="0 0 30 30" fill="none" xmlns="http://www.w3.org/2000/svg">
<path d="M14.4133 8.7087H21.1933M14.4133 14.8752H21.1933M14.4133 21.0417H21.1933M8.97433 9.6342C9.21979 9.6342 9.45519 9.5367 9.62876 9.36313C9.80232 9.18957 9.89983 8.95416 9.89983 8.7087C9.89983 8.46325 9.80232 8.22784 9.62876 8.05428C9.45519 7.88071 9.21979 7.7832 8.97433 7.7832C8.72887 7.7832 8.49347 7.88071 8.3199 8.05428C8.14634 8.22784 8.04883 8.46325 8.04883 8.7087C8.04883 8.95416 8.14634 9.18957 8.3199 9.36313C8.49347 9.5367 8.72887 9.6342 8.97433 9.6342ZM8.97433 15.8007C9.21979 15.8007 9.45519 15.7032 9.62876 15.5296C9.80232 15.3561 9.89983 15.1207 9.89983 14.8752C9.89983 14.6297 9.80232 14.3943 9.62876 14.2208C9.45519 14.0472 9.21979 13.9497 8.97433 13.9497C8.72887 13.9497 8.49347 14.0472 8.3199 14.2208C8.14634 14.3943 8.04883 14.6297 8.04883 14.8752C8.04883 15.1207 8.14634 15.3561 8.3199 15.5296C8.49347 15.7032 8.72887 15.8007 8.97433 15.8007ZM8.97433 21.9672C9.21979 21.9672 9.45519 21.8697 9.62876 21.6961C9.80232 21.5226 9.89983 21.2872 9.89983 21.0417C9.89983 20.7962 9.80232 20.5608 9.62876 20.3873C9.45519 20.2137 9.21979 20.1162 8.97433 20.1162C8.72887 20.1162 8.49347 20.2137 8.3199 20.3873C8.14634 20.5608 8.04883 20.7962 8.04883 21.0417C8.04883 21.2872 8.14634 21.5226 8.3199 21.6961C8.49347 21.8697 8.72887 21.9672 8.97433 21.9672Z" stroke="#8C8C8C" stroke-linecap="round" stroke-linejoin="round"/>
<path d="M19.75 1H10C5.02944 1 1 5.02944 1 10V19.75C1 24.7206 5.02944 28.75 10 28.75H19.75C24.7206 28.75 28.75 24.7206 28.75 19.75V10C28.75 5.02944 24.7206 1 19.75 1Z" stroke="#8C8C8C" stroke-width="1.2"/>
</svg>
