<svg width="26" height="28" viewBox="0 0 26 28" fill="none" xmlns="http://www.w3.org/2000/svg">
<path d="M23.6445 26.7554V27.9999H1.86667V26.7554H23.6445ZM24.2667 26.1332V4.35544C24.2667 4.01179 23.9881 3.73321 23.6445 3.73321H1.86667C1.52302 3.73321 1.24444 4.01179 1.24444 4.35544V26.1332C1.24444 26.4769 1.52302 26.7554 1.86667 26.7554V27.9999L1.77066 27.9975C0.784345 27.9475 0 27.132 0 26.1332V4.35544C0 3.3567 0.784345 2.54117 1.77066 2.4912L1.86667 2.48877H23.6445C24.6754 2.48877 25.5111 3.3245 25.5111 4.35544V26.1332C25.5111 27.1642 24.6754 27.9999 23.6445 27.9999V26.7554C23.9881 26.7554 24.2667 26.4769 24.2667 26.1332Z" fill="#8C8C8C"/>
<path d="M6.2229 6.22222L6.2229 0.622222C6.2229 0.278578 6.50148 -1.04375e-08 6.84512 -2.33128e-08C7.18877 -3.6188e-08 7.46735 0.278578 7.46735 0.622222L7.46735 6.22222C7.46735 6.56587 7.18877 6.84445 6.84512 6.84445C6.50148 6.84445 6.2229 6.56587 6.2229 6.22222Z" fill="#8C8C8C"/>
<path d="M18.0452 6.22222L18.0452 0.622222C18.0452 0.278578 18.3237 -1.04375e-08 18.6674 -2.33128e-08C19.011 -3.6188e-08 19.2896 0.278578 19.2896 0.622222L19.2896 6.22222C19.2896 6.56587 19.011 6.84445 18.6674 6.84445C18.3237 6.84445 18.0452 6.56587 18.0452 6.22222Z" fill="#8C8C8C"/>
<path d="M18.0451 13.9033C18.0451 12.5348 17.0087 11.5111 15.6963 11.511C14.9413 11.511 14.1917 11.8733 13.7054 12.4468L12.7562 13.5661L11.8071 12.4468C11.3207 11.8733 10.5712 11.511 9.81617 11.511C8.50378 11.5111 7.46735 12.5348 7.46735 13.9033C7.46735 14.7454 7.83186 15.6076 8.72242 16.7103C9.62709 17.8304 10.9438 19.0441 12.6502 20.6101L12.652 20.612L12.7562 20.708L12.8604 20.612L12.8623 20.6101C14.5687 19.0441 15.8854 17.8304 16.79 16.7103C17.6806 15.6076 18.0451 14.7454 18.0451 13.9033ZM19.2881 14.0197C19.2201 16.4601 17.0157 18.4874 13.7035 21.5271L12.7562 22.3999L11.8089 21.5271C8.49678 18.4874 6.29241 16.4601 6.22442 14.0197L6.2229 13.9033C6.2229 11.8602 7.80394 10.2666 9.81617 10.2666C10.953 10.2666 12.0441 10.8022 12.7562 11.642C13.4684 10.8022 14.5595 10.2666 15.6963 10.2666L15.8835 10.2712C17.8057 10.3665 19.2896 11.924 19.2896 13.9033L19.2881 14.0197Z" fill="#8C8C8C"/>
</svg>
