<svg width="29" height="33" viewBox="0 0 29 33" fill="none" xmlns="http://www.w3.org/2000/svg">
<path d="M9.46036 30.6713V21.5253L9.46451 21.3606C9.50286 20.5435 9.81394 19.7996 10.3987 19.2075C11.0248 18.5736 11.8203 18.2619 12.6875 18.2619V19.7001C12.174 19.7001 11.7436 19.8754 11.3969 20.2265C11.0501 20.5775 10.8762 21.0116 10.875 21.5284V30.6713L10.8729 30.7676C10.8525 31.2434 10.6793 31.6459 10.3531 31.9751L10.2868 32.039C9.95095 32.3475 9.54282 32.5011 9.0625 32.5H3.625V31.0618H9.06595C9.22244 31.0621 9.28729 31.0241 9.35641 30.9543C9.42518 30.885 9.46036 30.823 9.46036 30.6713ZM18.125 21.5284C18.125 21.0428 17.9721 20.631 17.6663 20.2932L17.6031 20.2265C17.2551 19.8766 16.8248 19.7014 16.3125 19.7001H12.6875V18.2619H16.3159C17.1802 18.264 17.9724 18.5752 18.5978 19.204C19.2266 19.8362 19.5396 20.6439 19.5396 21.5284V30.6678L19.5414 30.7212C19.5494 30.8361 19.5843 30.8926 19.6453 30.9543C19.7127 31.0226 19.7777 31.0618 19.9375 31.0618V32.5L19.8422 32.4979C19.3705 32.4773 18.972 32.3025 18.6468 31.9733C18.3001 31.6222 18.1262 31.1882 18.125 30.6713V21.5284ZM27.5854 28.8427V12.3827C27.5861 12.0305 27.5102 11.705 27.3529 11.3883C27.1948 11.0701 26.9855 10.8212 26.7174 10.6229L26.7116 10.6183L26.7054 10.6138L15.8304 2.38518L15.8262 2.38202L15.8217 2.37851C15.4397 2.08492 15.0161 1.9382 14.5 1.9382C13.9839 1.9382 13.5603 2.08492 13.1783 2.37851L13.1738 2.38202L13.1696 2.38518L2.29464 10.6138L2.28911 10.6176L2.28393 10.6218C2.01676 10.82 1.80735 11.0692 1.64879 11.3883C1.49105 11.7059 1.41463 12.0326 1.41463 12.3859V28.8409L1.41705 28.9561C1.44152 29.5233 1.64529 29.9853 2.0622 30.4059C2.50721 30.8548 3.00246 31.0618 3.625 31.0618V32.5L3.43988 32.4958C2.5833 32.4567 1.83689 32.1435 1.2005 31.5565L1.06581 31.4266C0.356519 30.711 0.00120833 29.8496 0 28.8427V12.3859C0 11.843 0.112946 11.3267 0.339153 10.8374L0.386123 10.7402C0.643483 10.2221 0.997982 9.7952 1.44986 9.45997L12.3249 1.23139C12.9592 0.743771 13.6844 0.5 14.5 0.5L14.652 0.502809C15.4059 0.531398 16.0804 0.774267 16.6751 1.23139L27.5501 9.45997C28.0032 9.7952 28.3582 10.2221 28.6156 10.7402C28.8729 11.2582 29.0012 11.8069 29 12.3859V28.8427L28.9958 29.0298C28.9542 29.9557 28.6002 30.7546 27.9342 31.4266C27.2237 32.1434 26.3706 32.5012 25.375 32.5H19.9375V31.0618H25.3767C25.9962 31.0625 26.4911 30.8565 26.9378 30.4059C27.3842 29.9555 27.5854 29.46 27.5854 28.8427Z" fill="#DDDDDD"/>
</svg>
