<svg width="32" height="31" viewBox="0 0 32 31" fill="none" xmlns="http://www.w3.org/2000/svg">
<path d="M0.000244141 28.4595V9.9851C0.000244141 8.58214 1.13757 7.44482 2.54052 7.44482H13.1364C13.4871 7.44482 13.7714 7.72915 13.7714 8.07989C13.7714 8.43063 13.4871 8.71496 13.1364 8.71496H2.54052C1.83904 8.71496 1.27038 9.28362 1.27038 9.9851V28.4595C1.27047 29.1609 1.83909 29.7296 2.54052 29.7296H21.0149C21.7163 29.7295 22.285 29.1608 22.285 28.4595V20.0374C22.2851 19.6867 22.5694 19.4023 22.9201 19.4023C23.2707 19.4024 23.5551 19.6867 23.5552 20.0374V28.4595C23.5551 29.8623 22.4177 30.9997 21.0149 30.9998H2.54052C1.13761 30.9998 0.000326621 29.8624 0.000244141 28.4595Z" fill="#8C8C8C"/>
<path d="M24.0638 0.465168C24.3863 0.372853 24.7251 0.354416 25.0545 0.410902L25.195 0.43974L25.2167 0.445322C26.6894 0.851905 28.0247 1.64854 29.0814 2.75086C30.1803 3.81292 30.9712 5.15224 31.3702 6.62701C31.3718 6.63305 31.3734 6.63923 31.3748 6.64531C31.464 7.01818 31.4554 7.4077 31.3497 7.77622C31.2444 8.14344 31.0459 8.47705 30.7742 8.74557L30.7745 8.74588L15.8823 23.6046L15.8805 23.6064C15.535 23.9483 15.0872 24.168 14.6054 24.2319L14.605 24.2316L9.35022 24.9975C9.00299 25.0481 8.64868 25.0162 8.31606 24.9045C7.98342 24.7927 7.6819 24.6041 7.4357 24.3541C7.18952 24.1041 7.00566 23.7997 6.89924 23.4653C6.79283 23.131 6.76679 22.7762 6.82327 22.4299C6.82341 22.4291 6.82375 22.4283 6.82389 22.4275L7.5892 17.1838C7.65553 16.7067 7.87437 16.2618 8.21683 15.918L23.0935 1.03946C23.3623 0.768048 23.6965 0.570314 24.0638 0.465168ZM9.11641 16.8139L9.11672 16.8142C8.96993 16.9615 8.87523 17.1537 8.84694 17.3615C8.84667 17.3634 8.8466 17.3654 8.84631 17.3674L8.07853 22.6253C8.07808 22.6283 8.07715 22.6313 8.07667 22.6343C8.05235 22.7833 8.06372 22.9363 8.10954 23.0802C8.15534 23.2241 8.23449 23.3551 8.34055 23.4629C8.44668 23.5706 8.57683 23.6521 8.72042 23.7004C8.86405 23.7486 9.01728 23.7626 9.16726 23.7407L14.4301 22.9738L14.4382 22.9726C14.6457 22.9451 14.8386 22.8504 14.9871 22.7034L26.618 11.0982L20.721 5.20834L9.11641 16.8139ZM24.8911 1.6736C24.7333 1.6376 24.5689 1.64175 24.4133 1.68631C24.2546 1.73174 24.1104 1.81712 23.9946 1.93439L23.9918 1.93749L21.619 4.31031L27.5173 10.2011L29.8774 7.84661L29.8805 7.84351C29.9979 7.72789 30.0835 7.58394 30.1289 7.42581C30.1735 7.27011 30.1777 7.10569 30.1413 6.94796C29.8001 5.69465 29.1257 4.5568 28.1893 3.65509C28.183 3.64902 28.1767 3.6428 28.1707 3.63648C27.2744 2.69913 26.1413 2.02118 24.8911 1.6736Z" fill="#8C8C8C"/>
</svg>
