<svg width="36" height="35" viewBox="0 0 36 35" fill="none" xmlns="http://www.w3.org/2000/svg">
<path d="M0.306641 31.4748V10.8328C0.306641 9.26527 1.5774 7.99451 3.14496 7.99451H14.984C15.3759 7.99451 15.6936 8.3122 15.6936 8.70409C15.6936 9.09598 15.3759 9.41367 14.984 9.41367H3.14496C2.36118 9.41367 1.7258 10.049 1.7258 10.8328V31.4748C1.72589 32.2585 2.36124 32.8939 3.14496 32.8939H23.7869C24.5706 32.8938 25.206 32.2584 25.2061 31.4748V22.0645C25.2062 21.6727 25.5238 21.3549 25.9157 21.3549C26.3074 21.355 26.6251 21.6727 26.6252 22.0645V31.4748C26.6251 33.0422 25.3543 34.313 23.7869 34.3131H3.14496C1.57746 34.3131 0.306733 33.0423 0.306641 31.4748Z" fill="#DDDDDD"/>
<path d="M27.1938 0.195931C27.5542 0.0927844 27.9326 0.0721851 28.3008 0.135298L28.4577 0.16752L28.482 0.173756C30.1274 0.628044 31.6195 1.51814 32.8001 2.7498C34.0279 3.93647 34.9116 5.43293 35.3574 7.08074C35.3592 7.08748 35.361 7.09439 35.3626 7.10118C35.4622 7.5178 35.4527 7.95302 35.3345 8.36477C35.2168 8.77508 34.9951 9.14784 34.6915 9.44785L34.6918 9.4482L18.0524 26.0502L18.0503 26.0523C17.6643 26.4343 17.1639 26.6797 16.6256 26.7512L16.6252 26.7508L10.7539 27.6066C10.3659 27.6631 9.97002 27.6275 9.59837 27.5027C9.22671 27.3778 8.88981 27.167 8.61473 26.8877C8.33966 26.6083 8.13424 26.2682 8.01533 25.8947C7.89643 25.5211 7.86733 25.1247 7.93044 24.7378C7.9306 24.7369 7.93098 24.736 7.93114 24.735L8.78624 18.8761C8.86035 18.3431 9.10486 17.846 9.4875 17.4618L26.1096 0.837603C26.41 0.534347 26.7833 0.313413 27.1938 0.195931ZM10.4926 18.4628L10.493 18.4631C10.329 18.6278 10.2232 18.8425 10.1915 19.0747C10.1912 19.0768 10.1912 19.0791 10.1908 19.0812L9.33298 24.9561C9.33248 24.9595 9.33144 24.9628 9.3309 24.9661C9.30373 25.1327 9.31643 25.3035 9.36762 25.4644C9.4188 25.6251 9.50724 25.7715 9.62575 25.8919C9.74432 26.0123 9.88974 26.1034 10.0502 26.1573C10.2107 26.2112 10.3819 26.2268 10.5494 26.2023L16.4298 25.3455L16.4388 25.3441C16.6707 25.3134 16.8861 25.2076 17.0521 25.0434L30.0477 12.0766L23.4588 5.49561L10.4926 18.4628ZM28.1182 1.54614C27.9419 1.50593 27.7582 1.51056 27.5842 1.56035C27.407 1.61111 27.2458 1.70651 27.1165 1.83753L27.1134 1.84099L24.4622 4.49222L31.0525 11.0742L33.6895 8.44342L33.6929 8.43996C33.8241 8.31077 33.9198 8.14994 33.9705 7.97326C34.0203 7.79929 34.025 7.61558 33.9843 7.43934C33.6031 6.03899 32.8495 4.76763 31.8033 3.76012C31.7962 3.75334 31.7892 3.74639 31.7825 3.73933C30.7811 2.692 29.5151 1.93451 28.1182 1.54614Z" fill="#DDDDDD"/>
</svg>
