<svg width="30" height="33" viewBox="0 0 30 33" fill="none" xmlns="http://www.w3.org/2000/svg">
<path d="M26.9641 31.0307V32.4499H2.12874V31.0307H26.9641ZM27.6737 30.3211V5.4858C27.6737 5.09391 27.356 4.77622 26.9641 4.77622H2.12874C1.73685 4.77622 1.41916 5.09391 1.41916 5.4858V30.3211C1.41916 30.713 1.73685 31.0307 2.12874 31.0307V32.4499L2.01926 32.4471C0.894466 32.3901 0 31.4601 0 30.3211V5.4858C0 4.34685 0.894466 3.41681 2.01926 3.35983L2.12874 3.35706H26.9641C28.1397 3.35706 29.0928 4.31013 29.0928 5.4858V30.3211C29.0928 31.4968 28.1397 32.4499 26.9641 32.4499V31.0307C27.356 31.0307 27.6737 30.713 27.6737 30.3211Z" fill="#DDDDDD"/>
<path d="M7.0957 7.61455L7.0957 1.22832C7.0957 0.836428 7.41339 0.518738 7.80528 0.518738C8.19717 0.518738 8.51486 0.836428 8.51486 1.22832L8.51487 7.61455C8.51487 8.00644 8.19718 8.32413 7.80528 8.32413C7.41339 8.32413 7.0957 8.00644 7.0957 7.61455Z" fill="#DDDDDD"/>
<path d="M20.5776 7.61455L20.5776 1.22832C20.5776 0.836428 20.8953 0.518738 21.2872 0.518738C21.6791 0.518738 21.9968 0.836428 21.9968 1.22832L21.9968 7.61455C21.9968 8.00644 21.6791 8.32413 21.2872 8.32413C20.8953 8.32413 20.5776 8.00644 20.5776 7.61455Z" fill="#DDDDDD"/>
<path d="M20.5777 16.3741C20.5777 14.8135 19.3958 13.646 17.8991 13.646C17.0381 13.646 16.1833 14.0591 15.6287 14.7131L14.5463 15.9895L13.4639 14.7131C12.9093 14.0591 12.0545 13.646 11.1935 13.646C9.69681 13.646 8.51486 14.8135 8.51486 16.3741C8.51487 17.3345 8.93056 18.3177 9.94615 19.5752C10.9778 20.8526 12.4794 22.2366 14.4254 24.0225L14.4275 24.0246L14.5463 24.1341L14.6651 24.0246L14.6672 24.0225C16.6132 22.2366 18.1148 20.8526 19.1465 19.5752C20.162 18.3177 20.5777 17.3345 20.5777 16.3741ZM21.9952 16.5068C21.9176 19.2899 19.4038 21.6018 15.6266 25.0682L14.5463 26.0636L13.466 25.0682C9.68883 21.6018 7.17497 19.2899 7.09744 16.5068L7.0957 16.3741C7.0957 14.0441 8.89871 12.2268 11.1935 12.2268C12.4899 12.2268 13.7342 12.8377 14.5463 13.7953C15.3584 12.8377 16.6027 12.2268 17.8991 12.2268L18.1126 12.232C20.3047 12.3407 21.9969 14.1169 21.9969 16.3741L21.9952 16.5068Z" fill="#DDDDDD"/>
</svg>
